<svg width="376" height="330" viewBox="0 0 376 330" fill="none" xmlns="http://www.w3.org/2000/svg">
<path fill-rule="evenodd" clip-rule="evenodd" d="M372 0C374.209 0 376 1.79086 376 4V326C376 328.209 374.209 330 372 330H218.819C218.696 330 218.596 329.9 218.596 329.776V304.405C218.596 287.508 204.897 273.81 188 273.81C171.103 273.81 157.404 287.508 157.404 304.405V329.776C157.404 329.9 157.304 330 157.181 330H4C1.79086 330 0 328.209 0 326V4C0 1.79086 1.79086 0 4 0H372ZM188 135C171.431 135 158 148.431 158 165C158 181.569 171.431 195 188 195C204.569 195 218 181.569 218 165C218 148.431 204.569 135 188 135Z" fill="currentColor"/>
</svg>
