<svg width="376" height="330" viewBox="0 0 376 330" fill="none" xmlns="http://www.w3.org/2000/svg">
<path fill-rule="evenodd" clip-rule="evenodd" d="M372 0C374.209 2.75532e-06 376 1.79087 376 4V134.603C376 136.541 373.959 138.113 371.442 138.113H342.011C327.264 138.113 315.309 150.068 315.309 164.815C315.309 179.563 327.263 191.518 342.011 191.518H371.442C373.959 191.518 376 193.09 376 195.028V326C376 328.209 374.209 330 372 330H4.55762C2.04054 330 0 328.428 0 326.489V3.51074C3.52426e-07 1.57187 2.04054 0 4.55762 0H372ZM188 211.192C171.431 211.192 158 224.624 158 241.192C158 257.761 171.432 271.192 188 271.192C204.568 271.192 218 257.761 218 241.192C218 224.624 204.569 211.192 188 211.192ZM188 58.0527C171.431 58.0527 158 71.4842 158 88.0527C158 104.621 171.431 118.053 188 118.053C204.569 118.053 218 104.621 218 88.0527C218 71.4842 204.569 58.0527 188 58.0527Z" fill="currentColor"/>
</svg>
