<svg width="376" height="330" viewBox="0 0 376 330" fill="none" xmlns="http://www.w3.org/2000/svg">
<path d="M-1.42499e-05 326L-1.74846e-07 4C-7.8281e-08 1.79086 1.79086 7.8281e-08 4 1.74846e-07L372 1.62606e-05C374.209 1.63572e-05 376 1.79088 376 4.00002L376 137.245C376 137.744 375.596 138.148 375.098 138.148L176.588 138.148C161.758 138.148 149.736 150.17 149.736 165C149.736 179.83 161.758 191.852 176.588 191.852L375.098 191.852C375.596 191.852 376 192.256 376 192.755L376 326C376 328.209 374.209 330 372 330L3.99999 330C1.79085 330 -1.43465e-05 328.209 -1.42499e-05 326Z" fill="currentColor"/>
</svg>



