<svg width="376" height="330" viewBox="0 0 376 330" fill="none" xmlns="http://www.w3.org/2000/svg">
<path d="M-1.42499e-05 326L-1.74846e-07 4C-7.8281e-08 1.79086 1.79086 7.8281e-08 4 1.74846e-07L372 1.62606e-05C374.209 1.63572e-05 376 1.79088 376 4.00002L376 117.724C376 118.058 375.729 118.33 375.394 118.33L250.856 118.33C236.026 118.33 224.003 130.352 224.003 145.182C224.003 160.012 236.026 172.035 250.856 172.035L374.792 172.035C375.459 172.035 376 172.575 376 173.242L376 276.187C376 277.292 375.105 278.187 374 278.187L273.804 278.187C246.3 278.187 224.003 300.484 224.003 327.988C224.003 329.099 223.102 330 221.991 330L3.99999 330C1.79085 330 -1.43465e-05 328.209 -1.42499e-05 326Z" fill="currentColor"/>
</svg>




