<svg width="376" height="330" viewBox="0 0 376 330" fill="none" xmlns="http://www.w3.org/2000/svg">
<path d="M-1.42499e-05 326L-1.74846e-07 4C-7.8281e-08 1.79086 1.79086 7.8281e-08 4 1.74846e-07L372 1.62606e-05C374.209 1.63572e-05 376 1.79088 376 4.00002L376 137.245C376 137.744 375.596 138.148 375.098 138.148L184.132 138.148C165.135 138.148 149.736 153.547 149.736 172.544C149.736 191.54 165.135 206.94 184.132 206.94L251.891 206.94C251.975 206.94 252.056 206.914 252.125 206.866L307.556 168.305C308.226 167.838 309.024 167.588 309.84 167.588L372 167.588C374.209 167.588 376 169.379 376 171.588L376 326C376 328.209 374.209 330 372 330L3.99999 330C1.79085 330 -1.43465e-05 328.209 -1.42499e-05 326Z" fill="currentColor"/>
</svg>



