<svg width="376" height="330" viewBox="0 0 376 330" fill="none" xmlns="http://www.w3.org/2000/svg">
<path d="M342.01 191.518C327.26 191.518 315.31 179.563 315.31 164.816C315.31 150.068 327.26 138.113 342.01 138.113H371.44C373.96 138.113 376 136.542 376 134.603V3.51064C376 1.57177 373.96 0 371.44 0H4.56C2.04 0 0 1.57177 0 3.51064V134.603C0 136.542 2.04 138.113 4.56 138.113H33.77C48.52 138.113 60.47 150.068 60.47 164.816C60.47 179.563 48.52 191.518 33.77 191.518H4.56C2.04 191.518 0 193.09 0 195.028V326.489C0 328.428 2.04 330 4.56 330H371.44C373.96 330 376 328.428 376 326.489V195.029C376 193.09 373.96 191.518 371.44 191.518H342.01Z" fill="currentColor"/>
</svg>

