<svg width="376" height="330" viewBox="0 0 376 330" fill="none" xmlns="http://www.w3.org/2000/svg">
<path d="M342.011 191.518C327.263 191.518 315.308 179.563 315.308 164.816C315.308 150.068 327.263 138.113 342.011 138.113H371.442C373.959 138.113 376 136.542 376 134.603V3.51064C376 1.57176 373.959 0 371.442 0H224.151C221.593 0 219.519 2.0735 219.519 4.6313V30.9332C219.519 48.0598 205.635 61.9436 188.509 61.9436C171.382 61.9436 157.498 48.0598 157.498 30.9332V4.6313C157.498 2.0735 155.425 0 152.867 0H4.5576C2.04052 0 0 1.57177 0 3.51064V134.603C0 167.713 0 193.307 0 195.028V326.489C0 328.428 2.04052 330 4.5576 330H152.826C155.407 330 157.498 327.908 157.498 325.328V298.524C157.498 281.398 171.382 267.514 188.509 267.514C205.635 267.514 219.519 281.398 219.519 298.524V325.328C219.519 327.908 221.611 330 224.191 330H371.442C373.959 330 376 328.428 376 326.489V195.028C376 193.09 373.959 191.518 371.442 191.518H342.011Z" fill="currentColor"/>
</svg>

