<svg width="376" height="330" viewBox="0 0 376 330" fill="none" xmlns="http://www.w3.org/2000/svg">
<path d="M158.863 273.931C157.625 273.931 156.621 274.935 156.621 276.173V326C156.621 328.21 154.83 330 152.621 330L4.00017 330C1.79096 330 7.68921e-05 328.209 0.000171741 326L0.0139963 3.99982C0.0140911 1.79075 1.80492 0 4.014 0H159.04C160.236 0 161.206 0.969645 161.206 2.16576C161.206 31.7697 185.204 55.7684 214.808 55.7684H219.379V4C219.379 1.79086 221.17 0 223.379 0H372C374.209 0 376 1.79086 376 4V326C376 328.21 374.209 330 372 330L216.516 330C215.313 330 214.338 329.026 214.338 327.823C214.338 298.059 190.21 273.931 160.447 273.931H158.863Z" fill="currentColor"/>
</svg>

