<svg width="376" height="330" viewBox="0 0 376 330" fill="none" xmlns="http://www.w3.org/2000/svg">
<path fill-rule="evenodd" clip-rule="evenodd" d="M277 0C331.676 -2.38997e-06 376 44.3238 376 99V187.128C376 241.804 331.676 286.128 277 286.128H247.877C243.224 286.128 242.32 292.732 246.803 293.981L347.831 322.146C352.314 323.396 351.41 330 346.757 330H4.12109C1.91196 330 0.121094 328.209 0.121094 326V222.432L0 137.719V37.5537L0.108398 3.9873C0.115509 1.7832 1.90427 9.63457e-08 4.1084 0H277ZM188 135C171.431 135 158 148.431 158 165C158 181.569 171.431 195 188 195C204.569 195 218 181.569 218 165C218 148.431 204.569 135 188 135Z" fill="currentColor"/>
</svg>
