<svg height="100%" viewBox="0 0 1045 165" fill="none" xmlns="http://www.w3.org/2000/svg">
<g id="about">
<g id="nahiyan">
<g id="Frame 54">
<path id="path260" d="M85.5756 164.235C85.1964 164.718 84.6165 165 84.0025 165L4.1131 165C2.44456 165 1.50964 163.077 2.54004 161.765L128.949 0.764909C129.329 0.282004 129.909 0 130.523 0H210.412C212.08 0 213.015 1.92273 211.985 3.2351L85.5756 164.235Z" fill="currentColor"/>
</g>
<path id="a" d="M179.868 164.304C179.488 164.746 178.935 165 178.352 165L93.1217 165C91.4517 165 90.5172 163.074 91.5507 161.762L206.068 16.4007C206.095 16.3659 206.12 16.3325 206.146 16.2964C206.859 15.2885 218.023 0 238.838 0H259.063H275C276.105 0 277 0.895431 277 2V163C277 164.105 276.105 165 275 165L203.714 165C202.609 165 201.714 164.105 201.714 163V144.281C201.714 142.426 199.407 141.57 198.197 142.978L179.868 164.304Z" fill="currentColor"/>
<path id="b" d="M281 2C281 0.895429 281.895 0 283 0H359.311H390.611H447.372H465C467.209 0 469 1.79086 469 4V59.7289C469 60.6108 468.709 61.4679 468.171 62.167L454.166 80.383C453.046 81.8393 453.062 83.8711 454.205 85.3094L468.132 102.838C468.694 103.546 469 104.423 469 105.326V161C469 163.209 467.209 165 465 165H447.372H388.169H359.311H283C281.895 165 281 164.105 281 163V2Z" fill="currentColor"/>
<path id="o" fill-rule="evenodd" clip-rule="evenodd" d="M661 4C661 1.79086 659.209 0 657 0H477C474.791 0 473 1.79086 473 4V161C473 163.209 474.791 165 477 165H657C659.209 165 661 163.209 661 161V4ZM588.298 68.4131C588.298 66.2039 586.507 64.4131 584.298 64.4131H549.702C547.493 64.4131 545.702 66.2039 545.702 68.4131V97.1923C545.702 99.4014 547.493 101.192 549.702 101.192H584.298C586.507 101.192 588.298 99.4014 588.298 97.1923V68.4131Z" fill="currentColor"/>
<path id="u" fill-rule="evenodd" clip-rule="evenodd" d="M853 4C853 1.79086 851.209 0 849 0H780.298H737.702H669C666.791 0 665 1.79086 665 4V161C665 163.209 666.791 165 669 165H849C851.209 165 853 163.209 853 161V4ZM780.298 0H737.702V97.1923C737.702 99.4014 739.493 101.192 741.702 101.192H776.298C778.507 101.192 780.298 99.4014 780.298 97.1923V0Z" fill="currentColor"/>
<path id="t" d="M889.632 65.9074C889.632 64.8028 888.736 63.9074 887.632 63.9074H859C857.895 63.9074 857 63.0119 857 61.9074L857 2C857 0.89543 857.895 0 859 0H1043C1044.1 0 1045 0.895431 1045 2V61.9074C1045 63.0119 1044.1 63.9074 1043 63.9074H1013.01C1011.91 63.9074 1011.01 64.8028 1011.01 65.9074V163C1011.01 164.105 1010.12 165 1009.01 165H891.632C890.527 165 889.632 164.105 889.632 163V65.9074Z" fill="currentColor"/>
</g>
</g>
</svg>
