<svg width="1920" height="330" viewBox="0 0 1920 331" fill="none" xmlns="http://www.w3.org/2000/svg">
<g id="about">
<path id="a" d="M372 0.0327148H4C1.79086 0.0327148 0 1.82357 0 4.03271V326.033C0 328.242 1.79087 330.033 4 330.033H156.613C157.05 330.033 157.405 329.678 157.405 329.241V162.045C157.405 145.148 171.103 131.45 188 131.45C204.897 131.45 218.595 145.148 218.595 162.045V329.241C218.595 329.678 218.95 330.033 219.387 330.033H372C374.209 330.033 376 328.242 376 326.033V4.03271C376 1.82358 374.209 0.0327148 372 0.0327148Z" fill="currentColor"/>
<path id="b" d="M728.011 191.551C713.263 191.551 701.308 179.596 701.308 164.848C701.308 150.101 713.263 138.146 728.011 138.146H757.442C759.959 138.146 762 136.574 762 134.635V3.54335C762 1.60448 759.959 0.0327148 757.442 0.0327148H390.558C388.041 0.0327148 386 1.60448 386 3.54335L386 134.635C386 182.479 386 191.761 386 195.061V326.522C386 328.461 388.041 330.033 390.558 330.033H757.442C759.959 330.033 762 328.461 762 326.522V195.061C762 193.122 759.959 191.551 757.442 191.551H728.011Z" fill="currentColor"/>
<g id="Frame 59">
<path id="Subtract" d="M1143.44 0C1145.96 0 1148 1.57153 1148 3.51074V326.554C1148 328.493 1145.96 330.065 1143.44 330.065H776.558C774.041 330.065 772 328.493 772 326.554V3.51074C772 1.57153 774.041 0 776.558 0H1143.44Z" fill="currentColor"/>
<path id="Subtract_2" d="M960 135.033C976.569 135.033 990 148.464 990 165.033C990 181.601 976.569 195.033 960 195.033C943.431 195.033 930 181.601 930 165.033C930 148.464 943.431 135.033 960 135.033Z" fill="#383838"/>
</g>
<path id="u" d="M1530 330.033H1162C1159.79 330.033 1158 328.242 1158 326.033V4.03271C1158 1.82358 1159.79 0.0327148 1162 0.0327148H1314.61C1315.05 0.0327148 1315.4 0.387299 1315.4 0.824677V168.02C1315.4 184.918 1329.1 198.616 1346 198.616C1362.9 198.616 1376.6 184.918 1376.6 168.02V0.824677C1376.6 0.387299 1376.95 0.0327148 1377.39 0.0327148H1530C1532.21 0.0327148 1534 1.82358 1534 4.03271V326.033C1534 328.242 1532.21 330.033 1530 330.033Z" fill="currentColor"/>
<path id="t" d="M1615.2 330.033C1612.99 330.033 1611.2 328.242 1611.2 326.033L1611.2 222.465L1611.2 202.337C1611.2 166.667 1582.28 137.751 1546.61 137.751C1545.17 137.751 1544 136.583 1544 135.142L1544 37.5862L1544.11 4.01985C1544.12 1.81575 1545.9 0.0327312 1548.11 0.0327311L1701.79 0.0327244L1762.63 0.0327217L1915.99 0.032715C1918.2 0.0327149 1920 1.82874 1919.99 4.04114L1919.88 57.3323L1920 135.264C1920 136.637 1918.89 137.751 1917.51 137.751C1883.6 137.751 1856.1 165.217 1856.05 199.129L1856.01 224.463L1856.01 326.033C1856.01 328.242 1854.22 330.033 1852.01 330.033L1615.2 330.033Z" fill="currentColor"/>
</g>
</svg>
