<svg height="100%" viewBox="0 0 639 101" fill="none" xmlns="http://www.w3.org/2000/svg">
<g clip-path="url(#clip0_1378_33)">
<path fill-rule="evenodd" clip-rule="evenodd" d="M467.744 0H421V57.891C421 82.1915 437.726 100 476.951 100C516.176 100 532.732 82.1915 532.732 57.7296V35.895H543.545C544.649 35.895 545.545 36.7904 545.545 37.895V100.017H552.35L589.207 57.7746V37.895C589.207 36.7904 590.102 35.895 591.207 35.895H606.259L638.411 0.0172119H532.732V0H486.009V31.4637C486.009 33.0458 486.085 34.6186 486.159 36.1408C486.523 43.6944 486.827 50 477.5 50C467.462 50 467.579 42.6962 467.713 34.3936C467.728 33.4272 467.744 32.4472 467.744 31.4637V0Z" fill="currentColor"/>
<path d="M362.677 0.0172119C385.428 0.0172119 404.908 8.1622 416.131 21.6839V59.1839C416.131 59.1839 416.131 67.5172 418.772 74.6005C417.556 76.6518 417.671 76.5145 416.131 78.3701C404.919 91.8801 385.457 100.017 362.677 100.017C326.7 100.017 299 79.7207 299 50.0172C299 20.3137 326.593 0.0172119 362.677 0.0172119ZM362.677 36.5207C350.753 36.5207 346.711 40.512 346.711 49.9643C346.711 59.4165 350.753 63.4078 362.677 63.4078C374.601 63.4078 378.643 59.4165 378.643 49.9643C378.643 40.512 374.516 36.5207 362.677 36.5207Z" fill="currentColor"/>
<path fill-rule="evenodd" clip-rule="evenodd" d="M187 0.0172119H259.334C283.981 0.0172119 294.674 13.8078 294.674 25.5553C294.674 37.996 285.98 46.3871 274.331 48.4849C287.176 50.1267 297 60.0135 297 72.8921C297 86.8286 285.763 100.017 261.833 100.017H187V0.0172119ZM242.495 36.8681C244.434 36.7883 246.258 36.0764 247.581 34.8838C248.904 33.6912 249.621 32.1119 249.58 30.482C249.58 28.8899 248.839 27.3607 247.516 26.2215C246.192 25.0822 244.39 24.4232 242.495 24.3854H229.732C228.627 24.3854 227.732 25.2809 227.732 26.3854V34.8681C227.732 35.9726 228.627 36.8681 229.732 36.8681H242.495ZM243.572 74.7501C244.653 74.8107 245.737 74.6814 246.755 74.3703C247.773 74.0592 248.703 73.5733 249.485 72.9435C250.267 72.3137 250.884 71.5538 251.297 70.7124C251.71 69.8709 251.91 68.9664 251.884 68.0565C251.896 67.1442 251.688 66.2392 251.272 65.3963C250.856 64.5534 250.241 63.7902 249.464 63.1527C248.687 62.5151 247.765 62.0166 246.752 61.6872C245.739 61.3579 244.657 61.2045 243.572 61.2363H229.732C228.627 61.2363 227.732 62.1317 227.732 63.2363V72.7501C227.732 73.8547 228.627 74.7501 229.732 74.7501H243.572Z" fill="currentColor"/>
<path d="M117.5 100L57 100L135.488 9.9211C135.488 9.9211 142.998 0.0143661 157.423 0.0143661H170.978H183V100L129.5 100V92.1153C129.5 90.2947 127.265 89.4209 126.03 90.7587L117.5 100Z" fill="currentColor"/>
<path d="M51.5 100L0 100L87 2.38419e-06H138.5L70 78.75L51.5 100Z" fill="currentColor"/>
</g>
<defs>
<clipPath id="clip0_1378_33">
<rect width="639" height="101" fill="currentColor"/>
</clipPath>
</defs>
</svg>
