<svg height="100%" viewBox="0 0 620 101" fill="none" xmlns="http://www.w3.org/2000/svg">
<path d="M401.272 0.0172119H446.016V43.4809C446.016 52.9142 446.016 60.4106 457.223 60.4106C468.43 60.4106 468.281 52.9142 468.281 43.4809V0.0172119H513.004V57.7468C513.004 82.2088 496.448 100.017 457.223 100.017C417.998 100.017 401.272 82.2088 401.272 57.9082V0.0172119Z" fill="currentColor"/>
<path d="M526.545 37.895C526.545 36.7904 525.649 35.895 524.545 35.895H494.272V0.0172119H619.411L587.259 35.895H572.207C571.102 35.895 570.207 36.7904 570.207 37.895V57.7746L533.35 100.017H526.545V37.895Z" fill="currentColor"/>
<path d="M343.677 0.0172119C366.428 0.0172119 385.908 8.1622 397.131 21.6839V59.1839C397.131 59.1839 397.131 67.5172 399.772 74.6005C398.556 76.6518 398.671 76.5145 397.131 78.3701C385.919 91.8801 366.457 100.017 343.677 100.017C307.7 100.017 280 79.7207 280 50.0172C280 20.3137 307.593 0.0172119 343.677 0.0172119ZM343.677 36.5207C331.753 36.5207 327.711 40.512 327.711 49.9643C327.711 59.4165 331.753 63.4078 343.677 63.4078C355.601 63.4078 359.643 59.4165 359.643 49.9643C359.643 40.512 355.516 36.5207 343.677 36.5207Z" fill="currentColor"/>
<path fill-rule="evenodd" clip-rule="evenodd" d="M187 0.0172119H247.907C268.66 0.0172119 277.665 13.8078 277.665 25.5553C277.665 37.996 270.344 46.3871 260.535 48.4849C271.351 50.1267 279.623 60.0135 279.623 72.8921C279.623 86.8286 270.161 100.017 250.011 100.017H187V0.0172119ZM233.729 36.8681C235.361 36.7884 236.897 36.0765 238.011 34.8838C239.125 33.6912 239.729 32.112 239.694 30.4821C239.694 28.8899 239.07 27.3607 237.956 26.2215C236.841 25.0822 235.324 24.4233 233.729 24.3855H223.297C222.193 24.3855 221.297 25.2809 221.297 26.3855V34.8681C221.297 35.9727 222.193 36.8681 223.297 36.8681H233.729ZM234.635 74.7501C235.545 74.8108 236.458 74.6814 237.315 74.3703C238.173 74.0593 238.956 73.5733 239.614 72.9435C240.273 72.3137 240.792 71.5538 241.14 70.7124C241.488 69.871 241.656 68.9664 241.634 68.0565C241.644 67.1442 241.469 66.2392 241.119 65.3963C240.769 64.5535 240.251 63.7902 239.597 63.1527C238.942 62.5152 238.165 62.0166 237.313 61.6873C236.46 61.3579 235.549 61.2045 234.635 61.2363H223.297C222.193 61.2363 221.297 62.1318 221.297 63.2363V72.7501C221.297 73.8547 222.193 74.7501 223.297 74.7501H234.635Z" fill="currentColor"/>
<path d="M117.5 100L57 100L135.488 9.9211C135.488 9.9211 142.998 0.0143661 157.423 0.0143661H170.978H183V100L129.5 100V92.1153C129.5 90.2947 127.265 89.4209 126.03 90.7587L117.5 100Z" fill="currentColor"/>
<path d="M51.5 100L0 100L87 2.38419e-06H138.5L70 78.75L51.5 100Z" fill="currentColor"/>
</svg>
