<svg xmlns="http://www.w3.org/2000/svg" viewBox="0 0 276.08 56.66" height="100%"><g id="abo" fill="currentColor" opacity="1" transform-origin="86px 28.329999923706055px" style="transform: none; transform-origin: 86px 28.33px;"><path d="M60 .9h33.28c11.34 0 16.26 7.56 16.26 14 0 6.82-4 11.42-9.36 12.57 5.91.9 10.43 6.32 10.43 13.38 0 7.64-5.17 14.87-16.18 14.87H60Zm29.42 20.37a3.46 3.46 0 0 0 3.29-3.53 3.37 3.37 0 0 0-3.29-3.37H76.61v6.9Zm.5 20.94a3.62 3.62 0 0 0 3.86-3.7 3.73 3.73 0 0 0-3.86-3.77H76.61v7.47ZM142 0c16.92 0 30 11.5 30 28.33s-13.05 28.33-30 28.33-30-11.5-30-28.33S125 0 142 0Zm0 17c-6.56 0-10.82 5-10.82 11.3s4.26 11.3 10.82 11.3 10.82-5 10.82-11.3S148.52 17 142 17Z"></path><path id="a" d="M23.63 55.68H0L35.38 6.33S38.76.9 45.26.9h11.53v54.78H39.2L39 37.55h-3.34Z"></path></g><g id="ut" fill="currentColor" opacity="1" transform-origin="225.79999542236328px 28.77999919652939px" style="transform: none; transform-origin: 225.8px 28.78px;"><path d="M175.48.9h16.84v31.7c0 5.26 2.71 9.44 9.52 9.44s9.45-4.18 9.45-9.44V.9h16.83v32.19c0 13.64-7.8 23.57-26.28 23.57s-26.36-9.93-26.36-23.48Z"></path><path d="M233.82 15.4h-14.7V.94h57l-10.3 14.46h-15.41v21.5l-13.49 18.82h-3.1Z"></path></g></svg>