<svg width="1920" height="331" viewBox="0 0 1920 331" fill="none" xmlns="http://www.w3.org/2000/svg">
<g id="about">
<path id="a" d="M372 0.0332031H4C1.79086 0.0332031 0 1.82406 0 4.0332V326.033C0 328.242 1.79087 330.033 4 330.033H156.613C157.05 330.033 157.405 329.679 157.405 329.241V162.045C157.405 145.148 171.103 131.45 188 131.45C204.897 131.45 218.595 145.148 218.595 162.045V329.241C218.595 329.679 218.95 330.033 219.387 330.033H372C374.209 330.033 376 328.242 376 326.033V4.0332C376 1.82406 374.209 0.0332031 372 0.0332031Z" fill="currentColor"/>
<g id="Frame 60">
<path id="Subtract" d="M701.309 0.0332031C734.827 0.0333681 762 27.2057 762 60.7246V134.636C762 136.575 759.959 138.146 757.442 138.146H728.011C713.264 138.146 701.309 150.101 701.309 164.849C701.309 179.596 713.263 191.551 728.011 191.551H757.442C759.959 191.551 762 193.123 762 195.062V269.342C762 302.861 734.827 330.033 701.309 330.033H390.558C388.041 330.033 386 328.461 386 326.522V3.54395C386 1.60507 388.041 0.0332031 390.558 0.0332031H701.309ZM574 211.226C557.431 211.226 544 224.657 544 241.226C544 257.794 557.432 271.226 574 271.226C590.568 271.226 604 257.794 604 241.226C604 224.657 590.569 211.226 574 211.226ZM574 58.0859C557.431 58.0859 544 71.5174 544 88.0859C544 104.654 557.431 118.086 574 118.086C590.569 118.086 604 104.654 604 88.0859C604 71.5174 590.569 58.0859 574 58.0859Z" fill="currentColor"/>
</g>
<path id="Subtract_2" d="M1143.44 0C1145.96 0 1148 1.57251 1148 3.51172V326.555C1148 328.494 1145.96 330.066 1143.44 330.066H776.558C774.041 330.066 772 328.494 772 326.555V3.51172C772 1.57251 774.041 0 776.558 0H1143.44ZM960 135.034C943.431 135.034 930 148.466 930 165.034C930 181.602 943.432 195.034 960 195.034C976.568 195.034 990 181.602 990 165.034C990 148.466 976.569 135.034 960 135.034Z" fill="currentColor"/>
<path id="u" d="M1530 330.033H1162C1159.79 330.033 1158 328.242 1158 326.033V4.0332C1158 1.82407 1159.79 0.0332031 1162 0.0332031H1314.61C1315.05 0.0332031 1315.4 0.387787 1315.4 0.825165V168.021C1315.4 184.918 1329.1 198.616 1346 198.616C1362.9 198.616 1376.6 184.918 1376.6 168.021V0.825165C1376.6 0.387787 1376.95 0.0332031 1377.39 0.0332031H1530C1532.21 0.0332031 1534 1.82407 1534 4.0332V326.033C1534 328.242 1532.21 330.033 1530 330.033Z" fill="currentColor"/>
<path id="t" d="M1615.2 330.033C1612.99 330.033 1611.2 328.242 1611.2 326.033L1611.2 222.465L1611.2 202.338C1611.2 166.668 1582.28 137.752 1546.61 137.752C1545.17 137.752 1544 136.584 1544 135.142L1544 37.5867L1544.11 4.02034C1544.12 1.81624 1545.9 0.0332195 1548.11 0.0332194L1701.79 0.0332127L1762.63 0.03321L1915.99 0.0332033C1918.2 0.0332032 1920 1.82922 1919.99 4.04163L1919.88 57.3328L1920 135.265C1920 136.638 1918.89 137.752 1917.51 137.752C1883.6 137.752 1856.1 165.218 1856.05 199.129L1856.01 224.463L1856.01 326.033C1856.01 328.242 1854.22 330.033 1852.01 330.033L1615.2 330.033Z" fill="currentColor"/>
</g>
</svg>
