<svg height="100%" viewBox="0 0 578 121" fill="none" xmlns="http://www.w3.org/2000/svg">
<g clip-path="url(#clip0_1231_2091)">
<path d="M364 1.90611H404.744V65.0434C404.744 76.1836 405.496 85.0364 419.951 85.0364C434.406 85.0364 435.009 76.1836 435.009 65.0434V17.9061C435.009 9.06954 442.173 1.90611 451.009 1.90611H475.732V70.0812C475.732 98.9693 459.176 120 419.951 120C380.726 120 364 98.9693 364 70.2718V1.90611Z" fill="currentColor"/>
<path d="M487.831 43.6156H456.629V1.99082H577.616L546.531 43.6156H530.044V69L494.411 118.009H487.831V43.6156Z" fill="currentColor"/>
<path d="M306.405 0C329.156 0 348.636 9.77398 359.859 26V71C359.859 71 359.859 81 362.5 89.5C361.284 91.9615 361.399 91.7967 359.859 94.0235C348.647 110.235 329.185 120 306.405 120C270.428 120 242.728 95.6442 242.728 60C242.728 24.3558 270.321 0 306.405 0ZM306.405 39.0042C294.481 39.0042 286.439 48.5937 286.439 59.9365C286.439 71.2792 294.481 80.8687 306.405 80.8687C318.329 80.8687 326.371 71.2792 326.371 59.9365C326.371 48.5937 318.244 39.0042 306.405 39.0042Z" fill="currentColor"/>
<path fill-rule="evenodd" clip-rule="evenodd" d="M130 0H203.01C227.888 0 238.682 16.5487 238.682 30.6458C238.682 45.5746 229.906 55.6439 218.148 58.1613C231.113 60.1313 241.029 71.9956 241.029 87.4498C241.029 104.174 229.687 120 205.533 120H130V0ZM186.542 44.5896C188.516 44.4931 190.375 43.6317 191.723 42.1886C193.071 40.7456 193.802 38.8347 193.759 36.8625C193.76 34.936 193.005 33.0857 191.656 31.7072C190.308 30.3287 188.472 29.5313 186.542 29.4856H171.5V44.5896H186.542ZM187.639 90.4268C188.74 90.5002 189.844 90.3437 190.882 89.9673C191.919 89.5909 192.866 89.0029 193.663 88.2408C194.46 87.4787 195.089 86.5593 195.509 85.5412C195.93 84.523 196.134 83.4286 196.107 82.3276C196.119 81.2237 195.907 80.1286 195.484 79.1088C195.06 78.0889 194.434 77.1653 193.642 76.3939C192.85 75.6225 191.91 75.0193 190.878 74.6208C189.847 74.2222 188.744 74.0366 187.639 74.0751H171.5V90.4268H187.639Z" fill="currentColor"/>
<path d="M56 120.992H0L78.4881 11.9881C78.4881 11.9881 85.9977 0 100.423 0H113.978H126V120.992L76 120.992L76 94.9918L56 120.992Z" fill="currentColor"/>
<path d="M102.349 81.1159H56.8887V52.0711H102.349V81.1159Z" fill="currentColor"/>
</g>
<defs>
<clipPath id="clip0_1231_2091">
<rect width="578" height="121" fill="currentColor"/>
</clipPath>
</defs>
</svg>
