<svg height="100%" viewBox="0 0 644 100" fill="none" xmlns="http://www.w3.org/2000/svg">
<g clip-path="url(#clip0_1296_550)">
<path d="M425.272 0.0172424H466.016V53.4809C466.016 62.9142 466.768 70.4106 481.223 70.4106C495.678 70.4106 496.281 62.9142 496.281 53.4809V0.0172424H537.004V57.7468C537.004 82.2088 520.448 100.017 481.223 100.017C441.998 100.017 425.272 82.2088 425.272 57.9082V0.0172424Z" fill="currentColor"/>
<path d="M550.545 35.895H518.272V0.0172424H643.411L611.259 35.895H594.207V57.7746L557.35 100.017H550.545V35.895Z" fill="currentColor"/>
<path d="M367.677 0.0172424C390.428 0.0172424 409.908 8.16223 421.131 21.6839V59.1839C421.131 59.1839 421.131 67.5172 423.772 74.6006C422.556 76.6518 422.671 76.5145 421.131 78.3702C409.919 91.8801 390.457 100.017 367.677 100.017C331.7 100.017 304 79.7207 304 50.0172C304 20.3137 331.593 0.0172424 367.677 0.0172424ZM367.677 32.5208C355.753 32.5208 347.711 40.512 347.711 49.9643C347.711 59.4166 355.753 67.4078 367.677 67.4078C379.601 67.4078 387.643 59.4166 387.643 49.9643C387.643 40.512 379.516 32.5208 367.677 32.5208Z" fill="currentColor"/>
<path fill-rule="evenodd" clip-rule="evenodd" d="M211 0.0172424H271.907C292.66 0.0172424 301.665 13.8078 301.665 25.5554C301.665 37.9961 294.344 46.3872 284.535 48.485C295.351 50.1267 303.623 60.0136 303.623 72.8921C303.623 86.8286 294.161 100.017 274.011 100.017H211V0.0172424ZM257.729 36.8681C259.361 36.7884 260.897 36.0765 262.011 34.8839C263.125 33.6912 263.729 32.112 263.694 30.4821C263.694 28.8899 263.07 27.3608 261.956 26.2215C260.841 25.0823 259.324 24.4233 257.729 24.3855H245.297V36.8681H257.729ZM258.635 74.7502C259.545 74.8108 260.458 74.6814 261.315 74.3704C262.173 74.0593 262.956 73.5734 263.614 72.9435C264.273 72.3137 264.792 71.5538 265.14 70.7124C265.488 69.871 265.656 68.9665 265.634 68.0566C265.644 67.1442 265.469 66.2393 265.119 65.3964C264.769 64.5535 264.251 63.7902 263.597 63.1527C262.942 62.5152 262.165 62.0167 261.313 61.6873C260.46 61.3579 259.549 61.2045 258.635 61.2364H245.297V74.7502H258.635Z" fill="currentColor"/>
<path d="M137 100H81L159.488 9.90816C159.488 9.90816 166.998 -6.84578e-07 181.423 -6.84578e-07H194.978H207V100L157 100L157 78.5109L137 100Z" fill="currentColor"/>
<path d="M183.349 67.0425H137.889V43.0369H183.349V67.0425Z" fill="currentColor"/>
<path d="M51.5 100L0 100L87 2.38419e-06H138.5L70 78.75L51.5 100Z" fill="currentColor"/>
</g>
<defs>
<clipPath id="clip0_1296_550">
<rect width="644" height="101" fill="currentColor"/>
</clipPath>
</defs>
</svg>
