<svg width="100%" viewBox="0 0 220 220" fill="none" xmlns="http://www.w3.org/2000/svg">
<rect width="100%" height="100%" fill="#ED1B2E"/>
<path d="M172.52 141.315V139.535H173.82C174.68 139.535 174.92 139.805 174.92 140.325C174.92 140.845 174.68 141.325 173.66 141.325M173.43 142.405C173.787 142.37 174.144 142.47 174.43 142.685C174.698 143.131 174.833 143.645 174.82 144.165C174.82 144.575 174.97 145.015 175.05 145.405H176.43C176.227 144.754 176.092 144.084 176.03 143.405C175.91 142.655 175.81 142.225 174.85 142.045C175.245 142 175.609 141.809 175.87 141.509C176.131 141.209 176.27 140.822 176.26 140.425C176.26 138.865 174.94 138.515 173.67 138.515H171.42V145.455H172.51V142.455L173.43 142.405ZM173.77 147.935C174.938 147.933 176.079 147.585 177.05 146.935C178.02 146.285 178.776 145.362 179.222 144.282C179.668 143.203 179.784 142.015 179.556 140.87C179.328 139.724 178.765 138.672 177.939 137.846C177.113 137.02 176.061 136.457 174.915 136.229C173.77 136.001 172.582 136.117 171.503 136.563C170.423 137.009 169.5 137.765 168.85 138.735C168.2 139.706 167.852 140.847 167.85 142.015C167.842 142.796 167.989 143.572 168.284 144.296C168.578 145.02 169.013 145.678 169.564 146.233C170.115 146.787 170.77 147.227 171.492 147.526C172.214 147.825 172.988 147.978 173.77 147.975V147.935ZM173.77 146.935C172.804 146.939 171.859 146.656 171.054 146.123C170.25 145.59 169.621 144.829 169.248 143.939C168.876 143.048 168.775 142.067 168.961 141.119C169.146 140.171 169.608 139.3 170.289 138.615C170.969 137.93 171.838 137.463 172.785 137.271C173.731 137.08 174.713 137.174 175.606 137.542C176.499 137.909 177.263 138.533 177.801 139.334C178.34 140.136 178.628 141.079 178.63 142.045C178.622 143.331 178.107 144.561 177.197 145.469C176.287 146.377 175.056 146.89 173.77 146.895V146.935Z" fill="white"/>
<path d="M163.78 88.295H154.29V97.775H163.78C164.859 97.775 165.895 98.2038 166.658 98.9671C167.421 99.7303 167.85 100.766 167.85 101.845C167.85 102.924 167.421 103.96 166.658 104.723C165.895 105.486 164.859 105.915 163.78 105.915H154.29V115.405H163.78C165.591 115.454 167.394 115.14 169.081 114.481C170.769 113.822 172.307 112.831 173.606 111.568C174.904 110.304 175.936 108.793 176.641 107.124C177.345 105.455 177.708 103.662 177.708 101.85C177.708 100.038 177.345 98.2449 176.641 96.5759C175.936 94.9068 174.904 93.3959 173.606 92.1323C172.307 90.8687 170.769 89.8782 169.081 89.2191C167.394 88.56 165.591 88.2458 163.78 88.295ZM109.71 138.455C115.099 138.455 120.376 136.924 124.929 134.042C129.483 131.16 133.124 127.045 135.43 122.175H147.52V138.455H154.29V122.175H163.78C169.172 122.175 174.343 120.033 178.156 116.22C181.968 112.408 184.11 107.237 184.11 101.845C184.11 96.4531 181.968 91.2821 178.156 87.4695C174.343 83.6569 169.172 81.515 163.78 81.515H147.52V105.915H137.87C136.894 99.1419 133.51 92.9473 128.338 88.4661C123.166 83.9849 116.553 81.5171 109.71 81.515H76.33L43.14 138.455H51.06L60.55 122.175H94.66V138.455H109.71ZM193.61 101.845C193.61 105.762 192.838 109.64 191.339 113.259C189.84 116.878 187.643 120.165 184.872 122.934C182.102 125.704 178.814 127.9 175.195 129.398C171.576 130.896 167.697 131.666 163.78 131.665V147.975H138V135.235C134.451 139.235 130.095 142.438 125.219 144.633C120.343 146.829 115.058 147.968 109.71 147.975H85.17V131.665H66L56.51 147.975H26.39L70.66 72.075H109.71C115.05 72.0738 120.33 73.2 125.205 75.3799C130.08 77.5598 134.44 80.7442 138 84.725V72.025H163.74C167.66 72.0197 171.542 72.7871 175.165 74.2832C178.789 75.7793 182.081 77.9749 184.855 80.7443C187.629 83.5137 189.83 86.8028 191.333 90.4234C192.835 94.044 193.609 97.9251 193.61 101.845ZM85.17 88.295V105.915H70L64.47 115.405H94.63V88.295H85.17ZM131.4 109.975C131.397 115.727 129.111 121.242 125.044 125.309C120.977 129.376 115.462 131.662 109.71 131.665H101.43V122.175H109.71C112.946 122.175 116.049 120.89 118.337 118.602C120.625 116.314 121.91 113.211 121.91 109.975C121.91 106.739 120.625 103.636 118.337 101.348C116.049 99.0603 112.946 97.775 109.71 97.775H101.43V88.295H109.71C115.461 88.295 120.976 90.5788 125.044 94.6443C129.111 98.7098 131.397 104.224 131.4 109.975Z" fill="white"/>
</svg>
