<svg height="100%" viewBox="0 0 221 221" fill="none" xmlns="http://www.w3.org/2000/svg">
<g clip-path="url(#clip0_1395_572)">
<path fill-rule="evenodd" clip-rule="evenodd" d="M189.17 3.77542C177.227 0 166.137 0 143.951 0H77.0523C54.8633 0 43.7703 0 31.8301 3.77542C18.7911 8.52079 8.52079 18.7911 3.77542 31.8301C0 43.7703 0 54.8663 0 77.0523V143.948C0 166.137 0 177.227 3.77542 189.17C8.52079 202.209 18.7911 212.479 31.8301 217.224C43.7703 221 54.8633 221 77.0523 221H143.951C166.137 221 177.227 221 189.17 217.224C202.209 212.479 212.479 202.209 217.224 189.17C221 177.227 221 166.137 221 143.948V77.0523C221 54.8663 221 43.7703 217.224 31.8301C212.479 18.7911 202.209 8.52079 189.17 3.77542ZM142.659 84.9268C135.967 78.9882 125.726 74.6614 115.042 74.6614C106.679 74.6614 98.3112 77.6539 98.3112 85.2204C98.3112 92.389 105.951 95.1433 115.273 98.5045C116.049 98.7842 116.837 99.0688 117.633 99.3595C135.759 105.534 150.694 113.104 150.694 131.027C150.694 150.509 135.707 163.819 111.22 165.33L108.996 175.92C108.592 177.863 106.869 179.249 104.887 179.234L89.4781 179.118C86.8344 179.096 84.8792 176.66 85.4269 174.078L87.7736 163.063C78.1352 160.438 69.6903 155.75 63.0204 149.276C61.3345 147.642 61.3192 144.931 62.9929 143.282L71.5481 134.843C73.1697 133.243 75.7643 133.255 77.3859 134.856C85.6534 143.006 96.307 146.363 106.478 146.363C117.633 146.363 125.2 141.783 125.2 134.014C125.2 127.169 119.007 124.884 107.208 120.529C105.965 120.071 104.659 119.589 103.293 119.076C88.1562 113.7 73.8154 105.932 73.8154 87.8061C73.8154 66.8685 91.1487 56.6643 111.599 55.6423L113.848 45.068C114.258 43.1434 115.959 41.7665 117.927 41.7665H133.311C135.961 41.7665 137.934 44.2021 137.393 46.7936L134.896 58.6837C143.724 61.5752 150.895 66.0913 156.238 70.6841C158.052 72.2414 158.114 75.0316 156.433 76.736L148.472 84.8108C146.884 86.42 144.351 86.429 142.659 84.9268Z" fill="#00D64F"/>
</g>
<defs>
<clipPath id="clip0_1395_572">
<rect width="221" height="221" rx="110.5" fill="white"/>
</clipPath>
</defs>
</svg>
