<svg height="100%" viewBox="0 0 1084 101" fill="none" xmlns="http://www.w3.org/2000/svg">
<path d="M509 100V91.2019C509 89.5179 510.954 88.5877 512.261 89.6497L525 100L537.739 89.6497C539.046 88.5878 541 89.5179 541 91.2019V100H589.954L589.95 0H541L527.522 10.9506C526.053 12.1446 523.947 12.1446 522.478 10.9506L509 0H459.958L459.954 100H509Z" fill="currentColor"/>
<path d="M375.046 100V91.2019C375.046 89.5179 377 88.5877 378.307 89.6497L391.046 100L403.785 89.6497C405.092 88.5878 407.046 89.5179 407.046 91.2019V100H456L455.996 0H407.046L393.568 10.9506C392.099 12.1446 389.993 12.1446 388.524 10.9506L375.046 0H326.004L326 100H375.046Z" fill="currentColor"/>
<path fill-rule="evenodd" clip-rule="evenodd" d="M905.273 35.8778C906.377 35.8778 907.273 36.7732 907.273 37.8778V100H914.078L950.935 57.7574V37.8778C950.935 36.7732 951.83 35.8778 952.935 35.8778H968.382C978.498 47.2959 987.146 57.0166 987.146 57.0166V99.9856H1015L1034.15 79.5V57.0166L1083.15 0H1023L1012.08 11.4802C1011.3 12.3022 1009.99 12.3098 1009.2 11.497L998 0H969.987H937H875V35.8778H905.273Z" fill="currentColor"/>
<path d="M761.835 89.9758C760.547 88.8211 758.5 89.7352 758.5 91.4649V99.9857L710 99.9857L710.004 8.39233e-05H753L765.216 10.2341C766.517 11.3246 768.5 10.3992 768.5 8.70103V8.39233e-05H820.5V70.2379V99.9857H773L761.835 89.9758Z" fill="currentColor"/>
<path d="M871.31 0H824.954V100H847.31L871.31 100V0Z" fill="currentColor"/>
<mask id="mask0_1378_272" style="mask-type:alpha" maskUnits="userSpaceOnUse" x="204" y="0" width="118" height="100">
<rect width="118" height="100" transform="matrix(-1 0 0 1 322 0)" fill="#D9D9D9"/>
</mask>
<g mask="url(#mask0_1378_272)">
<path fill-rule="evenodd" clip-rule="evenodd" d="M269.503 0C305.322 0 332.984 20.2764 332.984 49.9832C332.984 79.69 305.365 99.9664 269.503 99.9664C233.64 99.9664 206 79.69 206 49.9832C206 20.2764 233.662 0 269.503 0ZM269.677 35.5034C257.753 35.5034 253.711 40.4946 253.711 49.9469C253.711 59.3992 257.753 64.3904 269.677 64.3904C281.601 64.3904 285.643 59.3992 285.643 49.9469C285.643 40.4946 281.516 35.5034 269.677 35.5034Z" fill="currentColor"/>
</g>
<path fill-rule="evenodd" clip-rule="evenodd" d="M150.037 0.0172119C181.805 0.0172119 197.419 14.7823 204.397 28.0992L184.931 36.0331L167.681 43.183C166.72 43.5818 165.622 43.1652 165.073 42.2802C161.357 36.2871 156.646 35.7796 148.954 35.7796C136.722 35.7796 133.786 37.7777 133.786 50.0349C133.786 61.144 135.18 64.2195 150.325 64.2725C157.164 64.2725 161.7 63.0266 165.068 57.7724C165.624 56.9049 166.707 56.4958 167.661 56.8851L186.102 64.4092L204.44 71.7586C197.57 84.6516 181.848 100.017 150.08 100.017C150.078 100.017 150.075 100.017 150.073 100.017C150.064 100.017 150.055 100.017 150.046 100.017C147.924 100.016 145.829 99.9438 143.767 99.8024C116.224 97.9244 94.368 83.866 88 62.9339L143.114 0.272155C143.331 0.256034 143.548 0.240669 143.765 0.226063C145.814 0.0875544 147.895 0.0172119 150.003 0.0172119C150.009 0.0172119 150.015 0.0172124 150.021 0.0172133C150.026 0.0172124 150.032 0.0172119 150.037 0.0172119Z" fill="currentColor"/>
<path d="M594 0H640.744V35.4637C640.744 44.8969 639.293 54 650.5 54C661 54 659.009 44.8969 659.009 35.4637V0H705.732V57.7296C705.732 82.1915 689.176 100 649.951 100C610.726 100 594 82.1915 594 57.891V0Z" fill="currentColor"/>
<path d="M51.5 100L0 100L87 2.38419e-06H138.5L70 78.75L51.5 100Z" fill="currentColor"/>
</svg>
