<svg height="100%" viewBox="0 0 1084 101" fill="none" xmlns="http://www.w3.org/2000/svg">
<path d="M509 100V91.2019C509 89.5179 510.954 88.5877 512.261 89.6497L525 100L537.739 89.6497C539.046 88.5878 541 89.5179 541 91.2019V100H589.954L589.95 0H541L527.522 10.9506C526.053 12.1446 523.947 12.1446 522.478 10.9506L509 0H459.958L459.954 100H509Z" fill="currentColor"/>
<path d="M375.046 100V91.2019C375.046 89.5179 377 88.5877 378.307 89.6497L391.046 100L403.785 89.6497C405.092 88.5878 407.046 89.5179 407.046 91.2019V100H456L455.996 0H407.046L393.568 10.9506C392.099 12.1446 389.993 12.1446 388.524 10.9506L375.046 0H326.004L326 100H375.046Z" fill="currentColor"/>
<path d="M907.273 37.8778C907.273 36.7732 906.377 35.8778 905.273 35.8778H875V0H969.987V35.8778H952.935C951.83 35.8778 950.935 36.7732 950.935 37.8778V57.7574L914.078 100H907.273V37.8778Z" fill="currentColor"/>
<path d="M1083.15 7.15256e-07L1034.15 57.0166V79.5L1015 99.9856H987.146V57.0166C987.146 57.0166 938.243 2.04965 937 0C952.885 0 982.115 7.07539e-06 998 0L1009.2 11.497C1009.99 12.3098 1011.3 12.3022 1012.08 11.4802L1023 0C1038.72 2.36376e-05 1067.43 -2.09749e-06 1083.15 7.15256e-07Z" fill="currentColor"/>
<path d="M761.835 89.9758C760.547 88.8211 758.5 89.7352 758.5 91.4649V99.9857L710 99.9857L710.004 8.39233e-05H753L765.216 10.2341C766.517 11.3246 768.5 10.3992 768.5 8.70103V8.39233e-05H820.5V70.2379V99.9857H773L761.835 89.9758Z" fill="currentColor"/>
<path d="M871.31 0H824.954V100H847.31L871.31 100V0Z" fill="currentColor"/>
<path d="M594 0H638.744V43.4637C638.744 52.8969 638.744 60.3934 649.951 60.3934C661.158 60.3934 661.009 52.8969 661.009 43.4637V0H705.732V57.7296C705.732 82.1915 689.176 100 649.951 100C610.726 100 594 82.1915 594 57.891V0Z" fill="currentColor"/>
<mask id="mask0_1378_272" style="mask-type:alpha" maskUnits="userSpaceOnUse" x="204" y="0" width="118" height="100">
<rect width="118" height="100" transform="matrix(-1 0 0 1 322 0)" fill="#D9D9D9"/>
</mask>
<g mask="url(#mask0_1378_272)">
<path fill-rule="evenodd" clip-rule="evenodd" d="M269.503 0C305.322 0 332.984 20.2764 332.984 49.9832C332.984 79.69 305.365 99.9664 269.503 99.9664C233.64 99.9664 206 79.69 206 49.9832C206 20.2764 233.662 0 269.503 0ZM269.677 35.5034C257.753 35.5034 253.711 40.4946 253.711 49.9469C253.711 59.3992 257.753 64.3904 269.677 64.3904C281.601 64.3904 285.643 59.3992 285.643 49.9469C285.643 40.4946 281.516 35.5034 269.677 35.5034Z" fill="currentColor"/>
</g>
<path d="M204.397 28.0992C197.419 14.7823 181.805 0.0172119 150.037 0.0172119C147.694 0.0172119 145.384 0.103173 143.114 0.272155L88 62.9339C94.8474 85.4419 119.603 100.002 150.08 100.017C181.848 100.017 197.57 84.6516 204.44 71.7586L168.11 57.1987C166.429 60.3854 165.114 61.8678 162.187 64.2518C158.692 66.2115 157.114 68.2725 150.36 68.2725C135.133 68.2195 127.721 61.144 127.721 50.0349C127.721 37.7777 136.684 31.7796 148.982 31.7796C155.114 31.7796 156.871 32.6723 160.641 34.6546C165.114 37.1275 166.363 39.507 168.11 42.8887L204.397 28.0992Z" fill="currentColor"/>
<path d="M204.071 28.0992C197.131 14.7823 181.6 0.0172119 150.003 0.0172119C147.672 0.0172119 145.373 0.103258 143.114 0.272406L94.1143 56V74.9838C104.785 90.5013 125.559 100.005 150.046 100.017C181.643 100.017 197.281 84.6516 204.114 71.7586L167.661 56.8851C166.707 56.4958 165.624 56.9049 165.068 57.7724C161.7 63.0266 157.164 64.2725 150.325 64.2725C135.18 64.2195 133.786 61.144 133.786 50.0349C133.786 37.7777 136.722 35.7796 148.954 35.7796C156.646 35.7796 161.357 36.2871 165.073 42.2802C165.622 43.1652 166.72 43.5818 167.681 43.183L204.071 28.0992Z" fill="currentColor"/>
<path d="M594 0H640.744V35.4637C640.744 44.8969 639.293 54 650.5 54C661 54 659.009 44.8969 659.009 35.4637V0H705.732V57.7296C705.732 82.1915 689.176 100 649.951 100C610.726 100 594 82.1915 594 57.891V0Z" fill="currentColor"/>
<path d="M51.5 100L0 100L87 2.38419e-06H138.5L70 78.75L51.5 100Z" fill="currentColor"/>
</svg>
