<svg height="100%" viewBox="0 0 1090 100" fill="none" xmlns="http://www.w3.org/2000/svg">
<path d="M1094.1 7.37771e-07L1045.1 57.0248V100H1021.6H998.1V57.0248C998.1 57.0248 949.197 2.04995 947.954 0C963.84 0 982.215 7.0764e-06 998.1 0L1021.6 24.3802L1045.1 0C1060.82 2.3641e-05 1078.38 -2.07538e-06 1094.1 7.37771e-07Z" fill="currentColor"/>
<path d="M920.227 35.8778H887.954V0H980.941V35.8778H963.889V100H927.033H920.227V35.8778Z" fill="currentColor"/>
<path d="M763.954 73.1405L763.954 100H721.954L721.958 -1.66893e-06H752.454L787.454 42.1488V-1.66893e-06H832.454V100H805.912H787.454L763.954 73.1405Z" fill="currentColor"/>
<path d="M379.633 100L379.633 73.1405L396.442 92.5H409.466L426.275 73.1405V100H467.954L467.95 0H437.687L402.954 42.1488L368.221 0H337.958L337.954 100H379.633Z" fill="currentColor"/>
<path d="M513.633 100L513.633 73.1405L530.442 92.5H543.466L560.275 73.1405V100H601.954L601.95 0H571.687L536.954 42.1488L502.221 0H471.958L471.954 100H513.633Z" fill="currentColor"/>
<path d="M883.31 0H836.954V100H859.31L883.31 100V0Z" fill="currentColor"/>
<path d="M605.954 0H646.698V53.4637C646.698 62.8969 647.45 70.3934 661.905 70.3934C676.36 70.3934 676.963 62.8969 676.963 53.4637V0H717.686V57.7296C717.686 82.1915 701.13 100 661.905 100C622.68 100 605.954 82.1915 605.954 57.891V0Z" fill="currentColor"/>
<mask id="mask0_1298_834" style="mask-type:alpha" maskUnits="userSpaceOnUse" x="215" y="0" width="119" height="100">
<rect width="118" height="100" transform="matrix(-1 0 0 1 333.954 0)" fill="#D9D9D9"/>
</mask>
<g mask="url(#mask0_1298_834)">
<path fill-rule="evenodd" clip-rule="evenodd" d="M281.457 0C317.276 0 344.938 20.2764 344.938 49.9832C344.938 79.69 317.319 99.9664 281.457 99.9664C245.594 99.9664 217.954 79.69 217.954 49.9832C217.954 20.2764 245.616 0 281.457 0ZM281.631 32.5035C269.707 32.5035 261.665 40.4948 261.665 49.947C261.665 59.3993 269.707 67.3906 281.631 67.3906C293.555 67.3906 301.598 59.3993 301.598 49.947C301.598 40.4948 293.47 32.5035 281.631 32.5035Z" fill="currentColor"/>
</g>
<path d="M216.238 28.0819C209.26 14.7651 193.645 0 161.877 0C154.324 0 147.121 0.893272 140.454 2.58131L98 52.0833C99.2672 80.6433 126.793 99.9827 161.92 100C193.688 100 209.41 84.6344 216.281 71.7414L179.95 57.1815C178.269 60.3682 176.954 61.8506 174.027 64.2345C170.532 66.1943 168.954 68.2553 162.2 68.2553C146.973 68.2023 139.562 61.1268 139.562 50.0177C139.562 37.7605 148.524 31.7624 160.822 31.7624C166.954 31.7624 168.711 32.6551 172.481 34.6374C176.954 37.1103 178.203 39.4898 179.95 42.8715L216.238 28.0819Z" fill="currentColor"/>
<path d="M51.5 100L0 100L87 2.38419e-06H138.5L70 78.75L51.5 100Z" fill="currentColor"/>
</svg>
