<svg height="100%" viewBox="0 0 839 100" fill="none" xmlns="http://www.w3.org/2000/svg">
<g clip-path="url(#clip0_1296_584)">
<path d="M746.237 35.895H714V0.0172424H839L806.884 35.895H789.851V57.7746L753.035 100.017H746.237V35.895Z" fill="currentColor"/>
<mask id="mask0_1296_584" style="mask-type:alpha" maskUnits="userSpaceOnUse" x="614" y="0" width="122" height="100">
<path d="M710 0H614V100H719L735.5 70.3704L710 49.3827V0Z" fill="#D9D9D9"/>
</mask>
<g mask="url(#mask0_1296_584)">
<path d="M677.923 0C641.999 0 614 20.165 614 49.9189C614 79.5494 641.999 99.7848 677.966 99.8025C709.734 99.8025 725.456 84.4672 732.326 71.5997L695.996 57.0685C694.315 60.249 693 61.7284 690.073 64.1077C686.578 66.0635 685 68.1205 678.246 68.1205C663.019 68.0676 655.607 61.0061 655.607 49.9189C655.607 37.6859 664.57 31.6996 676.868 31.6996C683 31.6996 684.757 32.5906 688.527 34.569C693 37.037 694.249 39.4118 695.996 42.7869L732.283 28.0265C725.305 14.7359 709.691 0 677.923 0Z" fill="currentColor"/>
</g>
<path d="M539 100H483L561.488 9.90816C561.488 9.90816 568.998 -6.84578e-07 583.423 -6.84578e-07H596.978H609V100L559 100L559 78.5109L539 100Z" fill="currentColor"/>
<path d="M585.349 67.0425H539.889V43.0369H585.349V67.0425Z" fill="currentColor"/>
<path d="M470.237 35.895H438V0.0172424H565L532.884 35.895H513.851V57.7746L477.035 100.017H470.237V35.895Z" fill="currentColor"/>
<path d="M366 73.1405L366 100H324L324.004 -1.66893e-06H354.5L389.5 42.1488V-1.66893e-06H434.5V100H407.957H389.5L366 73.1405Z" fill="currentColor"/>
<mask id="mask1_1296_584" style="mask-type:alpha" maskUnits="userSpaceOnUse" x="202" y="0" width="118" height="101">
<rect width="118" height="100" transform="matrix(-1 0 0 1 320 0.0172424)" fill="#D9D9D9"/>
</mask>
<g mask="url(#mask1_1296_584)">
<path fill-rule="evenodd" clip-rule="evenodd" d="M267.503 0.0172424C303.322 0.0172424 330.984 20.2936 330.984 50.0004C330.984 79.7073 303.365 99.9836 267.503 99.9836C231.64 99.9836 204 79.7073 204 50.0004C204 20.2936 231.662 0.0172424 267.503 0.0172424ZM267.677 32.5206C255.753 32.5206 247.711 40.5118 247.711 49.9641C247.711 59.4164 255.753 67.4076 267.677 67.4076C279.601 67.4076 287.643 59.4164 287.643 49.9641C287.643 40.5118 279.516 32.5206 267.677 32.5206Z" fill="currentColor"/>
</g>
<path d="M204.283 28.0992C197.305 14.7823 181.691 0.0172424 149.923 0.0172424C147.58 0.0172424 145.27 0.103204 143 0.272185L87.8859 62.9339C94.7333 85.4419 119.489 100.002 149.966 100.017C181.734 100.017 197.456 84.6516 204.326 71.7587L167.996 57.1987C166.315 60.3854 165 61.8678 162.073 64.2518C158.577 66.2115 157 68.2725 150.246 68.2725C135.019 68.2195 127.607 61.1441 127.607 50.0349C127.607 37.7778 136.57 31.7796 148.868 31.7796C155 31.7796 156.757 32.6723 160.527 34.6547C165 37.1276 166.249 39.5071 167.996 42.8888L204.283 28.0992Z" fill="currentColor"/>
<path d="M51.5 100L0 100L87 2.38419e-06H138.5L70 78.75L51.5 100Z" fill="currentColor"/>
</g>
<defs>
<clipPath id="clip0_1296_584">
<rect width="839" height="100" fill="currentColor"/>
</clipPath>
</defs>
</svg>
