<svg height="100%" viewBox="0 0 746 122" fill="none" xmlns="http://www.w3.org/2000/svg">
<g clip-path="url(#clip0_1231_2186)">
<path d="M654.237 44.4121H622V1H747L714.884 44.4121H697.851V70.8864L661.035 122H654.237V44.4121Z" fill="currentColor"/>
<mask id="mask0_1231_2186" style="mask-type:alpha" maskUnits="userSpaceOnUse" x="523" y="0" width="122" height="122">
<path d="M619 0H523V121.5H628L644.5 85.5L619 60V0Z" fill="#D9D9D9"/>
</mask>
<g mask="url(#mask0_1231_2186)">
<path d="M586.923 0C550.999 0 523 24.5004 523 60.6514C523 96.6525 550.999 121.239 586.966 121.26C618.734 121.26 634.456 102.628 641.326 86.9937L604.996 69.3382C603.315 73.2025 602 75 599.073 77.8908C595.578 80.2672 594 82.7664 587.246 82.7664C572.019 82.7021 564.607 74.1224 564.607 60.6514C564.607 45.7884 573.57 38.5151 585.868 38.5151C592 38.5151 593.757 39.5976 597.527 42.0013C602 45 603.249 47.8854 604.996 51.986L641.283 34.0522C634.305 17.9042 618.691 0 586.923 0Z" fill="currentColor"/>
</g>
<path d="M448 120.992H392L470.488 11.9881C470.488 11.9881 477.998 0 492.423 0H505.978H518V120.992L468 120.992L468 94.9918L448 120.992Z" fill="currentColor"/>
<path d="M494.349 81.1159H448.889V52.0711H494.349V81.1159Z" fill="currentColor"/>
<path d="M381.237 43.4121H349V0H476L443.884 43.4121H424.851V69.8864L388.035 121H381.237V43.4121Z" fill="currentColor"/>
<path d="M292.675 88.8087L292.675 121H237V42.525V23.8963L237.004 0H247.515H259.24C260.791 0 262.227 0 263.551 0C271.92 0 279.849 3.74403 285.168 10.2062L305.103 34.4258L305.103 0H362L362 121H329.957H319.518L292.675 88.8087Z" fill="currentColor"/>
<mask id="mask1_1231_2186" style="mask-type:alpha" maskUnits="userSpaceOnUse" x="116" y="0" width="118" height="120">
<rect width="118" height="120" transform="matrix(-1 0 0 1 234 0)" fill="#D9D9D9"/>
</mask>
<g mask="url(#mask1_1231_2186)">
<path fill-rule="evenodd" clip-rule="evenodd" d="M181.503 0C217.322 0 244.984 24.3316 244.984 59.9798C244.984 95.628 217.365 119.96 181.503 119.96C145.64 119.96 118 95.628 118 59.9798C118 24.3316 145.662 0 181.503 0ZM181.677 39.0042C169.753 39.0042 161.711 48.5937 161.711 59.9365C161.711 71.2792 169.753 80.8687 181.677 80.8687C193.601 80.8687 201.643 71.2792 201.643 59.9365C201.643 48.5937 193.516 39.0042 181.677 39.0042Z" fill="currentColor"/>
</g>
<path d="M63.9229 0C27.9986 0 0 24.5004 0 60.6514C0 96.6525 27.9986 121.239 63.966 121.26C95.7336 121.26 111.456 102.628 118.326 86.9937L81.9957 69.3382C80.3148 73.2025 79 75 76.0726 77.8908C72.5775 80.2672 71 82.7664 64.246 82.7664C49.0191 82.7021 41.6072 74.1224 41.6072 60.6514C41.6072 45.7884 50.5697 38.5151 62.8676 38.5151C69 38.5151 70.7566 39.5976 74.5267 42.0013C79 45 80.2488 47.8854 81.9957 51.986L118.283 34.0522C111.305 17.9042 95.6905 0 63.9229 0Z" fill="currentColor"/>
</g>
<defs>
<clipPath id="clip0_1231_2186">
<rect width="746" height="122" fill="currentColor"/>
</clipPath>
</defs>
</svg>
