<svg height="100%" viewBox="0 0 839 100" fill="none" xmlns="http://www.w3.org/2000/svg">
<g clip-path="url(#clip0_1378_116)">
<path d="M738.237 35.895H706V0.0172119H831L798.884 35.895H781.851V57.7746L745.035 100.017H738.237V35.895Z" fill="currentColor"/>
<path d="M542.5 100L482 100L560.488 9.9211C560.488 9.9211 567.998 0.0143661 582.423 0.0143661H595.978H608V100L554.5 100V92.1153C554.5 90.2947 552.265 89.4209 551.03 90.7587L542.5 100Z" fill="currentColor"/>
<path d="M651.672 50.0349C651.672 37.7777 654.608 35.7796 666.839 35.7796C674.505 35.7796 679.209 37.13 682.919 43.198C683.482 44.1184 684.639 44.5231 685.614 44.0622L702.676 36L703 8.36558C694.422 3.39005 682.991 0.0172119 667.889 0.0172119C643.432 0.0172119 622.668 9.48329 612 25.0172V74.9838C622.671 90.5013 643.444 100.005 667.932 100.017C699.529 100.017 715.167 84.6516 722 71.7586L685.569 55.9388C684.608 55.5215 683.497 55.9242 682.941 56.8124C679.574 62.1946 675.041 64.2725 668.21 64.2725C653.065 64.2195 651.672 61.144 651.672 50.0349Z" fill="currentColor"/>
<path d="M470.273 37.895C470.273 36.7904 469.377 35.895 468.273 35.895H438V0.0172119H565.139L532.987 35.895H515.935C514.83 35.895 513.935 36.7904 513.935 37.895V57.7746L477.078 100.017H470.273V37.895Z" fill="currentColor"/>
<path d="M375.835 89.9901C374.547 88.8354 372.5 89.7495 372.5 91.4792V100L324 100L324.004 0.0143661H367L379.216 10.2484C380.517 11.3389 382.5 10.4134 382.5 8.71531V0.0143661H434.5V70.2522V100H387L375.835 89.9901Z" fill="currentColor"/>
<mask id="mask0_1378_116" style="mask-type:alpha" maskUnits="userSpaceOnUse" x="202" y="0" width="118" height="101">
<rect width="118" height="100" transform="matrix(-1 0 0 1 320 0.0172119)" fill="#D9D9D9"/>
</mask>
<g mask="url(#mask0_1378_116)">
<path fill-rule="evenodd" clip-rule="evenodd" d="M267.503 0.0172119C303.322 0.0172119 330.984 20.2936 330.984 50.0004C330.984 79.7072 303.365 99.9836 267.503 99.9836C231.64 99.9836 204 79.7072 204 50.0004C204 20.2936 231.662 0.0172119 267.503 0.0172119ZM267.677 35.5206C255.753 35.5206 251.711 40.5118 251.711 49.9641C251.711 59.4164 255.753 64.4076 267.677 64.4076C279.601 64.4076 283.643 59.4164 283.643 49.9641C283.643 40.5118 279.516 35.5206 267.677 35.5206Z" fill="currentColor"/>
</g>
<path fill-rule="evenodd" clip-rule="evenodd" d="M150.037 0C181.805 0 197.419 14.7651 204.397 28.0819L184.923 36.0189L167.681 43.1658C166.719 43.5646 165.622 43.148 165.073 42.263C161.357 36.2699 156.646 35.7624 148.954 35.7624C136.722 35.7624 133.786 37.7605 133.786 50.0177C133.786 61.1268 135.179 64.2023 150.325 64.2553C157.163 64.2553 161.699 63.0094 165.068 57.7552C165.624 56.8877 166.707 56.4786 167.661 56.8679L186.095 64.3893L204.44 71.7414C197.57 84.6344 181.848 100 150.08 100C150.078 100 150.075 100 150.073 100C150.064 100 150.055 100 150.046 100C147.916 99.9989 145.814 99.9261 143.744 99.7837C116.212 97.8995 94.3662 83.843 88 62.9167L143.114 0.255195L143.114 0.254943C143.323 0.239384 143.533 0.224529 143.742 0.21038C145.799 0.0708603 147.887 0 150.003 0C150.009 0 150.015 4.65116e-07 150.02 1.43323e-06C150.026 4.77757e-07 150.032 0 150.037 0Z" fill="currentColor"/>
<path d="M51.5 100L0 100L87 2.38419e-06H138.5L70 78.75L51.5 100Z" fill="currentColor"/>
</g>
<defs>
<clipPath id="clip0_1378_116">
<rect width="839" height="100" fill="currentColor"/>
</clipPath>
</defs>
</svg>
