<svg height="100%" viewBox="0 0 830 100" fill="none" xmlns="http://www.w3.org/2000/svg">
<g clip-path="url(#clip0_1378_116)">
<path d="M738.237 35.895H706V0.0172119H831L798.884 35.895H781.851V57.7746L745.035 100.017H738.237V35.895Z" fill="currentColor"/>
<path d="M542.5 100L482 100L560.488 9.9211C560.488 9.9211 567.998 0.0143661 582.423 0.0143661H595.978H608V100L554.5 100V92.1153C554.5 90.2947 552.265 89.4209 551.03 90.7587L542.5 100Z" fill="currentColor"/>
<path d="M649.672 50.0349C649.672 37.7777 654.608 33.7796 666.839 33.7796C674.546 33.7796 680.971 35.1447 684.947 41.2972C685.511 42.1692 686.603 42.5864 687.563 42.1928L702.676 36L703 8.36558C694.422 3.39005 682.991 0.0172119 667.889 0.0172119C643.432 0.0172119 622.668 9.48329 612 25.0172V74.9838C622.671 90.5013 643.444 100.005 667.932 100.017C699.529 100.017 715.167 84.6516 722 71.7586L687.543 57.8748C686.59 57.4909 685.512 57.9011 684.939 58.7534C681.289 64.1795 675.066 66.2725 668.21 66.2725C653.065 66.2195 649.672 61.144 649.672 50.0349Z" fill="currentColor"/>
<path d="M470.273 37.895C470.273 36.7904 469.377 35.895 468.273 35.895H438V0.0172119H565.139L532.987 35.895H515.935C514.83 35.895 513.935 36.7904 513.935 37.895V57.7746L477.078 100.017H470.273V37.895Z" fill="currentColor"/>
<path d="M375.835 89.9901C374.547 88.8354 372.5 89.7495 372.5 91.4792V100L324 100L324.004 0.0143661H367L379.216 10.2484C380.517 11.3389 382.5 10.4134 382.5 8.71531V0.0143661H434.5V70.2522V100H387L375.835 89.9901Z" fill="currentColor"/>
<mask id="mask0_1378_116" style="mask-type:alpha" maskUnits="userSpaceOnUse" x="202" y="0" width="118" height="101">
<rect width="118" height="100" transform="matrix(-1 0 0 1 320 0.0172119)" fill="#D9D9D9"/>
</mask>
<g mask="url(#mask0_1378_116)">
<path fill-rule="evenodd" clip-rule="evenodd" d="M267.503 0.0172119C303.322 0.0172119 330.984 20.2936 330.984 50.0004C330.984 79.7072 303.365 99.9836 267.503 99.9836C231.64 99.9836 204 79.7072 204 50.0004C204 20.2936 231.662 0.0172119 267.503 0.0172119ZM267.677 35.5206C255.753 35.5206 251.711 40.5118 251.711 49.9641C251.711 59.4164 255.753 64.4076 267.677 64.4076C279.601 64.4076 283.643 59.4164 283.643 49.9641C283.643 40.5118 279.516 35.5206 267.677 35.5206Z" fill="currentColor"/>
</g>
<path d="M204.283 28.0992C197.305 14.7823 181.691 0.0172119 149.923 0.0172119C147.58 0.0172119 145.27 0.103173 143 0.272155L87.8859 62.9339C94.7333 85.4419 119.489 100.002 149.966 100.017C181.734 100.017 197.456 84.6516 204.326 71.7586L167.996 57.1987C166.315 60.3854 165 61.8678 162.073 64.2518C158.577 66.2115 157 68.2725 150.246 68.2725C135.019 68.2195 127.607 61.144 127.607 50.0349C127.607 37.7777 136.57 31.7796 148.868 31.7796C155 31.7796 156.757 32.6723 160.527 34.6546C165 37.1275 166.249 39.507 167.996 42.8887L204.283 28.0992Z" fill="currentColor"/>
<path d="M203.957 28.0992C197.017 14.7823 181.486 0.0172119 149.889 0.0172119C147.557 0.0172119 145.259 0.103258 143 0.272406L94 56V74.9838C104.671 90.5013 125.444 100.005 149.932 100.017C181.529 100.017 197.167 84.6516 204 71.7586L169.543 57.8748C168.59 57.4909 167.512 57.9011 166.939 58.7534C163.289 64.1795 157.066 66.2725 150.21 66.2725C135.065 66.2195 131.672 61.144 131.672 50.0349C131.672 37.7777 136.608 33.7796 148.839 33.7796C156.546 33.7796 162.971 35.1447 166.947 41.2972C167.511 42.1692 168.602 42.5864 169.563 42.1928L203.957 28.0992Z" fill="currentColor"/>
<path d="M51.5 100L0 100L87 2.38419e-06H138.5L70 78.75L51.5 100Z" fill="currentColor"/>
</g>
<defs>
<clipPath id="clip0_1378_116">
<rect width="839" height="100" fill="currentColor"/>
</clipPath>
</defs>
</svg>
