<svg height="100%" viewBox="0 0 794 120" fill="none" xmlns="http://www.w3.org/2000/svg">
<g clip-path="url(#clip0_1205_1847)">
<path d="M183.389 -0.0848541C219.272 -0.0848541 246.955 24.2673 246.955 59.9045C246.955 95.5418 219.336 119.894 183.389 119.894C147.442 119.894 119.823 95.6479 119.823 59.9894C119.823 24.3309 147.506 -0.0848541 183.389 -0.0848541ZM183.389 30.8644C166.499 30.8644 155.515 43.7405 155.515 59.9045C155.515 76.0686 166.499 89.0083 183.389 89.0083C200.279 89.0083 211.263 76.2807 211.263 59.9894C211.263 43.6981 200.279 30.9493 183.389 30.9493V30.8644Z" fill="currentColor"/>
<path d="M335.102 61.941L334.465 1.90914L372.111 1.78186V117.879H325.202L299.707 79.4626H292.569L292.187 117.879H254.795V1.8455H279.269C293.079 1.8455 300.26 13.3428 300.26 13.3428L335.102 61.941Z" fill="currentColor"/>
<path d="M0 59.9894C0 24.1824 27.6189 -0.0848541 63.056 -0.0848541C94.3928 -0.0848541 109.796 17.6489 116.679 33.6433L82.8566 49.4255C81.1334 45.3639 78.2215 41.9167 74.5025 39.5358C70.7835 37.1549 66.4308 35.9513 62.015 36.0827C49.8839 36.0827 39.0701 45.2678 39.0701 59.9894C39.0701 73.3322 48.3543 83.8112 63.3747 83.8749C67.5484 83.7209 71.5932 82.39 75.041 80.0362C78.4887 77.6824 81.1984 74.402 82.8566 70.5745L116.722 86.081C109.944 101.566 94.4353 120.021 63.0985 120.021C27.6189 120 0 95.6479 0 59.9894ZM411.139 32.7099H379.972V2.03641H500.773L479.017 32.7099H446.321V78.2535L417.703 118.091H411.139V32.7099Z" fill="currentColor"/>
<path d="M474.28 118.006H424.162L499.264 13.5125C499.264 13.5125 506.36 2.03641 520.148 2.03641H544.602V118.006H507.295L506.913 79.6111H499.795L474.28 118.006Z" fill="currentColor"/>
<path d="M704.366 32.7099H673.199V2.03641H794L772.245 32.7099H739.548V78.2535L710.931 118.091H704.366V32.7099ZM552.25 60.0106C552.25 24.1824 579.763 0.0212097 615.306 0.0212097C646.643 0.0212097 662.046 17.755 668.95 33.7493L635.085 49.4467C633.363 45.3829 630.452 41.9329 626.733 39.5484C623.015 37.1639 618.661 35.956 614.244 36.0827C602.113 36.0827 591.299 45.289 591.299 60.0106C591.299 73.3322 600.583 83.8112 615.603 83.8961C619.775 83.7321 623.815 82.3972 627.261 80.0447C630.707 77.6921 633.419 74.4172 635.085 70.5957L668.95 86.1022C662.152 101.566 646.643 120.042 615.306 120.042C579.763 120 552.25 95.6691 552.25 60.0106Z" fill="currentColor"/>
</g>
<defs>
<clipPath id="clip0_1205_1847">
<rect width="794" height="120" fill="currentColor"/>
</clipPath>
</defs>
</svg>
