<svg xmlns="http://www.w3.org/2000/svg" viewBox="0 0 373.73 56.57" height="80px"><g id="con" fill="currentColor" opacity="1" transform-origin="117.8550033569336px 28.270001370459795px" style="transform: none; transform-origin: 117.855px 28.27px;"><path d="M86.32 0c16.89 0 29.92 11.48 29.92 28.28s-13 28.28-29.92 28.28S56.4 45.13 56.4 28.32 69.43 0 86.32 0Zm0 14.59c-7.95 0-13.12 6.07-13.12 13.69S78.37 42 86.32 42s13.12-6 13.12-13.68-5.17-13.69-13.12-13.69Z" transform="translate(0 -.04)"></path><path id="n" d="m157.73 29.24-.3-28.3 17.72-.06v54.73h-22.08l-12-18.11h-3.36l-.18 18.11h-17.6V.91h11.52c6.5 0 9.88 5.42 9.88 5.42Z" transform="translate(0 -.04)"></path><path d="M0 28.32C0 11.44 13 0 29.68 0c14.75 0 22 8.36 25.24 15.9L39 23.34a10.32 10.32 0 0 0-9.81-6.29c-5.71 0-10.8 4.33-10.8 11.27 0 6.29 4.37 11.23 11.44 11.26A10.41 10.41 0 0 0 39 33.31l15.94 7.31c-3.19 7.3-10.49 16-25.24 16C13 56.61 0 45.13 0 28.32ZM193.52 15.46h-14.67V1h56.86l-10.24 14.46h-15.39v21.47l-13.47 18.78h-3.09Z" transform="translate(0 -.04)"></path></g><g id="tact" fill="currentColor" opacity="1" transform-origin="286.6899948120117px 28.299998242408037px" style="transform: none; transform-origin: 286.69px 28.3px;"><path id="a" d="M223.24 55.67h-23.59L235 6.41S238.34 1 244.83 1h11.51v54.67h-17.56l-.18-18.1h-3.35Z" transform="translate(0 -.04)"></path><path d="M331.54 15.46h-14.67V1h56.86l-10.24 14.46H348.1v21.47l-13.47 18.78h-3.09ZM259.94 28.33c0-16.89 12.95-28.28 29.68-28.28 14.75 0 22 8.36 25.25 15.9l-15.94 7.4a10.33 10.33 0 0 0-9.81-6.3c-5.71 0-10.8 4.34-10.8 11.28 0 6.28 4.37 11.22 11.44 11.26a10.45 10.45 0 0 0 9.17-6.27l15.94 7.31c-3.2 7.29-10.5 16-25.25 16-16.73-.02-29.68-11.49-29.68-28.3Z" transform="translate(0 -.04)"></path></g></svg>