<!-- <svg xmlns="http://www.w3.org/2000/svg" viewBox="0 0 373.73 56.57" height="80px"><g id="con" fill="currentColor" opacity="1" transform-origin="117.8550033569336px 28.270001370459795px" style="transform: none; transform-origin: 117.855px 28.27px;"><path d="M86.32 0c16.89 0 29.92 11.48 29.92 28.28s-13 28.28-29.92 28.28S56.4 45.13 56.4 28.32 69.43 0 86.32 0Zm0 14.59c-7.95 0-13.12 6.07-13.12 13.69S78.37 42 86.32 42s13.12-6 13.12-13.68-5.17-13.69-13.12-13.69Z" transform="translate(0 -.04)"></path><path id="n" d="m157.73 29.24-.3-28.3 17.72-.06v54.73h-22.08l-12-18.11h-3.36l-.18 18.11h-17.6V.91h11.52c6.5 0 9.88 5.42 9.88 5.42Z" transform="translate(0 -.04)"></path><path d="M0 28.32C0 11.44 13 0 29.68 0c14.75 0 22 8.36 25.24 15.9L39 23.34a10.32 10.32 0 0 0-9.81-6.29c-5.71 0-10.8 4.33-10.8 11.27 0 6.29 4.37 11.23 11.44 11.26A10.41 10.41 0 0 0 39 33.31l15.94 7.31c-3.19 7.3-10.49 16-25.24 16C13 56.61 0 45.13 0 28.32ZM193.52 15.46h-14.67V1h56.86l-10.24 14.46h-15.39v21.47l-13.47 18.78h-3.09Z" transform="translate(0 -.04)"></path></g><g id="tact" fill="currentColor" opacity="1" transform-origin="286.6899948120117px 28.299998242408037px" style="transform: none; transform-origin: 286.69px 28.3px;"><path id="a" d="M223.24 55.67h-23.59L235 6.41S238.34 1 244.83 1h11.51v54.67h-17.56l-.18-18.1h-3.35Z" transform="translate(0 -.04)"></path><path d="M331.54 15.46h-14.67V1h56.86l-10.24 14.46H348.1v21.47l-13.47 18.78h-3.09ZM259.94 28.33c0-16.89 12.95-28.28 29.68-28.28 14.75 0 22 8.36 25.25 15.9l-15.94 7.4a10.33 10.33 0 0 0-9.81-6.3c-5.71 0-10.8 4.34-10.8 11.28 0 6.28 4.37 11.22 11.44 11.26a10.45 10.45 0 0 0 9.17-6.27l15.94 7.31c-3.2 7.29-10.5 16-25.25 16-16.73-.02-29.68-11.49-29.68-28.3Z" transform="translate(0 -.04)"></path></g></svg> -->

<svg width="864" height="100%" viewBox="0 0 864 121" fill="none" xmlns="http://www.w3.org/2000/svg">
<path d="M740 121H667.534L645 89.0194V0H651.958H682.288V89.0194H716.942L740 121Z" fill="currentColor"/>
<path d="M674 121H579C572.373 121 567 115.627 567 109L567 89.0194V0H573.89H603.923V89.0194H661.068L674 121Z" fill="currentColor"/>
<path d="M785.5 0C821.878 0 850 24.5588 850 60.5C850 96.4412 821.942 121 785.5 121C749.057 121 721 96.4412 721 60.5C721 24.5588 748.95 0 785.5 0ZM785.5 36.3043C771.396 36.3043 762.237 46.982 762.237 60.4359C762.237 73.8899 771.396 84.5676 785.5 84.5676C799.604 84.5676 808.763 73.8899 808.763 60.4359C808.763 46.982 799.518 36.3043 785.5 36.3043Z" fill="currentColor"/>
<path d="M560 0H464V121H560V90.606H502.34V75.0989H532.364V44.6163H502.34V30.4826H560V0Z" fill="currentColor"/>
<path d="M377.433 81.0902H417.567V121H457V6.65516e-06H417.567V42.8134H377.433V6.65516e-06H338L338 121H366.164H377.433L377.433 81.0902Z" fill="currentColor"/>
<path d="M295 2.57248e-07L249.375 63.2857V121H227.168H213.631L213.631 63.2857C213.631 63.2857 167.246 2.48044 166 2.01609e-07C181.929 2.01609e-07 190.829 8.76406e-06 206.758 2.01609e-07L231.325 29.5L254.242 4.25472e-06C270.004 3.28604e-05 279.239 -3.14666e-06 295 2.57248e-07Z" fill="currentColor"/>
<path d="M116.427 121H64L142.488 11.9963C142.488 11.9963 149.998 0.00824486 164.423 0.00824486H177.978H190V121H150.965L150.463 69.9338L116.427 121Z" fill="currentColor"/>
<path d="M166.349 81.1241H120.889V52.0794H166.349V81.1241Z" fill="currentColor"/>
<path d="M52.9953 91.3358C39.745 91.3494 27.0001 85.9855 17.4139 76.3606L0 102.545C11.7628 113.689 27.8163 121 51.3209 121C53.2644 121 55.158 120.936 57 120.81L96.5 68.5C89.9059 51.4529 69.0345 47.6522 53.8116 44.8906C42.0488 42.7985 37.5907 41.1248 37.5907 36.7203C37.5907 33.7473 39.4116 30.6201 47.6791 30.6201C58.8118 31.0814 69.5486 35.0903 78.4674 42.1158L96.3419 17.2085C83.7628 6.39549 67.5418 1 49.5 1C19.2139 1 3.64184 18.9482 3.64184 38.6142C3.64184 67.7058 31.4791 72.2424 49.6884 75.722C60.614 77.748 65.2395 79.9282 65.2395 84.5309C65.2395 89.1336 59.2744 91.3358 52.9953 91.3358Z" fill="currentColor"/>
</svg>
