<svg height="100%" viewBox="0 0 1425 165" fill="none" xmlns="http://www.w3.org/2000/svg">
<g id="contact">
<g id="nahiyan">
<g id="Frame 54">
<path id="path260" d="M85.5756 164.235C85.1964 164.718 84.6165 165 84.0025 165L4.1131 165C2.44456 165 1.50964 163.077 2.54004 161.765L128.949 0.764908C129.329 0.281998 129.909 0 130.523 0H210.412C212.08 0 213.015 1.92273 211.985 3.23509L85.5756 164.235Z" fill="currentColor"/>
</g>
<path id="c" fill-rule="evenodd" clip-rule="evenodd" d="M332.442 165C334.96 165 337 163.428 337 161.489V101.192V63.8078V3.51064C337 1.57177 334.96 -2.31208e-08 332.442 0L220.077 0C219.466 0 218.888 0.279859 218.508 0.759653L149.431 88.1362C149.152 88.4894 149 88.9264 149 89.3766V161.489C149 163.428 151.04 165 153.558 165H332.442ZM337 101.192V63.8078H226.26C223.743 63.8078 221.702 65.3796 221.702 67.3185V97.6815C221.702 99.6203 223.743 101.192 226.26 101.192H337Z" fill="currentColor"/>
<path id="o" fill-rule="evenodd" clip-rule="evenodd" d="M529 4C529 1.79086 527.209 0 525 0H345C342.791 0 341 1.79086 341 4V161C341 163.209 342.791 165 345 165H525C527.209 165 529 163.209 529 161V4ZM456.298 68.4131C456.298 66.2039 454.507 64.4131 452.298 64.4131H417.702C415.493 64.4131 413.702 66.2039 413.702 68.4131V97.1923C413.702 99.4014 415.493 101.192 417.702 101.192H452.298C454.507 101.192 456.298 99.4014 456.298 97.1923V68.4131Z" fill="currentColor"/>
<path id="n" d="M627.704 143.037C626.523 141.56 624.141 142.395 624.141 144.286V163C624.141 164.105 623.246 165 622.141 165L535 165C533.895 165 533 164.104 533 163L533.007 1.99991C533.007 0.895373 533.902 0 535.007 0H608.128C608.739 0 609.317 0.279541 609.696 0.758874L626.446 21.9238C627.622 23.4105 630.014 22.5785 630.014 20.6827V2C630.014 0.895431 630.91 0 632.014 0H719C720.105 0 721 0.895431 721 2V163C721 164.105 720.105 165 719 165L646.221 165C645.614 165 645.039 164.724 644.659 164.249L627.704 143.037Z" fill="currentColor"/>
<g id="Frame 59">
<path id="t" d="M757.632 65.9074C757.632 64.8028 756.736 63.9074 755.632 63.9074H727C725.895 63.9074 725 63.0119 725 61.9074L725 2C725 0.89543 725.895 0 727 0H911C912.105 0 913 0.895431 913 2V61.9074C913 63.0119 912.105 63.9074 911 63.9074H881.011C879.906 63.9074 879.011 64.8028 879.011 65.9074V125.901C879.011 126.352 878.858 126.79 878.578 127.144L849.157 164.243C848.778 164.721 848.2 165 847.59 165H759.632C758.527 165 757.632 164.105 757.632 163V65.9074Z" fill="currentColor"/>
</g>
<path id="a" d="M943.868 164.304C943.488 164.746 942.935 165 942.352 165L857.122 165C855.452 165 854.517 163.074 855.551 161.762L970.068 16.4007C970.095 16.3659 970.12 16.3325 970.146 16.2964C970.859 15.2885 982.023 0 1002.84 0H1023.06H1039C1040.1 0 1041 0.895432 1041 2V163C1041 164.105 1040.1 165 1039 165L967.714 165C966.609 165 965.714 164.105 965.714 163V144.281C965.714 142.426 963.407 141.57 962.197 142.978L943.868 164.304Z" fill="currentColor"/>
<path id="c_2" fill-rule="evenodd" clip-rule="evenodd" d="M1228.44 165C1230.96 165 1233 163.428 1233 161.489V101.192V63.8078V3.51064C1233 1.57177 1230.96 -2.31208e-08 1228.44 0L1049.56 1.64316e-06C1047.04 1.66628e-06 1045 1.57177 1045 3.51064L1045 161.489C1045 163.428 1047.04 165 1049.56 165H1228.44ZM1233 101.192V63.8078H1122.26C1119.74 63.8078 1117.7 65.3796 1117.7 67.3185V97.6815C1117.7 99.6204 1119.74 101.192 1122.26 101.192H1233Z" fill="currentColor"/>
<path id="t_2" d="M1269.63 65.9074C1269.63 64.8028 1268.74 63.9074 1267.63 63.9074H1239C1237.9 63.9074 1237 63.0119 1237 61.9074L1237 2C1237 0.89543 1237.9 0 1239 0H1423C1424.1 0 1425 0.895431 1425 2V61.9074C1425 63.0119 1424.1 63.9074 1423 63.9074H1393.01C1391.91 63.9074 1391.01 64.8028 1391.01 65.9073V163C1391.01 164.105 1390.12 165 1389.01 165H1271.63C1270.53 165 1269.63 164.105 1269.63 163V65.9074Z" fill="currentColor"/>
</g>
</g>
</svg>
