<svg width="2692" height="331" viewBox="0 0 2692 331" fill="none" xmlns="http://www.w3.org/2000/svg">
<g id="contact">
<path id="c" d="M-1.42499e-05 326.033L-1.74846e-07 4.0332C-7.8281e-08 1.82406 1.79086 0.0332032 4 0.0332033L372 0.0332194C374.209 0.0332195 376 1.82408 376 4.03322L376 137.278C376 137.777 375.596 138.181 375.098 138.181L176.588 138.181C161.758 138.181 149.736 150.203 149.736 165.033C149.736 179.863 161.758 191.886 176.588 191.886L375.098 191.886C375.596 191.886 376 192.29 376 192.788L376 326.033C376 328.242 374.209 330.033 372 330.033L3.99999 330.033C1.79085 330.033 -1.43465e-05 328.242 -1.42499e-05 326.033Z" fill="currentColor"/>
<path id="Subtract" d="M757.442 0C759.959 0 762 1.57251 762 3.51172V326.555C762 328.494 759.959 330.066 757.442 330.066H390.558C388.041 330.066 386 328.494 386 326.555V3.51172C386 1.57251 388.041 0 390.558 0H757.442ZM574 135.034C557.431 135.034 544 148.466 544 165.034C544 181.602 557.432 195.034 574 195.034C590.568 195.034 604 181.602 604 165.034C604 148.466 590.569 135.034 574 135.034Z" fill="currentColor"/>
<path id="n" d="M930.863 273.964C929.625 273.964 928.621 274.968 928.621 276.206V326.034C928.621 328.243 926.83 330.034 924.621 330.034L776 330.034C773.791 330.034 772 328.243 772 326.033L772.014 4.03303C772.014 1.82395 773.805 0.0332031 776.014 0.0332031H931.04C932.236 0.0332031 933.206 1.00285 933.206 2.19897C933.206 31.8029 957.204 55.8016 986.808 55.8016H991.379V4.0332C991.379 1.82406 993.17 0.0332031 995.379 0.0332031H1144C1146.21 0.0332031 1148 1.82406 1148 4.0332V326.034C1148 328.243 1146.21 330.034 1144 330.034L988.516 330.034C987.313 330.034 986.338 329.059 986.338 327.856C986.338 298.093 962.21 273.964 932.447 273.964H930.863Z" fill="currentColor"/>
<path id="t" d="M1229.2 330.033C1226.99 330.033 1225.2 328.242 1225.2 326.033L1225.2 222.465L1225.2 202.338C1225.2 166.668 1196.28 137.752 1160.61 137.752C1159.17 137.752 1158 136.584 1158 135.142L1158 37.5867L1158.11 4.02033C1158.12 1.81623 1159.9 0.0332195 1162.11 0.0332194L1315.79 0.0332127L1376.63 0.03321L1529.99 0.0332033C1532.2 0.0332032 1534 1.82921 1533.99 4.04164L1533.88 57.3328L1534 135.265C1534 136.638 1532.89 137.752 1531.51 137.752C1497.6 137.752 1470.1 165.218 1470.05 199.129L1470.01 224.463L1470.01 326.033C1470.01 328.242 1468.22 330.033 1466.01 330.033L1229.2 330.033Z" fill="currentColor"/>
<path id="a" d="M1916 0.0332031H1548C1545.79 0.0332031 1544 1.82406 1544 4.0332V326.033C1544 328.242 1545.79 330.033 1548 330.033H1700.61C1701.05 330.033 1701.4 329.679 1701.4 329.241V162.045C1701.4 145.148 1715.1 131.45 1732 131.45C1748.9 131.45 1762.6 145.148 1762.6 162.045V329.241C1762.6 329.679 1762.95 330.033 1763.39 330.033H1916C1918.21 330.033 1920 328.242 1920 326.033V4.0332C1920 1.82406 1918.21 0.0332031 1916 0.0332031Z" fill="currentColor"/>
<path id="b" d="M2272.01 191.551C2257.26 191.551 2245.31 179.596 2245.31 164.849C2245.31 150.102 2257.26 138.147 2272.01 138.147H2301.44C2303.96 138.147 2306 136.575 2306 134.636V3.54384C2306 1.60497 2303.96 0.0332031 2301.44 0.0332031H1934.56C1932.04 0.0332031 1930 1.60497 1930 3.54384L1930 134.636C1930 182.48 1930 191.762 1930 195.062V326.523C1930 328.461 1932.04 330.033 1934.56 330.033H2301.44C2303.96 330.033 2306 328.461 2306 326.523V195.062C2306 193.123 2303.96 191.551 2301.44 191.551H2272.01Z" fill="currentColor"/>
<path id="t_2" d="M2387.2 330.033C2384.99 330.033 2383.2 328.242 2383.2 326.033L2383.2 222.465L2383.2 202.338C2383.2 166.668 2354.28 137.752 2318.61 137.752C2317.17 137.752 2316 136.584 2316 135.142L2316 37.5867L2316.11 4.02033C2316.12 1.81623 2317.9 0.0332195 2320.11 0.0332194L2473.79 0.0332127L2534.63 0.03321L2687.99 0.0332033C2690.2 0.0332032 2692 1.82921 2691.99 4.04164L2691.88 57.3328L2692 135.265C2692 136.638 2690.89 137.752 2689.51 137.752C2655.6 137.752 2628.1 165.218 2628.05 199.129L2628.01 224.463L2628.01 326.033C2628.01 328.242 2626.22 330.033 2624.01 330.033L2387.2 330.033Z" fill="currentColor"/>
</g>
</svg>
