<svg height="100%" viewBox="0 0 872 100" fill="none" xmlns="http://www.w3.org/2000/svg">
<path d="M217.238 28.0819C210.26 14.7651 194.645 0 162.877 0C155.324 0 148.121 0.893272 141.454 2.58131L99 52.0833C100.267 80.6433 127.793 99.9827 162.92 100C194.688 100 210.41 84.6344 217.281 71.7414L180.95 57.1815C179.269 60.3682 177.954 61.8506 175.027 64.2345C171.532 66.1943 169.954 68.2553 163.2 68.2553C147.973 68.2023 140.562 61.1268 140.562 50.0177C140.562 37.7605 149.524 31.7624 161.822 31.7624C167.954 31.7624 169.711 32.6551 173.481 34.6374C177.954 37.1103 179.203 39.4898 180.95 42.8715L217.238 28.0819Z" fill="currentColor"/>
<path d="M221.281 0H262.025V53.4637C262.025 62.8969 262.777 70.3934 277.232 70.3934C291.686 70.3934 292.29 62.8969 292.29 53.4637V0H333.013V57.7296C333.013 82.1915 316.457 100 277.232 100C238.006 100 221.281 82.1915 221.281 57.891V0Z" fill="currentColor"/>
<path fill-rule="evenodd" clip-rule="evenodd" d="M401.631 0H337.013V100H379.686V70.4032L382.513 70.4032L406.013 100L454.394 100L423.614 64.175C437.756 58.6133 445.189 47.4135 445.189 34.3281C445.189 15.5987 429.96 0 401.631 0ZM396.98 26.4855H377.013V41.3851H396.98C399.405 41.3851 401.731 40.6003 403.446 39.2031C405.161 37.806 406.124 35.9111 406.124 33.9353C406.124 31.9595 405.161 30.0646 403.446 28.6675C401.731 27.2704 399.405 26.4855 396.98 26.4855Z" fill="currentColor"/>
<path fill-rule="evenodd" clip-rule="evenodd" d="M430.123 65.0522L459.954 100L478.627 100V70.4032L481.454 70.4032L504.954 100L553.336 100L522.556 64.175C536.697 58.6133 544.131 47.4135 544.131 34.3281C544.131 15.5987 528.902 0 500.572 0H421.124C439.313 4.65151 448.954 18.4885 448.954 34.4965C448.954 47.618 442.476 58.9398 430.123 65.0522ZM475.954 26.4855H495.922C498.347 26.4855 500.672 27.2704 502.387 28.6675C504.102 30.0646 505.065 31.9595 505.065 33.9353C505.065 35.9111 504.102 37.806 502.387 39.2031C500.672 40.6003 498.347 41.3851 495.922 41.3851H475.954V26.4855Z" fill="currentColor"/>
<path d="M647.454 -8.04173e-06L556.954 3.21669e-05V100L647.454 100V67.4589L602.903 67.4589V62.0652L629.742 62.0652V36.8729L602.903 36.873V31.7897L647.454 31.7896V-8.04173e-06Z" fill="currentColor"/>
<path d="M693.133 73.1405L693.133 100H651.133L651.137 -1.66893e-06H681.633L716.633 42.1488V-1.66893e-06H761.633V100H735.09H716.633L693.133 73.1405Z" fill="currentColor"/>
<path d="M778.37 35.8778H746.133V0H871.133L839.017 35.8778H821.983V57.7574L785.168 100H778.37V35.8778Z" fill="currentColor"/>
<path d="M51.5 100L0 100L87 2.38419e-06H138.5L70 78.75L51.5 100Z" fill="currentColor"/>
</svg>
