<svg height="100%" viewBox="0 0 870 101" fill="none" xmlns="http://www.w3.org/2000/svg">
<g clip-path="url(#clip0_1378_225)">
<path fill-rule="evenodd" clip-rule="evenodd" d="M149.923 0.0172119C181.69 0.0172119 197.305 14.7823 204.283 28.0992L184.816 36.0331L167.567 43.183C166.605 43.5818 165.508 43.1652 164.959 42.2802C161.243 36.2871 156.532 35.7796 148.839 35.7796C136.608 35.7796 133.672 37.7777 133.672 50.0349C133.672 61.144 135.065 64.2195 150.21 64.2725C157.049 64.2725 161.585 63.0266 164.954 57.7724C165.51 56.9049 166.593 56.4958 167.547 56.8851L185.988 64.4092L204.326 71.7586C197.456 84.6516 181.733 100.017 149.966 100.017C149.964 100.017 149.961 100.017 149.959 100.017C149.95 100.017 149.941 100.017 149.932 100.017C147.81 100.016 145.715 99.9438 143.653 99.8024C116.11 97.9244 94.2537 83.866 87.8857 62.9339L143 0.272155C143.216 0.256034 143.433 0.240669 143.651 0.226063C145.7 0.0875544 147.781 0.0172119 149.889 0.0172119C149.895 0.0172119 149.901 0.0172124 149.906 0.0172133C149.912 0.0172124 149.917 0.0172119 149.923 0.0172119Z" fill="currentColor"/>
<path d="M209 0H255.744V35.4637C255.744 44.8969 254.293 54 265.5 54C275.5 54 274.009 44.8969 274.009 35.4637V0H320.732V57.7296C320.732 82.1915 304.176 100 264.951 100C225.726 100 209 82.1915 209 57.891V0Z" fill="currentColor"/>
<path fill-rule="evenodd" clip-rule="evenodd" d="M435 41C435 9.5 410.059 0 385.554 0H325V100L374.554 100V92.4483C374.554 90.5845 376.879 89.7338 378.082 91.1574L385.554 100L435 100L417.381 77.7566C428.04 70.9843 435 59.6195 435 41ZM392.213 45.4984C390.999 46.691 389.326 47.4029 387.549 47.4826H376.01C374.905 47.4826 374.01 46.5872 374.01 45.4826V37C374.01 35.8954 374.905 35 376.01 35H387.549C389.286 35.0378 390.939 35.6968 392.152 36.836C393.367 37.9753 394.046 39.5044 394.045 41.0966C394.083 42.7265 393.426 44.3058 392.213 45.4984Z" fill="currentColor"/>
<path d="M643 0L553 4.02086e-05V100L643 100V67.4589L600.695 67.4589C599.59 67.4589 598.695 66.5635 598.695 65.4589V64.0652C598.695 62.9606 599.59 62.0652 600.695 62.0652L625.386 62.0652V36.8729L600.695 36.873C599.59 36.873 598.695 35.9775 598.695 34.873V33.7897C598.695 32.6851 599.59 31.7897 600.695 31.7897L643 31.7896V0Z" fill="currentColor"/>
<path fill-rule="evenodd" clip-rule="evenodd" d="M772.273 35.8778C773.377 35.8778 774.273 36.7732 774.273 37.8778V100H781.078L817.935 57.7574V37.8778C817.935 36.7732 818.83 35.8778 819.935 35.8778H836.987L869.139 0H742V8.39233e-05H705.5V8.70103C705.5 10.3992 703.517 11.3246 702.216 10.2341L690 8.39233e-05H647.004L647 99.9857L695.5 99.9857V91.4649C695.5 89.7352 697.547 88.8211 698.835 89.9758L710 99.9857H757.5V70.2379V35.8778H772.273Z" fill="currentColor"/>
<path fill-rule="evenodd" clip-rule="evenodd" d="M549 41C549 9.5 524.059 0 499.554 0H439V100L488.554 100V92.4483C488.554 90.5845 490.879 89.7338 492.082 91.1574L499.554 100L549 100L531.381 77.7566C542.04 70.9843 549 59.6195 549 41ZM506.213 45.4984C504.999 46.691 503.326 47.4029 501.549 47.4826H490.01C488.905 47.4826 488.01 46.5872 488.01 45.4826V37C488.01 35.8954 488.905 35 490.01 35H501.549C503.286 35.0378 504.939 35.6968 506.152 36.836C507.367 37.9753 508.046 39.5044 508.045 41.0966C508.083 42.7265 507.426 44.3058 506.213 45.4984Z" fill="currentColor"/>
<path d="M51.5 100L0 100L87 2.38419e-06H138.5L70 78.75L51.5 100Z" fill="currentColor" fill-opacity="0.5"/>
</g>
<defs>
<clipPath id="clip0_1378_225">
<rect width="870" height="101" fill="currentColor"/>
</clipPath>
</defs>
</svg>
