<svg height="100%" viewBox="0 0 870 101" fill="none" xmlns="http://www.w3.org/2000/svg">
<g clip-path="url(#clip0_1378_225)">
<path d="M204.283 28.0992C197.305 14.7823 181.69 0.0172119 149.923 0.0172119C147.58 0.0172119 145.27 0.103173 143 0.272155L87.8857 62.9339C94.7332 85.4419 119.489 100.002 149.966 100.017C181.733 100.017 197.456 84.6516 204.326 71.7586L167.996 57.1987C166.315 60.3854 165 61.8678 162.073 64.2518C158.577 66.2115 157 68.2725 150.246 68.2725C135.019 68.2195 127.607 61.144 127.607 50.0349C127.607 37.7777 136.57 31.7796 148.867 31.7796C155 31.7796 156.756 32.6723 160.527 34.6546C165 37.1275 166.249 39.507 167.996 42.8887L204.283 28.0992Z" fill="currentColor"/>
<path d="M203.957 28.0992C197.017 14.7823 181.486 0.0172119 149.889 0.0172119C147.557 0.0172119 145.259 0.103258 143 0.272406L94 56V74.9838C104.671 90.5013 125.444 100.005 149.932 100.017C181.529 100.017 197.167 84.6516 204 71.7586L167.547 56.8851C166.593 56.4958 165.51 56.9049 164.954 57.7724C161.585 63.0266 157.049 64.2725 150.21 64.2725C135.065 64.2195 133.672 61.144 133.672 50.0349C133.672 37.7777 136.608 35.7796 148.839 35.7796C156.532 35.7796 161.243 36.2871 164.959 42.2802C165.508 43.1652 166.605 43.5818 167.567 43.183L203.957 28.0992Z" fill="currentColor"/>
<path d="M209 0H255.744V35.4637C255.744 44.8969 254.293 54 265.5 54C275.5 54 274.009 44.8969 274.009 35.4637V0H320.732V57.7296C320.732 82.1915 304.176 100 264.951 100C225.726 100 209 82.1915 209 57.891V0Z" fill="currentColor"/>
<path fill-rule="evenodd" clip-rule="evenodd" d="M325 0H385.554C410.059 0 435 9.5 435 41C435 65.1887 422.951 71.5906 416.25 75.1508C416.025 75.2702 415.806 75.3864 415.594 75.5L435 100L385.554 100L378.082 91.1574C376.879 89.7338 374.554 90.5845 374.554 92.4483V100L325 100V0ZM387.549 47.4826C389.326 47.4029 390.999 46.691 392.213 45.4984C393.426 44.3058 394.084 42.7265 394.045 41.0966C394.046 39.5044 393.367 37.9753 392.152 36.836C390.938 35.6968 389.286 35.0378 387.549 35H376.01C374.905 35 374.01 35.8954 374.01 37V45.4826C374.01 46.5872 374.905 47.4826 376.01 47.4826H387.549Z" fill="currentColor"/>
<path fill-rule="evenodd" clip-rule="evenodd" d="M325 0H385.554C410.059 0 435 9.5 435 41C435 78.6627 406.525 86.6426 376.555 86.9719C375.451 86.984 374.554 87.8635 374.554 88.9681V100L325 100V0ZM387.549 47.4826C389.326 47.4029 390.999 46.691 392.213 45.4984C393.426 44.3058 394.084 42.7265 394.045 41.0966C394.046 39.5044 393.367 37.9753 392.152 36.836C390.938 35.6968 389.286 35.0378 387.549 35H376.01C374.905 35 374.01 35.8954 374.01 37V45.4826C374.01 46.5872 374.905 47.4826 376.01 47.4826H387.549Z" fill="currentColor"/>
<path d="M643 0L553 4.02086e-05V100L643 100V67.4589L600.695 67.4589C599.59 67.4589 598.695 66.5635 598.695 65.4589V64.0652C598.695 62.9606 599.59 62.0652 600.695 62.0652L625.386 62.0652V36.8729L600.695 36.873C599.59 36.873 598.695 35.9775 598.695 34.873V33.7897C598.695 32.6851 599.59 31.7897 600.695 31.7897L643 31.7896V0Z" fill="currentColor"/>
<path d="M774.273 37.8778C774.273 36.7732 773.377 35.8778 772.273 35.8778H742V0H869.139L836.987 35.8778H819.935C818.83 35.8778 817.935 36.7732 817.935 37.8778V57.7574L781.078 100H774.273V37.8778Z" fill="currentColor"/>
<path d="M698.835 89.9758C697.547 88.8211 695.5 89.7352 695.5 91.4649V99.9857L647 99.9857L647.004 8.39233e-05H690L702.216 10.2341C703.517 11.3246 705.5 10.3992 705.5 8.70103V8.39233e-05H757.5V70.2379V99.9857H710L698.835 89.9758Z" fill="currentColor"/>
<path fill-rule="evenodd" clip-rule="evenodd" d="M439 0H499.554C524.059 0 549 9.5 549 41C549 65.1887 536.951 71.5906 530.25 75.1508C530.025 75.2702 529.806 75.3864 529.594 75.5L549 100L499.554 100L492.082 91.1574C490.879 89.7338 488.554 90.5845 488.554 92.4483V100L439 100V0ZM501.549 47.4826C503.326 47.4029 504.999 46.691 506.213 45.4984C507.426 44.3058 508.084 42.7265 508.045 41.0966C508.046 39.5044 507.367 37.9753 506.152 36.836C504.938 35.6968 503.286 35.0378 501.549 35H490.01C488.905 35 488.01 35.8954 488.01 37V45.4826C488.01 46.5872 488.905 47.4826 490.01 47.4826H501.549Z" fill="currentColor"/>
<path fill-rule="evenodd" clip-rule="evenodd" d="M439 0H499.554C524.059 0 549 9.5 549 41C549 78.6627 520.525 86.6426 490.555 86.9719C489.451 86.984 488.554 87.8635 488.554 88.9681V100L439 100V0ZM501.549 47.4826C503.326 47.4029 504.999 46.691 506.213 45.4984C507.426 44.3058 508.084 42.7265 508.045 41.0966C508.046 39.5044 507.367 37.9753 506.152 36.836C504.938 35.6968 503.286 35.0378 501.549 35H490.01C488.905 35 488.01 35.8954 488.01 37V45.4826C488.01 46.5872 488.905 47.4826 490.01 47.4826H501.549Z" fill="currentColor"/>
<path d="M51.5 100L0 100L87 2.38419e-06H138.5L70 78.75L51.5 100Z" fill="currentColor"/>
</g>
<defs>
<clipPath id="clip0_1378_225">
<rect width="870" height="101" fill="currentColor"/>
</clipPath>
</defs>
</svg>
