<svg height="100%" viewBox="0 0 816 122" fill="none" xmlns="http://www.w3.org/2000/svg">
<g clip-path="url(#clip0_1239_2405)">
<path d="M723.237 44.4121H691V1H816L783.884 44.4121H766.851V70.8864L730.035 122H723.237V44.4121Z" fill="currentColor"/>
<path d="M621.675 89.8087L621.675 122H566V43.525V24.8963L566.004 1H576.515H588.24C589.791 1 591.227 1 592.551 1C600.92 1 608.849 4.74403 614.168 11.2062L634.103 35.4258L634.103 1H691L691 122H658.957H648.518L621.675 89.8087Z" fill="currentColor"/>
<path d="M559 1H477V122H559V82.6253H522.949V76.0989L541.288 76.0989V45.6163L522.949 45.6162V39.4655H559V1Z" fill="currentColor"/>
<path fill-rule="evenodd" clip-rule="evenodd" d="M424.618 1H360V122H402.673V86.1878L405.5 86.1879L429 122L477.381 122L446.601 78.6517C460.743 71.9221 468.176 58.3703 468.176 42.537C468.176 19.8744 452.947 1 424.618 1ZM419.967 33.0475H400V51.076H419.967C422.392 51.076 424.718 50.1263 426.433 48.4358C428.148 46.7453 429.111 44.4525 429.111 42.0618C429.111 39.671 428.148 37.3782 426.433 35.6877C424.718 33.9972 422.392 33.0475 419.967 33.0475Z" fill="currentColor"/>
<path fill-rule="evenodd" clip-rule="evenodd" d="M307.618 1H243V122H285.673V86.1878L288.5 86.1879L312 122L360.381 122L329.601 78.6517C343.743 71.9221 351.176 58.3703 351.176 42.537C351.176 19.8744 335.947 1 307.618 1ZM302.967 33.0475H283V51.076H302.967C305.392 51.076 307.718 50.1263 309.433 48.4358C311.148 46.7453 312.111 44.4525 312.111 42.0618C312.111 39.671 311.148 37.3782 309.433 35.6877C307.718 33.9972 305.392 33.0475 302.967 33.0475Z" fill="currentColor"/>
<path d="M125 3H165.744V66.1373C165.744 77.2774 166.496 86.1303 180.951 86.1303C195.406 86.1303 196.009 77.2774 196.009 66.1373V19C196.009 10.1634 203.173 3 212.009 3H236.732V71.1751C236.732 100.063 220.176 121.094 180.951 121.094C141.726 121.094 125 100.063 125 71.3657V3Z" fill="currentColor"/>
<path d="M63.9229 0C27.9986 0 0 24.5004 0 60.6514C0 96.6525 27.9986 121.239 63.966 121.26C95.7336 121.26 111.456 102.628 118.326 86.9937L81.9957 69.3382C80.3148 73.2025 79 75 76.0726 77.8908C72.5775 80.2672 71 82.7664 64.246 82.7664C49.0191 82.7021 41.6072 74.1224 41.6072 60.6514C41.6072 45.7884 50.5697 38.5151 62.8676 38.5151C69 38.5151 70.7566 39.5976 74.5267 42.0013C79 45 80.2488 47.8854 81.9957 51.986L118.283 34.0522C111.305 17.9042 95.6905 0 63.9229 0Z" fill="currentColor"/>
</g>
<defs>
<clipPath id="clip0_1239_2405">
<rect width="816" height="122" fill="currentColor"/>
</clipPath>
</defs>
</svg>
