<svg xmlns="http://www.w3.org/2000/svg" width="100%" viewBox="0 0 117 117"><defs></defs><path fill="white" d="m0,106.97c0,5.54,4.49,10.03,10.03,10.03h48.43c32.46,0,58.54-26.06,58.54-58.5S90.92,0,58.46,0H10.03C4.49,0,0,4.49,0,10.03v96.94Z"/><path fill="black" fill-rule="evenodd" d="m73.22,58.5l10.26,10.26c5.65,5.65,5.69,14.86-.01,20.56-5.7,5.7-14.86,5.71-20.56.01l-10.26-10.26-10.26,10.26c-5.7,5.7-14.86,5.69-20.56-.01-5.7-5.7-5.66-14.91-.01-20.56l10.26-10.26-10.26-10.26c-5.7-5.7-5.69-14.86.01-20.56,5.7-5.7,14.86-5.71,20.56-.01l10.26,10.26,10.26-10.26c5.7-5.7,14.86-5.69,20.56.01,5.7,5.7,5.71,14.86.01,20.56l-10.26,10.26Z"/></svg>