<svg height="100%" viewBox="0 0 220 221" fill="none" xmlns="http://www.w3.org/2000/svg">
<g clip-path="url(#clip0_1404_625)">
<path d="M0 201.64C0 212.057 8.44273 220.5 18.8598 220.5H109.925C170.961 220.5 220 171.498 220 110.5C220 49.5017 170.961 0.5 109.925 0.5H18.8598C8.44273 0.5 0 8.94273 0 19.3598V201.64Z" fill="white"/>
<path fill-rule="evenodd" clip-rule="evenodd" d="M148.679 111L167.971 130.292C178.595 140.916 178.67 158.234 167.952 168.952C157.234 179.67 140.01 179.689 129.292 168.971L110 149.679L90.7077 168.971C79.9898 179.689 62.7658 179.67 52.0479 168.952C41.3299 158.234 41.4051 140.916 52.0291 130.292L71.3214 111L52.0291 91.7077C41.3111 80.9898 41.3299 63.7658 52.0479 53.0479C62.7658 42.3299 79.9898 42.3111 90.7077 53.0291L110 72.3214L129.292 53.0291C140.01 42.3111 157.234 42.3299 167.952 53.0479C178.67 63.7658 178.689 80.9898 167.971 91.7077L148.679 111Z" fill="black"/>
</g>
<defs>
<clipPath id="clip0_1404_625">
<rect y="0.5" width="220" height="220" rx="110" fill="white"/>
</clipPath>
</defs>
</svg>
