<svg height="100%" viewBox="0 0 978 100" fill="none" xmlns="http://www.w3.org/2000/svg">
<path d="M918.835 89.9758C917.547 88.8211 915.5 89.7352 915.5 91.4649V99.9857L867 99.9857L867.004 8.39233e-05H910L922.216 10.2341C923.517 11.3246 925.5 10.3992 925.5 8.70103V8.39233e-05H977.5V68V99.9857L930 99.9857L918.835 89.9758Z" fill="currentColor"/>
<path d="M741.356 0H695V100H717.356L741.356 100V0Z" fill="currentColor"/>
<path fill-rule="evenodd" clip-rule="evenodd" d="M810.503 0C832.664 0 851.703 7.76159 863 20.7161V79.2634C851.71 92.21 832.683 99.9664 810.503 99.9664C774.64 99.9664 747 79.69 747 49.9832C747 46.2698 747.432 42.7038 748.259 39.3064C754.043 15.5241 779.142 0 810.503 0ZM790.711 49.947C790.711 40.4948 798.753 32.5035 810.677 32.5035C822.516 32.5035 830.643 40.4948 830.643 49.947C830.643 59.3993 822.601 67.3906 810.677 67.3906C798.753 67.3906 790.711 59.3993 790.711 49.947Z" fill="currentColor"/>
<path d="M300 0H346.744V35.4637C346.744 44.8969 345.5 54 356.5 54C366.5 54 365.009 44.8969 365.009 35.4637V0H411.732V57.7296C411.732 82.1915 395.176 100 355.951 100C316.726 100 300 82.1915 300 57.891V0Z" fill="currentColor"/>
<path fill-rule="evenodd" clip-rule="evenodd" d="M481 99.9856L541.5 99.9856L550.03 90.7443C551.265 89.4065 553.5 90.2803 553.5 92.1009V99.9856L607 99.9856V35.8777H626.273C627.377 35.8777 628.273 36.7732 628.273 37.8777V100H635.078L671.935 57.7574V37.8777C671.935 36.7732 672.83 35.8777 673.935 35.8777H690.987V-2.28882e-05L607 -6.10352e-05H594.978H581.423C566.998 -6.10352e-05 559.488 9.90668 559.488 9.90668L481 99.9856Z" fill="currentColor"/>
<path d="M525.957 28.0819C519.017 14.7651 503.486 0 471.889 0C447.432 0 426.668 9.46608 416 25V74.9666C426.671 90.4841 447.444 99.9879 471.932 100C473.846 100 475.701 99.9436 477.5 99.8348L507.932 64.4614L491.543 57.8576C490.59 57.4737 489.512 57.8839 488.939 58.7362C485.289 64.1623 479.066 66.2553 472.21 66.2553C457.065 66.2023 453.672 61.1268 453.672 50.0177C453.672 37.7605 458.608 33.7624 470.839 33.7624C478.546 33.7624 484.971 35.1275 488.947 41.28C489.511 42.152 490.602 42.5692 491.563 42.1756L525.957 28.0819Z" fill="currentColor"/>
<path d="M191 0H144.5L101 50V100L191 100V67.4589L148.695 67.4589C147.59 67.4589 146.695 66.5635 146.695 65.4589V64.0652C146.695 62.9606 147.59 62.0652 148.695 62.0652L173.386 62.0652V36.8729L148.695 36.873C147.59 36.873 146.695 35.9775 146.695 34.873V33.7897C146.695 32.6851 147.59 31.7897 148.695 31.7897L191 31.7896V0Z" fill="currentColor"/>
<path fill-rule="evenodd" clip-rule="evenodd" d="M227.739 0L196 6.35783e-06V100H227.739C265.852 100 296 94.5834 296 50C296 5.41667 264.262 0 227.739 0ZM242.847 39H232V61H242.847C251.678 61 260 59.8421 260 50C260 40.1579 251.678 39 242.847 39Z" fill="currentColor"/>
<path d="M51.5 100L0 100L87 2.38419e-06H138.5L70 78.75L51.5 100Z" fill="currentColor"/>
</svg>
