<svg height="100%" viewBox="0 0 1123 100" fill="none" xmlns="http://www.w3.org/2000/svg">
<path d="M918 73.1405L918 100H876L876.004 -1.66893e-06H906.5L941.5 42.1488V-1.66893e-06H986.5V100H959.957H941.5L918 73.1405Z" fill="currentColor"/>
<path d="M750.356 0H704V100H726.356L750.356 100V0Z" fill="currentColor"/>
<mask id="mask0_1299_957" style="mask-type:alpha" maskUnits="userSpaceOnUse" x="754" y="0" width="118" height="100">
<rect width="118" height="100" transform="matrix(-1 0 0 1 872 0)" fill="#D9D9D9"/>
</mask>
<g mask="url(#mask0_1299_957)">
<path fill-rule="evenodd" clip-rule="evenodd" d="M819.503 0C855.322 0 882.984 20.2764 882.984 49.9832C882.984 79.69 855.365 99.9664 819.503 99.9664C783.64 99.9664 756 79.69 756 49.9832C756 20.2764 783.662 0 819.503 0ZM819.677 32.5035C807.753 32.5035 799.711 40.4948 799.711 49.947C799.711 59.3993 807.753 67.3906 819.677 67.3906C831.601 67.3906 839.643 59.3993 839.643 49.947C839.643 40.4948 831.516 32.5035 819.677 32.5035Z" fill="currentColor"/>
</g>
<path d="M300 0H340.744V53.4637C340.744 62.8969 341.496 70.3934 355.951 70.3934C370.406 70.3934 371.009 62.8969 371.009 53.4637V0H411.732V57.7296C411.732 82.1915 395.176 100 355.951 100C316.726 100 300 82.1915 300 57.891V0Z" fill="currentColor"/>
<path d="M416 50.0619C416 20.2227 443.619 0 479.056 0C510.393 0 525.796 14.7782 532.679 28.1068L498.857 41.2586C497.133 37.8739 494.221 35.0013 490.502 33.0172C486.783 31.0331 482.431 30.0301 478.015 30.1396C465.884 30.1396 455.07 37.7939 455.07 50.0619C455.07 61.1808 464.354 69.9134 479.375 69.9664C483.548 69.8381 487.593 68.729 491.041 66.7675C494.489 64.8061 497.198 62.0724 498.857 58.8828L510 62.9167L478 100.081C443.05 99.6499 416 79.4699 416 50.0619Z" fill="currentColor"/>
<path d="M539 100H483L561.488 9.90816C561.488 9.90816 568.998 -6.84578e-07 583.423 -6.84578e-07H596.978H609V100L559 100L559 78.5109L539 100Z" fill="currentColor"/>
<path d="M588.349 67.8689H542.889V43.8633H588.349V67.8689Z" fill="currentColor"/>
<path d="M191.5 0H144.5L101 50V100L191.5 100V67.4589L146.949 67.4589V62.0652L173.788 62.0652V36.8729L146.949 36.873V31.7897L191.5 31.7896V0Z" fill="currentColor"/>
<path fill-rule="evenodd" clip-rule="evenodd" d="M227.739 0L196 6.35783e-06V100H227.739C265.852 100 296 94.5834 296 50C296 5.41667 264.262 0 227.739 0ZM241.946 32.5H228V67.5H241.946C253.3 67.5 264 65.6579 264 50C264 34.3421 253.3 32.5 241.946 32.5Z" fill="currentColor"/>
<path d="M51.5 100L0 100L87 2.38419e-06H138.5L70 78.75L51.5 100Z" fill="currentColor"/>
<path d="M667.715 35.8778H699.987V0H607V35.8778H624.052V100H660.909H667.715V35.8778Z" fill="currentColor"/>
</svg>
