<svg height="100%" viewBox="0 0 1072 122" fill="none" xmlns="http://www.w3.org/2000/svg">
<path d="M975 0H893V121H975V81.6253H938.949V75.0989L957.288 75.0989V44.6163L938.949 44.6162V38.4655H975V0Z" fill="currentColor"/>
<path d="M832.923 0C796.999 0 769 24.5004 769 60.6514C769 96.6525 796.999 121.239 832.966 121.26C864.734 121.26 880.456 102.628 887.326 86.9937L850.996 69.3382C849.315 73.2025 848 75 845.073 77.8908C841.578 80.2672 840 82.7664 833.246 82.7664C818.019 82.7021 810.607 74.1224 810.607 60.6514C810.607 45.7884 819.57 38.5151 831.868 38.5151C838 38.5151 839.757 39.5976 843.527 42.0013C848 45 849.249 47.8854 850.996 51.986L887.283 34.0522C880.305 17.9042 864.691 0 832.923 0Z" fill="currentColor"/>
<path d="M694.675 88.8087L694.675 121H639V42.525V23.8963L639.004 0H649.515H661.24C662.791 0 664.227 0 665.551 0C673.92 0 681.849 3.74403 687.168 10.2062L707.103 34.4258L707.103 0H764L764 121H731.957H721.518L694.675 88.8087Z" fill="currentColor"/>
<path d="M634 0H552V121H634V81.6253H597.949V75.0989L616.288 75.0989V44.6163L597.949 44.6162V38.4655H634V0Z" fill="currentColor"/>
<path d="M547 121H508V3.08767e-06H547V121Z" fill="currentColor"/>
<path fill-rule="evenodd" clip-rule="evenodd" d="M459.618 0H395V121H437.673V85.1878L440.5 85.1879L464 121L512.381 121L481.601 77.6517C495.743 70.9221 503.176 57.3703 503.176 41.537C503.176 18.8744 487.947 0 459.618 0ZM454.967 32.0475H435V50.076H454.967C457.392 50.076 459.718 49.1263 461.433 47.4358C463.148 45.7453 464.111 43.4525 464.111 41.0618C464.111 38.671 463.148 36.3782 461.433 34.6877C459.718 32.9972 457.392 32.0475 454.967 32.0475Z" fill="currentColor"/>
<path d="M390 0H308V121H390V81.6253H353.949V75.0989L372.288 75.0989V44.6163L353.949 44.6162V38.4655H390V0Z" fill="currentColor"/>
<path fill-rule="evenodd" clip-rule="evenodd" d="M257.618 0H193V121H235.673V85.1878L238.5 85.1879C257.618 85.1879 268.141 83.1054 279.601 77.6517C293.743 70.9221 301.176 57.3703 301.176 41.537C301.176 18.8744 285.947 0 257.618 0ZM252.967 32.0475H233V50.076H252.967C255.392 50.076 257.718 49.1263 259.433 47.4358C261.148 45.7453 262.111 43.4525 262.111 41.0618C262.111 38.671 261.148 36.3782 259.433 34.6877C257.718 32.9972 255.392 32.0475 252.967 32.0475Z" fill="currentColor"/>
<path fill-rule="evenodd" clip-rule="evenodd" d="M155.654 60.5L199 0H152.495L134.546 21.5L123.793 8.61942C119.234 3.15725 112.485 0 105.37 0H66L113.619 60.5847L70.2903 121L118.108 121L134.546 100L149.495 121L199 121L155.654 60.5Z" fill="currentColor"/>
<path d="M82 0H0V121L67.5 121L82 101V81.6253H45.9488V75.0989L64.288 75.0989V44.6163L45.9488 44.6163V38.4655H103.5L82 0Z" fill="currentColor"/>
</svg>
