<svg height="100%" viewBox="0 0 1067 101" fill="none" xmlns="http://www.w3.org/2000/svg">
<path d="M1066.94 0.0172119L976.942 0.0172521V100.017L1066.94 100.017V67.4761L1024.64 67.4761C1023.53 67.4761 1022.64 66.5807 1022.64 65.4761V64.0824C1022.64 62.9778 1023.53 62.0824 1024.64 62.0824L1049.33 62.0824V36.8902L1024.64 36.8902C1023.53 36.8902 1022.64 35.9947 1022.64 34.8902V33.8069C1022.64 32.7023 1023.53 31.8069 1024.64 31.8069L1066.94 31.8068V0.0172119Z" fill="currentColor"/>
<path d="M494 0.0172119L404 0.0172521V100.017L494 100.017V67.4761L451.695 67.4761C450.59 67.4761 449.695 66.5807 449.695 65.4761V64.0824C449.695 62.9778 450.59 62.0824 451.695 62.0824L476.386 62.0824V36.8902L451.695 36.8902C450.59 36.8902 449.695 35.9947 449.695 34.8902V33.8069C449.695 32.7023 450.59 31.8069 451.695 31.8069L494 31.8068V0.0172119Z" fill="currentColor"/>
<path fill-rule="evenodd" clip-rule="evenodd" d="M498 0H553.6C576.1 0 599 9.5 599 41C599 65.1887 587.936 71.5906 581.784 75.1508C581.577 75.2702 581.377 75.3864 581.182 75.5L599 100L553.6 100L547.08 91.5971C545.912 90.0916 543.5 90.9176 543.5 92.8231V100L498 100V0ZM555.431 47.4826C557.063 47.4029 558.6 46.691 559.714 45.4984C560.828 44.3058 561.431 42.7265 561.396 41.0966C561.397 39.5044 560.773 37.9753 559.658 36.836C558.544 35.6968 557.026 35.0378 555.431 35H545C543.895 35 543 35.8954 543 37V45.4826C543 46.5872 543.895 47.4826 545 47.4826H555.431Z" fill="currentColor"/>
<path d="M649.356 0.0172119H603V100.017H625.356L649.356 100.017V0.0172119Z" fill="currentColor"/>
<path d="M743.356 0.0172119L653.356 0.0172521V100.017L743.356 100.017V67.4761L701.051 67.4761C699.946 67.4761 699.051 66.5807 699.051 65.4761V64.0824C699.051 62.9778 699.946 62.0824 701.051 62.0824L725.742 62.0824V36.8902L701.051 36.8902C699.946 36.8902 699.051 35.9947 699.051 34.8902V33.8069C699.051 32.7023 699.946 31.8069 701.051 31.8069L743.356 31.8068V0.0172119Z" fill="currentColor"/>
<path d="M799.777 89.9901C798.489 88.8354 796.442 89.7495 796.442 91.4792V100L747.942 100L747.946 0.0143661H790.942L803.158 10.2484C804.46 11.3389 806.442 10.4134 806.442 8.71531V0.0143661H858.442V70.2522V100H810.942L799.777 89.9901Z" fill="currentColor"/>
<path d="M972.313 28.0992C965.373 14.7823 949.842 0.0172119 918.245 0.0172119C893.788 0.0172119 873.024 9.48329 862.356 25.0172V74.9838C873.027 90.5013 893.8 100.005 918.288 100.017C949.885 100.017 965.522 84.6516 972.356 71.7586L937.899 57.8748C936.946 57.4909 935.868 57.9011 935.295 58.7534C931.645 64.1795 925.422 66.2725 918.566 66.2725C903.421 66.2195 900.028 61.144 900.028 50.0349C900.028 37.7777 904.964 33.7796 917.195 33.7796C924.902 33.7796 931.327 35.1447 935.303 41.2972C935.867 42.1692 936.958 42.5864 937.919 42.1928L972.313 28.0992Z" fill="currentColor"/>
<path fill-rule="evenodd" clip-rule="evenodd" d="M354.6 0C377.1 0 400 9.5 400 41C400 78.588 373.958 86.6109 346.501 86.9699C345.396 86.9843 344.5 87.8635 344.5 88.9681V100L299 100V46.5V0H339.5H354.6ZM356.431 47.4826C358.063 47.4029 359.6 46.691 360.714 45.4984C361.828 44.3058 362.431 42.7265 362.396 41.0966C362.397 39.5044 361.773 37.9753 360.658 36.836C359.544 35.6968 358.026 35.0378 356.431 35H346C344.895 35 344 35.8954 344 37V45.4826C344 46.5872 344.895 47.4826 346 47.4826H356.431Z" fill="currentColor"/>
<path d="M295 0H255.811L246.552 11.3866C245.751 12.3708 244.249 12.3708 243.448 11.3866L234.189 0H195V24.5L214.474 48.3001C215.076 49.0351 215.077 50.0916 214.478 50.8284L195 74.7813L195 100H234.189L243.438 88.4259C244.238 87.4239 245.762 87.4239 246.562 88.4259L255.811 100H295V74.7813L275.512 50.816C274.917 50.0848 274.914 49.0378 275.503 48.3026L295 24L295 0Z" fill="currentColor"/>
<path d="M195 0V39.1889L206.387 48.4483C207.371 49.2487 207.371 50.7513 206.387 51.5517L195 60.8111V100H219.057L243.302 80.5059C244.037 79.9148 245.086 79.9177 245.817 80.5128L269.781 100L295 100V60.8111L283.426 51.5624C282.424 50.7618 282.424 49.2382 283.426 48.4376L295 39.1889V1.52588e-05H269.781L245.81 19.493C245.082 20.0854 244.039 20.0912 243.304 19.5069L218.762 7.62939e-06L195 0Z" fill="currentColor"/>
<path d="M191 0.0172119H144.26L101 50.0172V100.017L191 100.017V67.4761L148.695 67.4761C147.59 67.4761 146.695 66.5807 146.695 65.4761V64.0824C146.695 62.9778 147.59 62.0824 148.695 62.0824L173.386 62.0824V36.8902L148.695 36.8902C147.59 36.8902 146.695 35.9947 146.695 34.8902V33.8069C146.695 32.7023 147.59 31.8069 148.695 31.8069L191 31.8068V0.0172119Z" fill="currentColor"/>
<path d="M51.5 100L0 100L87 2.38419e-06H138.5L70 78.75L51.5 100Z" fill="currentColor"/>
</svg>
