<svg height="100%" viewBox="0 0 1071 101" fill="none" xmlns="http://www.w3.org/2000/svg">
<path d="M1070.94 0.0172119L980.942 0.0172521V100.017L1070.94 100.017V67.4761L1028.64 67.4761C1027.53 67.4761 1026.64 66.5807 1026.64 65.4761V64.0824C1026.64 62.9778 1027.53 62.0824 1028.64 62.0824L1053.33 62.0824V36.8901L1028.64 36.8902C1027.53 36.8902 1026.64 35.9947 1026.64 34.8902V33.8069C1026.64 32.7023 1027.53 31.8069 1028.64 31.8069L1070.94 31.8068V0.0172119Z" fill="currentColor"/>
<path fill-rule="evenodd" clip-rule="evenodd" d="M493 0H553.554C578.059 0 603 9.5 603 41C603 65.1887 590.951 71.5906 584.25 75.1508C584.025 75.2702 583.806 75.3864 583.594 75.5L603 100L553.554 100L546.082 91.1574C544.879 89.7338 542.554 90.5845 542.554 92.4483V100L493 100V0ZM555.549 47.4826C557.326 47.4029 558.999 46.691 560.213 45.4984C561.426 44.3058 562.084 42.7265 562.045 41.0966C562.046 39.5044 561.367 37.9753 560.152 36.836C558.938 35.6968 557.286 35.0378 555.549 35H544.01C542.905 35 542.01 35.8954 542.01 37V45.4826C542.01 46.5872 542.905 47.4826 544.01 47.4826H555.549Z" fill="currentColor"/>
<path d="M653.356 0.0172119H607V100.017H629.356L653.356 100.017V0.0172119Z" fill="currentColor"/>
<path d="M747.356 0.0172119L657.356 0.0172521V100.017L747.356 100.017V67.4761L705.051 67.4761C703.946 67.4761 703.051 66.5807 703.051 65.4761V64.0824C703.051 62.9778 703.946 62.0824 705.051 62.0824L729.742 62.0824V36.8902L705.051 36.8902C703.946 36.8902 703.051 35.9947 703.051 34.8902V33.8069C703.051 32.7023 703.946 31.8069 705.051 31.8069L747.356 31.8068V0.0172119Z" fill="currentColor"/>
<path d="M803.777 89.9901C802.489 88.8354 800.442 89.7495 800.442 91.4792V100L751.942 100L751.946 0.0143661H794.942L807.158 10.2484C808.46 11.3389 810.442 10.4134 810.442 8.71531V0.0143661H862.442V70.2522V100H814.942L803.777 89.9901Z" fill="currentColor"/>
<path d="M976.313 28.0992C969.373 14.7823 953.842 0.0172119 922.245 0.0172119C897.788 0.0172119 877.024 9.48329 866.356 25.0172V74.9838C877.027 90.5013 897.8 100.005 922.288 100.017C953.885 100.017 969.522 84.6516 976.356 71.7586L941.899 57.8748C940.946 57.4909 939.868 57.9011 939.295 58.7534C935.645 64.1795 929.422 66.2725 922.566 66.2725C907.421 66.2195 904.028 61.144 904.028 50.0349C904.028 37.7777 908.964 33.7796 921.195 33.7796C928.902 33.7796 935.327 35.1447 939.303 41.2972C939.867 42.1692 940.958 42.5864 941.919 42.1928L976.313 28.0992Z" fill="currentColor"/>
<path d="M489 0.0172729L399 0.0173132V100.017L489 100.017V67.4762L446.695 67.4762C445.59 67.4762 444.695 66.5808 444.695 65.4762V64.0825C444.695 62.9779 445.59 62.0825 446.695 62.0825L471.386 62.0825V36.8902L446.695 36.8902C445.59 36.8902 444.695 35.9948 444.695 34.8902V33.8069C444.695 32.7024 445.59 31.8069 446.695 31.8069L489 31.8069V0.0172729Z" fill="currentColor"/>
<path fill-rule="evenodd" clip-rule="evenodd" d="M348.554 100L299 100V46.5V0H343.109H359.554C372.723 0 386.018 2.74354 395.5 10.1706V74.7461C384.385 84.0867 367.714 86.7834 350.555 86.9719C349.45 86.984 348.554 87.8635 348.554 88.9681V100ZM361.549 47.4826C363.326 47.4029 364.999 46.691 366.213 45.4984C367.426 44.3058 368.084 42.7265 368.045 41.0966C368.046 39.5044 367.367 37.9753 366.152 36.836C364.938 35.6968 363.286 35.0378 361.549 35H350.01C348.905 35 348.01 35.8954 348.01 37V45.4826C348.01 46.5872 348.905 47.4826 350.01 47.4826H361.549Z" fill="currentColor"/>
<path fill-rule="evenodd" clip-rule="evenodd" d="M255.811 0H295L295 24L295 39.1889L283.426 48.4376C282.424 49.2382 282.424 50.7618 283.426 51.5624L295 60.8111V74.7813V100L269.781 100L255.811 100L246.562 88.4259C245.762 87.4239 244.238 87.4239 243.438 88.4259L234.189 100H219.057H195V60.8111L206.387 51.5517C207.371 50.7513 207.371 49.2487 206.387 48.4483L195 39.1889V0H195H234.189L243.448 11.3866C244.249 12.3708 245.751 12.3708 246.552 11.3866L255.811 0Z" fill="currentColor"/>
<path d="M191 0.0172119H144.26L101 50.0172V100.017L191 100.017V67.4761L148.695 67.4761C147.59 67.4761 146.695 66.5807 146.695 65.4761V64.0824C146.695 62.9778 147.59 62.0824 148.695 62.0824L173.386 62.0824V36.8902L148.695 36.8902C147.59 36.8902 146.695 35.9947 146.695 34.8902V33.8069C146.695 32.7023 147.59 31.8069 148.695 31.8069L191 31.8068V0.0172119Z" fill="currentColor"/>
<path d="M51.5 100L0 100L87 2.38419e-06H138.5L70 78.75L51.5 100Z" fill="currentColor" fill-opacity="0.5"/>
</svg>
