<svg width="3850" height="330" viewBox="0 0 3850 330" fill="none" xmlns="http://www.w3.org/2000/svg">
<g id="experience">
<path id="e" d="M-1.42499e-05 326L-1.74846e-07 4C-7.8281e-08 1.79086 1.79086 7.8281e-08 4 1.74846e-07L372 1.62606e-05C374.209 1.63572e-05 376 1.79088 376 4.00001L376 83.5069C376 83.8417 375.729 84.1131 375.394 84.1131L250.856 84.1131C236.026 84.1131 224.003 96.1353 224.003 110.965C224.003 125.796 236.026 137.818 250.856 137.818L374.792 137.818C375.459 137.818 376 138.358 376 139.025L376 191.413C376 192.518 375.105 193.413 374 193.413L249.91 193.413C235.602 193.413 224.003 205.012 224.003 219.32C224.003 233.627 235.602 245.226 249.91 245.226L374 245.226C375.105 245.226 376 246.121 376 247.226L376 326C376 328.209 374.209 330 372 330L3.99999 330C1.79085 330 -1.43465e-05 328.209 -1.42499e-05 326Z" fill="currentColor"/>
<path id="x" d="M728.011 191.518C713.263 191.518 701.308 179.563 701.308 164.816C701.308 150.068 713.263 138.113 728.011 138.113H757.442C759.959 138.113 762 136.542 762 134.603V3.51064C762 1.57177 759.959 0 757.442 0H610.151C607.593 0 605.519 2.0735 605.519 4.6313V30.9332C605.519 48.0598 591.635 61.9436 574.509 61.9436C557.382 61.9436 543.498 48.0598 543.498 30.9332V4.6313C543.498 2.0735 541.425 0 538.867 0H390.558C388.041 0 386 1.57177 386 3.51064L386 134.603C386 136.542 388.04 138.113 390.558 138.113H419.768C434.515 138.113 446.47 150.068 446.47 164.816C446.47 179.563 434.515 191.518 419.768 191.518H390.558C388.041 191.518 386 193.09 386 195.028V326.489C386 328.428 388.041 330 390.558 330H538.826C541.407 330 543.498 327.908 543.498 325.328V298.524C543.498 281.398 557.382 267.514 574.509 267.514C591.635 267.514 605.519 281.398 605.519 298.524V325.328C605.519 327.908 607.611 330 610.191 330H757.442C759.959 330 762 328.428 762 326.489V195.029C762 193.09 759.959 191.518 757.442 191.518H728.011Z" fill="currentColor"/>
<path id="p" d="M776.121 330C773.912 330 772.121 328.209 772.121 326L772.121 222.432L772 137.719L772 37.5535L772.108 3.98711C772.115 1.78302 773.904 1.63523e-05 776.108 1.62559e-05L929.786 9.53845e-06L990.634 6.87867e-06L1049 4.32743e-06C1103.68 1.93745e-06 1148 44.3238 1148 99L1148 187.128C1148 241.804 1103.68 286.128 1049 286.128L994.634 286.128C992.425 286.128 990.634 287.919 990.634 290.128L990.634 326C990.634 328.209 988.844 330 986.634 330L776.121 330Z" fill="currentColor"/>
<path id="e_2" d="M1158 326L1158 4C1158 1.79086 1159.79 7.8281e-08 1162 1.74846e-07L1530 1.62606e-05C1532.21 1.63572e-05 1534 1.79088 1534 4.00001L1534 83.5069C1534 83.8417 1533.73 84.1131 1533.39 84.1131L1408.86 84.1131C1394.03 84.1131 1382 96.1353 1382 110.965C1382 125.796 1394.03 137.818 1408.86 137.818L1532.79 137.818C1533.46 137.818 1534 138.358 1534 139.025L1534 191.413C1534 192.518 1533.1 193.413 1532 193.413L1407.91 193.413C1393.6 193.413 1382 205.012 1382 219.32C1382 233.627 1393.6 245.226 1407.91 245.226L1532 245.226C1533.1 245.226 1534 246.121 1534 247.226L1534 326C1534 328.209 1532.21 330 1530 330L1162 330C1159.79 330 1158 328.209 1158 326Z" fill="currentColor"/>
<path id="p_2" d="M1548.12 330C1545.91 330 1544.12 328.209 1544.12 326L1544.12 222.432L1544 137.719L1544 37.5535L1544.11 3.98711C1544.12 1.78302 1545.9 1.63523e-05 1548.11 1.62559e-05L1701.79 9.53845e-06L1762.63 6.87867e-06L1821 4.32743e-06C1875.68 1.93745e-06 1920 44.3238 1920 99L1920 187.128C1920 241.804 1875.68 286.128 1821 286.128L1791.88 286.128C1787.22 286.128 1786.32 292.732 1790.8 293.981L1891.83 322.147C1896.31 323.397 1895.41 330 1890.76 330L1762.63 330L1548.12 330Z" fill="currentColor"/>
<path id="i" d="M2272.01 191.518C2257.26 191.518 2245.31 179.563 2245.31 164.816C2245.31 150.068 2257.26 138.113 2272.01 138.113H2301.44C2303.96 138.113 2306 136.542 2306 134.603V3.51064C2306 1.57177 2303.96 0 2301.44 0H1934.56C1932.04 0 1930 1.57177 1930 3.51064L1930 134.603C1930 136.542 1932.04 138.113 1934.56 138.113H1963.77C1978.52 138.113 1990.47 150.068 1990.47 164.816C1990.47 179.563 1978.52 191.518 1963.77 191.518H1934.56C1932.04 191.518 1930 193.09 1930 195.028V326.489C1930 328.428 1932.04 330 1934.56 330H2301.44C2303.96 330 2306 328.428 2306 326.489V195.029C2306 193.09 2303.96 191.518 2301.44 191.518H2272.01Z" fill="currentColor"/>
<path id="e_3" d="M2316 326L2316 4C2316 1.79086 2317.79 7.8281e-08 2320 1.74846e-07L2688 1.62606e-05C2690.21 1.63572e-05 2692 1.79088 2692 4.00001L2692 83.5069C2692 83.8417 2691.73 84.1131 2691.39 84.1131L2566.86 84.1131C2552.03 84.1131 2540 96.1353 2540 110.965C2540 125.796 2552.03 137.818 2566.86 137.818L2690.79 137.818C2691.46 137.818 2692 138.358 2692 139.025L2692 191.413C2692 192.518 2691.1 193.413 2690 193.413L2565.91 193.413C2551.6 193.413 2540 205.012 2540 219.32C2540 233.627 2551.6 245.226 2565.91 245.226L2690 245.226C2691.1 245.226 2692 246.121 2692 247.226L2692 326C2692 328.209 2690.21 330 2688 330L2320 330C2317.79 330 2316 328.209 2316 326Z" fill="currentColor"/>
<path id="n" d="M2860.86 273.931C2859.62 273.931 2858.62 274.935 2858.62 276.173V326C2858.62 328.21 2856.83 330 2854.62 330L2706 330C2703.79 330 2702 328.209 2702 326L2702.01 3.99982C2702.01 1.79075 2703.8 0 2706.01 0H2861.04C2862.24 0 2863.21 0.969645 2863.21 2.16576C2863.21 31.7697 2887.2 55.7684 2916.81 55.7684H2921.38V4C2921.38 1.79086 2923.17 0 2925.38 0H3074C3076.21 0 3078 1.79086 3078 4V326C3078 328.21 3076.21 330 3074 330L2918.52 330C2917.31 330 2916.34 329.026 2916.34 327.823C2916.34 298.059 2892.21 273.931 2862.45 273.931H2860.86Z" fill="currentColor"/>
<path id="c" d="M3088 326L3088 4C3088 1.79086 3089.79 7.8281e-08 3092 1.74846e-07L3460 1.62606e-05C3462.21 1.63572e-05 3464 1.79088 3464 4.00002L3464 137.245C3464 137.744 3463.6 138.148 3463.1 138.148L3264.59 138.148C3249.76 138.148 3237.74 150.17 3237.74 165C3237.74 179.83 3249.76 191.852 3264.59 191.852L3463.1 191.852C3463.6 191.852 3464 192.256 3464 192.755L3464 326C3464 328.209 3462.21 330 3460 330L3092 330C3089.79 330 3088 328.209 3088 326Z" fill="currentColor"/>
<path id="e_4" d="M3474 326L3474 4C3474 1.79086 3475.79 7.8281e-08 3478 1.74846e-07L3846 1.62606e-05C3848.21 1.63572e-05 3850 1.79088 3850 4.00001L3850 83.5069C3850 83.8417 3849.73 84.1131 3849.39 84.1131L3724.86 84.1131C3710.03 84.1131 3698 96.1353 3698 110.965C3698 125.796 3710.03 137.818 3724.86 137.818L3848.79 137.818C3849.46 137.818 3850 138.358 3850 139.025L3850 191.413C3850 192.518 3849.1 193.413 3848 193.413L3723.91 193.413C3709.6 193.413 3698 205.012 3698 219.32C3698 233.627 3709.6 245.226 3723.91 245.226L3848 245.226C3849.1 245.226 3850 246.121 3850 247.226L3850 326C3850 328.209 3848.21 330 3846 330L3478 330C3475.79 330 3474 328.209 3474 326Z" fill="currentColor"/>
</g>
</svg>
