<svg height="100%" viewBox="0 0 1072 122" fill="none" xmlns="http://www.w3.org/2000/svg">
<path d="M1071.78 0H978.881V118.326H1071.78V88.6039H1015.98V73.4394H1045.04V43.6304H1015.98V29.809H1071.78V0Z" fill="currentColor"/>
<path d="M915.677 0C879.752 0 851.754 24.5004 851.754 60.6514C851.754 96.6525 879.752 121.239 915.72 121.26C947.488 121.26 963.21 102.628 970.08 86.9937L935.75 71.3382C934.069 75.2025 931.322 78.5144 927.827 80.8908C924.331 83.2672 920.231 84.6109 916 84.7664C900.773 84.7021 891.361 74.1224 891.361 60.6514C891.361 45.7884 902.324 36.5151 914.621 36.5151C919.098 36.3824 923.511 37.5976 927.281 40.0013C931.051 42.4051 934.003 45.8854 935.75 49.986L970.037 34.0522C963.059 17.9042 947.444 0 915.677 0Z" fill="currentColor"/>
<path d="M750.208 70.0806V121.26H710.936V42.6164V23.9477L710.94 1.05081e-05H721.548H733.38C746.109 1.05081e-05 757.479 17.2119 757.479 17.2119L795.088 75.0246L794.292 1.05081e-05H837.085V121.26H786.663L750.208 70.0806Z" fill="currentColor"/>
<path d="M699.201 0H606.3V121.26H699.201V90.8007H643.402V75.2602H697.923V44.7121H643.402V30.5481H699.201V0Z" fill="currentColor"/>
<path d="M594.565 121.26H555.449V4.13374e-06H594.565V121.26Z" fill="currentColor"/>
<path fill-rule="evenodd" clip-rule="evenodd" d="M493.252 0H428.736V120.809H465.343V82.0579H478.74L504.263 120.809H545.932L515.201 77.5289C529.32 70.8099 536.742 57.2796 536.742 41.4713C536.742 18.8446 521.537 0 493.252 0ZM488.493 30.4344H465.343V51.6234H488.493C491.305 51.6234 494.001 50.5072 495.989 48.5204C497.977 46.5335 499.094 43.8387 499.094 41.0289C499.094 38.2191 497.977 35.5243 495.989 33.5374C494.001 31.5506 491.305 30.4344 488.493 30.4344Z" fill="currentColor"/>
<path d="M417.565 0H327.598V121.26H417.565V90.8007H363.528V75.2602H416.327V44.7121H363.528V30.5481H417.565V0Z" fill="currentColor"/>
<path fill-rule="evenodd" clip-rule="evenodd" d="M207.671 0H272.186C300.471 0 315.676 18.8446 315.676 41.4713C315.676 64.098 300.471 82.0579 272.186 82.0579H244.278V120.809H207.671V0ZM267.427 30.4344H244.277V51.6234H267.427C270.239 51.6234 272.936 50.5072 274.924 48.5204C276.912 46.5335 278.029 43.8387 278.029 41.0289C278.029 38.2191 276.912 35.5243 274.924 33.5374C272.936 31.5506 270.239 30.4344 267.427 30.4344Z" fill="currentColor"/>
<path fill-rule="evenodd" clip-rule="evenodd" d="M155.654 60.5L199 0H157.495L134.546 31.5L111.598 0H66L113.619 60.5847L70.2903 121L112.108 121L134.546 90L157.495 121L199 121L155.654 60.5Z" fill="currentColor"/>
<path d="M71.6925 0H0V121.26L64.2622 121.26L85.7637 90.8007H35.9304V75.2602L64.2622 75.2602V44.7121L35.9304 44.7121V30.5481H89.9671L71.6925 0Z" fill="currentColor"/>
</svg>
