<svg width="100%" viewBox="0 0 2005 165" fill="none" xmlns="http://www.w3.org/2000/svg">
<g id="experience">
<g id="nahiyan">
<g id="Frame 54">
<path id="path260" d="M85.5756 164.235C85.1964 164.718 84.6165 165 84.0025 165L4.1131 165C2.44456 165 1.50964 163.077 2.54004 161.765L128.949 0.764909C129.329 0.282004 129.909 0 130.523 0H210.412C212.08 0 213.015 1.92273 211.985 3.2351L85.5756 164.235Z" fill="currentColor"/>
</g>
<path id="e" d="M273 0H220.362C219.134 0 217.973 0.564646 217.215 1.53139L94.0736 158.531C92.0147 161.156 93.8848 165 97.221 165H273C275.209 165 277 163.209 277 161V114.214C277 112.007 275.213 110.217 273.006 110.214L194.652 110.103C192.445 110.1 190.658 108.31 190.658 106.103V105.197C190.658 102.988 192.448 101.197 194.658 101.197L235.276 101.197C237.485 101.197 239.276 99.4065 239.276 97.1974V68.4247C239.276 66.2155 237.485 64.4247 235.276 64.4247L194.658 64.4247C192.448 64.4247 190.658 62.6338 190.658 60.4247V59.4782C190.658 57.269 192.448 55.4782 194.658 55.4782L273 55.4782C275.209 55.4782 277 53.6873 277 51.4782V4C277 1.79086 275.209 0 273 0Z" fill="currentColor"/>
<path id="x" d="M281 2C281 0.895429 281.895 0 283 0H359.915C360.522 0 361.097 0.27623 361.477 0.750733L373.53 15.8193C374.335 16.8264 375.869 16.8191 376.665 15.8043L388.46 0.765745C388.839 0.282343 389.419 0 390.033 0H465C467.209 0 469 1.79086 469 4V59.7289C469 60.6108 468.709 61.4679 468.171 62.167L454.166 80.383C453.046 81.8393 453.062 83.8711 454.205 85.3094L468.132 102.838C468.694 103.546 469 104.423 469 105.326V161C469 163.209 467.209 165 465 165H389.471C388.861 165 388.285 164.722 387.905 164.244L376.552 149.953C375.756 148.951 374.236 148.944 373.431 149.939L361.846 164.258C361.466 164.727 360.895 165 360.291 165H283C281.895 165 281 164.105 281 163V103.931L296.772 83.741C297.337 83.0175 297.337 82.0021 296.772 81.2786L281 61.0889V2Z" fill="currentColor"/>
<path id="p" fill-rule="evenodd" clip-rule="evenodd" d="M660.199 83.2629C660.719 82.5703 661 81.7278 661 80.8618V4C661 1.79086 659.231 0 657.022 0C649.983 0 630.487 0 576.493 0H477C474.791 0 473 1.79086 473 4V161C473 163.209 474.791 165 477 165L546.288 165H565.087H625.492C627.701 165 629.492 163.209 629.492 161V125.513C629.492 124.647 629.773 123.805 630.292 123.112L660.199 83.2629ZM568.808 99.4434C568.051 100.429 566.884 101.007 565.641 101.007C562.324 101.007 555.42 101.007 549.74 101.007C547.531 101.007 545.74 99.216 545.74 97.0069V68.2618C545.74 66.0526 547.524 64.2618 549.733 64.2618C558.65 64.2618 575.192 64.2618 584.109 64.2618C586.318 64.2618 588.102 66.0526 588.102 68.2618V72.964C588.102 73.8452 587.811 74.7017 587.274 75.4005L568.808 99.4434Z" fill="currentColor"/>
<path id="e_2" d="M849 0H669C666.791 0 665 1.79086 665 4V161C665 163.209 666.791 165 669 165H849C851.209 165 853 163.209 853 161V114.214C853 112.007 851.213 110.217 849.006 110.214L770.652 110.103C768.445 110.1 766.658 108.31 766.658 106.103V105.197C766.658 102.988 768.448 101.197 770.658 101.197L811.276 101.197C813.485 101.197 815.276 99.4065 815.276 97.1974V68.4247C815.276 66.2155 813.485 64.4247 811.276 64.4247L770.658 64.4247C768.448 64.4247 766.658 62.6338 766.658 60.4247V59.4782C766.658 57.269 768.448 55.4782 770.658 55.4782L849 55.4782C851.209 55.4782 853 53.6873 853 51.4782V4C853 1.79086 851.209 0 849 0Z" fill="currentColor"/>
<path id="r" fill-rule="evenodd" clip-rule="evenodd" d="M1044.2 83.2629C1044.72 82.5703 1045 81.7278 1045 80.8618V4C1045 1.79086 1043.23 0 1041.02 0C1033.98 0 1014.49 0 960.493 0H861C858.791 0 857 1.79086 857 4V161C857 163.209 858.791 165 861 165L930.288 165H949.087L1036.86 165C1040.18 165 1042.06 161.185 1040.03 158.556L1015.35 126.589C1014.25 125.165 1014.24 123.183 1015.32 121.744L1044.2 83.2629ZM952.808 99.4434C952.051 100.429 950.884 101.007 949.641 101.007C946.324 101.007 939.42 101.007 933.74 101.007C931.531 101.007 929.74 99.216 929.74 97.0069V68.2618C929.74 66.0526 931.524 64.2618 933.733 64.2618C942.65 64.2618 959.192 64.2618 968.109 64.2618C970.318 64.2618 972.102 66.0526 972.102 68.2618V72.964C972.102 73.8452 971.811 74.7017 971.274 75.4005L952.808 99.4434Z" fill="currentColor"/>
<path id="h" d="M1208.93 95.7589C1207.67 95.7589 1206.65 94.9731 1206.65 94.0036V70.812C1206.65 69.8426 1207.67 69.0567 1208.93 69.0567H1234.72C1235.98 69.0567 1237 68.2708 1237 67.3014V1.75532C1237 0.785883 1235.98 0 1234.72 0H1051.28C1050.02 0 1049 0.785883 1049 1.75532L1049 67.3014C1049 68.2708 1050.02 69.0567 1051.28 69.0567H1076.96C1078.21 69.0567 1079.24 69.8426 1079.24 70.812V94.0036C1079.24 94.973 1078.21 95.7589 1076.96 95.7589H1051.28C1050.02 95.7589 1049 96.5448 1049 97.5142V163.245C1049 164.214 1050.02 165 1051.28 165H1234.72C1235.98 165 1237 164.214 1237 163.245V97.5143C1237 96.5448 1235.98 95.7589 1234.72 95.7589H1208.93Z" fill="currentColor"/>
<path id="e_3" d="M1425 0H1245C1242.79 0 1241 1.79086 1241 4V161C1241 163.209 1242.79 165 1245 165H1425C1427.21 165 1429 163.209 1429 161V114.214C1429 112.007 1427.21 110.217 1425.01 110.214L1346.65 110.103C1344.44 110.1 1342.66 108.31 1342.66 106.103V105.197C1342.66 102.988 1344.45 101.197 1346.66 101.197L1387.28 101.197C1389.48 101.197 1391.28 99.4065 1391.28 97.1974V68.4247C1391.28 66.2155 1389.48 64.4247 1387.28 64.4247L1346.66 64.4247C1344.45 64.4247 1342.66 62.6338 1342.66 60.4247V59.4782C1342.66 57.269 1344.45 55.4782 1346.66 55.4782L1425 55.4782C1427.21 55.4782 1429 53.6873 1429 51.4782V4C1429 1.79086 1427.21 0 1425 0Z" fill="currentColor"/>
<path id="n" d="M1527.7 143.037C1526.52 141.56 1524.14 142.395 1524.14 144.286V163C1524.14 164.105 1523.25 165 1522.14 165L1435 165C1433.9 165 1433 164.104 1433 163L1433.01 1.99991C1433.01 0.895373 1433.9 0 1435.01 0H1508.13C1508.74 0 1509.32 0.279541 1509.7 0.758874L1526.45 21.9238C1527.62 23.4105 1530.01 22.5785 1530.01 20.6827V2C1530.01 0.895431 1530.91 0 1532.01 0H1619C1620.1 0 1621 0.895431 1621 2V163C1621 164.105 1620.1 165 1619 165L1546.22 165C1545.61 165 1545.04 164.724 1544.66 164.249L1527.7 143.037Z" fill="currentColor"/>
<path id="u" fill-rule="evenodd" clip-rule="evenodd" d="M1808.44 165C1810.96 165 1813 163.428 1813 161.489V101.192V63.8078V3.51064C1813 1.57177 1810.96 -2.31208e-08 1808.44 0L1629.56 1.64316e-06C1627.04 1.66628e-06 1625 1.57177 1625 3.51064L1625 161.489C1625 163.428 1627.04 165 1629.56 165H1808.44ZM1813 101.192V63.8078H1702.26C1699.74 63.8078 1697.7 65.3796 1697.7 67.3185V97.6815C1697.7 99.6204 1699.74 101.192 1702.26 101.192H1813Z" fill="currentColor"/>
<path id="e_4" d="M2001 0H1821C1818.79 0 1817 1.79086 1817 4V161C1817 163.209 1818.79 165 1821 165H2001C2003.21 165 2005 163.209 2005 161V114.214C2005 112.007 2003.21 110.217 2001.01 110.214L1922.65 110.103C1920.44 110.1 1918.66 108.31 1918.66 106.103V105.197C1918.66 102.988 1920.45 101.197 1922.66 101.197L1963.28 101.197C1965.48 101.197 1967.28 99.4065 1967.28 97.1974V68.4247C1967.28 66.2155 1965.48 64.4247 1963.28 64.4247L1922.66 64.4247C1920.45 64.4247 1918.66 62.6338 1918.66 60.4247V59.4782C1918.66 57.269 1920.45 55.4782 1922.66 55.4782L2001 55.4782C2003.21 55.4782 2005 53.6873 2005 51.4782V4C2005 1.79086 2003.21 0 2001 0Z" fill="currentColor"/>
</g>
</g>
</svg>
