<svg height="100%" viewBox="0 0 1123 101" fill="none" xmlns="http://www.w3.org/2000/svg">
<path d="M1122.7 0.0172424L1040 0.0172826V100.017L1122.7 100.017V67.4761L1081.99 67.4762V62.0824L1106.51 62.0824V36.8902L1081.99 36.8902V31.8069L1122.7 31.8069V0.0172424Z" fill="currentColor"/>
<path fill-rule="evenodd" clip-rule="evenodd" d="M401.618 0.0172424H337V100.017H379.673V70.4204H382.5C401.618 70.4204 412.141 68.6994 423.601 64.1922C437.743 58.6305 445.176 47.4307 445.176 34.3453C445.176 15.6159 429.947 0.0172424 401.618 0.0172424ZM396.967 26.5026H377V41.4022H396.967C399.392 41.4022 401.718 40.6173 403.433 39.2202C405.148 37.8231 406.111 35.9282 406.111 33.9524C406.111 31.9766 405.148 30.0817 403.433 28.6846C401.718 27.2875 399.392 26.5026 396.967 26.5026Z" fill="currentColor"/>
<path d="M539.676 0.0172344L449.176 0.0172746V100.017L539.676 100.017V67.4761L495.125 67.4762V62.0824L521.964 62.0824V36.8902L495.125 36.8902V31.8069L539.676 31.8069V0.0172344Z" fill="currentColor"/>
<path fill-rule="evenodd" clip-rule="evenodd" d="M608.294 0.0172424H543.676V100.017H586.349V70.4204L589.176 70.4204L612.676 100.017L661.058 100.017L630.278 64.1922C644.419 58.6305 651.853 47.4307 651.853 34.3453C651.853 15.6159 636.624 0.0172424 608.294 0.0172424ZM603.644 26.5026H583.676V41.4022H603.644C606.069 41.4022 608.394 40.6173 610.109 39.2202C611.824 37.8231 612.787 35.9282 612.787 33.9524C612.787 31.9766 611.824 30.0817 610.109 28.6846C608.394 27.2875 606.069 26.5026 603.644 26.5026Z" fill="currentColor"/>
<path d="M711.414 0.0172424H665.058V100.017H687.414L711.414 100.017V0.0172424Z" fill="currentColor"/>
<path d="M805.914 0.0172344L715.414 0.0172746V100.017L805.914 100.017V67.4761L761.363 67.4762V62.0824L788.202 62.0824V36.8902L761.363 36.8902V31.8069L805.914 31.8069V0.0172344Z" fill="currentColor"/>
<path d="M851.914 73.1405L851.914 100H809.914L809.918 -1.66893e-06H840.414L875.414 42.1488V-1.66893e-06H920.414V100H893.871H875.414L851.914 73.1405Z" fill="currentColor"/>
<path d="M1034.97 28.0992C1027.99 14.7823 1012.37 0.0172424 980.605 0.0172424C956.016 0.0172424 935.14 9.48332 924.414 25.0172V74.9838C935.142 90.5014 956.028 100.005 980.648 100.017C1012.42 100.017 1028.14 84.6516 1035.01 71.7587L998.678 57.1987C996.997 60.3854 995.682 61.8678 992.755 64.2518C989.259 66.2115 987.682 68.2725 980.928 68.2725C965.701 68.2195 958.289 61.1441 958.289 50.0349C958.289 37.7778 967.252 31.7796 979.549 31.7796C985.682 31.7796 987.438 32.6723 991.209 34.6547C995.682 37.1276 996.931 39.5071 998.678 42.8888L1034.97 28.0992Z" fill="currentColor"/>
<path d="M195 0.0172424H246L332.5 100.017H280L195 0.0172424Z" fill="currentColor"/>
<path d="M332.5 0.0172424H281.5L195 100.017H247.5L332.5 0.0172424Z" fill="currentColor"/>
<path d="M191.5 0.0172424H144.5L101 50.0173V100.017L191.5 100.017V67.4761L146.949 67.4762V62.0824L173.788 62.0824V36.8902L146.949 36.8902V31.8069L191.5 31.8069V0.0172424Z" fill="currentColor"/>
<path d="M51.5 100L0 100L87 2.38419e-06H138.5L70 78.75L51.5 100Z" fill="currentColor"/>
</svg>
