<svg width="1920" height="331" viewBox="0 0 1920 331" fill="none" xmlns="http://www.w3.org/2000/svg">
<g id="forge">
<path id="f" d="M-1.42499e-05 326.032L-1.74846e-07 4.03223C-7.8281e-08 1.82309 1.79086 0.0322266 4 0.0322267L372 0.0322428C374.209 0.0322429 376 1.8231 376 4.03224L376 117.756C376 118.091 375.729 118.362 375.394 118.362L250.856 118.362C236.026 118.362 224.003 130.384 224.003 145.214C224.003 160.045 236.026 172.067 250.856 172.067L374.792 172.067C375.459 172.067 376 172.607 376 173.274L376 276.22C376 277.324 375.105 278.22 374 278.22L273.804 278.22C246.3 278.22 224.003 300.516 224.003 328.02C224.003 329.131 223.102 330.032 221.991 330.032L3.99999 330.032C1.79085 330.032 -1.43465e-05 328.241 -1.42499e-05 326.032Z" fill="currentColor"/>
<path id="o" d="M757.442 0C759.959 0 762 1.57153 762 3.51074V326.554C762 328.493 759.959 330.065 757.442 330.065H390.558C388.041 330.065 386 328.493 386 326.554V3.51074C386 1.57153 388.041 0 390.558 0H757.442ZM574 135.033C557.431 135.033 544 148.465 544 165.033C544 181.602 557.432 195.033 574 195.033C590.568 195.033 604 181.602 604 165.033C604 148.465 590.569 135.033 574 135.033Z" fill="currentColor"/>
<g id="Frame 61">
<path id="Subtract" d="M1049 0.0322266C1103.68 0.0322242 1148 44.356 1148 99.0322V187.16C1148 241.836 1103.68 286.16 1049 286.16H1019.88C1015.22 286.16 1014.32 292.764 1018.8 294.014L1119.83 322.179C1124.31 323.428 1123.41 330.032 1118.76 330.032H776.121C773.912 330.032 772.121 328.241 772.121 326.032V222.464L772 137.751V37.5859L772.108 4.01953C772.116 1.81543 773.904 0.0322267 776.108 0.0322266H1049ZM960 135.032C943.431 135.032 930 148.464 930 165.032C930 181.601 943.431 195.032 960 195.032C976.569 195.032 990 181.601 990 165.032C990 148.464 976.569 135.032 960 135.032Z" fill="currentColor"/>
</g>
<path id="g" d="M1158 326.032L1158 4.03223C1158 1.82309 1159.79 0.0322266 1162 0.0322267L1530 0.0322428C1532.21 0.0322429 1534 1.82311 1534 4.03225L1534 137.277C1534 137.776 1533.6 138.18 1533.1 138.18L1342.13 138.18C1323.14 138.18 1307.74 153.579 1307.74 172.576C1307.74 191.572 1323.14 206.972 1342.13 206.972L1409.89 206.972C1409.97 206.972 1410.06 206.946 1410.13 206.899L1465.56 168.337C1466.23 167.871 1467.02 167.621 1467.84 167.621L1530 167.621C1532.21 167.621 1534 169.411 1534 171.621L1534 326.032C1534 328.241 1532.21 330.032 1530 330.032L1162 330.032C1159.79 330.032 1158 328.241 1158 326.032Z" fill="currentColor"/>
<path id="e" d="M1544 326.032L1544 4.03223C1544 1.82309 1545.79 0.0322266 1548 0.0322267L1916 0.0322428C1918.21 0.0322429 1920 1.8231 1920 4.03224L1920 83.5391C1920 83.8739 1919.73 84.1453 1919.39 84.1453L1794.86 84.1453C1780.03 84.1453 1768 96.1675 1768 110.998C1768 125.828 1780.03 137.85 1794.86 137.85L1918.79 137.85C1919.46 137.85 1920 138.391 1920 139.058L1920 191.446C1920 192.55 1919.1 193.446 1918 193.446L1793.91 193.446C1779.6 193.446 1768 205.044 1768 219.352C1768 233.66 1779.6 245.258 1793.91 245.258L1918 245.258C1919.1 245.258 1920 246.154 1920 247.258L1920 326.032C1920 328.241 1918.21 330.032 1916 330.032L1548 330.032C1545.79 330.032 1544 328.241 1544 326.032Z" fill="currentColor"/>
</g>
</svg>
