<svg width="100%" viewBox="0 0 230 230" fill="none" xmlns="http://www.w3.org/2000/svg">
<rect width="230" height="230" fill="#003082"/>
<path d="M118.931 209.835C123.619 207.324 129.31 203.641 135.339 199.122V143.877L118.931 133.01V209.835Z" fill="white"/>
<path d="M118.931 94.6596L135.339 105.526V77.5713C129.813 77.2373 124.472 77.2373 118.931 77.0723V94.6596Z" fill="white"/>
<path d="M168.151 80.433C162.625 79.7609 157.285 79.0928 151.743 78.7588V116.425L168.151 127.291V80.433Z" fill="white"/>
<path d="M151.743 154.759V184.891C157.667 178.935 163.151 172.556 168.151 165.806L151.743 154.759Z" fill="white"/>
<path d="M184.72 82.9403V138.342C191.92 123.452 197.599 106.198 200.959 85.9426L200.456 85.7776C195.1 84.7715 189.912 83.7653 184.72 82.9282" fill="white"/>
<path d="M135.339 105.542V143.876L151.743 154.759V116.425L135.339 105.542Z" fill="white"/>
<path d="M168.151 127.476V165.81C174.397 157.205 179.885 148.075 184.555 138.524V138.342L168.151 127.476Z" fill="white"/>
<path d="M82.7738 146.392C87.5712 145.102 91.8807 142.423 95.1614 138.693C93.0925 137.911 90.9649 137.295 88.7986 136.85C87.1243 140.701 84.774 143.881 82.7617 146.392" fill="white"/>
<path d="M56.6423 138.689C59.9561 142.389 64.2605 145.062 69.0461 146.392C66.5453 143.548 64.508 140.328 63.0092 136.85C60.8473 137.316 58.72 137.931 56.6423 138.689Z" fill="white"/>
<path d="M73.5657 98.6763C71.3213 101.154 69.4084 103.912 67.875 106.882C69.5492 107.047 71.5575 107.216 73.5657 107.381V98.6763Z" fill="white"/>
<path d="M90.4729 132.326C93.0477 132.886 95.5686 133.669 98.0069 134.668C100.039 131.383 101.246 127.655 101.524 123.802H91.9821C91.8486 126.7 91.3413 129.569 90.4729 132.338" fill="white"/>
<path d="M69.0461 96.4873C64.2402 97.7774 59.9241 100.462 56.6423 104.202C58.7119 104.982 60.8393 105.598 63.0052 106.046C64.646 102.645 66.6715 99.4429 69.042 96.5034" fill="white"/>
<path d="M95.1613 104.202C91.8838 100.465 87.5737 97.7803 82.7737 96.4873C85.2753 99.3307 87.3127 102.551 88.8105 106.03C90.9821 105.606 93.1115 104.989 95.1734 104.186" fill="white"/>
<path d="M92.147 119.101H101.689C101.355 115.076 100.015 111.567 98.1758 108.234C95.7375 109.232 93.2165 110.014 90.6418 110.573C91.334 113.381 91.8369 116.233 92.147 119.109" fill="white"/>
<path d="M78.2542 144.211C80.4995 141.735 82.4125 138.978 83.9449 136.008C82.1057 135.843 80.2624 135.674 78.2542 135.505V144.211Z" fill="white"/>
<path d="M73.5658 123.79H64.5266C64.656 126.361 65.1632 128.9 66.0318 131.324C68.5235 130.917 71.0415 130.693 73.5658 130.651V123.79Z" fill="white"/>
<path d="M78.2542 130.651C80.9305 130.82 83.4418 130.985 85.7881 131.324C86.5602 128.874 87.0648 126.348 87.2933 123.79H78.2542V130.651Z" fill="white"/>
<path d="M83.9449 107.047C82.5118 104.019 80.5891 101.248 78.2542 98.8452V107.55C80.2664 107.381 82.2787 107.216 83.9449 107.047Z" fill="white"/>
<path d="M87.2933 119.101C87.1639 116.53 86.6567 113.991 85.7881 111.567C83.2962 111.972 80.7783 112.196 78.2542 112.239V119.101H87.2933Z" fill="white"/>
<path d="M67.875 136.008C69.349 139.013 71.2674 141.778 73.5657 144.211V135.526C71.6575 135.52 69.7526 135.688 67.875 136.029" fill="white"/>
<path d="M61.347 110.573C58.7759 110.008 56.259 109.221 53.8251 108.218C51.8656 111.537 50.6644 115.247 50.3076 119.085H59.8499C59.996 116.196 60.4989 113.337 61.347 110.573Z" fill="white"/>
<path d="M73.5658 112.239C70.8894 112.07 68.3781 111.901 66.0318 111.567C65.1795 113.996 64.6728 116.532 64.5266 119.101H73.5658V112.239Z" fill="white"/>
<path d="M59.8379 123.79H50.2957C50.6337 127.814 51.9699 131.324 53.8131 134.656C56.2514 133.657 58.7723 132.874 61.3471 132.314C60.675 129.638 60.0069 126.957 59.8379 123.778" fill="white"/>
<path d="M29.0378 86.1237C41.0914 160.783 87.7965 197.113 111.067 210V77.2495C83.611 77.5836 56.1554 80.4329 29.5409 86.1237H29.0378ZM75.9079 90.8083C81.9673 90.8075 87.8908 92.6036 92.9294 95.9695C97.9679 99.3354 101.895 104.12 104.214 109.718C106.533 115.316 107.14 121.476 105.959 127.419C104.777 133.362 101.859 138.821 97.5742 143.105C93.2896 147.39 87.8306 150.308 81.8876 151.49C75.9446 152.672 69.7846 152.065 64.1866 149.746C58.5886 147.426 53.8041 143.499 50.4382 138.461C47.0723 133.422 45.2762 127.499 45.277 121.439C45.442 104.536 59.1698 90.8043 75.9079 90.8043" fill="white"/>
<path d="M200.291 29.0392C144.068 16.9869 85.929 16.9869 29.7059 29.0392H29.5409C28.566 29.2657 27.6996 29.8229 27.0892 30.6161C26.4787 31.4092 26.1618 32.3894 26.1925 33.3898V48.7918C26.2148 58.4087 26.7737 68.0168 27.8667 77.5715C85.3294 65.5192 144.668 65.5192 202.13 77.5715C203.308 68.0203 203.867 58.403 203.805 48.7797V33.3898C203.799 32.3736 203.449 31.3894 202.81 30.5989C202.172 29.8083 201.283 29.2583 200.291 29.0392ZM181.038 67.2082C159.611 63.1836 135.158 61.8475 114.914 61.8475C94.8274 61.8475 70.2172 63.0227 48.7904 67.2082C47.9533 67.3732 47.2852 66.7051 47.7843 65.699L61.8461 34.7299C62.0151 34.3959 71.0543 29.8763 71.0543 29.8763C82.6048 27.53 101.689 28.5361 114.922 33.3898C128.147 28.5361 147.231 27.3529 158.79 29.8763C158.79 29.8763 167.829 34.3959 167.998 34.7299L182.06 65.699C182.563 66.7051 181.891 67.3732 181.054 67.2082" fill="white"/>
<path d="M155.244 35.2329L161.104 51.134C147.376 49.2948 135.991 50.1319 119.083 55.6536V57.1628C134.989 56.4907 155.075 55.6536 171.479 59.1751L162.625 38.7504L155.244 35.2329Z" fill="white"/>
<path d="M68.7159 51.134L74.5757 35.2329L67.2107 38.5814L58.3325 59.002C74.5716 55.4886 94.8273 56.3257 110.728 56.9897V55.4845C93.9902 50.1319 82.4397 49.2948 68.7159 51.134Z" fill="white"/>
</svg>
