<svg height="100%" viewBox="0 0 230 230" fill="none" xmlns="http://www.w3.org/2000/svg">
<g clip-path="url(#clip0_1395_577)">
<path d="M230 0H0V230H230V0Z" fill="#003082"/>
<path d="M117.502 182.891C120.611 181.225 124.385 178.783 128.383 175.786V139.15L117.502 131.943V182.891Z" fill="white"/>
<path d="M117.502 106.511L128.383 113.717V95.1789C124.718 94.9574 121.176 94.9574 117.502 94.848V106.511Z" fill="white"/>
<path d="M150.142 97.0767C146.478 96.631 142.936 96.1879 139.261 95.9664V120.945L150.142 128.151V97.0767Z" fill="white"/>
<path d="M139.261 146.367V166.349C143.19 162.399 146.827 158.169 150.142 153.692L139.261 146.367Z" fill="white"/>
<path d="M161.13 98.7395V135.48C165.905 125.605 169.671 114.163 171.899 100.73L171.566 100.621C168.014 99.9538 164.573 99.2866 161.13 98.7314" fill="white"/>
<path d="M128.383 113.728V139.149L139.261 146.367V120.945L128.383 113.728Z" fill="white"/>
<path d="M150.142 128.273V153.695C154.284 147.988 157.924 141.934 161.021 135.6V135.479L150.142 128.273Z" fill="white"/>
<path d="M93.5236 140.818C96.7051 139.962 99.563 138.186 101.739 135.712C100.367 135.194 98.9556 134.785 97.519 134.49C96.4087 137.044 94.8501 139.153 93.5156 140.818" fill="white"/>
<path d="M76.1943 135.71C78.3919 138.163 81.2464 139.936 84.42 140.818C82.7616 138.932 81.4105 136.796 80.4166 134.49C78.9829 134.799 77.5722 135.207 76.1943 135.71Z" fill="white"/>
<path d="M87.4174 109.175C85.929 110.818 84.6604 112.647 83.6436 114.616C84.7538 114.726 86.0856 114.838 87.4174 114.947V109.175Z" fill="white"/>
<path d="M98.6296 131.49C100.337 131.861 102.009 132.381 103.626 133.043C104.973 130.865 105.774 128.392 105.958 125.837H99.6305C99.5419 127.759 99.2055 129.662 98.6296 131.498" fill="white"/>
<path d="M84.42 107.723C81.2329 108.579 78.3707 110.359 76.1943 112.839C77.5668 113.356 78.9776 113.765 80.4139 114.062C81.5021 111.807 82.8453 109.683 84.4173 107.734" fill="white"/>
<path d="M101.739 112.839C99.5651 110.361 96.7068 108.581 93.5237 107.723C95.1826 109.609 96.5338 111.744 97.527 114.051C98.9671 113.77 100.379 113.361 101.747 112.829" fill="white"/>
<path d="M99.7396 122.72H106.067C105.846 120.05 104.957 117.723 103.738 115.513C102.121 116.175 100.449 116.693 98.7415 117.064C99.2005 118.926 99.534 120.818 99.7396 122.725" fill="white"/>
<path d="M90.5266 139.371C92.0156 137.729 93.2842 135.901 94.3004 133.932C93.0808 133.822 91.8584 133.71 90.5266 133.598V139.371Z" fill="white"/>
<path d="M87.4173 125.829H81.4229C81.5087 127.534 81.845 129.218 82.421 130.825C84.0734 130.556 85.7433 130.407 87.4173 130.379V125.829Z" fill="white"/>
<path d="M90.5266 130.379C92.3014 130.491 93.9668 130.601 95.5228 130.825C96.0348 129.201 96.3694 127.526 96.521 125.829H90.5266V130.379Z" fill="white"/>
<path d="M94.3004 114.726C93.3501 112.718 92.075 110.88 90.5266 109.287V115.06C91.861 114.947 93.1955 114.838 94.3004 114.726Z" fill="white"/>
<path d="M96.521 122.72C96.4351 121.015 96.0988 119.331 95.5228 117.723C93.8703 117.992 92.2005 118.141 90.5266 118.169V122.72H96.521Z" fill="white"/>
<path d="M83.6436 133.932C84.621 135.924 85.8932 137.758 87.4174 139.372V133.612C86.1519 133.608 84.8887 133.719 83.6436 133.946" fill="white"/>
<path d="M79.3145 117.064C77.6095 116.689 75.9404 116.168 74.3263 115.502C73.0269 117.703 72.2303 120.164 71.9937 122.709H78.3217C78.4186 120.793 78.7521 118.897 79.3145 117.064Z" fill="white"/>
<path d="M87.4173 118.169C85.6424 118.057 83.977 117.945 82.421 117.723C81.8558 119.334 81.5198 121.016 81.4229 122.72H87.4173V118.169Z" fill="white"/>
<path d="M78.3136 125.829H71.9856C72.2097 128.498 73.0959 130.825 74.3182 133.035C75.9352 132.373 77.6069 131.853 79.3144 131.482C78.8687 129.707 78.4257 127.929 78.3136 125.821" fill="white"/>
<path d="M57.8882 100.85C65.8816 150.361 96.8545 174.454 112.286 183V94.9655C94.0788 95.187 75.8714 97.0766 58.2218 100.85H57.8882ZM88.9705 103.957C92.9888 103.957 96.917 105.148 100.258 107.38C103.6 109.612 106.204 112.785 107.742 116.497C109.28 120.21 109.682 124.295 108.899 128.236C108.115 132.177 106.18 135.797 103.339 138.638C100.497 141.48 96.8771 143.415 92.9359 144.199C88.9948 144.982 84.9097 144.58 81.1974 143.042C77.485 141.504 74.3122 138.899 72.08 135.558C69.8479 132.217 68.6568 128.289 68.6573 124.27C68.7668 113.061 77.8705 103.954 88.9705 103.954" fill="white"/>
<path d="M171.456 62.9944C134.171 55.0019 95.6161 55.0019 58.3313 62.9944H58.2219C57.5754 63.1446 57.0008 63.5142 56.596 64.0402C56.1911 64.5661 55.981 65.2161 56.0014 65.8796V76.0935C56.0161 82.471 56.3868 88.8427 57.1116 95.179C95.2184 87.1864 134.569 87.1864 172.676 95.179C173.457 88.8451 173.828 82.4673 173.786 76.0855V65.8796C173.782 65.2057 173.55 64.553 173.127 64.0288C172.704 63.5045 172.114 63.1397 171.456 62.9944ZM158.688 88.3065C144.479 85.6376 128.263 84.7515 114.838 84.7515C101.517 84.7515 85.1967 85.5309 70.9873 88.3065C70.4322 88.4159 69.9891 87.9729 70.3201 87.3057L79.6453 66.7683C79.7574 66.5468 85.7518 63.5496 85.7518 63.5496C93.4116 61.9936 106.067 62.6608 114.843 65.8796C123.613 62.6608 136.269 61.8762 143.934 63.5496C143.934 63.5496 149.929 66.5468 150.041 66.7683L159.366 87.3057C159.7 87.9729 159.254 88.4159 158.699 88.3065" fill="white"/>
<path d="M141.583 67.1018L145.469 77.6467C136.365 76.4271 128.815 76.9822 117.603 80.644V81.6448C128.151 81.1991 141.471 80.644 152.349 82.9793L146.478 69.4345L141.583 67.1018Z" fill="white"/>
<path d="M84.2013 77.6467L88.0872 67.1018L83.2031 69.3224L77.3154 82.8645C88.0845 80.5345 101.517 81.0897 112.062 81.53V80.5318C100.962 76.9822 93.3023 76.4271 84.2013 77.6467Z" fill="white"/>
</g>
<defs>
<clipPath id="clip0_1395_577">
<rect width="230" height="230" rx="115" fill="white"/>
</clipPath>
</defs>
</svg>
