<svg width="1534" height="330" viewBox="0 0 1534 330" fill="none" xmlns="http://www.w3.org/2000/svg">
<g id="khan">
<path id="x" d="M342.011 191.518C327.263 191.518 315.308 179.563 315.308 164.816C315.308 150.068 327.263 138.113 342.011 138.113H371.442C373.959 138.113 376 136.542 376 134.603V3.51064C376 1.57176 373.959 0 371.442 0H224.151C221.593 0 219.519 2.0735 219.519 4.6313V30.9332C219.519 48.0598 205.635 61.9436 188.509 61.9436C171.382 61.9436 157.498 48.0598 157.498 30.9332V4.6313C157.498 2.0735 155.425 0 152.867 0H4.5576C2.04052 0 2.41943e-05 1.57177 2.38419e-05 3.51064L0 134.603C-6.01844e-06 167.713 2.43187e-05 193.307 2.43187e-05 195.028V326.489C2.43187e-05 328.428 2.04052 330 4.5576 330H152.826C155.407 330 157.498 327.908 157.498 325.328V298.524C157.498 281.398 171.382 267.514 188.509 267.514C205.635 267.514 219.519 281.398 219.519 298.524V325.328C219.519 327.908 221.611 330 224.191 330H371.442C373.959 330 376 328.428 376 326.489V195.028C376 193.09 373.959 191.518 371.442 191.518H342.011Z" fill="currentColor"/>
<path id="h" d="M543.786 304.506C543.786 287.703 557.407 274.082 574.21 274.082C591.013 274.082 604.634 287.703 604.634 304.506V327.828C604.634 329.028 605.607 330 606.806 330H758C760.209 330 762 328.209 762 326V4.00002C762 1.79088 760.209 2.17826e-05 758 2.14733e-05L606.814 3.0516e-07C605.61 1.36624e-07 604.634 0.975798 604.634 2.17951V25.6979C604.634 42.5008 591.013 56.1223 574.21 56.1223C557.407 56.1223 543.786 42.5008 543.786 25.6979V2.17953C543.786 0.975822 542.81 2.20333e-05 541.606 2.20333e-05H390C387.791 2.20333e-05 386 1.79088 386 4.00002V326C386 328.209 387.791 330 390 330H541.614C542.813 330 543.786 329.028 543.786 327.828V304.506Z" fill="currentColor"/>
<path id="a" d="M1144 0H776C773.791 0 772 1.79086 772 4V326C772 328.209 773.791 330 776 330H928.613C929.05 330 929.405 329.645 929.405 329.208V162.012C929.405 145.115 943.103 131.417 960 131.417C976.897 131.417 990.595 145.115 990.595 162.012V329.208C990.595 329.645 990.95 330 991.387 330H1144C1146.21 330 1148 328.209 1148 326V4C1148 1.79086 1146.21 0 1144 0Z" fill="currentColor"/>
<path id="n" d="M1316.86 273.931C1315.62 273.931 1314.62 274.935 1314.62 276.173V326C1314.62 328.21 1312.83 330 1310.62 330L1162 330C1159.79 330 1158 328.209 1158 326L1158.01 3.99982C1158.01 1.79075 1159.8 0 1162.01 0H1317.04C1318.24 0 1319.21 0.969645 1319.21 2.16576C1319.21 31.7697 1343.2 55.7684 1372.81 55.7684H1377.38V4C1377.38 1.79086 1379.17 0 1381.38 0H1530C1532.21 0 1534 1.79086 1534 4V326C1534 328.21 1532.21 330 1530 330L1374.52 330C1373.31 330 1372.34 329.026 1372.34 327.823C1372.34 298.059 1348.21 273.931 1318.45 273.931H1316.86Z" fill="currentColor"/>
</g>
</svg>
