<svg height="100" viewBox="0 0 676 100" fill="none" xmlns="http://www.w3.org/2000/svg">
<path d="M270.5 100L210 100L288.488 9.9211C288.488 9.9211 295.998 0.0143661 310.423 0.0143661H323.978H336V100L282.5 100V87L270.5 100Z" fill="currentColor"/>
<path d="M388.5 87V100L340 100L340.004 0.0143661H383L398.5 13V0.0143661H450.5V70.2522V100H403L388.5 87Z" fill="currentColor"/>
<path d="M0 0.0143814H49.5V13.5L63.5 0.0143814H128L84.5 50.0072L128 100H69L58 87L45.5 100H0V0.0143814Z" fill="currentColor"/>
<path d="M166.5 87H185.5L185.5 99.9856L206.5 99.9856L230.305 73V-1.52588e-05L185.5 -2.28882e-05L185.5 13L166.5 13L166.5 -1.52588e-05H131.5L122 11V89L131.5 99.9856L144 99.9856L166.5 99.9856L166.5 87Z" fill="currentColor"/>
</svg>
