<svg height="100%" viewBox="0 0 451 100" fill="none" xmlns="http://www.w3.org/2000/svg">
<path d="M270.5 100L210 100L288.488 9.9211C288.488 9.9211 295.998 0.0143661 310.423 0.0143661H323.978H336V100L282.5 100V92.1153C282.5 90.2947 280.265 89.4209 279.03 90.7587L270.5 100Z" fill="currentColor"/>
<path d="M391.835 89.9901C390.547 88.8354 388.5 89.7495 388.5 91.4792V100L340 100L340.004 0.0143661H383L395.216 10.2484C396.517 11.3389 398.5 10.4134 398.5 8.71531V0.0143661H450.5V70.2522V100H403L391.835 89.9901Z" fill="currentColor"/>
<path d="M0 0.0143814H51.5V8.24379C51.5 10.0823 53.7719 10.9468 54.9941 9.57331L63.5 0.0143814H124.5L81 50.0072L124.5 100H60.2964L50.803 88.7805C50.0109 87.8445 48.5708 87.835 47.7665 88.7606L38 100H0V0.0143814Z" fill="currentColor"/>
<path d="M166.5 89C166.5 87.8954 167.395 87 168.5 87H183.5C184.605 87 185.5 87.8954 185.5 89L185.5 99.9856L206.5 99.9856L230.305 73V-1.52588e-05L185.5 -2.28882e-05L185.5 11C185.5 12.1045 184.605 13 183.5 13L168.5 13C167.395 13 166.5 12.1045 166.5 11L166.5 -1.52588e-05H131.5L122 11V89L131.5 99.9856L144 99.9856L166.5 99.9856L166.5 89Z" fill="currentColor"/>
</svg>
