<svg width="1149" height="331" viewBox="0 0 1149 331" fill="none" xmlns="http://www.w3.org/2000/svg">
<g id="lab">
<path id="t" d="M240.794 1.97545e-05C243.003 1.99359e-05 244.794 1.79088 244.794 4.00002L244.794 63.6696C244.794 118.204 288.897 162.469 343.431 162.669L372.566 162.776C374.769 162.784 376.551 164.572 376.551 166.776L376.551 292.93L376.443 326.497C376.436 328.701 374.647 330.484 372.443 330.484L4.00402 330.484C1.79331 330.484 0.00178828 328.69 0.0040106 326.48L0.328188 3.99597C0.330407 1.7884 2.12062 1.61336e-07 4.32819 3.42559e-07L240.794 1.97545e-05Z" fill="currentColor"/>
<path id="a" d="M758.551 0.241211H390.551C388.342 0.241211 386.551 2.03207 386.551 4.24121V326.241C386.551 328.45 388.342 330.241 390.551 330.241H543.163C543.601 330.241 543.955 329.887 543.955 329.449V162.253C543.955 145.356 557.653 131.658 574.551 131.658C591.448 131.658 605.146 145.356 605.146 162.253V329.449C605.146 329.887 605.501 330.241 605.938 330.241H758.551C760.76 330.241 762.551 328.45 762.551 326.241V4.24121C762.551 2.03207 760.76 0.241211 758.551 0.241211Z" fill="currentColor"/>
<g id="Frame 60">
<path id="Subtract" d="M1087.86 0.241211C1121.38 0.241376 1148.55 27.4138 1148.55 60.9326V134.844C1148.55 136.783 1146.51 138.354 1143.99 138.354H1114.56C1099.81 138.354 1087.86 150.309 1087.86 165.057C1087.86 179.804 1099.81 191.759 1114.56 191.759H1143.99C1146.51 191.759 1148.55 193.331 1148.55 195.27V269.55C1148.55 303.069 1121.38 330.241 1087.86 330.241H777.108C774.591 330.241 772.551 328.669 772.551 326.73V3.75195C772.551 1.81308 774.591 0.241211 777.108 0.241211H1087.86ZM960.551 211.434C943.982 211.434 930.551 224.865 930.551 241.434C930.551 258.002 943.982 271.434 960.551 271.434C977.119 271.434 990.551 258.002 990.551 241.434C990.551 224.865 977.119 211.434 960.551 211.434ZM960.551 58.2939C943.982 58.2939 930.551 71.7254 930.551 88.2939C930.551 104.862 943.982 118.294 960.551 118.294C977.119 118.294 990.551 104.862 990.551 88.2939C990.551 71.7254 977.119 58.2939 960.551 58.2939Z" fill="currentColor"/>
</g>
</g>
</svg>
