<svg width="100%" viewBox="0 0 230 230" fill="none" xmlns="http://www.w3.org/2000/svg">
<g clip-path="url(#clip0_1285_320)">
<path d="M230 0H0V230H230V0Z" fill="#07436A"/>
<path opacity="0.995" fill-rule="evenodd" clip-rule="evenodd" d="M129.498 43.0771C134.065 48.6217 139.015 53.9002 144.348 58.9126C145.209 59.3435 146.069 59.3435 146.931 58.9126C158.716 47.4389 170.123 35.697 181.149 23.6867C182.912 22.8358 184.741 22.8358 186.637 23.6867C187.067 30.7966 187.067 37.9064 186.637 45.0161C177.49 54.1727 168.344 63.3293 159.198 72.4859C161.458 74.7481 163.717 77.0104 165.977 79.2724C172.657 72.4768 179.436 65.7977 186.314 59.2358C187.067 68.0614 187.176 76.8946 186.637 85.7359C184.26 88.0078 182 90.3778 179.859 92.8456C182 95.3135 184.26 97.683 186.637 99.9556C186.959 108.571 187.067 117.19 186.959 125.81C186.28 125.905 185.635 125.799 185.023 125.487C178.675 119.131 172.326 112.775 165.977 106.419C163.6 108.691 161.34 111.062 159.198 113.529C167.151 121.814 175.222 130.001 183.408 138.09C181.73 144.683 178.826 150.716 174.693 156.188C164.803 146.61 155.009 136.914 145.316 127.102C139.614 132.812 133.911 138.521 128.207 144.231C138.43 154.465 148.652 164.698 158.875 174.932C159.306 175.578 159.306 176.224 158.875 176.87C154.765 181.201 150.462 185.294 145.963 189.151C135.417 178.595 124.871 168.037 114.326 157.48C112.497 160.174 110.237 162.436 107.546 164.267C117.891 174.623 128.221 184.965 138.538 195.292C134.462 199.15 130.159 202.813 125.624 206.28C124.812 206.914 123.95 207.129 123.043 206.926C113.465 197.338 103.888 187.75 94.3112 178.164C90.8474 181.847 87.1891 185.295 83.3353 188.505C78.8947 184.275 74.6981 179.859 70.7454 175.255C73.621 171.728 76.7415 168.388 80.1071 165.236C78.7459 162.459 76.7014 160.089 73.9736 158.126C70.8626 160.917 67.8496 163.826 64.9346 166.853C64.5042 167.284 64.0739 167.284 63.6434 166.853C59.5597 162.337 56.1164 157.382 53.3132 151.987C55.4342 149.214 57.8016 146.63 60.4151 144.231C54.9273 138.736 49.4393 133.243 43.9515 127.748C42.9744 118.506 42.7592 109.241 43.3058 99.9556C45.5655 97.6928 47.8253 95.4314 50.085 93.1687C47.8253 90.9073 45.5655 88.6445 43.3058 86.3823C42.7423 76.879 42.9576 67.3992 43.9515 57.943C49.3411 52.6553 54.6139 47.2692 59.7696 41.7845C54.6139 36.2997 49.3411 30.9134 43.9515 25.6257C43.6351 24.7899 43.5275 23.928 43.6286 23.0403C52.0247 22.9327 60.418 23.0405 68.8084 23.3635C70.4226 24.9795 72.0367 26.5953 73.6507 28.2111C75.2648 26.5953 76.879 24.9795 78.493 23.3635C89.0383 22.9326 99.5838 22.9326 110.129 23.3635C111.744 24.9795 113.357 26.5953 114.971 28.2111C116.586 26.5953 118.199 24.9795 119.814 23.3635C128.645 22.8253 137.47 22.933 146.285 23.6867C140.698 29.6024 134.995 35.4196 129.175 41.1381C128.872 41.834 128.98 42.4804 129.498 43.0771ZM93.9883 34.6746C96.5574 36.8155 98.9244 39.1854 101.091 41.7845C98.9482 44.2523 96.6879 46.6223 94.3112 48.8942C91.9339 46.6223 89.6741 44.2523 87.532 41.7845C89.698 39.4016 91.8507 37.0316 93.9883 34.6746ZM73.3279 55.3578C75.897 57.4986 78.2642 59.8686 80.4299 62.4675C75.0497 68.2847 69.4541 73.8864 63.6434 79.2724C61.1783 77.1279 58.8109 74.8657 56.5414 72.4859C62.2676 66.8616 67.8631 61.1522 73.3279 55.3578ZM114.648 55.3578C120.545 60.9363 126.355 66.6457 132.081 72.4859C129.811 74.8657 127.444 77.1279 124.979 79.2724C119.169 73.8864 113.572 68.2847 108.193 62.4675C110.358 60.0846 112.511 57.7147 114.648 55.3578ZM93.9883 76.0408C99.884 81.6194 105.695 87.3286 111.42 93.1687C105.718 98.8783 100.015 104.588 94.3112 110.298C88.6082 104.588 82.9049 98.8783 77.2018 93.1687C82.9279 87.5444 88.5236 81.8352 93.9883 76.0408ZM144.993 86.3823C147.737 88.0492 150.104 90.2036 152.095 92.8456C149.953 95.3135 147.694 97.683 145.316 99.9556C143.057 97.6928 140.797 95.4314 138.538 93.1687C140.821 90.9916 142.973 88.7292 144.993 86.3823ZM62.9977 107.066C69.1909 112.187 75.0017 117.788 80.4299 123.87C78.493 126.241 76.3409 128.394 73.9736 130.334C68.1629 124.947 62.5673 119.346 57.187 113.529C59.1382 111.362 61.0751 109.206 62.9977 107.066ZM124.333 107.066C127.078 108.733 129.445 110.886 131.436 113.529C126.055 119.346 120.46 124.947 114.648 130.334C112.281 128.394 110.129 126.241 108.193 123.87C113.586 118.256 118.967 112.653 124.333 107.066ZM93.9883 137.444C96.441 139.575 98.8079 141.836 101.091 144.231C98.8304 146.492 96.5715 148.755 94.3112 151.016C92.0514 148.755 89.7917 146.492 87.532 144.231C89.8156 142.052 91.9681 139.791 93.9883 137.444Z" fill="white"/>
</g> 
<defs>
<clipPath id="clip0_1285_320">
<rect width="230" height="230" fill="white"/>
</clipPath>
</defs>
</svg>
