<svg height="100%" viewBox="0 0 230 230" fill="none" xmlns="http://www.w3.org/2000/svg">
<g clip-path="url(#clip0_1395_606)">
<mask id="mask0_1395_606" style="mask-type:luminance" maskUnits="userSpaceOnUse" x="0" y="0" width="230" height="230">
<path d="M230 0H0V230H230V0Z" fill="white"/>
</mask>
<g mask="url(#mask0_1395_606)">
<path d="M230 0H0V230H230V0Z" fill="#07436A"/>
<path opacity="0.995" fill-rule="evenodd" clip-rule="evenodd" d="M125.468 71.7485C128.607 75.5453 132.011 79.1599 135.677 82.5923C136.269 82.8874 136.86 82.8874 137.453 82.5923C145.555 74.7354 153.397 66.6947 160.978 58.4703C162.19 57.8876 163.447 57.8876 164.751 58.4703C165.046 63.339 165.046 68.2077 164.751 73.0763C158.462 79.3465 152.174 85.6168 145.886 91.8871C147.44 93.4362 148.993 94.9854 150.547 96.5344C155.139 91.8809 159.8 87.3071 164.529 82.8137C165.046 88.8573 165.121 94.9061 164.751 100.96C163.117 102.516 161.563 104.139 160.091 105.829C161.563 107.519 163.117 109.142 164.751 110.698C164.972 116.598 165.046 122.5 164.972 128.403C164.505 128.468 164.062 128.395 163.641 128.181C159.277 123.829 154.912 119.476 150.547 115.124C148.913 116.68 147.359 118.303 145.886 119.993C151.354 125.666 156.903 131.272 162.531 136.812C161.377 141.326 159.381 145.458 156.539 149.205C149.74 142.646 143.006 136.006 136.342 129.287C132.422 133.197 128.502 137.107 124.58 141.017C131.608 148.025 138.636 155.032 145.664 162.04C145.961 162.483 145.961 162.925 145.664 163.368C142.839 166.333 139.88 169.136 136.787 171.777C129.537 164.549 122.286 157.319 115.037 150.09C113.779 151.934 112.226 153.483 110.376 154.737C117.488 161.829 124.59 168.911 131.683 175.983C128.88 178.625 125.922 181.133 122.804 183.507C122.246 183.941 121.653 184.088 121.03 183.949C114.445 177.384 107.861 170.818 101.277 164.254C98.8952 166.776 96.3801 169.137 93.7306 171.335C90.6777 168.438 87.7925 165.414 85.075 162.262C87.052 159.846 89.1974 157.559 91.5112 155.401C90.5754 153.499 89.1698 151.876 87.2944 150.532C85.1556 152.443 83.0842 154.435 81.0801 156.508C80.7842 156.803 80.4884 156.803 80.1924 156.508C77.3848 153.416 75.0176 150.023 73.0903 146.328C74.5485 144.429 76.1761 142.66 77.9729 141.017C74.2 137.254 70.427 133.493 66.6542 129.73C65.9824 123.401 65.8344 117.056 66.2102 110.698C67.7638 109.148 69.3174 107.6 70.871 106.05C69.3174 104.502 67.7638 102.952 66.2102 101.403C65.8228 94.8954 65.9708 88.4038 66.6542 81.9284C70.3595 78.3075 73.9846 74.6191 77.5291 70.8633C73.9846 67.1074 70.3595 63.419 66.6542 59.798C66.4366 59.2257 66.3627 58.6355 66.4322 58.0276C72.2045 57.9539 77.9749 58.0277 83.7433 58.2489C84.8531 59.3555 85.9628 60.462 87.0724 61.5685C88.1821 60.462 89.2919 59.3555 90.4015 58.2489C97.6514 57.9539 104.901 57.9539 112.151 58.2489C113.262 59.3555 114.371 60.462 115.48 61.5685C116.591 60.462 117.699 59.3555 118.81 58.2489C124.881 57.8804 130.948 57.9541 137.009 58.4703C133.168 62.5212 129.247 66.5047 125.246 70.4207C125.037 70.8972 125.111 71.3399 125.468 71.7485ZM101.055 65.9946C102.821 67.4606 104.448 69.0835 105.938 70.8633C104.465 72.5532 102.911 74.1762 101.277 75.7319C99.6422 74.1762 98.0885 72.5532 96.6158 70.8633C98.105 69.2315 99.585 67.6086 101.055 65.9946ZM86.8505 80.1581C88.6168 81.6241 90.2442 83.247 91.7331 85.0267C88.0342 89.0102 84.1873 92.8461 80.1924 96.5344C78.4976 95.0659 76.87 93.5168 75.3097 91.8871C79.2465 88.0357 83.0934 84.126 86.8505 80.1581ZM115.258 80.1581C119.312 83.9781 123.307 87.8878 127.243 91.8871C125.683 93.5168 124.055 95.0659 122.361 96.5344C118.366 92.8461 114.518 89.0102 110.82 85.0267C112.309 83.3949 113.789 81.772 115.258 80.1581ZM101.055 94.3214C105.108 98.1416 109.103 102.051 113.039 106.05C109.119 109.96 105.198 113.87 101.277 117.78C97.3557 113.87 93.4347 109.96 89.5138 106.05C93.4505 102.199 97.2976 98.2893 101.055 94.3214ZM136.12 101.403C138.007 102.545 139.634 104.02 141.003 105.829C139.53 107.519 137.977 109.142 136.342 110.698C134.789 109.148 133.236 107.6 131.683 106.05C133.252 104.559 134.732 103.01 136.12 101.403ZM79.7485 115.567C84.0063 119.074 88.0012 122.909 91.7331 127.074C90.4015 128.698 88.9219 130.172 87.2944 131.5C83.2996 127.812 79.4526 123.976 75.7536 119.993C77.095 118.509 78.4267 117.032 79.7485 115.567ZM121.917 115.567C123.804 116.709 125.431 118.183 126.8 119.993C123.101 123.976 119.254 127.812 115.258 131.5C113.631 130.172 112.151 128.698 110.82 127.074C114.528 123.23 118.227 119.393 121.917 115.567ZM101.055 136.369C102.741 137.829 104.368 139.377 105.938 141.017C104.384 142.565 102.831 144.115 101.277 145.663C99.723 144.115 98.1694 142.565 96.6158 141.017C98.1858 139.525 99.6657 137.976 101.055 136.369Z" fill="white"/>
</g>
</g>
<defs>
<clipPath id="clip0_1395_606">
<rect width="230" height="230" rx="115" fill="white"/>
</clipPath>
</defs>
</svg>
