<svg height="100%" viewBox="0 0 828 100" fill="none" xmlns="http://www.w3.org/2000/svg">
<path d="M744 60.5882C753.867 68.609 764.362 73.3131 778 73.3017C784.463 73.3017 788.5 72.8995 788.5 69.0639C788.5 65.2283 786.194 64.8193 774.949 63.1309C756.207 60.2313 727.748 55.5882 727.748 31.3452C727.748 14.9569 743.776 0 774.949 0C793.519 0 810.215 4.49624 823.162 13.5071L803.5 36.4326C794.32 30.5781 786.408 25.7987 774.949 25.4143C766.44 25.4143 764.5 27.1746 764.5 29.6521C764.5 33.3225 766.893 33.4179 779 35.1613C797.742 37.9141 825.898 43.9163 825.898 66.3241C825.898 87.6675 807.328 100 776.823 100C752.631 100 736.107 93.9071 724 84.621L744 60.5882Z" fill="currentColor"/>
<path d="M488.715 35.8778H520.987V0H428V35.8778H445.052V100H481.909H488.715V35.8778Z" fill="currentColor"/>
<path fill-rule="evenodd" clip-rule="evenodd" d="M581.618 0H517V100H559.673V70.4032L562.5 70.4032L586 100H595L614.692 77.0833L603.601 64.175C617.743 58.6133 625.176 47.4135 625.176 34.3281C625.176 15.5987 609.947 0 581.618 0ZM576.967 26.4855H557V41.3851H576.967C579.392 41.3851 581.718 40.6003 583.433 39.2031C585.148 37.806 586.111 35.9111 586.111 33.9353C586.111 31.9595 585.148 30.0646 583.433 28.6675C581.718 27.2704 579.392 26.4855 576.967 26.4855Z" fill="currentColor"/>
<path d="M355 73.1405L355 100H313L313.004 -1.66893e-06H343.5L378.5 42.1488V-1.66893e-06H423.5V100H396.957H378.5L355 73.1405Z" fill="currentColor"/>
<path d="M136.679 100L136.679 73.1405L153.488 92.5H166.512L183.321 73.1405V93.75L224.998 45.8333L224.996 0H194.733L160 42.1488L133.851 10.4167L95.0019 54.5833L95 100H136.679Z" fill="currentColor"/>
<path d="M51.5 100L0 100L87 2.38419e-06H138.5L70 78.75L51.5 100Z" fill="currentColor"/>
<path d="M239 100H183L261.488 9.90816C261.488 9.90816 268.998 -6.84578e-07 283.423 -6.84578e-07H296.978H309V100L259 100L259 78.5109L239 100Z" fill="currentColor"/>
<path d="M288.349 67.8689H242.889V43.8633H288.349V67.8689Z" fill="currentColor"/>
<path d="M654 100H598L676.488 9.90816C676.488 9.90816 683.998 -6.84578e-07 698.423 -6.84578e-07H711.978H724V100L674 100L674 78.5109L654 100Z" fill="currentColor"/>
<path d="M703.349 67.8689H657.889V43.8633H703.349V67.8689Z" fill="currentColor"/>
</svg>
