<svg height="100%" viewBox="0 0 750 100" fill="none" xmlns="http://www.w3.org/2000/svg">
<path d="M469.273 37.8778C469.273 36.7732 468.377 35.8778 467.273 35.8778H437V0H531.987V35.8778H514.935C513.83 35.8778 512.935 36.7732 512.935 37.8778V57.7574L476.078 100H469.273V37.8778Z" fill="currentColor"/>
<path fill-rule="evenodd" clip-rule="evenodd" d="M536 0H596.554C621.059 0 646 9.5 646 41C646 65.1887 633.951 71.5906 627.25 75.1508C627.025 75.2702 626.806 75.3864 626.594 75.5L646 100L596.554 100L589.082 91.1574C587.879 89.7338 585.554 90.5845 585.554 92.4483V100L536 100V0ZM598.549 47.4826C600.326 47.4029 601.999 46.691 603.213 45.4984C604.426 44.3058 605.084 42.7265 605.045 41.0966C605.046 39.5044 604.367 37.9753 603.152 36.836C601.938 35.6968 600.286 35.0378 598.549 35H587.01C585.905 35 585.01 35.8954 585.01 37V45.4826C585.01 46.5872 585.905 47.4826 587.01 47.4826H598.549Z" fill="currentColor"/>
<path fill-rule="evenodd" clip-rule="evenodd" d="M536 0H596.554C621.059 0 646 9.5 646 41C646 78.6627 617.525 86.6426 587.555 86.9719C586.451 86.984 585.554 87.8635 585.554 88.9681V100L536 100V0ZM598.549 47.4826C600.326 47.4029 601.999 46.691 603.213 45.4984C604.426 44.3058 605.084 42.7265 605.045 41.0966C605.046 39.5044 604.367 37.9753 603.152 36.836C601.938 35.6968 600.286 35.0378 598.549 35H587.01C585.905 35 585.01 35.8954 585.01 37V45.4826C585.01 46.5872 585.905 47.4826 587.01 47.4826H598.549Z" fill="currentColor"/>
<path d="M684.5 99.9856L624 99.9856L702.488 9.9067C702.488 9.9067 709.998 -3.8147e-05 724.423 -3.8147e-05H737.978H750V99.9856L696.5 99.9856V92.1009C696.5 90.2803 694.265 89.4065 693.03 90.7443L684.5 99.9856Z" fill="currentColor"/>
<path d="M51.5 100L0 100L87 2.38419e-06H138.5L70 78.75L51.5 100Z" fill="currentColor"/>
<path d="M155.046 100V91.2019C155.046 89.5179 157 88.5877 158.307 89.6497L171.046 100L183.785 89.6497C185.092 88.5878 187.046 89.5179 187.046 91.2019V100H199.711L235.996 59V0H187.046L173.568 10.9506C172.099 12.1446 169.993 12.1446 168.524 10.9506L155.046 0H144L106 43.3757V100H155.046Z" fill="currentColor"/>
<path d="M265.5 99.9856L205 99.9856L283.488 9.9067C283.488 9.9067 290.998 -3.8147e-05 305.423 -3.8147e-05H318.978H331V99.9856L277.5 99.9856V92.1009C277.5 90.2803 275.265 89.4065 274.03 90.7443L265.5 99.9856Z" fill="currentColor"/>
<path d="M386.835 89.9758C385.547 88.8211 383.5 89.7352 383.5 91.4649V99.9857L335 99.9857L335.004 8.39233e-05H378L390.216 10.2341C391.517 11.3246 393.5 10.3992 393.5 8.70103V8.39233e-05H445.5V70.2379V99.9857H398L386.835 89.9758Z" fill="currentColor"/>
</svg>
