<svg height="100%" viewBox="0 0 750 100" fill="none" xmlns="http://www.w3.org/2000/svg">
<path fill-rule="evenodd" clip-rule="evenodd" d="M646 41C646 9.5 621.059 0 596.554 0H536V100L585.554 100V92.4483C585.554 90.5845 587.879 89.7338 589.082 91.1574L596.554 100H620.248L633.723 84.5L628.381 77.7566C639.04 70.9843 646 59.6195 646 41ZM603.213 45.4984C601.999 46.691 600.326 47.4029 598.549 47.4826H587.01C585.905 47.4826 585.01 46.5872 585.01 45.4826V37C585.01 35.8954 585.905 35 587.01 35H598.549C600.286 35.0378 601.938 35.6968 603.152 36.836C604.367 37.9753 605.046 39.5044 605.045 41.0966C605.084 42.7265 604.426 44.3058 603.213 45.4984Z" fill="currentColor"/>
<path d="M684.5 99.9856L624 99.9856L702.488 9.9067C702.488 9.9067 709.998 -3.8147e-05 724.423 -3.8147e-05H737.978H750V99.9856L696.5 99.9856V92.1009C696.5 90.2803 694.265 89.4065 693.03 90.7443L684.5 99.9856Z" fill="currentColor"/>
<path d="M51.5 100L0 100L87 2.38419e-06H138.5L70 78.75L51.5 100Z" fill="currentColor"/>
<path d="M155.046 100V91.2019C155.046 89.5179 157 88.5877 158.307 89.6497L171.046 100L183.785 89.6497C185.092 88.5878 187.046 89.5179 187.046 91.2019V100H199.711L235.996 59V0H187.046L173.568 10.9506C172.099 12.1446 169.993 12.1446 168.524 10.9506L155.046 0H144L106 43.3757V100H155.046Z" fill="currentColor"/>
<path d="M265.5 99.9856L205 99.9856L283.488 9.9067C283.488 9.9067 290.998 -3.8147e-05 305.423 -3.8147e-05H318.978H331V99.9856L277.5 99.9856V92.1009C277.5 90.2803 275.265 89.4065 274.03 90.7443L265.5 99.9856Z" fill="currentColor"/>
<path fill-rule="evenodd" clip-rule="evenodd" d="M467.273 35.8778C468.377 35.8778 469.273 36.7732 469.273 37.8778V100H476.078L512.935 57.7574V37.8778C512.935 36.7732 513.83 35.8778 514.935 35.8778H531.987V0H437V8.39233e-05H393.5V8.70103C393.5 10.3992 391.517 11.3246 390.216 10.2341L378 8.39233e-05H335.004L335 99.9857L383.5 99.9857V91.4649C383.5 89.7352 385.547 88.8211 386.835 89.9758L398 99.9857H445.5V70.2379V35.8778H467.273Z" fill="currentColor"/>
</svg>
