<svg width="100%" viewBox="0 0 1253 122" fill="none" xmlns="http://www.w3.org/2000/svg">
<path d="M1165.7 70.0817V121.261H1126.56V42.6174V23.9485L1126.56 0.00075985H1137.13H1147.01C1163.78 0.00075985 1172.95 17.2128 1172.95 17.2128L1210.43 75.0257L1209.64 0.00075985H1252.29V121.261H1202.03L1165.7 70.0817Z" fill="currentColor"/>
<path d="M1045.31 121.261H993L1071.32 12.0152C1071.32 12.0152 1078.81 0.000446162 1093.21 0.000446162H1106.73H1118.73V121.261H1079.78L1079.28 70.0814L1045.31 121.261Z" fill="currentColor"/>
<path d="M1095.54 81.1212H1050.44V52.0745H1095.54V81.1212Z" fill="currentColor"/>
<path d="M975.102 81.0788H935.203V120.983H896V0.000473859H935.203V42.8076H975.102V0.000473859H1014.31L1014.31 81.0788L986.305 120.983H975.102L975.102 81.0788Z" fill="currentColor"/>
<path d="M768.502 -2.53821e-05H807.644V43.8683L826.686 17.1932L838.96 -2.53821e-05H886.412L844.473 56.978L888.712 121.261H841.03L820.777 89.85L797.867 121.261H768.502V-2.53821e-05Z" fill="currentColor"/>
<path d="M627.944 70.0817V121.261H588.802V42.6174V23.9485L588.806 0.00075985H599.379H609.256C626.028 0.00075985 635.191 17.2128 635.191 17.2128L672.675 75.0257L671.882 0.00075985H714.532V121.261H664.277L627.944 70.0817Z" fill="currentColor"/>
<path d="M508.865 121H456.854L534.719 11.9889C534.719 11.9889 542.169 -9.47226e-07 556.48 -9.47226e-07H569.928H581.854V121H543.128L542.631 69.9303L508.865 121Z" fill="currentColor"/>
<path d="M558.39 81.1214H513.291V52.0747H558.39V81.1214Z" fill="currentColor"/>
<path d="M517.5 2.57248e-07L472 63.2857V91L449.854 121H436.354L436.354 63.2857C436.354 63.2857 390.097 2.48044 388.854 2.01609e-07C401.333 2.01609e-07 409.486 5.48595e-06 420.111 3.60064e-06C426.058 2.54527e-06 431.698 2.64681 435.498 7.22199L454 29.5L476.854 4.25472e-06C492.572 3.28604e-05 501.782 -3.14666e-06 517.5 2.57248e-07Z" fill="currentColor"/>
<path d="M401.847 120.983H362.644V0.000473859L377.03 0.00046623L401.847 32V120.983Z" fill="currentColor"/>
<path d="M275.203 81.0788H315.102V120.983H354.305V0.000473859H315.102V42.8076H275.203V0.000473859H236L236 120.983H264H275.203L275.203 81.0788Z" fill="currentColor"/>
<path d="M153.314 121.261H101L179.32 12.0147C179.32 12.0147 186.813 -4.21195e-05 201.208 -4.21195e-05H214.734H226.73V121.261H187.778L187.278 70.0809L153.314 121.261Z" fill="currentColor"/>
<path d="M203.536 81.1207H158.437V52.074H203.536V81.1207Z" fill="currentColor"/>
<path d="M39.142 70.0809V121.261H0V42.6166V23.9478L0.004188 0H10.5767H22.3696C35.0562 0 46.3885 17.212 46.3885 17.212L83.8727 75.025L83.0794 0H125.73L125.73 77.5L93.5 121.261H75.475L39.142 70.0809Z" fill="currentColor"/>
</svg>
