<svg width="2477" height="613" viewBox="0 0 2477 613" fill="none" xmlns="http://www.w3.org/2000/svg">
<g clip-path="url(#clip0_1754_2674)">
<circle cx="269.745" cy="70.2354" r="69" fill="#2B2935"/>
<path d="M0.644531 1.08105H143.77L339.794 301.967H196.669L0.644531 1.08105Z" fill="#F1F0FF"/>
<mask id="mask0_1754_2674" style="mask-type:alpha" maskUnits="userSpaceOnUse" x="-17" y="-9" width="212" height="598">
<path d="M-15.7227 -8.5791L194.173 311.842" stroke="black"/>
<path d="M-15.7227 6.04004L194.173 326.461" stroke="black"/>
<path d="M-15.7227 20.04L194.173 340.461" stroke="black"/>
<path d="M-15.7227 35.04L194.173 355.461" stroke="black"/>
<path d="M-15.7227 48.4014L194.173 368.822" stroke="black"/>
<path d="M-15.7227 63.0205L194.173 383.441" stroke="black"/>
<path d="M-15.7227 77.0205L194.173 397.441" stroke="black"/>
<path d="M-15.7227 92.0205L194.173 412.441" stroke="black"/>
<path d="M-15.7227 224.231L194.173 544.652" stroke="black"/>
<path d="M-15.7227 238.851L194.173 559.271" stroke="black"/>
<path d="M-15.7227 252.851L194.173 573.271" stroke="black"/>
<path d="M-15.7227 267.851L194.173 588.271" stroke="black"/>
<path d="M-15.7227 166.082L194.173 486.503" stroke="black"/>
<path d="M-15.7227 180.701L194.173 501.122" stroke="black"/>
<path d="M-15.7227 194.701L194.173 515.122" stroke="black"/>
<path d="M-15.7227 209.701L194.173 530.122" stroke="black"/>
<path d="M-15.7227 107.157L194.173 427.578" stroke="black"/>
<path d="M-15.7227 121.776L194.173 442.197" stroke="black"/>
<path d="M-15.7227 135.776L194.173 456.197" stroke="black"/>
<path d="M-15.7227 150.776L194.173 471.197" stroke="black"/>
</mask>
<g mask="url(#mask0_1754_2674)">
<rect x="1.26367" y="1.08105" width="142.506" height="300.886" fill="#C6C4D9"/>
</g>
<path d="M200.745 301.632V70.5967C200.745 32.489 231.637 1.59668 269.745 1.59668C307.853 1.59668 338.745 32.489 338.745 70.5967V301.632" stroke="#57546B"/>
</g>
<g clip-path="url(#clip1_1754_2674)">
<path d="M553.512 0.664062H606.637C656.342 0.664062 696.637 40.9584 696.637 90.6641V301.55H553.512V0.664062Z" fill="#F1F0FF"/>
<circle cx="526.72" cy="70.2363" r="69" fill="#2B2935"/>
<path d="M553.373 1.16113H526.979C488.872 1.16113 457.979 32.0535 457.979 70.1611C457.979 108.269 488.872 139.161 526.979 139.161H696.633" stroke="#57546B"/>
<mask id="mask1_1754_2674" style="mask-type:alpha" maskUnits="userSpaceOnUse" x="339" y="-301" width="212" height="890">
<path d="M340.277 -8.5791L550.173 311.842" stroke="black"/>
<path d="M340.277 6.04004L550.173 326.461" stroke="black"/>
<path d="M340.277 20.04L550.173 340.461" stroke="black"/>
<path d="M340.277 35.04L550.173 355.461" stroke="black"/>
<path d="M340.277 48.4014L550.173 368.822" stroke="black"/>
<path d="M340.277 63.0205L550.173 383.441" stroke="black"/>
<path d="M340.277 77.0205L550.173 397.441" stroke="black"/>
<path d="M340.277 92.0205L550.173 412.441" stroke="black"/>
<path d="M340.277 224.231L550.173 544.652" stroke="black"/>
<path d="M340.277 238.851L550.173 559.271" stroke="black"/>
<path d="M340.277 252.851L550.173 573.271" stroke="black"/>
<path d="M340.277 267.851L550.173 588.271" stroke="black"/>
<path d="M340.277 166.082L550.173 486.503" stroke="black"/>
<path d="M340.277 180.701L550.173 501.122" stroke="black"/>
<path d="M340.277 194.701L550.173 515.122" stroke="black"/>
<path d="M340.277 209.701L550.173 530.122" stroke="black"/>
<path d="M340.277 107.157L550.173 427.578" stroke="black"/>
<path d="M340.277 121.776L550.173 442.197" stroke="black"/>
<path d="M340.277 135.776L550.173 456.197" stroke="black"/>
<path d="M340.277 150.776L550.173 471.197" stroke="black"/>
<path d="M340.277 -299.939L550.173 20.4814" stroke="black"/>
<path d="M340.277 -285.32L550.173 35.1006" stroke="black"/>
<path d="M340.277 -271.32L550.173 49.1006" stroke="black"/>
<path d="M340.277 -256.32L550.173 64.1006" stroke="black"/>
<path d="M340.277 -242.959L550.173 77.4619" stroke="black"/>
<path d="M340.277 -228.34L550.173 92.0811" stroke="black"/>
<path d="M340.277 -214.34L550.173 106.081" stroke="black"/>
<path d="M340.277 -199.34L550.173 121.081" stroke="black"/>
<path d="M340.277 -67.1289L550.173 253.292" stroke="black"/>
<path d="M340.277 -52.5098L550.173 267.911" stroke="black"/>
<path d="M340.277 -38.5098L550.173 281.911" stroke="black"/>
<path d="M340.277 -23.5098L550.173 296.911" stroke="black"/>
<path d="M340.277 -125.277L550.173 195.144" stroke="black"/>
<path d="M340.277 -110.658L550.173 209.763" stroke="black"/>
<path d="M340.277 -96.6582L550.173 223.763" stroke="black"/>
<path d="M340.277 -81.6582L550.173 238.763" stroke="black"/>
<path d="M340.277 -184.203L550.173 136.218" stroke="black"/>
<path d="M340.277 -169.584L550.173 150.837" stroke="black"/>
<path d="M340.277 -155.584L550.173 164.837" stroke="black"/>
<path d="M340.277 -140.584L550.173 179.837" stroke="black"/>
</mask>
<g mask="url(#mask1_1754_2674)">
<path d="M357.066 91.2363C357.066 41.5307 397.361 1.23633 447.066 1.23633H499.573V302.122H357.066V91.2363Z" fill="#C6C4D9"/>
</g>
</g>
<path d="M909.512 0.664062H962.637C1012.34 0.664062 1052.64 40.9584 1052.64 90.6641V301.55H909.512V0.664062Z" fill="#F1F0FF"/>
<circle cx="882.637" cy="151.631" r="69" fill="#2B2935"/>
<path d="M1052.29 82.6309H882.636C844.529 82.6309 813.636 113.523 813.636 151.631C813.636 189.739 844.529 220.631 882.636 220.631H1052.29" stroke="#57546B"/>
<mask id="mask2_1754_2674" style="mask-type:alpha" maskUnits="userSpaceOnUse" x="695" y="-301" width="212" height="890">
<path d="M696.276 -8.5791L906.172 311.842" stroke="black"/>
<path d="M696.276 6.04004L906.172 326.461" stroke="black"/>
<path d="M696.276 20.04L906.172 340.461" stroke="black"/>
<path d="M696.276 35.04L906.172 355.461" stroke="black"/>
<path d="M696.276 48.4014L906.172 368.822" stroke="black"/>
<path d="M696.276 63.0205L906.172 383.441" stroke="black"/>
<path d="M696.276 77.0205L906.172 397.441" stroke="black"/>
<path d="M696.276 92.0205L906.172 412.441" stroke="black"/>
<path d="M696.276 224.231L906.172 544.652" stroke="black"/>
<path d="M696.276 238.851L906.172 559.271" stroke="black"/>
<path d="M696.276 252.851L906.172 573.271" stroke="black"/>
<path d="M696.276 267.851L906.172 588.271" stroke="black"/>
<path d="M696.276 166.082L906.172 486.503" stroke="black"/>
<path d="M696.276 180.701L906.172 501.122" stroke="black"/>
<path d="M696.276 194.701L906.172 515.122" stroke="black"/>
<path d="M696.276 209.701L906.172 530.122" stroke="black"/>
<path d="M696.276 107.157L906.172 427.578" stroke="black"/>
<path d="M696.276 121.776L906.172 442.197" stroke="black"/>
<path d="M696.276 135.776L906.172 456.197" stroke="black"/>
<path d="M696.276 150.776L906.172 471.197" stroke="black"/>
<path d="M696.276 -299.939L906.172 20.4814" stroke="black"/>
<path d="M696.276 -285.32L906.172 35.1006" stroke="black"/>
<path d="M696.276 -271.32L906.172 49.1006" stroke="black"/>
<path d="M696.276 -256.32L906.172 64.1006" stroke="black"/>
<path d="M696.276 -242.959L906.172 77.4619" stroke="black"/>
<path d="M696.276 -228.34L906.172 92.0811" stroke="black"/>
<path d="M696.276 -214.34L906.172 106.081" stroke="black"/>
<path d="M696.276 -199.34L906.172 121.081" stroke="black"/>
<path d="M696.276 -67.1289L906.172 253.292" stroke="black"/>
<path d="M696.276 -52.5098L906.172 267.911" stroke="black"/>
<path d="M696.276 -38.5098L906.172 281.911" stroke="black"/>
<path d="M696.276 -23.5098L906.172 296.911" stroke="black"/>
<path d="M696.276 -125.277L906.172 195.144" stroke="black"/>
<path d="M696.276 -110.658L906.172 209.763" stroke="black"/>
<path d="M696.276 -96.6582L906.172 223.763" stroke="black"/>
<path d="M696.276 -81.6582L906.172 238.763" stroke="black"/>
<path d="M696.276 -184.203L906.172 136.218" stroke="black"/>
<path d="M696.276 -169.584L906.172 150.837" stroke="black"/>
<path d="M696.276 -155.584L906.172 164.837" stroke="black"/>
<path d="M696.276 -140.584L906.172 179.837" stroke="black"/>
</mask>
<g mask="url(#mask2_1754_2674)">
<rect x="713.262" y="1.08105" width="142.506" height="300.886" fill="#C6C4D9"/>
</g>
<path d="M1068.64 175.508L1068.64 301.107L1318.64 301.107C1368.34 301.107 1408.64 260.813 1408.64 211.107L1408.64 175.508L1068.64 175.508Z" fill="#F1F0FF"/>
<circle cx="1238.64" cy="150.837" r="69" fill="#2B2935"/>
<path d="M1169.64 301.241L1169.64 150.837C1169.64 112.73 1200.53 81.8372 1238.64 81.8372C1276.74 81.8372 1307.64 112.73 1307.64 150.837L1307.64 301.241" stroke="#57546B"/>
<mask id="mask3_1754_2674" style="mask-type:alpha" maskUnits="userSpaceOnUse" x="1068" y="-287" width="358" height="725">
<path d="M1068.67 102.626L1278.56 423.047" stroke="black"/>
<path d="M1068.67 117.245L1278.56 437.666" stroke="black"/>
<path d="M1068.67 -188.734L1278.56 131.687" stroke="black"/>
<path d="M1068.67 -174.115L1278.56 146.306" stroke="black"/>
<path d="M1068.67 -160.115L1278.56 160.306" stroke="black"/>
<path d="M1068.67 -145.115L1278.56 175.306" stroke="black"/>
<path d="M1068.67 -131.754L1278.56 188.667" stroke="black"/>
<path d="M1068.67 -117.135L1278.56 203.286" stroke="black"/>
<path d="M1068.67 -103.135L1278.56 217.286" stroke="black"/>
<path d="M1068.67 -88.1348L1278.56 232.286" stroke="black"/>
<path d="M1068.67 44.0762L1278.56 364.497" stroke="black"/>
<path d="M1068.67 58.6953L1278.56 379.116" stroke="black"/>
<path d="M1068.67 72.6953L1278.56 393.116" stroke="black"/>
<path d="M1068.67 87.6953L1278.56 408.116" stroke="black"/>
<path d="M1068.67 -14.0723L1278.56 306.349" stroke="black"/>
<path d="M1068.67 0.546875L1278.56 320.968" stroke="black"/>
<path d="M1068.67 14.5469L1278.56 334.968" stroke="black"/>
<path d="M1068.67 29.5469L1278.56 349.968" stroke="black"/>
<path d="M1068.67 -72.998L1278.56 247.423" stroke="black"/>
<path d="M1068.67 -58.3789L1278.56 262.042" stroke="black"/>
<path d="M1068.67 -44.3789L1278.56 276.042" stroke="black"/>
<path d="M1068.67 -29.3789L1278.56 291.042" stroke="black"/>
<path d="M1201.73 -14.5205L1424.65 326.038" stroke="black"/>
<path d="M1182.95 -28.1936L1424.65 340.657" stroke="black"/>
<path d="M1214.75 -285.744L1424.65 34.6768" stroke="black"/>
<path d="M1214.75 -271.125L1424.65 49.2959" stroke="black"/>
<path d="M1214.75 -257.125L1424.65 63.2959" stroke="black"/>
<path d="M1214.75 -242.125L1424.65 78.2959" stroke="black"/>
<path d="M1214.75 -228.764L1424.65 91.6572" stroke="black"/>
<path d="M1214.75 -214.145L1424.65 106.276" stroke="black"/>
<path d="M1214.75 -200.145L1424.65 120.276" stroke="black"/>
<path d="M1214.75 -185.145L1424.65 135.276" stroke="black"/>
<path d="M1214.75 -52.9336L1424.65 267.487" stroke="black"/>
<path d="M1214.75 -38.3145L1424.65 282.106" stroke="black"/>
<path d="M1214.75 -24.3145L1424.65 296.106" stroke="black"/>
<path d="M1214.75 -9.31445L1424.65 311.106" stroke="black"/>
<path d="M1214.75 -111.082L1424.65 209.339" stroke="black"/>
<path d="M1214.75 -96.4629L1424.65 223.958" stroke="black"/>
<path d="M1214.75 -82.4629L1424.65 237.958" stroke="black"/>
<path d="M1214.75 -67.4629L1424.65 252.958" stroke="black"/>
<path d="M1214.75 -170.008L1424.65 150.413" stroke="black"/>
<path d="M1214.75 -155.389L1424.65 165.032" stroke="black"/>
<path d="M1214.75 -141.389L1424.65 179.032" stroke="black"/>
<path d="M1214.75 -126.389L1424.65 194.032" stroke="black"/>
</mask>
<g mask="url(#mask3_1754_2674)">
<rect x="1069.26" y="1.08105" width="339.374" height="126.312" fill="#C6C4D9"/>
</g>
<path d="M1764.89 0.664062H1621.76L1425.74 301.55H1568.86L1764.89 0.664062Z" fill="#F1F0FF"/>
<circle cx="69" cy="69" r="69" transform="matrix(-1 0 0 1 1562.64 1.08105)" fill="#2B2935"/>
<path d="M1614.25 231.884L1454.84 127.264C1423.07 106.23 1414.36 63.4188 1435.39 31.6418C1456.42 -0.135171 1499.24 -8.84418 1531.01 12.1895L1689.54 116.317" stroke="#57546B"/>
<g clip-path="url(#clip2_1754_2674)">
<path d="M1977.51 0.664062H2030.64C2080.34 0.664062 2120.64 40.9584 2120.64 90.6641V301.55H1977.51V0.664062Z" fill="#F1F0FF"/>
<circle cx="1950.72" cy="70.2363" r="69" fill="#2B2935"/>
<path d="M1977.37 1.16113H1950.98C1912.87 1.16113 1881.98 32.0535 1881.98 70.1611C1881.98 108.269 1912.87 139.161 1950.98 139.161H2120.63" stroke="#57546B"/>
<mask id="mask4_1754_2674" style="mask-type:alpha" maskUnits="userSpaceOnUse" x="1763" y="-301" width="212" height="890">
<path d="M1764.28 -8.5791L1974.17 311.842" stroke="black"/>
<path d="M1764.28 6.04004L1974.17 326.461" stroke="black"/>
<path d="M1764.28 20.04L1974.17 340.461" stroke="black"/>
<path d="M1764.28 35.04L1974.17 355.461" stroke="black"/>
<path d="M1764.28 48.4014L1974.17 368.822" stroke="black"/>
<path d="M1764.28 63.0205L1974.17 383.441" stroke="black"/>
<path d="M1764.28 77.0205L1974.17 397.441" stroke="black"/>
<path d="M1764.28 92.0205L1974.17 412.441" stroke="black"/>
<path d="M1764.28 224.231L1974.17 544.652" stroke="black"/>
<path d="M1764.28 238.851L1974.17 559.271" stroke="black"/>
<path d="M1764.28 252.851L1974.17 573.271" stroke="black"/>
<path d="M1764.28 267.851L1974.17 588.271" stroke="black"/>
<path d="M1764.28 166.082L1974.17 486.503" stroke="black"/>
<path d="M1764.28 180.701L1974.17 501.122" stroke="black"/>
<path d="M1764.28 194.701L1974.17 515.122" stroke="black"/>
<path d="M1764.28 209.701L1974.17 530.122" stroke="black"/>
<path d="M1764.28 107.157L1974.17 427.578" stroke="black"/>
<path d="M1764.28 121.776L1974.17 442.197" stroke="black"/>
<path d="M1764.28 135.776L1974.17 456.197" stroke="black"/>
<path d="M1764.28 150.776L1974.17 471.197" stroke="black"/>
<path d="M1764.28 -299.939L1974.17 20.4814" stroke="black"/>
<path d="M1764.28 -285.32L1974.17 35.1006" stroke="black"/>
<path d="M1764.28 -271.32L1974.17 49.1006" stroke="black"/>
<path d="M1764.28 -256.32L1974.17 64.1006" stroke="black"/>
<path d="M1764.28 -242.959L1974.17 77.4619" stroke="black"/>
<path d="M1764.28 -228.34L1974.17 92.0811" stroke="black"/>
<path d="M1764.28 -214.34L1974.17 106.081" stroke="black"/>
<path d="M1764.28 -199.34L1974.17 121.081" stroke="black"/>
<path d="M1764.28 -67.1289L1974.17 253.292" stroke="black"/>
<path d="M1764.28 -52.5098L1974.17 267.911" stroke="black"/>
<path d="M1764.28 -38.5098L1974.17 281.911" stroke="black"/>
<path d="M1764.28 -23.5098L1974.17 296.911" stroke="black"/>
<path d="M1764.28 -125.277L1974.17 195.144" stroke="black"/>
<path d="M1764.28 -110.658L1974.17 209.763" stroke="black"/>
<path d="M1764.28 -96.6582L1974.17 223.763" stroke="black"/>
<path d="M1764.28 -81.6582L1974.17 238.763" stroke="black"/>
<path d="M1764.28 -184.203L1974.17 136.218" stroke="black"/>
<path d="M1764.28 -169.584L1974.17 150.837" stroke="black"/>
<path d="M1764.28 -155.584L1974.17 164.837" stroke="black"/>
<path d="M1764.28 -140.584L1974.17 179.837" stroke="black"/>
</mask>
<g mask="url(#mask4_1754_2674)">
<path d="M1781.07 91.2363C1781.07 41.5307 1821.36 1.23633 1871.07 1.23633H1923.57V302.122H1781.07V91.2363Z" fill="#C6C4D9"/>
</g>
</g>
<g clip-path="url(#clip3_1754_2674)">
<circle cx="2405.49" cy="70.2354" r="69" fill="#2B2935"/>
<path d="M2136.39 1.08105H2279.52L2475.54 301.967H2332.42L2136.39 1.08105Z" fill="#F1F0FF"/>
<mask id="mask5_1754_2674" style="mask-type:alpha" maskUnits="userSpaceOnUse" x="2119" y="-9" width="212" height="598">
<path d="M2120.03 -8.5791L2329.92 311.842" stroke="black"/>
<path d="M2120.03 6.04004L2329.92 326.461" stroke="black"/>
<path d="M2120.03 20.04L2329.92 340.461" stroke="black"/>
<path d="M2120.03 35.04L2329.92 355.461" stroke="black"/>
<path d="M2120.03 48.4014L2329.92 368.822" stroke="black"/>
<path d="M2120.03 63.0205L2329.92 383.441" stroke="black"/>
<path d="M2120.03 77.0205L2329.92 397.441" stroke="black"/>
<path d="M2120.03 92.0205L2329.92 412.441" stroke="black"/>
<path d="M2120.03 224.231L2329.92 544.652" stroke="black"/>
<path d="M2120.03 238.851L2329.92 559.271" stroke="black"/>
<path d="M2120.03 252.851L2329.92 573.271" stroke="black"/>
<path d="M2120.03 267.851L2329.92 588.271" stroke="black"/>
<path d="M2120.03 166.082L2329.92 486.503" stroke="black"/>
<path d="M2120.03 180.701L2329.92 501.122" stroke="black"/>
<path d="M2120.03 194.701L2329.92 515.122" stroke="black"/>
<path d="M2120.03 209.701L2329.92 530.122" stroke="black"/>
<path d="M2120.03 107.157L2329.92 427.578" stroke="black"/>
<path d="M2120.03 121.776L2329.92 442.197" stroke="black"/>
<path d="M2120.03 135.776L2329.92 456.197" stroke="black"/>
<path d="M2120.03 150.776L2329.92 471.197" stroke="black"/>
</mask>
<g mask="url(#mask5_1754_2674)">
<rect x="2137.01" y="1.08105" width="142.506" height="300.886" fill="#C6C4D9"/>
</g>
<path d="M2336.49 301.632V70.5967C2336.49 32.489 2367.39 1.59668 2405.49 1.59668C2443.6 1.59668 2474.49 32.489 2474.49 70.5967V301.632" stroke="#57546B"/>
</g>
<g clip-path="url(#clip4_1754_2674)">
<path d="M1408.04 311.106H1264.91L1068.89 611.992H1212.01L1408.04 311.106Z" fill="#F1F0FF"/>
<mask id="mask6_1754_2674" style="mask-type:alpha" maskUnits="userSpaceOnUse" x="1051" y="10" width="212" height="890">
<path d="M1052.28 302.421L1262.17 622.842" stroke="black"/>
<path d="M1052.28 317.04L1262.17 637.461" stroke="black"/>
<path d="M1052.28 331.04L1262.17 651.461" stroke="black"/>
<path d="M1052.28 346.04L1262.17 666.461" stroke="black"/>
<path d="M1052.28 359.401L1262.17 679.822" stroke="black"/>
<path d="M1052.28 374.021L1262.17 694.441" stroke="black"/>
<path d="M1052.28 388.021L1262.17 708.441" stroke="black"/>
<path d="M1052.28 403.021L1262.17 723.441" stroke="black"/>
<path d="M1052.28 535.231L1262.17 855.652" stroke="black"/>
<path d="M1052.28 549.851L1262.17 870.271" stroke="black"/>
<path d="M1052.28 563.851L1262.17 884.271" stroke="black"/>
<path d="M1052.28 578.851L1262.17 899.271" stroke="black"/>
<path d="M1052.28 477.082L1262.17 797.503" stroke="black"/>
<path d="M1052.28 491.701L1262.17 812.122" stroke="black"/>
<path d="M1052.28 505.701L1262.17 826.122" stroke="black"/>
<path d="M1052.28 520.701L1262.17 841.122" stroke="black"/>
<path d="M1052.28 418.157L1262.17 738.578" stroke="black"/>
<path d="M1052.28 432.776L1262.17 753.197" stroke="black"/>
<path d="M1052.28 446.776L1262.17 767.197" stroke="black"/>
<path d="M1052.28 461.776L1262.17 782.197" stroke="black"/>
<path d="M1052.28 11.0605L1262.17 331.481" stroke="black"/>
<path d="M1052.28 25.6797L1262.17 346.101" stroke="black"/>
<path d="M1052.28 39.6797L1262.17 360.101" stroke="black"/>
<path d="M1052.28 54.6797L1262.17 375.101" stroke="black"/>
<path d="M1052.28 68.041L1262.17 388.462" stroke="black"/>
<path d="M1052.28 82.6602L1262.17 403.081" stroke="black"/>
<path d="M1052.28 96.6602L1262.17 417.081" stroke="black"/>
<path d="M1052.28 111.66L1262.17 432.081" stroke="black"/>
<path d="M1052.28 243.871L1262.17 564.292" stroke="black"/>
<path d="M1052.28 258.49L1262.17 578.911" stroke="black"/>
<path d="M1052.28 272.49L1262.17 592.911" stroke="black"/>
<path d="M1052.28 287.49L1262.17 607.911" stroke="black"/>
<path d="M1052.28 185.723L1262.17 506.144" stroke="black"/>
<path d="M1052.28 200.342L1262.17 520.763" stroke="black"/>
<path d="M1052.28 214.342L1262.17 534.763" stroke="black"/>
<path d="M1052.28 229.342L1262.17 549.763" stroke="black"/>
<path d="M1052.28 126.797L1262.17 447.218" stroke="black"/>
<path d="M1052.28 141.416L1262.17 461.837" stroke="black"/>
<path d="M1052.28 155.416L1262.17 475.837" stroke="black"/>
<path d="M1052.28 170.416L1262.17 490.837" stroke="black"/>
</mask>
<g mask="url(#mask6_1754_2674)">
<path d="M1068.89 312.17H1211.39V393.267L1068.89 611.963V312.17Z" fill="#8A8A8A"/>
</g>
<circle cx="1340.42" cy="542.477" r="69" fill="#2B2935"/>
<path d="M1219.6 380.662L1378.45 484.85C1410.22 505.883 1418.93 548.695 1397.9 580.472C1376.87 612.249 1334.05 620.958 1302.28 599.924L1144.3 496.257" stroke="#57546B"/>
</g>
<path d="M1621.76 311.55H1674.89C1724.59 311.55 1764.89 351.844 1764.89 401.55V612.436H1621.76V311.55Z" fill="#F1F0FF"/>
<circle cx="1594.89" cy="462.518" r="69" fill="#2B2935"/>
<path d="M1764.54 393.518H1594.89C1556.78 393.518 1525.89 424.41 1525.89 462.518C1525.89 500.625 1556.78 531.518 1594.89 531.518H1764.54" stroke="#57546B"/>
<mask id="mask7_1754_2674" style="mask-type:alpha" maskUnits="userSpaceOnUse" x="1408" y="10" width="211" height="890">
<path d="M1408.53 302.307L1618.42 622.728" stroke="black"/>
<path d="M1408.53 316.926L1618.42 637.347" stroke="black"/>
<path d="M1408.53 330.926L1618.42 651.347" stroke="black"/>
<path d="M1408.53 345.926L1618.42 666.347" stroke="black"/>
<path d="M1408.53 359.287L1618.42 679.708" stroke="black"/>
<path d="M1408.53 373.906L1618.42 694.327" stroke="black"/>
<path d="M1408.53 387.906L1618.42 708.327" stroke="black"/>
<path d="M1408.53 402.906L1618.42 723.327" stroke="black"/>
<path d="M1408.53 535.117L1618.42 855.538" stroke="black"/>
<path d="M1408.53 549.736L1618.42 870.157" stroke="black"/>
<path d="M1408.53 563.736L1618.42 884.157" stroke="black"/>
<path d="M1408.53 578.736L1618.42 899.157" stroke="black"/>
<path d="M1408.53 476.968L1618.42 797.389" stroke="black"/>
<path d="M1408.53 491.587L1618.42 812.008" stroke="black"/>
<path d="M1408.53 505.587L1618.42 826.008" stroke="black"/>
<path d="M1408.53 520.587L1618.42 841.008" stroke="black"/>
<path d="M1408.53 418.043L1618.42 738.464" stroke="black"/>
<path d="M1408.53 432.662L1618.42 753.083" stroke="black"/>
<path d="M1408.53 446.662L1618.42 767.083" stroke="black"/>
<path d="M1408.53 461.662L1618.42 782.083" stroke="black"/>
<path d="M1408.53 10.9463L1618.42 331.367" stroke="black"/>
<path d="M1408.53 25.5654L1618.42 345.986" stroke="black"/>
<path d="M1408.53 39.5654L1618.42 359.986" stroke="black"/>
<path d="M1408.53 54.5654L1618.42 374.986" stroke="black"/>
<path d="M1408.53 67.9268L1618.42 388.348" stroke="black"/>
<path d="M1408.53 82.5459L1618.42 402.967" stroke="black"/>
<path d="M1408.53 96.5459L1618.42 416.967" stroke="black"/>
<path d="M1408.53 111.546L1618.42 431.967" stroke="black"/>
<path d="M1408.53 243.757L1618.42 564.178" stroke="black"/>
<path d="M1408.53 258.376L1618.42 578.797" stroke="black"/>
<path d="M1408.53 272.376L1618.42 592.797" stroke="black"/>
<path d="M1408.53 287.376L1618.42 607.797" stroke="black"/>
<path d="M1408.53 185.608L1618.42 506.029" stroke="black"/>
<path d="M1408.53 200.228L1618.42 520.648" stroke="black"/>
<path d="M1408.53 214.228L1618.42 534.648" stroke="black"/>
<path d="M1408.53 229.228L1618.42 549.648" stroke="black"/>
<path d="M1408.53 126.683L1618.42 447.104" stroke="black"/>
<path d="M1408.53 141.302L1618.42 461.723" stroke="black"/>
<path d="M1408.53 155.302L1618.42 475.723" stroke="black"/>
<path d="M1408.53 170.302L1618.42 490.723" stroke="black"/>
</mask>
<g mask="url(#mask7_1754_2674)">
<rect x="1425.51" y="311.967" width="142.506" height="300.886" fill="#C6C4D9"/>
</g>
<g clip-path="url(#clip5_1754_2674)">
<path d="M1977.51 311.55H2030.64C2080.34 311.55 2120.64 351.844 2120.64 401.55V612.436H1977.51V311.55Z" fill="#F1F0FF"/>
<circle cx="1950.72" cy="381.122" r="69" fill="#2B2935"/>
<path d="M1977.37 312.047H1950.98C1912.87 312.047 1881.98 342.939 1881.98 381.047C1881.98 419.155 1912.87 450.047 1950.98 450.047H2120.63" stroke="#57546B"/>
<mask id="mask8_1754_2674" style="mask-type:alpha" maskUnits="userSpaceOnUse" x="1763" y="10" width="212" height="890">
<path d="M1764.28 302.307L1974.17 622.728" stroke="black"/>
<path d="M1764.28 316.926L1974.17 637.347" stroke="black"/>
<path d="M1764.28 330.926L1974.17 651.347" stroke="black"/>
<path d="M1764.28 345.926L1974.17 666.347" stroke="black"/>
<path d="M1764.28 359.287L1974.17 679.708" stroke="black"/>
<path d="M1764.28 373.906L1974.17 694.327" stroke="black"/>
<path d="M1764.28 387.906L1974.17 708.327" stroke="black"/>
<path d="M1764.28 402.906L1974.17 723.327" stroke="black"/>
<path d="M1764.28 535.117L1974.17 855.538" stroke="black"/>
<path d="M1764.28 549.736L1974.17 870.157" stroke="black"/>
<path d="M1764.28 563.736L1974.17 884.157" stroke="black"/>
<path d="M1764.28 578.736L1974.17 899.157" stroke="black"/>
<path d="M1764.28 476.968L1974.17 797.389" stroke="black"/>
<path d="M1764.28 491.587L1974.17 812.008" stroke="black"/>
<path d="M1764.28 505.587L1974.17 826.008" stroke="black"/>
<path d="M1764.28 520.587L1974.17 841.008" stroke="black"/>
<path d="M1764.28 418.043L1974.17 738.464" stroke="black"/>
<path d="M1764.28 432.662L1974.17 753.083" stroke="black"/>
<path d="M1764.28 446.662L1974.17 767.083" stroke="black"/>
<path d="M1764.28 461.662L1974.17 782.083" stroke="black"/>
<path d="M1764.28 10.9463L1974.17 331.367" stroke="black"/>
<path d="M1764.28 25.5654L1974.17 345.986" stroke="black"/>
<path d="M1764.28 39.5654L1974.17 359.986" stroke="black"/>
<path d="M1764.28 54.5654L1974.17 374.986" stroke="black"/>
<path d="M1764.28 67.9268L1974.17 388.348" stroke="black"/>
<path d="M1764.28 82.5459L1974.17 402.967" stroke="black"/>
<path d="M1764.28 96.5459L1974.17 416.967" stroke="black"/>
<path d="M1764.28 111.546L1974.17 431.967" stroke="black"/>
<path d="M1764.28 243.757L1974.17 564.178" stroke="black"/>
<path d="M1764.28 258.376L1974.17 578.797" stroke="black"/>
<path d="M1764.28 272.376L1974.17 592.797" stroke="black"/>
<path d="M1764.28 287.376L1974.17 607.797" stroke="black"/>
<path d="M1764.28 185.608L1974.17 506.029" stroke="black"/>
<path d="M1764.28 200.228L1974.17 520.648" stroke="black"/>
<path d="M1764.28 214.228L1974.17 534.648" stroke="black"/>
<path d="M1764.28 229.228L1974.17 549.648" stroke="black"/>
<path d="M1764.28 126.683L1974.17 447.104" stroke="black"/>
<path d="M1764.28 141.302L1974.17 461.723" stroke="black"/>
<path d="M1764.28 155.302L1974.17 475.723" stroke="black"/>
<path d="M1764.28 170.302L1974.17 490.723" stroke="black"/>
</mask>
<g mask="url(#mask8_1754_2674)">
<path d="M1781.07 402.122C1781.07 352.416 1821.36 312.122 1871.07 312.122H1923.57V613.008H1781.07V402.122Z" fill="#C6C4D9"/>
</g>
</g>
<g clip-path="url(#clip6_1754_2674)">
<circle cx="2405.5" cy="381.12" r="69" fill="#2B2935"/>
<path d="M2136.39 311.966H2279.52L2475.54 612.852H2332.42L2136.39 311.966Z" fill="#F1F0FF"/>
<mask id="mask9_1754_2674" style="mask-type:alpha" maskUnits="userSpaceOnUse" x="2119" y="302" width="212" height="598">
<path d="M2120.03 302.306L2329.92 622.727" stroke="black"/>
<path d="M2120.03 316.925L2329.92 637.346" stroke="black"/>
<path d="M2120.03 330.925L2329.92 651.346" stroke="black"/>
<path d="M2120.03 345.925L2329.92 666.346" stroke="black"/>
<path d="M2120.03 359.286L2329.92 679.707" stroke="black"/>
<path d="M2120.03 373.905L2329.92 694.326" stroke="black"/>
<path d="M2120.03 387.905L2329.92 708.326" stroke="black"/>
<path d="M2120.03 402.905L2329.92 723.326" stroke="black"/>
<path d="M2120.03 535.116L2329.92 855.537" stroke="black"/>
<path d="M2120.03 549.735L2329.92 870.156" stroke="black"/>
<path d="M2120.03 563.735L2329.92 884.156" stroke="black"/>
<path d="M2120.03 578.735L2329.92 899.156" stroke="black"/>
<path d="M2120.03 476.967L2329.92 797.388" stroke="black"/>
<path d="M2120.03 491.586L2329.92 812.007" stroke="black"/>
<path d="M2120.03 505.586L2329.92 826.007" stroke="black"/>
<path d="M2120.03 520.586L2329.92 841.007" stroke="black"/>
<path d="M2120.03 418.042L2329.92 738.463" stroke="black"/>
<path d="M2120.03 432.661L2329.92 753.082" stroke="black"/>
<path d="M2120.03 446.661L2329.92 767.082" stroke="black"/>
<path d="M2120.03 461.661L2329.92 782.082" stroke="black"/>
</mask>
<g mask="url(#mask9_1754_2674)">
<rect x="2137.01" y="311.966" width="142.506" height="300.886" fill="#C6C4D9"/>
</g>
<path d="M2336.5 612.516V381.481C2336.5 343.374 2367.39 312.481 2405.5 312.481C2443.6 312.481 2474.5 343.374 2474.5 381.481V612.517" stroke="#57546B"/>
</g>
<defs>
<clipPath id="clip0_1754_2674">
<rect width="340" height="300" fill="white" transform="translate(0.887695 1.10742)"/>
</clipPath>
<clipPath id="clip1_1754_2674">
<rect width="339.75" height="300.886" fill="white" transform="translate(356.888 0.664062)"/>
</clipPath>
<clipPath id="clip2_1754_2674">
<rect width="339.75" height="300.886" fill="white" transform="translate(1780.89 0.664062)"/>
</clipPath>
<clipPath id="clip3_1754_2674">
<rect width="340" height="300" fill="white" transform="translate(2136.64 1.10742)"/>
</clipPath>
<clipPath id="clip4_1754_2674">
<rect width="340" height="300" fill="white" transform="translate(1068.89 311.992)"/>
</clipPath>
<clipPath id="clip5_1754_2674">
<rect width="339.75" height="300.886" fill="white" transform="translate(1780.89 311.55)"/>
</clipPath>
<clipPath id="clip6_1754_2674">
<rect width="340" height="300" fill="white" transform="translate(2136.64 311.992)"/>
</clipPath>
</defs>
</svg>
