<svg width="2692" height="330" viewBox="0 0 2692 330" fill="none" xmlns="http://www.w3.org/2000/svg">
<defs>
  <!-- Halftone dot pattern for dithering effect -->
  <filter id="dither-effect" x="-20%" y="-20%" width="140%" height="140%">
    <!-- Add turbulence noise -->
    <feTurbulence type="fractalNoise" baseFrequency="0.8" numOctaves="4" seed="2" result="noise"/>
    
    <!-- Create dot matrix pattern -->
    <feComposite in="SourceGraphic" in2="noise" operator="in" result="noisy"/>
    
    <!-- Enhance contrast for sharper dots -->
    <feColorMatrix in="noisy" type="matrix" 
      values="2 0 0 0 -0.5
              0 2 0 0 -0.5
              0 0 2 0 -0.5
              0 0 0 1 0" result="contrast"/>
    
    <!-- Add displacement for slight glitch effect -->
    <feDisplacementMap in="contrast" in2="noise" scale="2" xChannelSelector="R" yChannelSelector="G" result="displaced"/>
    
    <!-- Create halftone circles -->
    <feTurbulence type="turbulence" baseFrequency="0.05" numOctaves="2" result="turbulence"/>
    <feDisplacementMap in2="turbulence" in="SourceGraphic" scale="8" xChannelSelector="R" yChannelSelector="G" result="texture"/>
    
    <!-- Combine effects -->
    <feBlend in="displaced" in2="texture" mode="multiply" result="blended"/>
    
    <!-- Add subtle glow -->
    <feGaussianBlur in="blended" stdDeviation="1" result="blur"/>
    <feMerge>
      <feMergeNode in="blur"/>
      <feMergeNode in="blended"/>
    </feMerge>
  </filter>
  
  <!-- Alternative simpler dot pattern -->
  <filter id="dot-matrix" x="-20%" y="-20%" width="140%" height="140%">
    <!-- Create dot screen pattern -->
    <feTurbulence type="fractalNoise" baseFrequency="0.9" numOctaves="3" result="noise"/>
    
    <!-- Threshold to create distinct dots -->
    <feComponentTransfer in="noise" result="dots">
      <feFuncR type="discrete" tableValues="0 0 0 1 1"/>
      <feFuncG type="discrete" tableValues="0 0 0 1 1"/>
      <feFuncB type="discrete" tableValues="0 0 0 1 1"/>
    </feComponentTransfer>
    
    <!-- Apply to source -->
    <feComposite in="SourceGraphic" in2="dots" operator="in" result="dotted"/>
    
    <!-- Add grain texture -->
    <feTurbulence type="fractalNoise" baseFrequency="1.2" numOctaves="5" seed="5" result="grain"/>
    <feColorMatrix in="grain" type="saturate" values="0" result="desaturated"/>
    <feComponentTransfer in="desaturated" result="grainAlpha">
      <feFuncA type="table" tableValues="0 0.3 0.6"/>
    </feComponentTransfer>
    
    <!-- Blend grain with dots -->
    <feBlend in="dotted" in2="grainAlpha" mode="multiply" result="textured"/>
    
    <!-- Add subtle chromatic aberration -->
    <feOffset in="textured" dx="1" dy="0" result="rChannel"/>
    <feOffset in="textured" dx="-1" dy="0" result="bChannel"/>
    
    <!-- Recombine with offset -->
    <feMerge result="final">
      <feMergeNode in="rChannel"/>
      <feMergeNode in="textured"/>
      <feMergeNode in="bChannel"/>
    </feMerge>
  </filter>
  
  <!-- Pattern for dot grid overlay -->
  <pattern id="dot-grid" x="0" y="0" width="8" height="8" patternUnits="userSpaceOnUse">
    <circle cx="4" cy="4" r="2.5" fill="currentColor" opacity="0.9"/>
    <circle cx="4" cy="4" r="1.8" fill="currentColor" opacity="0.7"/>
  </pattern>
  
  <!-- Noise pattern for additional texture -->
  <filter id="noise-texture" x="0%" y="0%" width="100%" height="100%">
    <feTurbulence type="fractalNoise" baseFrequency="1.5" numOctaves="6" result="noise"/>
    <feColorMatrix in="noise" type="saturate" values="0"/>
    <feComponentTransfer>
      <feFuncA type="discrete" tableValues="0 0 0.2 0.4 0.6 0.8 1"/>
    </feComponentTransfer>
    <feBlend in2="SourceGraphic" mode="multiply"/>
  </filter>
</defs>

<g id="nahiyan-dithered">
  <!-- Main text paths with dithering effect -->
  <g filter="url(#dot-matrix)">
    <path d="M158.863 273.931C157.625 273.931 156.621 274.935 156.621 276.173V326C156.621 328.21 154.83 330 152.621 330L4.00017 330C1.79096 330 7.68921e-05 328.209 0.000171741 326L0.0139963 3.99982C0.0140911 1.79075 1.80492 0 4.014 0H159.04C160.236 0 161.206 0.969645 161.206 2.16576V2.16576C161.206 31.7697 185.204 55.7684 214.808 55.7684H219.379V4C219.379 1.79086 221.17 0 223.379 0H372C374.209 0 376 1.79086 376 4V326C376 328.21 374.209 330 372 330L216.516 330C215.313 330 214.338 329.026 214.338 327.823V327.823C214.338 298.059 190.21 273.931 160.447 273.931H158.863Z" fill="currentColor"/>
    <path d="M758 0H390C387.791 0 386 1.79086 386 4V326C386 328.209 387.791 330 390 330H542.613C543.05 330 543.405 329.645 543.405 329.208V162.012C543.405 145.115 557.103 131.417 574 131.417C590.897 131.417 604.595 145.115 604.595 162.012V329.208C604.595 329.645 604.95 330 605.387 330H758C760.209 330 762 328.209 762 326V4C762 1.79086 760.209 0 758 0Z" fill="currentColor"/>
    <path d="M929.786 304.506C929.786 287.703 943.407 274.082 960.21 274.082V274.082C977.013 274.082 990.634 287.703 990.634 304.506V327.828C990.634 329.028 991.607 330 992.806 330H1144C1146.21 330 1148 328.209 1148 326V4.00002C1148 1.79088 1146.21 2.17826e-05 1144 2.14733e-05L992.814 3.0516e-07C991.61 1.36624e-07 990.634 0.975798 990.634 2.17951V25.6979C990.634 42.5008 977.013 56.1223 960.21 56.1223V56.1223C943.407 56.1223 929.786 42.5008 929.786 25.6979V2.17953C929.786 0.975822 928.81 2.20333e-05 927.606 2.20333e-05H776C773.791 2.20333e-05 772 1.79088 772 4.00002V326C772 328.209 773.791 330 776 330H927.614C928.813 330 929.786 329.028 929.786 327.828V304.506Z" fill="currentColor"/>
    <path d="M1500.01 191.518C1485.26 191.518 1473.31 179.563 1473.31 164.816V164.816C1473.31 150.068 1485.26 138.113 1500.01 138.113H1529.44C1531.96 138.113 1534 136.542 1534 134.603V3.51064C1534 1.57177 1531.96 0 1529.44 0H1162.56C1160.04 0 1158 1.57177 1158 3.51064L1158 134.603C1158 136.542 1160.04 138.113 1162.56 138.113H1191.77C1206.52 138.113 1218.47 150.068 1218.47 164.816V164.816C1218.47 179.563 1206.52 191.518 1191.77 191.518H1162.56C1160.04 191.518 1158 193.09 1158 195.028V326.489C1158 328.428 1160.04 330 1162.56 330H1529.44C1531.96 330 1534 328.428 1534 326.489V195.029C1534 193.09 1531.96 191.518 1529.44 191.518H1500.01Z" fill="currentColor"/>
    <path d="M1615.2 330C1612.99 330 1611.2 328.209 1611.2 326L1611.2 222.432L1611.2 202.304C1611.2 166.635 1582.28 137.719 1546.61 137.719V137.719C1545.17 137.719 1544 136.55 1544 135.109L1544 37.5535L1544.11 3.98712C1544.12 1.78303 1545.9 1.63523e-05 1548.11 1.62559e-05L1699.6 9.63395e-06C1700.81 9.58121e-06 1701.79 0.978188 1701.79 2.18483L1701.79 25.8348C1701.79 42.6377 1715.41 56.2592 1732.21 56.2592V56.2592C1749.01 56.2592 1762.63 42.6377 1762.63 25.8348L1762.63 2.18483C1762.63 0.978187 1763.61 6.83591e-06 1764.82 6.78316e-06L1915.99 1.75215e-07C1918.2 7.85063e-08 1920 1.79601 1919.99 4.00844L1919.88 57.2996L1920 135.232C1920 136.605 1918.89 137.719 1917.51 137.719V137.719C1883.6 137.719 1856.1 165.184 1856.05 199.096L1856.01 224.43L1856.01 326C1856.01 328.209 1854.22 330 1852.01 330L1615.2 330Z" fill="currentColor"/>
    <path d="M2302 0H1934C1931.79 0 1930 1.79086 1930 4V326C1930 328.209 1931.79 330 1934 330H2086.61C2087.05 330 2087.4 329.645 2087.4 329.208V162.012C2087.4 145.115 2101.1 131.417 2118 131.417C2134.9 131.417 2148.6 145.115 2148.6 162.012V329.208C2148.6 329.645 2148.95 330 2149.39 330H2302C2304.21 330 2306 328.209 2306 326V4C2306 1.79086 2304.21 0 2302 0Z" fill="currentColor"/>
    <path d="M2474.86 273.931C2473.62 273.931 2472.62 274.935 2472.62 276.173V326C2472.62 328.21 2470.83 330 2468.62 330L2320 330C2317.79 330 2316 328.209 2316 326L2316.01 3.99982C2316.01 1.79075 2317.8 0 2320.01 0H2475.04C2476.24 0 2477.21 0.969645 2477.21 2.16576V2.16576C2477.21 31.7697 2501.2 55.7684 2530.81 55.7684H2535.38V4C2535.38 1.79086 2537.17 0 2539.38 0H2688C2690.21 0 2692 1.79086 2692 4V326C2692 328.21 2690.21 330 2688 330L2532.52 330C2531.31 330 2530.34 329.026 2530.34 327.823V327.823C2530.34 298.059 2506.21 273.931 2476.45 273.931H2474.86Z" fill="currentColor"/>
  </g>
  
  <!-- Additional dot grid overlay for enhanced dithering -->
  <g opacity="0.4" filter="url(#noise-texture)">
    <rect width="2692" height="330" fill="url(#dot-grid)"/>
  </g>
</g>
</svg>

