<svg width="100%" viewBox="0 0 1281 122" fill="currentColor" xmlns="http://www.w3.org/2000/svg">
<path d="M1193.7 70.0817V121.261H1154.56V42.6174V23.9485L1154.56 0.00075985H1165.13H1175.01C1191.78 0.00075985 1200.95 17.2128 1200.95 17.2128L1238.43 75.0257L1237.64 0.00075985H1280.29V121.261H1230.03L1193.7 70.0817Z" fill="currentColor"/>
<path d="M1073.31 121.261H1021L1099.32 12.0152C1099.32 12.0152 1106.81 0.000446162 1121.21 0.000446162H1134.73H1146.73V121.261H1107.78L1107.28 70.0814L1073.31 121.261Z" fill="currentColor"/>
<path d="M1123.54 81.1212H1078.44V52.0745H1123.54V81.1212Z" fill="currentColor"/>
<path d="M999.102 81.0788H959.203V120.983H920V0.000473859H959.203V42.8076H999.102V0.000473859H1038.31L1038.31 81.0788L1010.31 120.983H999.102L999.102 81.0788Z" fill="currentColor"/>
<path d="M792.502 -2.53821e-05H831.644V43.8683L850.686 17.1932L862.96 -2.53821e-05H910.412L868.473 56.978L912.712 121.261H865.03L844.777 89.85L821.867 121.261H792.502V-2.53821e-05Z" fill="currentColor"/>
<path d="M651.944 70.0817V121.261H612.802V42.6174V23.9485L612.806 0.00075985H623.379H633.256C650.028 0.00075985 659.191 17.2128 659.191 17.2128L696.675 75.0257L695.882 0.00075985H738.532V121.261H688.277L651.944 70.0817Z" fill="currentColor"/>
<path d="M532.865 121H480.854L558.719 11.9889C558.719 11.9889 566.169 -9.47226e-07 580.48 -9.47226e-07H593.928H605.854V121H567.128L566.631 69.9303L532.865 121Z" fill="currentColor"/>
<path d="M582.39 81.1214H537.291V52.0747H582.39V81.1214Z" fill="currentColor"/>
<path d="M538.5 2.57248e-07L493 63.2857V92L470.854 121H457.354L457.354 63.2857C457.354 63.2857 411.097 2.48044 409.854 2.01609e-07C425.739 2.01609e-07 434.615 8.76406e-06 450.5 2.01609e-07L475 29.5L497.854 4.25472e-06C513.572 3.28604e-05 522.782 -3.14666e-06 538.5 2.57248e-07Z" fill="currentColor"/>
<path d="M402.847 120.983H363.644V0.000484707H402.847V120.983Z" fill="currentColor"/>
<path d="M277.203 81.0788H317.102V120.983H356.305V0.000473859H317.102V42.8076H277.203V0.000473859H238L238 120.983H266H277.203L277.203 81.0788Z" fill="currentColor"/>
<path d="M157.314 121.261H105L183.32 12.0147C183.32 12.0147 190.813 -4.21195e-05 205.208 -4.21195e-05H218.734H230.73V121.261H191.778L191.278 70.0809L157.314 121.261Z" fill="currentColor"/>
<path d="M207.536 81.1207H162.437V52.074H207.536V81.1207Z" fill="currentColor"/>
<path d="M39.142 70.0809V121.261H0V42.6166V23.9478L0.004188 0H10.5767H22.3696C35.0562 0 46.3885 17.212 46.3885 17.212L83.8727 75.025L83.0794 0H125.73L125.73 78.5L93.5 121.261H75.475L39.142 70.0809Z" fill="currentColor"/>
</svg>
