<svg height="100%" viewBox="0 0 659 209" fill="none" xmlns="http://www.w3.org/2000/svg">
<path d="M478.5 100L418 100L496.488 9.9211C496.488 9.9211 503.998 0.0143661 518.423 0.0143661H531.978H544V100L490.5 100V92.1153C490.5 90.2947 488.265 89.4209 487.03 90.7587L478.5 100Z" fill="currentColor"/>
<path d="M599.835 89.9901C598.547 88.8354 596.5 89.7495 596.5 91.4792V100L548 100L548.004 0.0143661H591L603.216 10.2484C604.517 11.3389 606.5 10.4134 606.5 8.71531V0.0143661H658.5V70.2522V100H611L599.835 89.9901Z" fill="currentColor"/>
<path d="M486.146 0.014405L437.146 57.031V73.1444L413.646 100H390.146V57.031C390.146 57.031 341.243 2.06406 340 0.0144043C355.885 0.0144043 385.115 0.0144114 401 0.0144043L412.196 11.5114C412.988 12.3242 414.296 12.3166 415.078 11.4946L426 0.0144043C441.718 0.0144279 470.428 0.0144022 486.146 0.014405Z" fill="currentColor"/>
<path d="M359.356 99.9856H313V-1.92947e-05H335.356L359.356 26.8592V99.9856Z" fill="currentColor"/>
<path d="M245.5 89C245.5 87.8954 246.395 87 247.5 87H262.5C263.605 87 264.5 87.8954 264.5 89L264.5 99.9856L309.305 99.9856V-1.52588e-05L264.5 -2.28882e-05L264.5 11C264.5 12.1045 263.605 13 262.5 13L247.5 13C246.395 13 245.5 12.1045 245.5 11L245.5 -1.52588e-05H201L201 99.9856H223L245.5 99.9856L245.5 89Z" fill="currentColor"/>
<path d="M131.5 100L71 100L149.488 9.9211C149.488 9.9211 156.998 0.0143661 171.423 0.0143661H184.978H197V100L143.5 100V92.1153C143.5 90.2947 141.265 89.4209 140.03 90.7587L131.5 100Z" fill="currentColor"/>
<path d="M54.8351 89.9901C53.5472 88.8354 51.5 89.7495 51.5 91.4792V100L0 100L0.00416374 0.0143661H43L55.2156 10.2484C56.5173 11.3389 58.5 10.4134 58.5 8.71531V0.0143661H110.5V48.5L66 100L54.8351 89.9901Z" fill="currentColor"/>
<path d="M270.5 209L210 209L288.488 118.921C288.488 118.921 295.998 109.014 310.423 109.014H323.978H336V209L282.5 209V201.115C282.5 199.295 280.265 198.421 279.03 199.759L270.5 209Z" fill="currentColor"/>
<path d="M391.835 198.99C390.547 197.835 388.5 198.749 388.5 200.479V209L340 209L340.004 109.014H383L395.216 119.248C396.517 120.339 398.5 119.413 398.5 117.715V109.014H450.5V179.252V209H403L391.835 198.99Z" fill="currentColor"/>
<path d="M0 109.014H51.5V117.244C51.5 119.082 53.7719 119.947 54.9941 118.573L63.5 109.014H124.5L81 159.007L124.5 209H60.2964L50.803 197.781C50.0109 196.844 48.5708 196.835 47.7665 197.761L38 209H0V109.014Z" fill="currentColor"/>
<path d="M166.5 198C166.5 196.895 167.395 196 168.5 196H183.5C184.605 196 185.5 196.895 185.5 198L185.5 208.986L206.5 208.986L230.305 182V109L185.5 109L185.5 120C185.5 121.105 184.605 122 183.5 122L168.5 122C167.395 122 166.5 121.105 166.5 120L166.5 109H131.5L122 120V198L131.5 208.986L144 208.986L166.5 208.986L166.5 198Z" fill="currentColor"/>
</svg>
