<svg height="100" viewBox="0 0 676 100" fill="none" xmlns="http://www.w3.org/2000/svg">
<path d="M495.5 100L435 100L513.488 9.9211C513.488 9.9211 520.998 0.0143661 535.423 0.0143661H548.978H561V100L507.5 100V87L495.5 100Z" fill="currentColor"/>
<path d="M613.5 87V100L565 100L565.004 0.0143661H608L623.5 13V0.0143661H675.5V70.2522V100H628L613.5 87Z" fill="currentColor"/>
<path d="M503.146 0.014405L454.146 57.031V73.1444L430.646 100H407.146V57.031C407.146 57.031 358.243 2.06406 357 0.0144043C372.885 0.0144043 402.115 0.0144114 418 0.0144043L430.646 13L443 0.0144043C458.718 0.0144279 487.428 0.0144022 503.146 0.014405Z" fill="currentColor"/>
<path d="M376.356 99.9856H330V-1.92947e-05H352.356L376.356 26.8592V99.9856Z" fill="currentColor"/>
<path d="M262.5 87H281.5L281.5 99.9856L326.305 99.9856V-1.52588e-05L281.5 -2.28882e-05L281.5 13L262.5 13L262.5 -1.52588e-05H218L218 99.9856H240L262.5 99.9856L262.5 87Z" fill="currentColor"/>
<path d="M148.5 100L88 100L166.488 9.9211C166.488 9.9211 173.998 0.0143661 188.423 0.0143661H201.978H214V100L160.5 100V87L148.5 100Z" fill="currentColor"/>
<path d="M48.5 87V100L0 100L0.00416374 0.0143661H43L58.5 13V0.0143661H110.5V70.2522L83.9575 100H63L48.5 87Z" fill="currentColor"/>
</svg>
