<svg width="100%" viewBox="0 0 1270 122" fill="currentColor" xmlns="http://www.w3.org/2000/svg">
<path d="M1182.7 70.0817V121.261H1143.56V42.6174V23.9485L1143.56 0.00075985H1154.13H1164.01C1180.78 0.00075985 1189.95 17.2128 1189.95 17.2128L1227.43 75.0257L1226.64 0.00075985H1269.29V121.261H1219.03L1182.7 70.0817Z" fill="currentColor"/>
<path d="M1062.31 121.261H1010L1088.32 12.0152C1088.32 12.0152 1095.81 0.000446162 1110.21 0.000446162H1123.73H1135.73V121.261H1096.78L1096.28 70.0814L1062.31 121.261Z" fill="currentColor"/>
<path d="M1112.54 81.1212H1067.44V52.0745H1112.54V81.1212Z" fill="currentColor"/>
<path d="M992.102 81.0788H952.203V120.983H913V0.000473859H952.203V42.8076H992.102V0.000473859H1031.31L1031.31 81.0788L1003.31 120.983H992.102L992.102 81.0788Z" fill="currentColor"/>
<path d="M785.502 -2.53821e-05H824.644V43.8683L843.686 17.1932L855.96 -2.53821e-05H903.412L861.473 56.978L905.712 121.261H858.03L837.777 89.85L814.867 121.261H785.502V-2.53821e-05Z" fill="currentColor"/>
<path d="M644.944 70.0817V121.261H605.802V42.6174V23.9485L605.806 0.00075985H616.379H626.256C643.028 0.00075985 652.191 17.2128 652.191 17.2128L689.675 75.0257L688.882 0.00075985H731.532V121.261H681.277L644.944 70.0817Z" fill="currentColor"/>
<path d="M525.865 121H473.854L551.719 11.9889C551.719 11.9889 559.169 -9.47226e-07 573.48 -9.47226e-07H586.928H598.854V121H560.128L559.631 69.9303L525.865 121Z" fill="currentColor"/>
<path d="M575.39 81.1214H530.291V52.0747H575.39V81.1214Z" fill="currentColor"/>
<path d="M534.5 2.57248e-07L489 63.2857V91L466.854 121H453.354L453.354 63.2857C453.354 63.2857 407.097 2.48044 405.854 2.01609e-07C421.739 2.01609e-07 430.615 8.76406e-06 446.5 2.01609e-07L471 29.5L493.854 4.25472e-06C509.572 3.28604e-05 518.782 -3.14666e-06 534.5 2.57248e-07Z" fill="currentColor"/>
<path d="M398.847 120.983H359.644V0.000484707H398.847V120.983Z" fill="currentColor"/>
<path d="M273.203 81.0788H313.102V120.983H352.305V0.000473859H313.102V42.8076H273.203V0.000473859H234L234 120.983H262H273.203L273.203 81.0788Z" fill="currentColor"/>
<path d="M153.314 121.261H101L179.32 12.0147C179.32 12.0147 186.813 -4.21195e-05 201.208 -4.21195e-05H214.734H226.73V121.261H187.778L187.278 70.0809L153.314 121.261Z" fill="currentColor"/>
<path d="M203.536 81.1207H158.437V52.074H203.536V81.1207Z" fill="currentColor"/>
<path d="M39.142 70.0809V121.261H0V42.6166V23.9478L0.004188 0H10.5767H22.3696C35.0562 0 46.3885 17.212 46.3885 17.212L83.8727 75.025L83.0794 0H125.73L125.73 77.5L93.5 121.261H75.475L39.142 70.0809Z" fill="currentColor"/>
</svg>
