<svg width="2441" height="613" viewBox="0 0 2441 613" fill="none" xmlns="http://www.w3.org/2000/svg">
<circle cx="271.381" cy="69.917" r="69" fill="black"/>
<path d="M0.137695 0.916992H143.263L339.287 301.803H196.162L0.137695 0.916992Z" fill="white"/>
<mask id="mask0_1744_1021" style="mask-type:alpha" maskUnits="userSpaceOnUse" x="-17" y="-10" width="212" height="599">
<path d="M-16.2295 -8.74316L193.667 311.678" stroke="black"/>
<path d="M-16.2295 5.87598L193.667 326.297" stroke="black"/>
<path d="M-16.2295 19.876L193.667 340.297" stroke="black"/>
<path d="M-16.2295 34.876L193.667 355.297" stroke="black"/>
<path d="M-16.2295 48.2373L193.667 368.658" stroke="black"/>
<path d="M-16.2295 62.8564L193.667 383.277" stroke="black"/>
<path d="M-16.2295 76.8564L193.667 397.277" stroke="black"/>
<path d="M-16.2295 91.8564L193.667 412.277" stroke="black"/>
<path d="M-16.2295 224.067L193.667 544.488" stroke="black"/>
<path d="M-16.2295 238.687L193.667 559.107" stroke="black"/>
<path d="M-16.2295 252.687L193.667 573.107" stroke="black"/>
<path d="M-16.2295 267.687L193.667 588.107" stroke="black"/>
<path d="M-16.2295 165.918L193.667 486.339" stroke="black"/>
<path d="M-16.2295 180.537L193.667 500.958" stroke="black"/>
<path d="M-16.2295 194.537L193.667 514.958" stroke="black"/>
<path d="M-16.2295 209.537L193.667 529.958" stroke="black"/>
<path d="M-16.2295 106.993L193.667 427.414" stroke="black"/>
<path d="M-16.2295 121.612L193.667 442.033" stroke="black"/>
<path d="M-16.2295 135.612L193.667 456.033" stroke="black"/>
<path d="M-16.2295 150.612L193.667 471.033" stroke="black"/>
</mask>
<g mask="url(#mask0_1744_1021)">
<rect x="0.756348" y="0.916992" width="142.506" height="300.886" fill="#8A8A8A"/>
</g>
<rect x="547.006" y="0.5" width="143.125" height="300.886" fill="white"/>
<circle cx="520.256" cy="69.5" r="69" fill="black"/>
<mask id="mask1_1744_1021" style="mask-type:alpha" maskUnits="userSpaceOnUse" x="333" y="-301" width="212" height="890">
<path d="M333.771 -8.74316L543.667 311.678" stroke="black"/>
<path d="M333.771 5.87598L543.667 326.297" stroke="black"/>
<path d="M333.771 19.876L543.667 340.297" stroke="black"/>
<path d="M333.771 34.876L543.667 355.297" stroke="black"/>
<path d="M333.771 48.2373L543.667 368.658" stroke="black"/>
<path d="M333.771 62.8564L543.667 383.277" stroke="black"/>
<path d="M333.771 76.8564L543.667 397.277" stroke="black"/>
<path d="M333.771 91.8564L543.667 412.277" stroke="black"/>
<path d="M333.771 224.067L543.667 544.488" stroke="black"/>
<path d="M333.771 238.687L543.667 559.107" stroke="black"/>
<path d="M333.771 252.687L543.667 573.107" stroke="black"/>
<path d="M333.771 267.687L543.667 588.107" stroke="black"/>
<path d="M333.771 165.918L543.667 486.339" stroke="black"/>
<path d="M333.771 180.537L543.667 500.958" stroke="black"/>
<path d="M333.771 194.537L543.667 514.958" stroke="black"/>
<path d="M333.771 209.537L543.667 529.958" stroke="black"/>
<path d="M333.771 106.993L543.667 427.414" stroke="black"/>
<path d="M333.771 121.612L543.667 442.033" stroke="black"/>
<path d="M333.771 135.612L543.667 456.033" stroke="black"/>
<path d="M333.771 150.612L543.667 471.033" stroke="black"/>
<path d="M333.771 -300.104L543.667 20.3174" stroke="black"/>
<path d="M333.771 -285.484L543.667 34.9365" stroke="black"/>
<path d="M333.771 -271.484L543.667 48.9365" stroke="black"/>
<path d="M333.771 -256.484L543.667 63.9365" stroke="black"/>
<path d="M333.771 -243.123L543.667 77.2979" stroke="black"/>
<path d="M333.771 -228.504L543.667 91.917" stroke="black"/>
<path d="M333.771 -214.504L543.667 105.917" stroke="black"/>
<path d="M333.771 -199.504L543.667 120.917" stroke="black"/>
<path d="M333.771 -67.293L543.667 253.128" stroke="black"/>
<path d="M333.771 -52.6738L543.667 267.747" stroke="black"/>
<path d="M333.771 -38.6738L543.667 281.747" stroke="black"/>
<path d="M333.771 -23.6738L543.667 296.747" stroke="black"/>
<path d="M333.771 -125.441L543.667 194.979" stroke="black"/>
<path d="M333.771 -110.822L543.667 209.599" stroke="black"/>
<path d="M333.771 -96.8223L543.667 223.599" stroke="black"/>
<path d="M333.771 -81.8223L543.667 238.599" stroke="black"/>
<path d="M333.771 -184.367L543.667 136.054" stroke="black"/>
<path d="M333.771 -169.748L543.667 150.673" stroke="black"/>
<path d="M333.771 -155.748L543.667 164.673" stroke="black"/>
<path d="M333.771 -140.748L543.667 179.673" stroke="black"/>
</mask>
<g mask="url(#mask1_1744_1021)">
<rect x="350.756" y="0.916992" width="142.506" height="300.886" fill="#8A8A8A"/>
</g>
<rect x="897.006" y="0.5" width="143.125" height="300.886" fill="white"/>
<circle cx="870.131" cy="151.467" r="69" fill="black"/>
<mask id="mask2_1744_1021" style="mask-type:alpha" maskUnits="userSpaceOnUse" x="683" y="-301" width="212" height="890">
<path d="M683.771 -8.74316L893.667 311.678" stroke="black"/>
<path d="M683.771 5.87598L893.667 326.297" stroke="black"/>
<path d="M683.771 19.876L893.667 340.297" stroke="black"/>
<path d="M683.771 34.876L893.667 355.297" stroke="black"/>
<path d="M683.771 48.2373L893.667 368.658" stroke="black"/>
<path d="M683.771 62.8564L893.667 383.277" stroke="black"/>
<path d="M683.771 76.8564L893.667 397.277" stroke="black"/>
<path d="M683.771 91.8564L893.667 412.277" stroke="black"/>
<path d="M683.771 224.067L893.667 544.488" stroke="black"/>
<path d="M683.771 238.687L893.667 559.107" stroke="black"/>
<path d="M683.771 252.687L893.667 573.107" stroke="black"/>
<path d="M683.771 267.687L893.667 588.107" stroke="black"/>
<path d="M683.771 165.918L893.667 486.339" stroke="black"/>
<path d="M683.771 180.537L893.667 500.958" stroke="black"/>
<path d="M683.771 194.537L893.667 514.958" stroke="black"/>
<path d="M683.771 209.537L893.667 529.958" stroke="black"/>
<path d="M683.771 106.993L893.667 427.414" stroke="black"/>
<path d="M683.771 121.612L893.667 442.033" stroke="black"/>
<path d="M683.771 135.612L893.667 456.033" stroke="black"/>
<path d="M683.771 150.612L893.667 471.033" stroke="black"/>
<path d="M683.771 -300.104L893.667 20.3174" stroke="black"/>
<path d="M683.771 -285.484L893.667 34.9365" stroke="black"/>
<path d="M683.771 -271.484L893.667 48.9365" stroke="black"/>
<path d="M683.771 -256.484L893.667 63.9365" stroke="black"/>
<path d="M683.771 -243.123L893.667 77.2979" stroke="black"/>
<path d="M683.771 -228.504L893.667 91.917" stroke="black"/>
<path d="M683.771 -214.504L893.667 105.917" stroke="black"/>
<path d="M683.771 -199.504L893.667 120.917" stroke="black"/>
<path d="M683.771 -67.293L893.667 253.128" stroke="black"/>
<path d="M683.771 -52.6738L893.667 267.747" stroke="black"/>
<path d="M683.771 -38.6738L893.667 281.747" stroke="black"/>
<path d="M683.771 -23.6738L893.667 296.747" stroke="black"/>
<path d="M683.771 -125.441L893.667 194.979" stroke="black"/>
<path d="M683.771 -110.822L893.667 209.599" stroke="black"/>
<path d="M683.771 -96.8223L893.667 223.599" stroke="black"/>
<path d="M683.771 -81.8223L893.667 238.599" stroke="black"/>
<path d="M683.771 -184.367L893.667 136.054" stroke="black"/>
<path d="M683.771 -169.748L893.667 150.673" stroke="black"/>
<path d="M683.771 -155.748L893.667 164.673" stroke="black"/>
<path d="M683.771 -140.748L893.667 179.673" stroke="black"/>
</mask>
<g mask="url(#mask2_1744_1021)">
<rect x="700.756" y="0.916992" width="142.506" height="300.886" fill="#8A8A8A"/>
</g>
<rect width="125.599" height="339.999" transform="matrix(-4.37114e-08 1 1 4.37114e-08 1050.13 175.344)" fill="white"/>
<circle cx="1220.13" cy="150.673" r="69" fill="black"/>
<mask id="mask3_1744_1021" style="mask-type:alpha" maskUnits="userSpaceOnUse" x="1049" y="-287" width="358" height="725">
<path d="M1050.16 102.462L1260.05 422.883" stroke="black"/>
<path d="M1050.16 117.081L1260.05 437.502" stroke="black"/>
<path d="M1050.16 -188.898L1260.05 131.522" stroke="black"/>
<path d="M1050.16 -174.279L1260.05 146.142" stroke="black"/>
<path d="M1050.16 -160.279L1260.05 160.142" stroke="black"/>
<path d="M1050.16 -145.279L1260.05 175.142" stroke="black"/>
<path d="M1050.16 -131.918L1260.05 188.503" stroke="black"/>
<path d="M1050.16 -117.299L1260.05 203.122" stroke="black"/>
<path d="M1050.16 -103.299L1260.05 217.122" stroke="black"/>
<path d="M1050.16 -88.2988L1260.05 232.122" stroke="black"/>
<path d="M1050.16 43.9121L1260.05 364.333" stroke="black"/>
<path d="M1050.16 58.5312L1260.05 378.952" stroke="black"/>
<path d="M1050.16 72.5312L1260.05 392.952" stroke="black"/>
<path d="M1050.16 87.5312L1260.05 407.952" stroke="black"/>
<path d="M1050.16 -14.2363L1260.05 306.185" stroke="black"/>
<path d="M1050.16 0.382812L1260.05 320.804" stroke="black"/>
<path d="M1050.16 14.3828L1260.05 334.804" stroke="black"/>
<path d="M1050.16 29.3828L1260.05 349.804" stroke="black"/>
<path d="M1050.16 -73.1621L1260.05 247.259" stroke="black"/>
<path d="M1050.16 -58.543L1260.05 261.878" stroke="black"/>
<path d="M1050.16 -44.543L1260.05 275.878" stroke="black"/>
<path d="M1050.16 -29.543L1260.05 290.878" stroke="black"/>
<path d="M1183.23 -14.6846L1406.14 325.874" stroke="black"/>
<path d="M1164.44 -28.3576L1406.14 340.493" stroke="black"/>
<path d="M1196.25 -285.908L1406.14 34.5127" stroke="black"/>
<path d="M1196.25 -271.289L1406.14 49.1318" stroke="black"/>
<path d="M1196.25 -257.289L1406.14 63.1318" stroke="black"/>
<path d="M1196.25 -242.289L1406.14 78.1318" stroke="black"/>
<path d="M1196.25 -228.928L1406.14 91.4932" stroke="black"/>
<path d="M1196.25 -214.309L1406.14 106.112" stroke="black"/>
<path d="M1196.25 -200.309L1406.14 120.112" stroke="black"/>
<path d="M1196.25 -185.309L1406.14 135.112" stroke="black"/>
<path d="M1196.25 -53.0977L1406.14 267.323" stroke="black"/>
<path d="M1196.25 -38.4785L1406.14 281.942" stroke="black"/>
<path d="M1196.25 -24.4785L1406.14 295.942" stroke="black"/>
<path d="M1196.25 -9.47852L1406.14 310.942" stroke="black"/>
<path d="M1196.25 -111.246L1406.14 209.175" stroke="black"/>
<path d="M1196.25 -96.627L1406.14 223.794" stroke="black"/>
<path d="M1196.25 -82.627L1406.14 237.794" stroke="black"/>
<path d="M1196.25 -67.627L1406.14 252.794" stroke="black"/>
<path d="M1196.25 -170.172L1406.14 150.249" stroke="black"/>
<path d="M1196.25 -155.553L1406.14 164.868" stroke="black"/>
<path d="M1196.25 -141.553L1406.14 178.868" stroke="black"/>
<path d="M1196.25 -126.553L1406.14 193.868" stroke="black"/>
</mask>
<g mask="url(#mask3_1744_1021)">
<rect x="1050.76" y="0.916992" width="339.374" height="126.312" fill="#8A8A8A"/>
</g>
<path d="M1740.38 0.5H1597.26L1401.23 301.386H1544.36L1740.38 0.5Z" fill="white"/>
<circle cx="69" cy="69" r="69" transform="matrix(-1 0 0 1 1538.13 0.916992)" fill="black"/>
<rect x="1947.01" y="0.5" width="143.125" height="300.886" fill="white"/>
<circle cx="1920.26" cy="69.5" r="69" fill="black"/>
<mask id="mask4_1744_1021" style="mask-type:alpha" maskUnits="userSpaceOnUse" x="1733" y="-301" width="212" height="890">
<path d="M1733.77 -8.74316L1943.67 311.678" stroke="black"/>
<path d="M1733.77 5.87598L1943.67 326.297" stroke="black"/>
<path d="M1733.77 19.876L1943.67 340.297" stroke="black"/>
<path d="M1733.77 34.876L1943.67 355.297" stroke="black"/>
<path d="M1733.77 48.2373L1943.67 368.658" stroke="black"/>
<path d="M1733.77 62.8564L1943.67 383.277" stroke="black"/>
<path d="M1733.77 76.8564L1943.67 397.277" stroke="black"/>
<path d="M1733.77 91.8564L1943.67 412.277" stroke="black"/>
<path d="M1733.77 224.067L1943.67 544.488" stroke="black"/>
<path d="M1733.77 238.687L1943.67 559.107" stroke="black"/>
<path d="M1733.77 252.687L1943.67 573.107" stroke="black"/>
<path d="M1733.77 267.687L1943.67 588.107" stroke="black"/>
<path d="M1733.77 165.918L1943.67 486.339" stroke="black"/>
<path d="M1733.77 180.537L1943.67 500.958" stroke="black"/>
<path d="M1733.77 194.537L1943.67 514.958" stroke="black"/>
<path d="M1733.77 209.537L1943.67 529.958" stroke="black"/>
<path d="M1733.77 106.993L1943.67 427.414" stroke="black"/>
<path d="M1733.77 121.612L1943.67 442.033" stroke="black"/>
<path d="M1733.77 135.612L1943.67 456.033" stroke="black"/>
<path d="M1733.77 150.612L1943.67 471.033" stroke="black"/>
<path d="M1733.77 -300.104L1943.67 20.3174" stroke="black"/>
<path d="M1733.77 -285.484L1943.67 34.9365" stroke="black"/>
<path d="M1733.77 -271.484L1943.67 48.9365" stroke="black"/>
<path d="M1733.77 -256.484L1943.67 63.9365" stroke="black"/>
<path d="M1733.77 -243.123L1943.67 77.2979" stroke="black"/>
<path d="M1733.77 -228.504L1943.67 91.917" stroke="black"/>
<path d="M1733.77 -214.504L1943.67 105.917" stroke="black"/>
<path d="M1733.77 -199.504L1943.67 120.917" stroke="black"/>
<path d="M1733.77 -67.293L1943.67 253.128" stroke="black"/>
<path d="M1733.77 -52.6738L1943.67 267.747" stroke="black"/>
<path d="M1733.77 -38.6738L1943.67 281.747" stroke="black"/>
<path d="M1733.77 -23.6738L1943.67 296.747" stroke="black"/>
<path d="M1733.77 -125.441L1943.67 194.979" stroke="black"/>
<path d="M1733.77 -110.822L1943.67 209.599" stroke="black"/>
<path d="M1733.77 -96.8223L1943.67 223.599" stroke="black"/>
<path d="M1733.77 -81.8223L1943.67 238.599" stroke="black"/>
<path d="M1733.77 -184.367L1943.67 136.054" stroke="black"/>
<path d="M1733.77 -169.748L1943.67 150.673" stroke="black"/>
<path d="M1733.77 -155.748L1943.67 164.673" stroke="black"/>
<path d="M1733.77 -140.748L1943.67 179.673" stroke="black"/>
</mask>
<g mask="url(#mask4_1744_1021)">
<rect x="1750.76" y="0.916992" width="142.506" height="300.886" fill="#8A8A8A"/>
</g>
<circle cx="2371.13" cy="69.917" r="69" fill="black"/>
<path d="M2099.89 0.916992H2243.01L2439.04 301.803H2295.91L2099.89 0.916992Z" fill="white"/>
<mask id="mask5_1744_1021" style="mask-type:alpha" maskUnits="userSpaceOnUse" x="2083" y="-10" width="211" height="599">
<path d="M2083.52 -8.74316L2293.42 311.678" stroke="black"/>
<path d="M2083.52 5.87598L2293.42 326.297" stroke="black"/>
<path d="M2083.52 19.876L2293.42 340.297" stroke="black"/>
<path d="M2083.52 34.876L2293.42 355.297" stroke="black"/>
<path d="M2083.52 48.2373L2293.42 368.658" stroke="black"/>
<path d="M2083.52 62.8564L2293.42 383.277" stroke="black"/>
<path d="M2083.52 76.8564L2293.42 397.277" stroke="black"/>
<path d="M2083.52 91.8564L2293.42 412.277" stroke="black"/>
<path d="M2083.52 224.067L2293.42 544.488" stroke="black"/>
<path d="M2083.52 238.687L2293.42 559.107" stroke="black"/>
<path d="M2083.52 252.687L2293.42 573.107" stroke="black"/>
<path d="M2083.52 267.687L2293.42 588.107" stroke="black"/>
<path d="M2083.52 165.918L2293.42 486.339" stroke="black"/>
<path d="M2083.52 180.537L2293.42 500.958" stroke="black"/>
<path d="M2083.52 194.537L2293.42 514.958" stroke="black"/>
<path d="M2083.52 209.537L2293.42 529.958" stroke="black"/>
<path d="M2083.52 106.993L2293.42 427.414" stroke="black"/>
<path d="M2083.52 121.612L2293.42 442.033" stroke="black"/>
<path d="M2083.52 135.612L2293.42 456.033" stroke="black"/>
<path d="M2083.52 150.612L2293.42 471.033" stroke="black"/>
</mask>
<g mask="url(#mask5_1744_1021)">
<rect x="2100.51" y="0.916992" width="142.506" height="300.886" fill="#8A8A8A"/>
</g>
<path d="M1390.91 310.429H1247.79L1051.76 611.314H1194.89L1390.91 310.429Z" fill="white"/>
<mask id="mask6_1744_1021" style="mask-type:alpha" maskUnits="userSpaceOnUse" x="1033" y="24" width="212" height="598">
<path d="M1034.02 621.146L1243.91 300.726" stroke="black"/>
<path d="M1034.02 606.527L1243.91 286.106" stroke="black"/>
<path d="M1034.02 592.527L1243.91 272.106" stroke="black"/>
<path d="M1034.02 577.527L1243.91 257.106" stroke="black"/>
<path d="M1034.02 564.166L1243.91 243.745" stroke="black"/>
<path d="M1034.02 549.547L1243.91 229.126" stroke="black"/>
<path d="M1034.02 535.547L1243.91 215.126" stroke="black"/>
<path d="M1034.02 520.547L1243.91 200.126" stroke="black"/>
<path d="M1034.02 388.336L1243.91 67.915" stroke="black"/>
<path d="M1034.02 373.717L1243.91 53.2959" stroke="black"/>
<path d="M1034.02 359.717L1243.91 39.2959" stroke="black"/>
<path d="M1034.02 344.717L1243.91 24.2959" stroke="black"/>
<path d="M1034.02 446.485L1243.91 126.064" stroke="black"/>
<path d="M1034.02 431.866L1243.91 111.445" stroke="black"/>
<path d="M1034.02 417.866L1243.91 97.4453" stroke="black"/>
<path d="M1034.02 402.866L1243.91 82.4453" stroke="black"/>
<path d="M1034.02 505.41L1243.91 184.989" stroke="black"/>
<path d="M1034.02 490.791L1243.91 170.37" stroke="black"/>
<path d="M1034.02 476.791L1243.91 156.37" stroke="black"/>
<path d="M1034.02 461.791L1243.91 141.37" stroke="black"/>
</mask>
<g mask="url(#mask6_1744_1021)">
<rect width="142.506" height="300.886" transform="matrix(1 0 0 -1 1051 611.486)" fill="#8A8A8A"/>
</g>
<circle cx="1321.91" cy="542.312" r="69" fill="black"/>
<rect x="1597.26" y="311.386" width="143.125" height="300.886" fill="white"/>
<circle cx="1570.38" cy="462.354" r="69" fill="black"/>
<mask id="mask7_1744_1021" style="mask-type:alpha" maskUnits="userSpaceOnUse" x="1383" y="10" width="212" height="890">
<path d="M1384.02 302.143L1593.92 622.563" stroke="black"/>
<path d="M1384.02 316.762L1593.92 637.183" stroke="black"/>
<path d="M1384.02 330.762L1593.92 651.183" stroke="black"/>
<path d="M1384.02 345.762L1593.92 666.183" stroke="black"/>
<path d="M1384.02 359.123L1593.92 679.544" stroke="black"/>
<path d="M1384.02 373.742L1593.92 694.163" stroke="black"/>
<path d="M1384.02 387.742L1593.92 708.163" stroke="black"/>
<path d="M1384.02 402.742L1593.92 723.163" stroke="black"/>
<path d="M1384.02 534.953L1593.92 855.374" stroke="black"/>
<path d="M1384.02 549.572L1593.92 869.993" stroke="black"/>
<path d="M1384.02 563.572L1593.92 883.993" stroke="black"/>
<path d="M1384.02 578.572L1593.92 898.993" stroke="black"/>
<path d="M1384.02 476.804L1593.92 797.225" stroke="black"/>
<path d="M1384.02 491.422L1593.92 811.843" stroke="black"/>
<path d="M1384.02 505.422L1593.92 825.843" stroke="black"/>
<path d="M1384.02 520.422L1593.92 840.843" stroke="black"/>
<path d="M1384.02 417.879L1593.92 738.3" stroke="black"/>
<path d="M1384.02 432.498L1593.92 752.919" stroke="black"/>
<path d="M1384.02 446.498L1593.92 766.919" stroke="black"/>
<path d="M1384.02 461.498L1593.92 781.919" stroke="black"/>
<path d="M1384.02 10.7822L1593.92 331.203" stroke="black"/>
<path d="M1384.02 25.4014L1593.92 345.822" stroke="black"/>
<path d="M1384.02 39.4014L1593.92 359.822" stroke="black"/>
<path d="M1384.02 54.4014L1593.92 374.822" stroke="black"/>
<path d="M1384.02 67.7627L1593.92 388.184" stroke="black"/>
<path d="M1384.02 82.3818L1593.92 402.803" stroke="black"/>
<path d="M1384.02 96.3818L1593.92 416.803" stroke="black"/>
<path d="M1384.02 111.382L1593.92 431.803" stroke="black"/>
<path d="M1384.02 243.593L1593.92 564.014" stroke="black"/>
<path d="M1384.02 258.212L1593.92 578.633" stroke="black"/>
<path d="M1384.02 272.212L1593.92 592.633" stroke="black"/>
<path d="M1384.02 287.212L1593.92 607.633" stroke="black"/>
<path d="M1384.02 185.444L1593.92 505.865" stroke="black"/>
<path d="M1384.02 200.063L1593.92 520.484" stroke="black"/>
<path d="M1384.02 214.063L1593.92 534.484" stroke="black"/>
<path d="M1384.02 229.063L1593.92 549.484" stroke="black"/>
<path d="M1384.02 126.519L1593.92 446.939" stroke="black"/>
<path d="M1384.02 141.138L1593.92 461.559" stroke="black"/>
<path d="M1384.02 155.138L1593.92 475.559" stroke="black"/>
<path d="M1384.02 170.138L1593.92 490.559" stroke="black"/>
</mask>
<g mask="url(#mask7_1744_1021)">
<rect x="1401.01" y="311.803" width="142.506" height="300.886" fill="#8A8A8A"/>
</g>
<rect x="1947.01" y="311.386" width="143.125" height="300.886" fill="white"/>
<circle cx="1920.26" cy="380.386" r="69" fill="black"/>
<mask id="mask8_1744_1021" style="mask-type:alpha" maskUnits="userSpaceOnUse" x="1733" y="10" width="212" height="890">
<path d="M1733.77 302.143L1943.67 622.563" stroke="black"/>
<path d="M1733.77 316.762L1943.67 637.183" stroke="black"/>
<path d="M1733.77 330.762L1943.67 651.183" stroke="black"/>
<path d="M1733.77 345.762L1943.67 666.183" stroke="black"/>
<path d="M1733.77 359.123L1943.67 679.544" stroke="black"/>
<path d="M1733.77 373.742L1943.67 694.163" stroke="black"/>
<path d="M1733.77 387.742L1943.67 708.163" stroke="black"/>
<path d="M1733.77 402.742L1943.67 723.163" stroke="black"/>
<path d="M1733.77 534.953L1943.67 855.374" stroke="black"/>
<path d="M1733.77 549.572L1943.67 869.993" stroke="black"/>
<path d="M1733.77 563.572L1943.67 883.993" stroke="black"/>
<path d="M1733.77 578.572L1943.67 898.993" stroke="black"/>
<path d="M1733.77 476.804L1943.67 797.225" stroke="black"/>
<path d="M1733.77 491.422L1943.67 811.843" stroke="black"/>
<path d="M1733.77 505.422L1943.67 825.843" stroke="black"/>
<path d="M1733.77 520.422L1943.67 840.843" stroke="black"/>
<path d="M1733.77 417.879L1943.67 738.3" stroke="black"/>
<path d="M1733.77 432.498L1943.67 752.919" stroke="black"/>
<path d="M1733.77 446.498L1943.67 766.919" stroke="black"/>
<path d="M1733.77 461.498L1943.67 781.919" stroke="black"/>
<path d="M1733.77 10.7822L1943.67 331.203" stroke="black"/>
<path d="M1733.77 25.4014L1943.67 345.822" stroke="black"/>
<path d="M1733.77 39.4014L1943.67 359.822" stroke="black"/>
<path d="M1733.77 54.4014L1943.67 374.822" stroke="black"/>
<path d="M1733.77 67.7627L1943.67 388.184" stroke="black"/>
<path d="M1733.77 82.3818L1943.67 402.803" stroke="black"/>
<path d="M1733.77 96.3818L1943.67 416.803" stroke="black"/>
<path d="M1733.77 111.382L1943.67 431.803" stroke="black"/>
<path d="M1733.77 243.593L1943.67 564.014" stroke="black"/>
<path d="M1733.77 258.212L1943.67 578.633" stroke="black"/>
<path d="M1733.77 272.212L1943.67 592.633" stroke="black"/>
<path d="M1733.77 287.212L1943.67 607.633" stroke="black"/>
<path d="M1733.77 185.444L1943.67 505.865" stroke="black"/>
<path d="M1733.77 200.063L1943.67 520.484" stroke="black"/>
<path d="M1733.77 214.063L1943.67 534.484" stroke="black"/>
<path d="M1733.77 229.063L1943.67 549.484" stroke="black"/>
<path d="M1733.77 126.519L1943.67 446.939" stroke="black"/>
<path d="M1733.77 141.138L1943.67 461.559" stroke="black"/>
<path d="M1733.77 155.138L1943.67 475.559" stroke="black"/>
<path d="M1733.77 170.138L1943.67 490.559" stroke="black"/>
</mask>
<g mask="url(#mask8_1744_1021)">
<rect x="1750.76" y="311.803" width="142.506" height="300.886" fill="#8A8A8A"/>
</g>
<circle cx="2371.13" cy="380.802" r="69" fill="black"/>
<path d="M2099.89 311.802H2243.01L2439.04 612.688H2295.91L2099.89 311.802Z" fill="white"/>
<mask id="mask9_1744_1021" style="mask-type:alpha" maskUnits="userSpaceOnUse" x="2083" y="301" width="211" height="599">
<path d="M2083.52 302.142L2293.42 622.562" stroke="black"/>
<path d="M2083.52 316.761L2293.42 637.182" stroke="black"/>
<path d="M2083.52 330.761L2293.42 651.182" stroke="black"/>
<path d="M2083.52 345.761L2293.42 666.182" stroke="black"/>
<path d="M2083.52 359.122L2293.42 679.543" stroke="black"/>
<path d="M2083.52 373.741L2293.42 694.162" stroke="black"/>
<path d="M2083.52 387.741L2293.42 708.162" stroke="black"/>
<path d="M2083.52 402.741L2293.42 723.162" stroke="black"/>
<path d="M2083.52 534.953L2293.42 855.374" stroke="black"/>
<path d="M2083.52 549.57L2293.42 869.991" stroke="black"/>
<path d="M2083.52 563.57L2293.42 883.991" stroke="black"/>
<path d="M2083.52 578.57L2293.42 898.991" stroke="black"/>
<path d="M2083.52 476.803L2293.42 797.224" stroke="black"/>
<path d="M2083.52 491.422L2293.42 811.843" stroke="black"/>
<path d="M2083.52 505.422L2293.42 825.843" stroke="black"/>
<path d="M2083.52 520.422L2293.42 840.843" stroke="black"/>
<path d="M2083.52 417.878L2293.42 738.299" stroke="black"/>
<path d="M2083.52 432.497L2293.42 752.918" stroke="black"/>
<path d="M2083.52 446.497L2293.42 766.918" stroke="black"/>
<path d="M2083.52 461.497L2293.42 781.918" stroke="black"/>
</mask>
<g mask="url(#mask9_1744_1021)">
<rect x="2100.51" y="311.802" width="142.506" height="300.886" fill="#8A8A8A"/>
</g>
</svg>
