<svg width="2477" height="613" viewBox="0 0 2477 613" fill="none" xmlns="http://www.w3.org/2000/svg">
<g clip-path="url(#clip0_1754_2274)">
<circle cx="269.12" cy="70.2354" r="69" fill="#57546B"/>
<path d="M0.0195312 1.08105H143.145L339.169 301.967H196.044L0.0195312 1.08105Z" fill="#1F1D29"/>
<mask id="mask0_1754_2274" style="mask-type:alpha" maskUnits="userSpaceOnUse" x="-17" y="-9" width="211" height="598">
<path d="M-16.3477 -8.5791L193.548 311.842" stroke="black"/>
<path d="M-16.3477 6.04004L193.548 326.461" stroke="black"/>
<path d="M-16.3477 20.04L193.548 340.461" stroke="black"/>
<path d="M-16.3477 35.04L193.548 355.461" stroke="black"/>
<path d="M-16.3477 48.4014L193.548 368.822" stroke="black"/>
<path d="M-16.3477 63.0205L193.548 383.441" stroke="black"/>
<path d="M-16.3477 77.0205L193.548 397.441" stroke="black"/>
<path d="M-16.3477 92.0205L193.548 412.441" stroke="black"/>
<path d="M-16.3477 224.231L193.548 544.652" stroke="black"/>
<path d="M-16.3477 238.851L193.548 559.271" stroke="black"/>
<path d="M-16.3477 252.851L193.548 573.271" stroke="black"/>
<path d="M-16.3477 267.851L193.548 588.271" stroke="black"/>
<path d="M-16.3477 166.082L193.548 486.503" stroke="black"/>
<path d="M-16.3477 180.701L193.548 501.122" stroke="black"/>
<path d="M-16.3477 194.701L193.548 515.122" stroke="black"/>
<path d="M-16.3477 209.701L193.548 530.122" stroke="black"/>
<path d="M-16.3477 107.157L193.548 427.578" stroke="black"/>
<path d="M-16.3477 121.776L193.548 442.197" stroke="black"/>
<path d="M-16.3477 135.776L193.548 456.197" stroke="black"/>
<path d="M-16.3477 150.776L193.548 471.197" stroke="black"/>
</mask>
<g mask="url(#mask0_1754_2274)">
<rect x="0.638672" y="1.08105" width="142.506" height="300.886" fill="#2B2935"/>
</g>
<path d="M200.12 301.632V70.5967C200.12 32.489 231.012 1.59668 269.12 1.59668C307.228 1.59668 338.12 32.489 338.12 70.5967V301.632" stroke="#57546B"/>
</g>
<g clip-path="url(#clip1_1754_2274)">
<path d="M552.887 0.664062H606.012C655.717 0.664062 696.012 40.9584 696.012 90.6641V301.55H552.887V0.664062Z" fill="#1F1D29"/>
<circle cx="526.095" cy="70.2363" r="69" fill="#57546B"/>
<path d="M552.748 1.16113H526.354C488.247 1.16113 457.354 32.0535 457.354 70.1611C457.354 108.269 488.247 139.161 526.354 139.161H696.008" stroke="#57546B"/>
<mask id="mask1_1754_2274" style="mask-type:alpha" maskUnits="userSpaceOnUse" x="339" y="-301" width="211" height="890">
<path d="M339.652 -8.5791L549.548 311.842" stroke="black"/>
<path d="M339.652 6.04004L549.548 326.461" stroke="black"/>
<path d="M339.652 20.04L549.548 340.461" stroke="black"/>
<path d="M339.652 35.04L549.548 355.461" stroke="black"/>
<path d="M339.652 48.4014L549.548 368.822" stroke="black"/>
<path d="M339.652 63.0205L549.548 383.441" stroke="black"/>
<path d="M339.652 77.0205L549.548 397.441" stroke="black"/>
<path d="M339.652 92.0205L549.548 412.441" stroke="black"/>
<path d="M339.652 224.231L549.548 544.652" stroke="black"/>
<path d="M339.652 238.851L549.548 559.271" stroke="black"/>
<path d="M339.652 252.851L549.548 573.271" stroke="black"/>
<path d="M339.652 267.851L549.548 588.271" stroke="black"/>
<path d="M339.652 166.082L549.548 486.503" stroke="black"/>
<path d="M339.652 180.701L549.548 501.122" stroke="black"/>
<path d="M339.652 194.701L549.548 515.122" stroke="black"/>
<path d="M339.652 209.701L549.548 530.122" stroke="black"/>
<path d="M339.652 107.157L549.548 427.578" stroke="black"/>
<path d="M339.652 121.776L549.548 442.197" stroke="black"/>
<path d="M339.652 135.776L549.548 456.197" stroke="black"/>
<path d="M339.652 150.776L549.548 471.197" stroke="black"/>
<path d="M339.652 -299.939L549.548 20.4814" stroke="black"/>
<path d="M339.652 -285.32L549.548 35.1006" stroke="black"/>
<path d="M339.652 -271.32L549.548 49.1006" stroke="black"/>
<path d="M339.652 -256.32L549.548 64.1006" stroke="black"/>
<path d="M339.652 -242.959L549.548 77.4619" stroke="black"/>
<path d="M339.652 -228.34L549.548 92.0811" stroke="black"/>
<path d="M339.652 -214.34L549.548 106.081" stroke="black"/>
<path d="M339.652 -199.34L549.548 121.081" stroke="black"/>
<path d="M339.652 -67.1289L549.548 253.292" stroke="black"/>
<path d="M339.652 -52.5098L549.548 267.911" stroke="black"/>
<path d="M339.652 -38.5098L549.548 281.911" stroke="black"/>
<path d="M339.652 -23.5098L549.548 296.911" stroke="black"/>
<path d="M339.652 -125.277L549.548 195.144" stroke="black"/>
<path d="M339.652 -110.658L549.548 209.763" stroke="black"/>
<path d="M339.652 -96.6582L549.548 223.763" stroke="black"/>
<path d="M339.652 -81.6582L549.548 238.763" stroke="black"/>
<path d="M339.652 -184.203L549.548 136.218" stroke="black"/>
<path d="M339.652 -169.584L549.548 150.837" stroke="black"/>
<path d="M339.652 -155.584L549.548 164.837" stroke="black"/>
<path d="M339.652 -140.584L549.548 179.837" stroke="black"/>
</mask>
<g mask="url(#mask1_1754_2274)">
<path d="M356.441 91.2363C356.441 41.5307 396.736 1.23633 446.441 1.23633H498.948V302.122H356.441V91.2363Z" fill="#2B2935"/>
</g>
</g>
<path d="M908.887 0.664062H962.012C1011.72 0.664062 1052.01 40.9584 1052.01 90.6641V301.55H908.887V0.664062Z" fill="#1F1D29"/>
<circle cx="882.012" cy="151.631" r="69" fill="#57546B"/>
<path d="M1051.67 82.6309H882.011C843.904 82.6309 813.011 113.523 813.011 151.631C813.011 189.739 843.904 220.631 882.011 220.631H1051.67" stroke="#57546B"/>
<mask id="mask2_1754_2274" style="mask-type:alpha" maskUnits="userSpaceOnUse" x="695" y="-301" width="211" height="890">
<path d="M695.651 -8.5791L905.547 311.842" stroke="black"/>
<path d="M695.651 6.04004L905.547 326.461" stroke="black"/>
<path d="M695.651 20.04L905.547 340.461" stroke="black"/>
<path d="M695.651 35.04L905.547 355.461" stroke="black"/>
<path d="M695.651 48.4014L905.547 368.822" stroke="black"/>
<path d="M695.651 63.0205L905.547 383.441" stroke="black"/>
<path d="M695.651 77.0205L905.547 397.441" stroke="black"/>
<path d="M695.651 92.0205L905.547 412.441" stroke="black"/>
<path d="M695.651 224.231L905.547 544.652" stroke="black"/>
<path d="M695.651 238.851L905.547 559.271" stroke="black"/>
<path d="M695.651 252.851L905.547 573.271" stroke="black"/>
<path d="M695.651 267.851L905.547 588.271" stroke="black"/>
<path d="M695.651 166.082L905.547 486.503" stroke="black"/>
<path d="M695.651 180.701L905.547 501.122" stroke="black"/>
<path d="M695.651 194.701L905.547 515.122" stroke="black"/>
<path d="M695.651 209.701L905.547 530.122" stroke="black"/>
<path d="M695.651 107.157L905.547 427.578" stroke="black"/>
<path d="M695.651 121.776L905.547 442.197" stroke="black"/>
<path d="M695.651 135.776L905.547 456.197" stroke="black"/>
<path d="M695.651 150.776L905.547 471.197" stroke="black"/>
<path d="M695.651 -299.939L905.547 20.4814" stroke="black"/>
<path d="M695.651 -285.32L905.547 35.1006" stroke="black"/>
<path d="M695.651 -271.32L905.547 49.1006" stroke="black"/>
<path d="M695.651 -256.32L905.547 64.1006" stroke="black"/>
<path d="M695.651 -242.959L905.547 77.4619" stroke="black"/>
<path d="M695.651 -228.34L905.547 92.0811" stroke="black"/>
<path d="M695.651 -214.34L905.547 106.081" stroke="black"/>
<path d="M695.651 -199.34L905.547 121.081" stroke="black"/>
<path d="M695.651 -67.1289L905.547 253.292" stroke="black"/>
<path d="M695.651 -52.5098L905.547 267.911" stroke="black"/>
<path d="M695.651 -38.5098L905.547 281.911" stroke="black"/>
<path d="M695.651 -23.5098L905.547 296.911" stroke="black"/>
<path d="M695.651 -125.277L905.547 195.144" stroke="black"/>
<path d="M695.651 -110.658L905.547 209.763" stroke="black"/>
<path d="M695.651 -96.6582L905.547 223.763" stroke="black"/>
<path d="M695.651 -81.6582L905.547 238.763" stroke="black"/>
<path d="M695.651 -184.203L905.547 136.218" stroke="black"/>
<path d="M695.651 -169.584L905.547 150.837" stroke="black"/>
<path d="M695.651 -155.584L905.547 164.837" stroke="black"/>
<path d="M695.651 -140.584L905.547 179.837" stroke="black"/>
</mask>
<g mask="url(#mask2_1754_2274)">
<rect x="712.637" y="1.08105" width="142.506" height="300.886" fill="#2B2935"/>
</g>
<path d="M1068.01 175.508L1068.01 301.107L1318.01 301.107C1367.72 301.107 1408.01 260.813 1408.01 211.107L1408.01 175.508L1068.01 175.508Z" fill="#1F1D29"/>
<circle cx="1238.01" cy="150.837" r="69" fill="#57546B"/>
<path d="M1169.01 301.241L1169.01 150.837C1169.01 112.73 1199.9 81.8372 1238.01 81.8372C1276.12 81.8372 1307.01 112.73 1307.01 150.837L1307.01 301.241" stroke="#57546B"/>
<mask id="mask3_1754_2274" style="mask-type:alpha" maskUnits="userSpaceOnUse" x="1067" y="-287" width="358" height="725">
<path d="M1068.04 102.626L1277.94 423.047" stroke="black"/>
<path d="M1068.04 117.245L1277.94 437.666" stroke="black"/>
<path d="M1068.04 -188.734L1277.94 131.687" stroke="black"/>
<path d="M1068.04 -174.115L1277.94 146.306" stroke="black"/>
<path d="M1068.04 -160.115L1277.94 160.306" stroke="black"/>
<path d="M1068.04 -145.115L1277.94 175.306" stroke="black"/>
<path d="M1068.04 -131.754L1277.94 188.667" stroke="black"/>
<path d="M1068.04 -117.135L1277.94 203.286" stroke="black"/>
<path d="M1068.04 -103.135L1277.94 217.286" stroke="black"/>
<path d="M1068.04 -88.1348L1277.94 232.286" stroke="black"/>
<path d="M1068.04 44.0762L1277.94 364.497" stroke="black"/>
<path d="M1068.04 58.6953L1277.94 379.116" stroke="black"/>
<path d="M1068.04 72.6953L1277.94 393.116" stroke="black"/>
<path d="M1068.04 87.6953L1277.94 408.116" stroke="black"/>
<path d="M1068.04 -14.0723L1277.94 306.349" stroke="black"/>
<path d="M1068.04 0.546875L1277.94 320.968" stroke="black"/>
<path d="M1068.04 14.5469L1277.94 334.968" stroke="black"/>
<path d="M1068.04 29.5469L1277.94 349.968" stroke="black"/>
<path d="M1068.04 -72.998L1277.94 247.423" stroke="black"/>
<path d="M1068.04 -58.3789L1277.94 262.042" stroke="black"/>
<path d="M1068.04 -44.3789L1277.94 276.042" stroke="black"/>
<path d="M1068.04 -29.3789L1277.94 291.042" stroke="black"/>
<path d="M1201.11 -14.5205L1424.02 326.038" stroke="black"/>
<path d="M1182.33 -28.1936L1424.02 340.657" stroke="black"/>
<path d="M1214.13 -285.744L1424.02 34.6768" stroke="black"/>
<path d="M1214.13 -271.125L1424.02 49.2959" stroke="black"/>
<path d="M1214.13 -257.125L1424.02 63.2959" stroke="black"/>
<path d="M1214.13 -242.125L1424.02 78.2959" stroke="black"/>
<path d="M1214.13 -228.764L1424.02 91.6572" stroke="black"/>
<path d="M1214.13 -214.145L1424.02 106.276" stroke="black"/>
<path d="M1214.13 -200.145L1424.02 120.276" stroke="black"/>
<path d="M1214.13 -185.145L1424.02 135.276" stroke="black"/>
<path d="M1214.13 -52.9336L1424.02 267.487" stroke="black"/>
<path d="M1214.13 -38.3145L1424.02 282.106" stroke="black"/>
<path d="M1214.13 -24.3145L1424.02 296.106" stroke="black"/>
<path d="M1214.13 -9.31445L1424.02 311.106" stroke="black"/>
<path d="M1214.13 -111.082L1424.02 209.339" stroke="black"/>
<path d="M1214.13 -96.4629L1424.02 223.958" stroke="black"/>
<path d="M1214.13 -82.4629L1424.02 237.958" stroke="black"/>
<path d="M1214.13 -67.4629L1424.02 252.958" stroke="black"/>
<path d="M1214.13 -170.008L1424.02 150.413" stroke="black"/>
<path d="M1214.13 -155.389L1424.02 165.032" stroke="black"/>
<path d="M1214.13 -141.389L1424.02 179.032" stroke="black"/>
<path d="M1214.13 -126.389L1424.02 194.032" stroke="black"/>
</mask>
<g mask="url(#mask3_1754_2274)">
<rect x="1068.64" y="1.08105" width="339.374" height="126.312" fill="#2B2935"/>
</g>
<path d="M1764.26 0.664062H1621.14L1425.11 301.55H1568.24L1764.26 0.664062Z" fill="#1F1D29"/>
<circle cx="69" cy="69" r="69" transform="matrix(-1 0 0 1 1562.01 1.08105)" fill="#57546B"/>
<path d="M1613.63 231.884L1454.22 127.264C1422.44 106.23 1413.73 63.4188 1434.77 31.6418C1455.8 -0.135171 1498.61 -8.84418 1530.39 12.1895L1688.91 116.317" stroke="#57546B"/>
<g clip-path="url(#clip2_1754_2274)">
<path d="M1976.89 0.664062H2030.01C2079.72 0.664062 2120.01 40.9584 2120.01 90.6641V301.55H1976.89V0.664062Z" fill="#1F1D29"/>
<circle cx="1950.09" cy="70.2363" r="69" fill="#57546B"/>
<path d="M1976.75 1.16113H1950.35C1912.25 1.16113 1881.35 32.0535 1881.35 70.1611C1881.35 108.269 1912.25 139.161 1950.35 139.161H2120.01" stroke="#57546B"/>
<mask id="mask4_1754_2274" style="mask-type:alpha" maskUnits="userSpaceOnUse" x="1763" y="-301" width="211" height="890">
<path d="M1763.65 -8.5791L1973.55 311.842" stroke="black"/>
<path d="M1763.65 6.04004L1973.55 326.461" stroke="black"/>
<path d="M1763.65 20.04L1973.55 340.461" stroke="black"/>
<path d="M1763.65 35.04L1973.55 355.461" stroke="black"/>
<path d="M1763.65 48.4014L1973.55 368.822" stroke="black"/>
<path d="M1763.65 63.0205L1973.55 383.441" stroke="black"/>
<path d="M1763.65 77.0205L1973.55 397.441" stroke="black"/>
<path d="M1763.65 92.0205L1973.55 412.441" stroke="black"/>
<path d="M1763.65 224.231L1973.55 544.652" stroke="black"/>
<path d="M1763.65 238.851L1973.55 559.271" stroke="black"/>
<path d="M1763.65 252.851L1973.55 573.271" stroke="black"/>
<path d="M1763.65 267.851L1973.55 588.271" stroke="black"/>
<path d="M1763.65 166.082L1973.55 486.503" stroke="black"/>
<path d="M1763.65 180.701L1973.55 501.122" stroke="black"/>
<path d="M1763.65 194.701L1973.55 515.122" stroke="black"/>
<path d="M1763.65 209.701L1973.55 530.122" stroke="black"/>
<path d="M1763.65 107.157L1973.55 427.578" stroke="black"/>
<path d="M1763.65 121.776L1973.55 442.197" stroke="black"/>
<path d="M1763.65 135.776L1973.55 456.197" stroke="black"/>
<path d="M1763.65 150.776L1973.55 471.197" stroke="black"/>
<path d="M1763.65 -299.939L1973.55 20.4814" stroke="black"/>
<path d="M1763.65 -285.32L1973.55 35.1006" stroke="black"/>
<path d="M1763.65 -271.32L1973.55 49.1006" stroke="black"/>
<path d="M1763.65 -256.32L1973.55 64.1006" stroke="black"/>
<path d="M1763.65 -242.959L1973.55 77.4619" stroke="black"/>
<path d="M1763.65 -228.34L1973.55 92.0811" stroke="black"/>
<path d="M1763.65 -214.34L1973.55 106.081" stroke="black"/>
<path d="M1763.65 -199.34L1973.55 121.081" stroke="black"/>
<path d="M1763.65 -67.1289L1973.55 253.292" stroke="black"/>
<path d="M1763.65 -52.5098L1973.55 267.911" stroke="black"/>
<path d="M1763.65 -38.5098L1973.55 281.911" stroke="black"/>
<path d="M1763.65 -23.5098L1973.55 296.911" stroke="black"/>
<path d="M1763.65 -125.277L1973.55 195.144" stroke="black"/>
<path d="M1763.65 -110.658L1973.55 209.763" stroke="black"/>
<path d="M1763.65 -96.6582L1973.55 223.763" stroke="black"/>
<path d="M1763.65 -81.6582L1973.55 238.763" stroke="black"/>
<path d="M1763.65 -184.203L1973.55 136.218" stroke="black"/>
<path d="M1763.65 -169.584L1973.55 150.837" stroke="black"/>
<path d="M1763.65 -155.584L1973.55 164.837" stroke="black"/>
<path d="M1763.65 -140.584L1973.55 179.837" stroke="black"/>
</mask>
<g mask="url(#mask4_1754_2274)">
<path d="M1780.44 91.2363C1780.44 41.5307 1820.74 1.23633 1870.44 1.23633H1922.95V302.122H1780.44V91.2363Z" fill="#2B2935"/>
</g>
</g>
<g clip-path="url(#clip3_1754_2274)">
<circle cx="2404.87" cy="70.2354" r="69" fill="#57546B"/>
<path d="M2135.77 1.08105H2278.89L2474.92 301.967H2331.79L2135.77 1.08105Z" fill="#1F1D29"/>
<mask id="mask5_1754_2274" style="mask-type:alpha" maskUnits="userSpaceOnUse" x="2118" y="-9" width="212" height="598">
<path d="M2119.4 -8.5791L2329.3 311.842" stroke="black"/>
<path d="M2119.4 6.04004L2329.3 326.461" stroke="black"/>
<path d="M2119.4 20.04L2329.3 340.461" stroke="black"/>
<path d="M2119.4 35.04L2329.3 355.461" stroke="black"/>
<path d="M2119.4 48.4014L2329.3 368.822" stroke="black"/>
<path d="M2119.4 63.0205L2329.3 383.441" stroke="black"/>
<path d="M2119.4 77.0205L2329.3 397.441" stroke="black"/>
<path d="M2119.4 92.0205L2329.3 412.441" stroke="black"/>
<path d="M2119.4 224.231L2329.3 544.652" stroke="black"/>
<path d="M2119.4 238.851L2329.3 559.271" stroke="black"/>
<path d="M2119.4 252.851L2329.3 573.271" stroke="black"/>
<path d="M2119.4 267.851L2329.3 588.271" stroke="black"/>
<path d="M2119.4 166.082L2329.3 486.503" stroke="black"/>
<path d="M2119.4 180.701L2329.3 501.122" stroke="black"/>
<path d="M2119.4 194.701L2329.3 515.122" stroke="black"/>
<path d="M2119.4 209.701L2329.3 530.122" stroke="black"/>
<path d="M2119.4 107.157L2329.3 427.578" stroke="black"/>
<path d="M2119.4 121.776L2329.3 442.197" stroke="black"/>
<path d="M2119.4 135.776L2329.3 456.197" stroke="black"/>
<path d="M2119.4 150.776L2329.3 471.197" stroke="black"/>
</mask>
<g mask="url(#mask5_1754_2274)">
<rect x="2136.39" y="1.08105" width="142.506" height="300.886" fill="#2B2935"/>
</g>
<path d="M2335.87 301.632V70.5967C2335.87 32.489 2366.76 1.59668 2404.87 1.59668C2442.98 1.59668 2473.87 32.489 2473.87 70.5967V301.632" stroke="#57546B"/>
</g>
<g clip-path="url(#clip4_1754_2274)">
<path d="M1407.41 311.106H1264.29L1068.26 611.992H1211.39L1407.41 311.106Z" fill="#1F1D29"/>
<mask id="mask6_1754_2274" style="mask-type:alpha" maskUnits="userSpaceOnUse" x="1051" y="10" width="211" height="890">
<path d="M1051.65 302.421L1261.55 622.842" stroke="black"/>
<path d="M1051.65 317.04L1261.55 637.461" stroke="black"/>
<path d="M1051.65 331.04L1261.55 651.461" stroke="black"/>
<path d="M1051.65 346.04L1261.55 666.461" stroke="black"/>
<path d="M1051.65 359.401L1261.55 679.822" stroke="black"/>
<path d="M1051.65 374.021L1261.55 694.441" stroke="black"/>
<path d="M1051.65 388.021L1261.55 708.441" stroke="black"/>
<path d="M1051.65 403.021L1261.55 723.441" stroke="black"/>
<path d="M1051.65 535.231L1261.55 855.652" stroke="black"/>
<path d="M1051.65 549.851L1261.55 870.271" stroke="black"/>
<path d="M1051.65 563.851L1261.55 884.271" stroke="black"/>
<path d="M1051.65 578.851L1261.55 899.271" stroke="black"/>
<path d="M1051.65 477.082L1261.55 797.503" stroke="black"/>
<path d="M1051.65 491.701L1261.55 812.122" stroke="black"/>
<path d="M1051.65 505.701L1261.55 826.122" stroke="black"/>
<path d="M1051.65 520.701L1261.55 841.122" stroke="black"/>
<path d="M1051.65 418.157L1261.55 738.578" stroke="black"/>
<path d="M1051.65 432.776L1261.55 753.197" stroke="black"/>
<path d="M1051.65 446.776L1261.55 767.197" stroke="black"/>
<path d="M1051.65 461.776L1261.55 782.197" stroke="black"/>
<path d="M1051.65 11.0605L1261.55 331.481" stroke="black"/>
<path d="M1051.65 25.6797L1261.55 346.101" stroke="black"/>
<path d="M1051.65 39.6797L1261.55 360.101" stroke="black"/>
<path d="M1051.65 54.6797L1261.55 375.101" stroke="black"/>
<path d="M1051.65 68.041L1261.55 388.462" stroke="black"/>
<path d="M1051.65 82.6602L1261.55 403.081" stroke="black"/>
<path d="M1051.65 96.6602L1261.55 417.081" stroke="black"/>
<path d="M1051.65 111.66L1261.55 432.081" stroke="black"/>
<path d="M1051.65 243.871L1261.55 564.292" stroke="black"/>
<path d="M1051.65 258.49L1261.55 578.911" stroke="black"/>
<path d="M1051.65 272.49L1261.55 592.911" stroke="black"/>
<path d="M1051.65 287.49L1261.55 607.911" stroke="black"/>
<path d="M1051.65 185.723L1261.55 506.144" stroke="black"/>
<path d="M1051.65 200.342L1261.55 520.763" stroke="black"/>
<path d="M1051.65 214.342L1261.55 534.763" stroke="black"/>
<path d="M1051.65 229.342L1261.55 549.763" stroke="black"/>
<path d="M1051.65 126.797L1261.55 447.218" stroke="black"/>
<path d="M1051.65 141.416L1261.55 461.837" stroke="black"/>
<path d="M1051.65 155.416L1261.55 475.837" stroke="black"/>
<path d="M1051.65 170.416L1261.55 490.837" stroke="black"/>
</mask>
<g mask="url(#mask6_1754_2274)">
<path d="M1068.26 312.17H1210.77V393.267L1068.26 611.963V312.17Z" fill="#8A8A8A"/>
</g>
<circle cx="1339.79" cy="542.477" r="69" fill="#57546B"/>
<path d="M1218.97 380.662L1377.82 484.85C1409.6 505.883 1418.31 548.695 1397.27 580.472C1376.24 612.249 1333.43 620.958 1301.65 599.924L1143.67 496.257" stroke="#57546B"/>
</g>
<path d="M1621.14 311.55H1674.26C1723.97 311.55 1764.26 351.844 1764.26 401.55V612.436H1621.14V311.55Z" fill="#1F1D29"/>
<circle cx="1594.26" cy="462.518" r="69" fill="#57546B"/>
<path d="M1763.92 393.518H1594.26C1556.15 393.518 1525.26 424.41 1525.26 462.518C1525.26 500.625 1556.15 531.518 1594.26 531.518H1763.92" stroke="#57546B"/>
<mask id="mask7_1754_2274" style="mask-type:alpha" maskUnits="userSpaceOnUse" x="1407" y="10" width="212" height="890">
<path d="M1407.9 302.307L1617.8 622.728" stroke="black"/>
<path d="M1407.9 316.926L1617.8 637.347" stroke="black"/>
<path d="M1407.9 330.926L1617.8 651.347" stroke="black"/>
<path d="M1407.9 345.926L1617.8 666.347" stroke="black"/>
<path d="M1407.9 359.287L1617.8 679.708" stroke="black"/>
<path d="M1407.9 373.906L1617.8 694.327" stroke="black"/>
<path d="M1407.9 387.906L1617.8 708.327" stroke="black"/>
<path d="M1407.9 402.906L1617.8 723.327" stroke="black"/>
<path d="M1407.9 535.117L1617.8 855.538" stroke="black"/>
<path d="M1407.9 549.736L1617.8 870.157" stroke="black"/>
<path d="M1407.9 563.736L1617.8 884.157" stroke="black"/>
<path d="M1407.9 578.736L1617.8 899.157" stroke="black"/>
<path d="M1407.9 476.968L1617.8 797.389" stroke="black"/>
<path d="M1407.9 491.587L1617.8 812.008" stroke="black"/>
<path d="M1407.9 505.587L1617.8 826.008" stroke="black"/>
<path d="M1407.9 520.587L1617.8 841.008" stroke="black"/>
<path d="M1407.9 418.043L1617.8 738.464" stroke="black"/>
<path d="M1407.9 432.662L1617.8 753.083" stroke="black"/>
<path d="M1407.9 446.662L1617.8 767.083" stroke="black"/>
<path d="M1407.9 461.662L1617.8 782.083" stroke="black"/>
<path d="M1407.9 10.9463L1617.8 331.367" stroke="black"/>
<path d="M1407.9 25.5654L1617.8 345.986" stroke="black"/>
<path d="M1407.9 39.5654L1617.8 359.986" stroke="black"/>
<path d="M1407.9 54.5654L1617.8 374.986" stroke="black"/>
<path d="M1407.9 67.9268L1617.8 388.348" stroke="black"/>
<path d="M1407.9 82.5459L1617.8 402.967" stroke="black"/>
<path d="M1407.9 96.5459L1617.8 416.967" stroke="black"/>
<path d="M1407.9 111.546L1617.8 431.967" stroke="black"/>
<path d="M1407.9 243.757L1617.8 564.178" stroke="black"/>
<path d="M1407.9 258.376L1617.8 578.797" stroke="black"/>
<path d="M1407.9 272.376L1617.8 592.797" stroke="black"/>
<path d="M1407.9 287.376L1617.8 607.797" stroke="black"/>
<path d="M1407.9 185.608L1617.8 506.029" stroke="black"/>
<path d="M1407.9 200.228L1617.8 520.648" stroke="black"/>
<path d="M1407.9 214.228L1617.8 534.648" stroke="black"/>
<path d="M1407.9 229.228L1617.8 549.648" stroke="black"/>
<path d="M1407.9 126.683L1617.8 447.104" stroke="black"/>
<path d="M1407.9 141.302L1617.8 461.723" stroke="black"/>
<path d="M1407.9 155.302L1617.8 475.723" stroke="black"/>
<path d="M1407.9 170.302L1617.8 490.723" stroke="black"/>
</mask>
<g mask="url(#mask7_1754_2274)">
<rect x="1424.89" y="311.967" width="142.506" height="300.886" fill="#2B2935"/>
</g>
<g clip-path="url(#clip5_1754_2274)">
<path d="M1976.89 311.55H2030.01C2079.72 311.55 2120.01 351.844 2120.01 401.55V612.436H1976.89V311.55Z" fill="#1F1D29"/>
<circle cx="1950.09" cy="381.122" r="69" fill="#57546B"/>
<path d="M1976.75 312.047H1950.35C1912.25 312.047 1881.35 342.939 1881.35 381.047C1881.35 419.155 1912.25 450.047 1950.35 450.047H2120.01" stroke="#57546B"/>
<mask id="mask8_1754_2274" style="mask-type:alpha" maskUnits="userSpaceOnUse" x="1763" y="10" width="211" height="890">
<path d="M1763.65 302.307L1973.55 622.728" stroke="black"/>
<path d="M1763.65 316.926L1973.55 637.347" stroke="black"/>
<path d="M1763.65 330.926L1973.55 651.347" stroke="black"/>
<path d="M1763.65 345.926L1973.55 666.347" stroke="black"/>
<path d="M1763.65 359.287L1973.55 679.708" stroke="black"/>
<path d="M1763.65 373.906L1973.55 694.327" stroke="black"/>
<path d="M1763.65 387.906L1973.55 708.327" stroke="black"/>
<path d="M1763.65 402.906L1973.55 723.327" stroke="black"/>
<path d="M1763.65 535.117L1973.55 855.538" stroke="black"/>
<path d="M1763.65 549.736L1973.55 870.157" stroke="black"/>
<path d="M1763.65 563.736L1973.55 884.157" stroke="black"/>
<path d="M1763.65 578.736L1973.55 899.157" stroke="black"/>
<path d="M1763.65 476.968L1973.55 797.389" stroke="black"/>
<path d="M1763.65 491.587L1973.55 812.008" stroke="black"/>
<path d="M1763.65 505.587L1973.55 826.008" stroke="black"/>
<path d="M1763.65 520.587L1973.55 841.008" stroke="black"/>
<path d="M1763.65 418.043L1973.55 738.464" stroke="black"/>
<path d="M1763.65 432.662L1973.55 753.083" stroke="black"/>
<path d="M1763.65 446.662L1973.55 767.083" stroke="black"/>
<path d="M1763.65 461.662L1973.55 782.083" stroke="black"/>
<path d="M1763.65 10.9463L1973.55 331.367" stroke="black"/>
<path d="M1763.65 25.5654L1973.55 345.986" stroke="black"/>
<path d="M1763.65 39.5654L1973.55 359.986" stroke="black"/>
<path d="M1763.65 54.5654L1973.55 374.986" stroke="black"/>
<path d="M1763.65 67.9268L1973.55 388.348" stroke="black"/>
<path d="M1763.65 82.5459L1973.55 402.967" stroke="black"/>
<path d="M1763.65 96.5459L1973.55 416.967" stroke="black"/>
<path d="M1763.65 111.546L1973.55 431.967" stroke="black"/>
<path d="M1763.65 243.757L1973.55 564.178" stroke="black"/>
<path d="M1763.65 258.376L1973.55 578.797" stroke="black"/>
<path d="M1763.65 272.376L1973.55 592.797" stroke="black"/>
<path d="M1763.65 287.376L1973.55 607.797" stroke="black"/>
<path d="M1763.65 185.608L1973.55 506.029" stroke="black"/>
<path d="M1763.65 200.228L1973.55 520.648" stroke="black"/>
<path d="M1763.65 214.228L1973.55 534.648" stroke="black"/>
<path d="M1763.65 229.228L1973.55 549.648" stroke="black"/>
<path d="M1763.65 126.683L1973.55 447.104" stroke="black"/>
<path d="M1763.65 141.302L1973.55 461.723" stroke="black"/>
<path d="M1763.65 155.302L1973.55 475.723" stroke="black"/>
<path d="M1763.65 170.302L1973.55 490.723" stroke="black"/>
</mask>
<g mask="url(#mask8_1754_2274)">
<path d="M1780.44 402.122C1780.44 352.416 1820.74 312.122 1870.44 312.122H1922.95V613.008H1780.44V402.122Z" fill="#2B2935"/>
</g>
</g>
<g clip-path="url(#clip6_1754_2274)">
<circle cx="2404.87" cy="381.12" r="69" fill="#57546B"/>
<path d="M2135.77 311.966H2278.89L2474.92 612.852H2331.79L2135.77 311.966Z" fill="#1F1D29"/>
<mask id="mask9_1754_2274" style="mask-type:alpha" maskUnits="userSpaceOnUse" x="2118" y="302" width="212" height="598">
<path d="M2119.4 302.306L2329.3 622.727" stroke="black"/>
<path d="M2119.4 316.925L2329.3 637.346" stroke="black"/>
<path d="M2119.4 330.925L2329.3 651.346" stroke="black"/>
<path d="M2119.4 345.925L2329.3 666.346" stroke="black"/>
<path d="M2119.4 359.286L2329.3 679.707" stroke="black"/>
<path d="M2119.4 373.905L2329.3 694.326" stroke="black"/>
<path d="M2119.4 387.905L2329.3 708.326" stroke="black"/>
<path d="M2119.4 402.905L2329.3 723.326" stroke="black"/>
<path d="M2119.4 535.116L2329.3 855.537" stroke="black"/>
<path d="M2119.4 549.735L2329.3 870.156" stroke="black"/>
<path d="M2119.4 563.735L2329.3 884.156" stroke="black"/>
<path d="M2119.4 578.735L2329.3 899.156" stroke="black"/>
<path d="M2119.4 476.967L2329.3 797.388" stroke="black"/>
<path d="M2119.4 491.586L2329.3 812.007" stroke="black"/>
<path d="M2119.4 505.586L2329.3 826.007" stroke="black"/>
<path d="M2119.4 520.586L2329.3 841.007" stroke="black"/>
<path d="M2119.4 418.042L2329.3 738.463" stroke="black"/>
<path d="M2119.4 432.661L2329.3 753.082" stroke="black"/>
<path d="M2119.4 446.661L2329.3 767.082" stroke="black"/>
<path d="M2119.4 461.661L2329.3 782.082" stroke="black"/>
</mask>
<g mask="url(#mask9_1754_2274)">
<rect x="2136.39" y="311.966" width="142.506" height="300.886" fill="#2B2935"/>
</g>
<path d="M2335.87 612.516V381.481C2335.87 343.374 2366.76 312.481 2404.87 312.481C2442.98 312.481 2473.87 343.374 2473.87 381.481V612.517" stroke="#57546B"/>
</g>
<defs>
<clipPath id="clip0_1754_2274">
<rect width="340" height="300" fill="white" transform="translate(0.262695 1.10742)"/>
</clipPath>
<clipPath id="clip1_1754_2274">
<rect width="339.75" height="300.886" fill="white" transform="translate(356.263 0.664062)"/>
</clipPath>
<clipPath id="clip2_1754_2274">
<rect width="339.75" height="300.886" fill="white" transform="translate(1780.26 0.664062)"/>
</clipPath>
<clipPath id="clip3_1754_2274">
<rect width="340" height="300" fill="white" transform="translate(2136.01 1.10742)"/>
</clipPath>
<clipPath id="clip4_1754_2274">
<rect width="340" height="300" fill="white" transform="translate(1068.26 311.992)"/>
</clipPath>
<clipPath id="clip5_1754_2274">
<rect width="339.75" height="300.886" fill="white" transform="translate(1780.26 311.55)"/>
</clipPath>
<clipPath id="clip6_1754_2274">
<rect width="340" height="300" fill="white" transform="translate(2136.01 311.992)"/>
</clipPath>
</defs>
</svg>
