<svg height="100%" viewBox="0 0 1227 122" fill="none" xmlns="http://www.w3.org/2000/svg">
<path d="M1157 89L1157 121.261H1101V42.6166V23.9478L1101 0H1111.58H1123.37C1124.97 0 1126.45 0 1127.81 0C1136.16 0 1144.08 3.72833 1149.4 10.1673L1169.5 34.5L1169.5 0H1226.73L1225.5 121.261H1194.5H1184L1157 89Z" fill="currentColor"/>
<path d="M1028 121H972L1050.49 11.9963C1050.49 11.9963 1058 0.00824738 1072.42 0.00824738H1085.98H1098V121L1048 121L1048 95L1028 121Z" fill="currentColor"/>
<path d="M1074.35 81.1241H1028.89V52.0794H1074.35V81.1241Z" fill="currentColor"/>
<path d="M922.5 93.4995L952.5 93.4995L952.5 120.982H968L996.305 82.5V0L952.5 -1.52588e-05L952.5 26.9995L922.5 26.9995L922.5 -7.62939e-06H899.5L878 25.5V100.5L895.5 120.982H922.5L922.5 93.4995Z" fill="currentColor"/>
<path d="M761 0H808.154V34L833.791 8.24591C839.046 2.96743 846.187 0 853.635 0H896.563L842 63.5L892 121H831L818.559 107.269L804.665 121H761V0Z" fill="currentColor"/>
<path d="M637 89L637 121.261H581V42.6166V23.9478L581.004 0H591.577H603.37C604.972 0 606.452 0 607.813 0C616.165 0 624.08 3.72833 629.399 10.1673L649.5 34.5L649.5 0H706.73L705.5 121.261H674.5H664L637 89Z" fill="currentColor"/>
<path d="M507 121H451L529.488 11.9963C529.488 11.9963 536.998 0.00824738 551.423 0.00824738H564.978H577V121L527 121L527 95L507 121Z" fill="currentColor"/>
<path d="M553.349 81.1241H507.889V52.0794H553.349V81.1241Z" fill="currentColor"/>
<path d="M520.146 8.92703e-07L471.146 69V88.5L447.646 121H424.146V69C424.146 69 375.243 2.48044 374 0C386.757 0 401.12 5.52197e-06 414.509 3.26249e-06C420.599 2.23476e-06 426.357 2.77495 430.151 7.53846L447.646 29.5L471.146 0C486.864 2.86056e-05 504.428 -2.51121e-06 520.146 8.92703e-07Z" fill="currentColor"/>
<path d="M394 120.983H347.644V0.000473022H370L394 32.5V120.983Z" fill="currentColor"/>
<path d="M270.5 93.5L300.5 93.5L300.5 120.983L344.305 120.983V0.000473859L300.5 0.0004586L300.5 27L270.5 27L270.5 0.00046623L226 0.000473859L226 120.983H254H270.5L270.5 93.5Z" fill="currentColor"/>
<path d="M153 121H97L175.488 11.9889C175.488 11.9889 182.998 -2.77549e-06 197.423 -2.77549e-06H210.978H223V121L173 121L173 94.9982L153 121Z" fill="currentColor"/>
<path d="M199.349 81.1241H153.889V52.0794H199.349V81.1241Z" fill="currentColor"/>
<path d="M55.6751 88.8087L55.6751 121H0V42.525V23.8963L0.0041637 0H10.5153H22.2398C23.7915 0 25.2267 0 26.5505 0C34.9201 0 42.8495 3.74403 48.1682 10.2062L68.1025 34.4258L68.1025 0H125L125 77.3334L92.9575 121H82.5184L55.6751 88.8087Z" fill="currentColor"/>
</svg>
