<svg xmlns="http://www.w3.org/2000/svg" width="100%" fill="currentColor" viewBox="0 0 836 83"><path fill="currentColor" d="M141.251 83h35.808L123.451 8.224S118.322 0 108.469 0H91v83h26.661l.343-35.031 23.247 35.03Z"/><path fill="currentColor" d="M106.875 55.525h30.869V35.643h-30.869v19.882ZM337.808 83H302l53.608-74.776S360.737 0 370.59 0h17.469v83h-26.662l-.342-35.031L337.808 83Z"/><path fill="currentColor" d="M372.183 55.526h-30.869V35.644h30.869v19.882ZM26.792 47.97V83H0V16.392L.003.001H15.31c8.684 0 16.44 11.78 16.44 11.78L57.41 51.354 56.866.001h29.193v83H51.66L26.79 47.968ZM419.792 47.97V83H393V16.392l.003-16.391H407c11.48 0 17.752 11.78 17.752 11.78l25.657 39.572-.543-51.352h29.193v83h-34.398l-24.869-35.032ZM775.792 47.97V83H749V16.392l.003-16.391H763c11.48 0 17.752 11.78 17.752 11.78l25.657 39.572-.543-51.352h29.193v83h-34.398l-24.869-35.032ZM693.391 83h-35.808l53.608-74.776S716.32 0 726.173 0h17.469v83H716.98l-.342-35.031L693.391 83Z"/><path fill="currentColor" d="M727.766 55.525h-30.869V35.644h30.869v19.881ZM657.888 55.496h-27.31V82.81h-26.833V0h26.833v29.3h27.31V0h26.834v38.275L657.888 75.24V55.496ZM176.833 55.496h27.311V82.81h26.833V0h-26.833v29.3h-27.311V0H150v38.275l26.833 36.964V55.496ZM262.833 82.81H236V0h26.833v82.81ZM265 82.708l30-42.014L266.782 0h21.437a16 16 0 0 1 13.313 7.125l8.25 12.375 14-19.5h32.5l-60.5 82.708H265ZM516 0h26.792v30.027l13.033-18.259L564.226 0h32.48L568 39l30.281 44h-32.638l-13.862-21.5L536.099 83H516V0Z"/></svg>