<svg height="100" viewBox="0 0 1212 100" fill="none" xmlns="http://www.w3.org/2000/svg">
<path d="M1143 73.1444L1143 100H1101L1101 0.0143794H1131.5L1166.5 42.1571V0.0143794H1211.5V100H1184.96H1166.5L1143 73.1444Z" fill="currentColor"/>
<path d="M1027 100H971L1049.49 9.92112C1049.49 9.92112 1057 0.0143794 1071.42 0.0143794H1084.98H1097V100L1047 100L1047 78.514L1027 100Z" fill="currentColor"/>
<path d="M1074.35 67.0472H1028.89V43.0451H1074.35V67.0472Z" fill="currentColor"/>
<path d="M921.5 75.6233H951.5V100H967.5L991.5 72.318V0.0143803L951.5 0.0143929V24.391H921.5V0.0143803H893L883 11.1698V89.2577L892.5 100H905.344L921.5 100V75.6233Z" fill="currentColor"/>
<path d="M761 0.0143794H802V36.786L835.5 0.0143794H889L845.5 50.0072L889 100H835.5L819 80.5813L802 100H761V0.0143794Z" fill="currentColor"/>
<path d="M607 73.1444L607 100H565L565.004 0.0143794H595.5L630.5 42.1571V0.0143794H675.5V100H648.957H630.5L607 73.1444Z" fill="currentColor"/>
<path d="M491 100H435L513.488 9.92112C513.488 9.92112 520.998 0.0143794 535.423 0.0143794H548.978H561V100L511 100L511 78.514L491 100Z" fill="currentColor"/>
<path d="M537.348 67.0472H491.888V43.0451H537.348V67.0472Z" fill="currentColor"/>
<path d="M503.146 0.0143745L454.146 57.031V73.1444L430.646 100H407.146V57.031C407.146 57.031 358.243 2.06403 357 0.0143738C372.885 0.0143738 391.261 0.0143809 407.146 0.0143738L430.646 24.391L454.146 0.0143738C469.864 0.0143974 487.428 0.0143717 503.146 0.0143745Z" fill="currentColor"/>
<path d="M376.356 99.9856H330V1.12229e-05H352.356L376.356 26.8592V99.9856Z" fill="currentColor"/>
<path d="M256.5 75.6197L286.5 75.6197L286.5 99.9856L326.305 99.9856V1.8434e-05L286.5 5.82336e-06L286.5 24.3798L256.5 24.3799L256.5 1.21287e-05L218 1.8434e-05L218 99.9856H240H256.5L256.5 75.6197Z" fill="currentColor"/>
<path d="M144 100H88L166.488 9.92112C166.488 9.92112 173.998 0.0143794 188.423 0.0143794H201.978H214V100L164 100L164 78.514L144 100Z" fill="currentColor"/>
<path d="M199.348 67.0495H153.888V43.049H199.348V67.0495Z" fill="currentColor"/>
<path d="M42 73.1444L42 100H0L0.00416374 0.0143794H30.5L65.5 42.1571V0.0143794H110.5V70.2522L83.9575 100H65.5L42 73.1444Z" fill="currentColor"/>
</svg>
