<svg height="100%" viewBox="0 0 1188 334" fill="none" xmlns="http://www.w3.org/2000/svg">
<g id="nahiyan-khan">
<g id="nahiyan">
<g id="Frame 58">
<path id="n" d="M94.7036 143.037C93.523 141.56 91.1414 142.395 91.1414 144.286V163C91.1414 164.105 90.246 165 89.1414 165L2.00009 165C0.895485 165 3.84461e-05 164.104 8.58705e-05 163L0.00699815 1.99991C0.00704557 0.895373 0.902462 0 2.007 0H75.1281C75.7394 0 76.3171 0.279541 76.6964 0.758874L93.4459 21.9238C94.6224 23.4105 97.0142 22.5785 97.0142 20.6827V2C97.0142 0.895431 97.9096 0 99.0142 0H186C187.105 0 188 0.895431 188 2V67.5008C188 67.9475 187.85 68.3813 187.575 68.7331L113.818 163.008C113.023 164.025 111.487 164.033 110.681 163.025L94.7036 143.037Z" fill="currentColor"/>
</g>
<path id="a" d="M207.868 164.304C207.488 164.746 206.935 165 206.352 165L121.122 165C119.452 165 118.517 163.074 119.551 161.762L234.068 16.4007C234.095 16.3659 234.12 16.3325 234.146 16.2964C234.859 15.2885 246.023 0 266.838 0H287.063H303C304.105 0 305 0.895432 305 2V163C305 164.105 304.105 165 303 165L231.714 165C230.609 165 229.714 164.105 229.714 163V144.281C229.714 142.426 227.407 141.57 226.197 142.978L207.868 164.304Z" fill="currentColor"/>
<path id="h" d="M387.893 140.367C387.893 139.262 388.788 138.367 389.893 138.367H416.317C417.422 138.367 418.317 139.262 418.317 140.367V163C418.317 164.105 419.213 165 420.317 165H495C496.105 165 497 164.105 497 163V2.00001C497 0.89544 496.105 1.08913e-05 495 1.07366e-05L420.317 2.80027e-07C419.213 1.25372e-07 418.317 0.895431 418.317 2V24.536C418.317 25.6406 417.422 26.536 416.317 26.536H389.893C388.788 26.536 387.893 25.6406 387.893 24.536V2.00001C387.893 0.895444 386.997 1.10167e-05 385.893 1.10167e-05H311C309.895 1.10167e-05 309 0.895442 309 2.00001V163C309 164.105 309.895 165 311 165H385.893C386.997 165 387.893 164.105 387.893 163V140.367Z" fill="currentColor"/>
<path id="h_2" d="M660.933 95.7589C659.674 95.7589 658.654 94.9731 658.654 94.0036V70.812C658.654 69.8426 659.674 69.0567 660.933 69.0567H686.721C687.98 69.0567 689 68.2708 689 67.3014V1.75532C689 0.785883 687.98 0 686.721 0H503.279C502.02 0 501 0.785883 501 1.75532L501 67.3014C501 68.2708 502.02 69.0567 503.279 69.0567H528.956C530.215 69.0567 531.235 69.8426 531.235 70.812V94.0036C531.235 94.973 530.215 95.7589 528.956 95.7589H503.279C502.02 95.7589 501 96.5448 501 97.5142V163.245C501 164.214 502.02 165 503.279 165H686.721C687.98 165 689 164.214 689 163.245V97.5143C689 96.5448 687.98 95.7589 686.721 95.7589H660.933Z" fill="currentColor"/>
<g id="Frame 56">
<path id="k" d="M801.917 165C802.534 165 803.116 164.715 803.495 164.228L880.578 65.1948C880.852 64.8436 881 64.4114 881 63.9664V1.75532C881 0.785888 879.98 6.24126e-06 878.721 6.19888e-06H808.932C808.32 6.19888e-06 807.741 0.28061 807.362 0.761487L788.511 24.6629C787.71 25.6787 786.17 25.6781 785.37 24.6615L766.554 0.762821C766.175 0.28115 765.596 0 764.983 0L695.279 0C694.02 -4.23754e-08 693 0.785882 693 1.75532V69.3883C693 69.8387 693.152 70.276 693.432 70.6292L747.242 138.642V163C747.242 164.105 748.137 165 749.242 165H801.917Z" fill="currentColor"/>
</g>
<g id="Frame 55">
<path id="a_2" d="M898.868 164.304C898.488 164.746 897.935 165 897.352 165L812.122 165C810.452 165 809.517 163.074 810.551 161.762L925.068 16.4007C925.095 16.3659 925.12 16.3325 925.146 16.2964C925.859 15.2885 937.023 0 957.838 0H978.063H994C995.105 0 996 0.895432 996 2V163C996 164.105 995.105 165 994 165L922.714 165C921.609 165 920.714 164.105 920.714 163V144.281C920.714 142.426 918.407 141.57 917.197 142.978L898.868 164.304Z" fill="currentColor"/>
</g>
<path id="n_2" d="M1094.7 143.037C1093.52 141.56 1091.14 142.395 1091.14 144.286V163C1091.14 164.105 1090.25 165 1089.14 165L1002 165C1000.9 165 1000 164.104 1000 163L1000.01 1.99991C1000.01 0.895373 1000.9 0 1002.01 0H1075.13C1075.74 0 1076.32 0.279541 1076.7 0.758874L1093.45 21.9238C1094.62 23.4105 1097.01 22.5785 1097.01 20.6827V2C1097.01 0.895431 1097.91 0 1099.01 0H1186C1187.1 0 1188 0.895431 1188 2V163C1188 164.105 1187.1 165 1186 165L1113.22 165C1112.61 165 1112.04 164.724 1111.66 164.249L1094.7 143.037Z" fill="currentColor"/>
</g>
<g id="khan">
<path id="k_2" d="M501 171C501 169.895 501.895 169 503 169H577.311C578.415 169 579.311 169.895 579.311 171V196.497C579.311 197.601 580.206 198.497 581.311 198.497H586.379C586.992 198.497 587.57 198.216 587.95 197.735L610.01 169.762C610.39 169.281 610.968 169 611.581 169H647.372H687C688.105 169 689 169.895 689 171V229.409C689 229.85 688.854 230.278 688.586 230.628L673.213 250.622C672.653 251.35 672.661 252.366 673.233 253.085L688.566 272.384C688.847 272.738 689 273.177 689 273.629V332C689 333.105 688.105 334 687 334H637.489H609.147C608.53 334 607.948 333.715 607.569 333.228L586.95 306.737C586.571 306.25 585.988 305.965 585.371 305.965H581.311C580.206 305.965 579.311 306.861 579.311 307.965V332C579.311 333.105 578.415 334 577.311 334H503C501.895 334 501 333.105 501 332V171Z" fill="currentColor" fill-opacity="0.5"/>
<g id="Frame 57">
<path id="h_3" d="M771.893 309.367C771.893 308.262 772.788 307.367 773.893 307.367H800.317C801.422 307.367 802.317 308.262 802.317 309.367V328.24C802.317 330.137 804.711 330.968 805.887 329.479L880.57 234.896C880.848 234.543 881 234.107 881 233.657V171C881 169.895 880.105 169 879 169L804.317 169C803.213 169 802.317 169.895 802.317 171V193.536C802.317 194.641 801.422 195.536 800.317 195.536H773.893C772.788 195.536 771.893 194.641 771.893 193.536V171C771.893 169.895 770.997 169 769.893 169H695C693.895 169 693 169.895 693 171V332C693 333.105 693.895 334 695 334H769.893C770.997 334 771.893 333.105 771.893 332V309.367Z" fill="currentColor" fill-opacity="0.5"/>
</g>
<path id="a_3" d="M898.868 333.304C898.488 333.746 897.935 334 897.352 334L812.122 334C810.452 334 809.517 332.074 810.551 330.762L925.068 185.401C925.095 185.366 925.12 185.333 925.146 185.296C925.859 184.289 937.023 169 957.838 169H978.063H994C995.105 169 996 169.895 996 171V332C996 333.105 995.105 334 994 334L922.714 334C921.609 334 920.714 333.105 920.714 332V313.281C920.714 311.426 918.407 310.57 917.197 311.978L898.868 333.304Z" fill="currentColor" fill-opacity="0.5"/>
<path id="n_3" d="M1094.7 312.037C1093.52 310.56 1091.14 311.395 1091.14 313.286V332C1091.14 333.105 1090.25 334 1089.14 334L1002 334C1000.9 334 1000 333.104 1000 332L1000.01 171C1000.01 169.895 1000.9 169 1002.01 169H1075.13C1075.74 169 1076.32 169.28 1076.7 169.759L1093.45 190.924C1094.62 192.41 1097.01 191.579 1097.01 189.683V171C1097.01 169.895 1097.91 169 1099.01 169H1186C1187.1 169 1188 169.895 1188 171V332C1188 333.105 1187.1 334 1186 334L1113.22 334C1112.61 334 1112.04 333.724 1111.66 333.249L1094.7 312.037Z" fill="currentColor" fill-opacity="0.5"/>
</g>
</g>
</svg>
