<svg width="100%" viewBox="0 0 1148 334" fill="none" xmlns="http://www.w3.org/2000/svg">
<path id="n" d="M94.7036 143.037C93.523 141.56 91.1414 142.395 91.1414 144.286V163C91.1414 164.105 90.246 165 89.1414 165L2.00009 165C0.895485 165 3.84461e-05 164.104 8.58705e-05 163L0.00699815 1.99991C0.00704557 0.895373 0.902462 0 2.007 0H75.1281C75.7394 0 76.3171 0.279541 76.6964 0.758874L93.4459 21.9238C94.6224 23.4105 97.0142 22.5785 97.0142 20.6827V2C97.0142 0.895431 97.9096 0 99.0142 0H186C187.105 0 188 0.895431 188 2V163C188 164.105 187.105 165 186 165L113.221 165C112.614 165 112.039 164.724 111.659 164.249L94.7036 143.037Z" fill="currentColor"/>
<path id="a" d="M282.868 164.304C282.488 164.746 281.935 165 281.352 165L196.122 165C194.452 165 193.517 163.074 194.551 161.762L309.068 16.4007C309.095 16.3659 309.12 16.3325 309.146 16.2964C309.859 15.2885 321.023 0 341.838 0H362.063H378C379.105 0 380 0.895431 380 2V163C380 164.105 379.105 165 378 165L306.714 165C305.609 165 304.714 164.105 304.714 163V144.281C304.714 142.426 302.407 141.57 301.197 142.978L282.868 164.304Z" fill="currentColor"/>
<path id="h" d="M462.893 140.367C462.893 139.262 463.788 138.367 464.893 138.367H491.317C492.422 138.367 493.317 139.262 493.317 140.367V163C493.317 164.105 494.213 165 495.317 165H570C571.105 165 572 164.105 572 163V2.00001C572 0.89544 571.105 1.08913e-05 570 1.07366e-05L495.317 2.80027e-07C494.213 1.25372e-07 493.317 0.895431 493.317 2V24.536C493.317 25.6406 492.422 26.536 491.317 26.536H464.893C463.788 26.536 462.893 25.6406 462.893 24.536V2.00001C462.893 0.895444 461.997 1.10167e-05 460.893 1.10167e-05H386C384.895 1.10167e-05 384 0.895442 384 2.00001V163C384 164.105 384.895 165 386 165H460.893C461.997 165 462.893 164.105 462.893 163V140.367Z" fill="currentColor"/>
<path id="h_2" d="M735.933 95.7589C734.674 95.7589 733.654 94.9731 733.654 94.0036V70.812C733.654 69.8426 734.674 69.0567 735.933 69.0567H761.721C762.98 69.0567 764 68.2708 764 67.3014V1.75532C764 0.785883 762.98 0 761.721 0H578.279C577.02 0 576 0.785883 576 1.75532L576 67.3014C576 68.2708 577.02 69.0567 578.279 69.0567H603.956C605.215 69.0567 606.235 69.8426 606.235 70.812V94.0036C606.235 94.973 605.215 95.7589 603.956 95.7589H578.279C577.02 95.7589 576 96.5448 576 97.5142V163.245C576 164.214 577.02 165 578.279 165H761.721C762.98 165 764 164.214 764 163.245V97.5143C764 96.5448 762.98 95.7589 761.721 95.7589H735.933Z" fill="currentColor"/>
<path id="a_2" d="M858.868 164.304C858.488 164.746 857.935 165 857.352 165L772.122 165C770.452 165 769.517 163.074 770.551 161.762L885.068 16.4007C885.095 16.3659 885.12 16.3325 885.146 16.2964C885.859 15.2885 897.023 0 917.838 0H938.063H954C955.105 0 956 0.895431 956 2V163C956 164.105 955.105 165 954 165L882.714 165C881.609 165 880.714 164.105 880.714 163V144.281C880.714 142.426 878.407 141.57 877.197 142.978L858.868 164.304Z" fill="currentColor"/>
<path id="n_2" d="M1054.7 143.037C1053.52 141.56 1051.14 142.395 1051.14 144.286V163C1051.14 164.105 1050.25 165 1049.14 165L962 165C960.895 165 960 164.104 960 163L960.007 1.99991C960.007 0.895373 960.902 0 962.007 0H1035.13C1035.74 0 1036.32 0.279541 1036.7 0.758874L1053.45 21.9238C1054.62 23.4105 1057.01 22.5785 1057.01 20.6827V2C1057.01 0.895431 1057.91 0 1059.01 0H1146C1147.1 0 1148 0.895431 1148 2V163C1148 164.105 1147.1 165 1146 165L1073.22 165C1072.61 165 1072.04 164.724 1071.66 164.249L1054.7 143.037Z" fill="currentColor"/>
<path id="k" d="M384 171C384 169.895 384.895 169 386 169H460.311C461.415 169 462.311 169.895 462.311 171V196.497C462.311 197.601 463.206 198.497 464.311 198.497H469.379C469.992 198.497 470.57 198.216 470.95 197.735L493.01 169.762C493.39 169.281 493.968 169 494.581 169H530.372H570C571.105 169 572 169.895 572 171V229.409C572 229.85 571.854 230.278 571.586 230.628L556.213 250.622C555.653 251.35 555.661 252.366 556.233 253.085L571.566 272.384C571.847 272.738 572 273.177 572 273.629V332C572 333.105 571.105 334 570 334H520.489H492.147C491.53 334 490.948 333.715 490.569 333.228L469.95 306.737C469.571 306.25 468.988 305.965 468.371 305.965H464.311C463.206 305.965 462.311 306.861 462.311 307.965V332C462.311 333.105 461.415 334 460.311 334H386C384.895 334 384 333.105 384 332V171Z" fill="currentColor" fill-opacity="0.5"/>
<path id="h_3" d="M654.893 309.367C654.893 308.262 655.788 307.367 656.893 307.367H683.317C684.422 307.367 685.317 308.262 685.317 309.367V332C685.317 333.105 686.213 334 687.317 334H762C763.105 334 764 333.105 764 332V171C764 169.895 763.105 169 762 169L687.317 169C686.213 169 685.317 169.895 685.317 171V193.536C685.317 194.641 684.422 195.536 683.317 195.536H656.893C655.788 195.536 654.893 194.641 654.893 193.536V171C654.893 169.895 653.997 169 652.893 169H578C576.895 169 576 169.895 576 171V332C576 333.105 576.895 334 578 334H652.893C653.997 334 654.893 333.105 654.893 332V309.367Z" fill="currentColor" fill-opacity="0.5"/>
<path id="a_3" d="M858.868 333.304C858.488 333.746 857.935 334 857.352 334L772.122 334C770.452 334 769.517 332.074 770.551 330.762L885.068 185.401C885.095 185.366 885.12 185.332 885.146 185.296C885.859 184.289 897.023 169 917.838 169H938.063H954C955.105 169 956 169.895 956 171V332C956 333.105 955.105 334 954 334L882.714 334C881.609 334 880.714 333.105 880.714 332V313.281C880.714 311.426 878.407 310.57 877.197 311.978L858.868 333.304Z" fill="currentColor" fill-opacity="0.5"/>
<path id="n_3" d="M1054.7 312.037C1053.52 310.56 1051.14 311.395 1051.14 313.286V332C1051.14 333.105 1050.25 334 1049.14 334L962 334C960.895 334 960 333.104 960 332L960.007 171C960.007 169.895 960.902 169 962.007 169H1035.13C1035.74 169 1036.32 169.28 1036.7 169.759L1053.45 190.924C1054.62 192.41 1057.01 191.579 1057.01 189.683V171C1057.01 169.895 1057.91 169 1059.01 169H1146C1147.1 169 1148 169.895 1148 171V332C1148 333.105 1147.1 334 1146 334L1073.22 334C1072.61 334 1072.04 333.724 1071.66 333.249L1054.7 312.037Z" fill="currentColor" fill-opacity="0.5"/>
</svg>
