<svg height="100" viewBox="0 0 1212 100" fill="none" xmlns="http://www.w3.org/2000/svg">
<path d="M1031.5 100L971 100L1049.49 9.9211C1049.49 9.9211 1057 0.0143661 1071.42 0.0143661H1084.98H1097V100L1043.5 100V87L1031.5 100Z" fill="currentColor"/>
<path d="M1149.5 87V100L1101 100L1101 0.0143661H1144L1159.5 13V0.0143661H1211.5V70.2522V100H1164L1149.5 87Z" fill="currentColor"/>
<path d="M761 0.0143814H810.5V13.5L824.5 0.0143814H889L845.5 50.0072L889 100H830L819 87L806.5 100H761V0.0143814Z" fill="currentColor"/>
<path d="M927.5 87H946.5L946.5 99.9856L967.5 99.9856L991.305 73V1.52588e-05L946.5 7.62939e-06L946.5 13L927.5 13L927.5 1.52588e-05H892.5L883 11V89L892.5 99.9856L905 99.9856L927.5 99.9856L927.5 87Z" fill="currentColor"/>
<path d="M495.5 100L435 100L513.488 9.9211C513.488 9.9211 520.998 0.0143661 535.423 0.0143661H548.978H561V100L507.5 100V87L495.5 100Z" fill="currentColor"/>
<path d="M613.5 87V100L565 100L565.004 0.0143661H608L623.5 13V0.0143661H675.5V70.2522V100H628L613.5 87Z" fill="currentColor"/>
<path d="M503.146 0.0143745L454.146 57.031V73.1444L430.646 100H407.146V57.031C407.146 57.031 358.243 2.06403 357 0.0143738C372.885 0.0143738 402.115 0.0143809 418 0.0143738L430.646 13L443 0.0143738C458.718 0.0143974 487.428 0.0143717 503.146 0.0143745Z" fill="currentColor"/>
<path d="M376.356 99.9856H330V1.12229e-05H352.356L376.356 26.8592V99.9856Z" fill="currentColor"/>
<path d="M262.5 87H281.5L281.5 99.9856L326.305 99.9856V1.52588e-05L281.5 7.62939e-06L281.5 13L262.5 13L262.5 1.52588e-05H218L218 99.9856H240L262.5 99.9856L262.5 87Z" fill="currentColor"/>
<path d="M148.5 100L88 100L166.488 9.9211C166.488 9.9211 173.998 0.0143661 188.423 0.0143661H201.978H214V100L160.5 100V87L148.5 100Z" fill="currentColor"/>
<path d="M48.5 87V100L0 100L0.00416374 0.0143661H43L58.5 13V0.0143661H110.5V70.2522L83.9575 100H63L48.5 87Z" fill="currentColor"/>
</svg>
