<svg height="100%" viewBox="0 0 241 100" fill="none" xmlns="http://www.w3.org/2000/svg">
<path d="M51.8351 89.9901C50.5472 88.8354 48.5 89.7495 48.5 91.4792V100L0 100L0.00416374 0.0143661H43L55.2156 10.2484C56.5173 11.3389 58.5 10.4134 58.5 8.71531V0.0143661H110.5V70.2522V100H63L51.8351 89.9901Z" fill="currentColor"/>
<path d="M116 0.0143814H167.5V8.24379C167.5 10.0823 169.772 10.9468 170.994 9.57331L179.5 0.0143814H240.5L197 50.0072L240.5 100H176.296L166.803 88.7805C166.011 87.8445 164.571 87.835 163.767 88.7606L154 100H116V0.0143814Z" fill="currentColor"/>
</svg>
