<svg width="691" height="300" viewBox="0 0 691 300" fill="none" xmlns="http://www.w3.org/2000/svg">
<g clip-path="url(#clip0_1754_4623)">
<circle cx="269.239" cy="69.1279" r="69" fill="black"/>
<path d="M0.137695 -0.0263672H143.263L339.287 300.859H196.162L0.137695 -0.0263672Z" fill="white"/>
<mask id="mask0_1754_4623" style="mask-type:alpha" maskUnits="userSpaceOnUse" x="-17" y="-10" width="212" height="598">
<path d="M-16.2295 -9.68652L193.667 310.734" stroke="black"/>
<path d="M-16.2295 4.93262L193.667 325.354" stroke="black"/>
<path d="M-16.2295 18.9326L193.667 339.354" stroke="black"/>
<path d="M-16.2295 33.9326L193.667 354.354" stroke="black"/>
<path d="M-16.2295 47.2939L193.667 367.715" stroke="black"/>
<path d="M-16.2295 61.9131L193.667 382.334" stroke="black"/>
<path d="M-16.2295 75.9131L193.667 396.334" stroke="black"/>
<path d="M-16.2295 90.9131L193.667 411.334" stroke="black"/>
<path d="M-16.2295 223.124L193.667 543.545" stroke="black"/>
<path d="M-16.2295 237.743L193.667 558.164" stroke="black"/>
<path d="M-16.2295 251.743L193.667 572.164" stroke="black"/>
<path d="M-16.2295 266.743L193.667 587.164" stroke="black"/>
<path d="M-16.2295 164.975L193.667 485.396" stroke="black"/>
<path d="M-16.2295 179.594L193.667 500.015" stroke="black"/>
<path d="M-16.2295 193.594L193.667 514.015" stroke="black"/>
<path d="M-16.2295 208.594L193.667 529.015" stroke="black"/>
<path d="M-16.2295 106.05L193.667 426.471" stroke="black"/>
<path d="M-16.2295 120.669L193.667 441.09" stroke="black"/>
<path d="M-16.2295 134.669L193.667 455.09" stroke="black"/>
<path d="M-16.2295 149.669L193.667 470.09" stroke="black"/>
</mask>
<g mask="url(#mask0_1754_4623)">
<rect x="0.756348" y="-0.0263672" width="142.506" height="300.886" fill="#8A8A8A"/>
</g>
<path d="M200.239 300.524V69.4893C200.239 31.3816 231.131 0.489258 269.239 0.489258C307.346 0.489258 338.239 31.3816 338.239 69.4893V300.525" stroke="#8A8A8A"/>
</g>
<g clip-path="url(#clip1_1754_4623)">
<path d="M689.531 -0.885742H546.406L350.382 300H493.507L689.531 -0.885742Z" fill="white"/>
<mask id="mask1_1754_4623" style="mask-type:alpha" maskUnits="userSpaceOnUse" x="333" y="-302" width="212" height="890">
<path d="M333.771 -9.57129L543.667 310.85" stroke="black"/>
<path d="M333.771 5.04785L543.667 325.469" stroke="black"/>
<path d="M333.771 19.0479L543.667 339.469" stroke="black"/>
<path d="M333.771 34.0479L543.667 354.469" stroke="black"/>
<path d="M333.771 47.4092L543.667 367.83" stroke="black"/>
<path d="M333.771 62.0283L543.667 382.449" stroke="black"/>
<path d="M333.771 76.0283L543.667 396.449" stroke="black"/>
<path d="M333.771 91.0283L543.667 411.449" stroke="black"/>
<path d="M333.771 223.239L543.667 543.66" stroke="black"/>
<path d="M333.771 237.858L543.667 558.279" stroke="black"/>
<path d="M333.771 251.858L543.667 572.279" stroke="black"/>
<path d="M333.771 266.858L543.667 587.279" stroke="black"/>
<path d="M333.771 165.09L543.667 485.511" stroke="black"/>
<path d="M333.771 179.709L543.667 500.13" stroke="black"/>
<path d="M333.771 193.709L543.667 514.13" stroke="black"/>
<path d="M333.771 208.709L543.667 529.13" stroke="black"/>
<path d="M333.771 106.165L543.667 426.586" stroke="black"/>
<path d="M333.771 120.784L543.667 441.205" stroke="black"/>
<path d="M333.771 134.784L543.667 455.205" stroke="black"/>
<path d="M333.771 149.784L543.667 470.205" stroke="black"/>
<path d="M333.771 -300.932L543.667 19.4893" stroke="black"/>
<path d="M333.771 -286.312L543.667 34.1084" stroke="black"/>
<path d="M333.771 -272.312L543.667 48.1084" stroke="black"/>
<path d="M333.771 -257.312L543.667 63.1084" stroke="black"/>
<path d="M333.771 -243.951L543.667 76.4697" stroke="black"/>
<path d="M333.771 -229.332L543.667 91.0889" stroke="black"/>
<path d="M333.771 -215.332L543.667 105.089" stroke="black"/>
<path d="M333.771 -200.332L543.667 120.089" stroke="black"/>
<path d="M333.771 -68.1211L543.667 252.3" stroke="black"/>
<path d="M333.771 -53.502L543.667 266.919" stroke="black"/>
<path d="M333.771 -39.502L543.667 280.919" stroke="black"/>
<path d="M333.771 -24.502L543.667 295.919" stroke="black"/>
<path d="M333.771 -126.27L543.667 194.151" stroke="black"/>
<path d="M333.771 -111.65L543.667 208.771" stroke="black"/>
<path d="M333.771 -97.6504L543.667 222.771" stroke="black"/>
<path d="M333.771 -82.6504L543.667 237.771" stroke="black"/>
<path d="M333.771 -185.195L543.667 135.226" stroke="black"/>
<path d="M333.771 -170.576L543.667 149.845" stroke="black"/>
<path d="M333.771 -156.576L543.667 163.845" stroke="black"/>
<path d="M333.771 -141.576L543.667 178.845" stroke="black"/>
</mask>
<g mask="url(#mask1_1754_4623)">
<path d="M350.382 0.177734H492.888V81.2749L350.382 299.971V0.177734Z" fill="#8A8A8A"/>
</g>
<circle cx="621.913" cy="230.484" r="69" fill="black"/>
<path d="M501.09 68.6702L659.94 172.857C691.717 193.891 700.426 236.703 679.392 268.48C658.359 300.257 615.547 308.966 583.77 287.932L425.788 184.264" stroke="#8A8A8A"/>
</g>
<defs>
<clipPath id="clip0_1754_4623">
<rect width="340" height="300" fill="white" transform="translate(0.381348)"/>
</clipPath>
<clipPath id="clip1_1754_4623">
<rect width="340" height="300" fill="white" transform="translate(350.381)"/>
</clipPath>
</defs>
</svg>
