<svg height="100%" viewBox="0 0 382 166" fill="none" xmlns="http://www.w3.org/2000/svg">
<path d="M193.659 2.0552C193.659 0.950635 194.554 0.0552063 195.659 0.0552063H269.969C271.074 0.0552063 271.969 0.950637 271.969 2.05521V27.5519C271.969 28.6565 272.865 29.5519 273.969 29.5519H279.038C279.65 29.5519 280.229 29.2713 280.608 28.7904L302.669 0.816747C303.048 0.335835 303.627 0.0552063 304.239 0.0552063H340.031H379.659C380.763 0.0552063 381.659 0.950637 381.659 2.05521V60.4641C381.659 60.9051 381.513 61.3336 381.244 61.6832L365.872 81.6775C365.312 82.4056 365.32 83.4215 365.891 84.1407L381.225 103.44C381.506 103.793 381.659 104.232 381.659 104.684V163.055C381.659 164.16 380.763 165.055 379.659 165.055H330.148H301.806C301.189 165.055 300.606 164.77 300.227 164.284L279.608 137.792C279.229 137.305 278.647 137.021 278.03 137.021H273.969C272.865 137.021 271.969 137.916 271.969 139.021V163.055C271.969 164.16 271.074 165.055 269.969 165.055H195.659C194.554 165.055 193.659 164.16 193.659 163.055V2.0552Z" fill="currentColor"/>
<path d="M95.4671 143.092C94.2864 141.615 91.9048 142.45 91.9048 144.341V163.055C91.9048 164.16 91.0094 165.055 89.9048 165.055L2.76352 165.055C1.65891 165.055 0.763466 164.16 0.763514 163.055L0.770426 2.05508C0.770473 0.950549 1.66589 0.0551758 2.77043 0.0551758H75.8915C76.5028 0.0551758 77.0805 0.334717 77.4599 0.81405L94.2093 21.979C95.3858 23.4656 97.7776 22.6337 97.7776 20.7379V2.05518C97.7776 0.950607 98.673 0.0551758 99.7776 0.0551758H186.763C187.868 0.0551758 188.763 0.950606 188.763 2.05518V163.055C188.763 164.16 187.868 165.055 186.763 165.055L113.985 165.055C113.377 165.055 112.802 164.779 112.423 164.304L95.4671 143.092Z" fill="currentColor"/>
</svg>
