<svg height="100%" viewBox="0 0 548 121" fill="none" xmlns="http://www.w3.org/2000/svg">
<g clip-path="url(#clip0_1239_2458)">
<path fill-rule="evenodd" clip-rule="evenodd" d="M494.618 0H430V121H472.673V85.1878L475.5 85.1879L499 121L547.381 121L516.601 77.6517C530.743 70.9221 538.176 57.3703 538.176 41.537C538.176 18.8744 522.947 0 494.618 0ZM489.967 32.0475H470V50.076H489.967C492.392 50.076 494.718 49.1263 496.433 47.4358C498.148 45.7453 499.111 43.4525 499.111 41.0618C499.111 38.671 498.148 36.3782 496.433 34.6877C494.718 32.9972 492.392 32.0475 489.967 32.0475Z" fill="currentColor"/>
<path d="M423 0H341V121H423V81.6253H386.949V75.0989L405.288 75.0989V44.6163L386.949 44.6162V38.4655H423V0Z" fill="currentColor"/>
<path d="M260.5 93.4999L290.5 93.4999L290.5 120.983L334.305 120.983V0.000397565L290.5 0.000382306L290.5 26.9999L260.5 26.9999L260.5 0.000389936L216 0.000397565L216 120.983H244H260.5L260.5 93.4999Z" fill="currentColor"/>
<path d="M155.237 43.4121H123V0H248L215.884 43.4121H198.851V121H162.035H155.237V43.4121Z" fill="currentColor"/>
<mask id="mask0_1239_2458" style="mask-type:alpha" maskUnits="userSpaceOnUse" x="0" y="0" width="135" height="120">
<path d="M118 0H0V120H134.5V49H118V0Z" fill="#D9D9D9"/>
</mask>
<g mask="url(#mask0_1239_2458)">
<path fill-rule="evenodd" clip-rule="evenodd" d="M65.5026 0C101.322 0 128.984 24.3316 128.984 59.9798C128.984 95.628 101.365 119.96 65.5026 119.96C29.6403 119.96 2 95.628 2 59.9798C2 24.3316 29.6615 0 65.5026 0ZM65.6772 39.0042C53.7531 39.0042 45.7109 48.5937 45.7109 59.9365C45.7109 71.2792 53.7531 80.8687 65.6772 80.8687C77.6013 80.8687 85.6434 71.2792 85.6434 59.9365C85.6434 48.5937 77.5164 39.0042 65.6772 39.0042Z" fill="currentColor"/>
</g>
</g>
<defs>
<clipPath id="clip0_1239_2458">
<rect width="548" height="121" fill="currentColor"/>
</clipPath>
</defs>
</svg>
