<svg height="100%" viewBox="0 0 502 100" fill="none" xmlns="http://www.w3.org/2000/svg">
<g clip-path="url(#clip0_1378_242)">
<path d="M221.5 99.9856L161 99.9856L239.488 9.9067C239.488 9.9067 246.998 -3.8147e-05 261.423 -3.8147e-05H274.978H287V99.9856L233.5 99.9856V92.1009C233.5 90.2803 231.265 89.4065 230.03 90.7443L221.5 99.9856Z" fill="currentColor"/>
<path d="M51.5 100L0 100L87 2.38419e-06H138.5L70 78.75L51.5 100Z" fill="currentColor"/>
<path fill-rule="evenodd" clip-rule="evenodd" d="M156.6 0C179.1 0 202 9.5 202 41C202 43.738 201.862 46.3191 201.595 48.7519L170.5 84.4339C163.626 86.1809 156.118 86.8703 148.5 86.9699C147.396 86.9843 146.5 87.8635 146.5 88.9681V100L101 100V46.5L141.5 0H156.6ZM158.431 47.4826C160.063 47.4029 161.6 46.691 162.714 45.4984C163.828 44.3058 164.431 42.7265 164.396 41.0966C164.397 39.5044 163.773 37.9753 162.658 36.836C161.544 35.6968 160.026 35.0378 158.431 35H148C146.895 35 146 35.8954 146 37V45.4826C146 46.5872 146.895 47.4826 148 47.4826H158.431Z" fill="currentColor"/>
<path d="M204 46L166 89.5" stroke="black" stroke-width="0.1"/>
<path fill-rule="evenodd" clip-rule="evenodd" d="M406.273 35.8778C407.377 35.8778 408.273 36.7732 408.273 37.8778V100H415.078L451.935 57.7574V37.8778C451.935 36.7732 452.83 35.8778 453.935 35.8778H468.987L501.139 0H384V0.0258789H334.5C313.5 0.0258789 291.319 8 291.319 28.5C291.319 49 303 54.0727 311 57.5C314.375 58.9461 320.713 60.5928 327.564 62.1192C329.981 62.6576 329.563 67.1544 327.087 67.1544H291.319V100H358.5C391.66 100 398 87.3512 398 70.1839C398 53.0166 386 46.5088 374.5 43.9281C370.585 43.0494 366.164 41.9795 361.609 40.8771C361.024 40.7355 360.437 40.5934 359.849 40.4511C357.495 39.8821 357.941 35.8784 360.362 35.8784H393.725V35.8778H406.273Z" fill="currentColor"/>
</g>
<defs>
<clipPath id="clip0_1378_242">
<rect width="502" height="100" fill="currentColor"/>
</clipPath>
</defs>
</svg>
