<svg height="100%" viewBox="0 0 613 100" fill="none" xmlns="http://www.w3.org/2000/svg">
<path d="M408.237 35.8778H376V0H501L468.884 35.8778H451.851V57.7574L415.035 100H408.237V35.8778Z" fill="currentColor"/>
<path d="M307 60.5882C316.867 68.609 327.362 73.313 341 73.3017C347.463 73.3017 351.5 72.8994 351.5 69.0639C351.5 65.2283 349.194 64.8193 337.949 63.1309C319.207 60.2313 290.748 55.5882 290.748 31.3452C290.748 14.9569 306.776 0 337.949 0C351.053 0 363.225 2.23904 373.804 6.72358V27.9167L366.5 36.4326C357.32 30.5781 349.408 25.7987 337.949 25.4143C329.44 25.4143 327.5 27.1746 327.5 29.6521C327.5 33.3225 329.893 33.4179 342 35.1613C360.742 37.9141 388.898 43.9163 388.898 66.3241C388.898 87.6674 370.328 100 339.823 100C315.631 100 299.107 93.9071 287 84.621L307 60.5882Z" fill="currentColor"/>
<path d="M213 100H157L235.488 9.90816C235.488 9.90816 242.998 -6.84578e-07 257.423 -6.84578e-07H270.978H283V100L233 100L233 78.5109L213 100Z" fill="currentColor"/>
<path d="M262.348 67.8689H216.888V43.8633H262.348V67.8689Z" fill="currentColor"/>
<path fill-rule="evenodd" clip-rule="evenodd" d="M163.618 0C191.947 0 207.176 15.5987 207.176 34.3281C207.176 35.5415 207.112 36.7387 206.985 37.9167L183.428 65C172.771 68.8937 162.404 70.4032 144.5 70.4032L141.673 70.4032V100H99V50L141.673 0H163.618ZM158.967 26.4855H139V41.3851H158.967C161.392 41.3851 163.718 40.6003 165.433 39.2031C167.148 37.806 168.111 35.9112 168.111 33.9353C168.111 31.9595 167.148 30.0647 165.433 28.6675C163.718 27.2704 161.392 26.4855 158.967 26.4855Z" fill="currentColor"/>
<path d="M51.5 100L0 100L87 2.38419e-06H138.5L70 78.75L51.5 100Z" fill="currentColor"/>
</svg>
