<svg height="100%" viewBox="0 0 429 122" fill="none" xmlns="http://www.w3.org/2000/svg">
<g clip-path="url(#clip0_1239_2435)">
<path d="M336.237 44.4121H304V1H429L396.884 44.4121H379.851V70.8864L343.035 122H336.237V44.4121Z" fill="currentColor"/>
<path d="M222 71.5C231.867 80.9632 242.362 86.5134 256 86.5C262.463 86.5 266.5 86.0254 266.5 81.5C266.5 76.9746 264.194 76.492 252.949 74.5C234.207 71.0789 205.748 65.6007 205.748 36.9976C205.748 17.6618 221.776 0.0148926 252.949 0.0148926C271.519 0.0148926 288.215 5.31978 301.162 15.9512L281.5 43C272.32 36.0925 264.408 30.4535 252.949 30C244.44 30 242.5 32.0769 242.5 35C242.5 39.3305 244.893 39.443 257 41.5C275.742 44.7479 303.898 51.8296 303.898 78.2674C303.898 103.449 285.328 118 254.823 118C230.631 118 214.107 110.811 202 99.8551L222 71.5Z" fill="currentColor"/>
<path d="M125 120.992H69L147.488 11.988C147.488 11.988 154.998 -5.34058e-05 169.423 -5.34058e-05H182.978H195V120.992L145 120.992L145 94.9917L125 120.992Z" fill="currentColor"/>
<path d="M171.349 81.1157H125.889V52.071H171.349V81.1157Z" fill="currentColor"/>
<path fill-rule="evenodd" clip-rule="evenodd" d="M64.6176 0H0V121H42.6726V85.1878L45.5 85.1879C64.6176 85.1879 75.1414 83.1054 86.6014 77.6517C100.743 70.9221 108.176 57.3703 108.176 41.537C108.176 18.8744 92.9474 0 64.6176 0ZM59.9673 32.0475H40V50.076H59.9673C62.3923 50.076 64.7181 49.1263 66.4329 47.4358C68.1476 45.7453 69.111 43.4525 69.111 41.0618C69.111 38.671 68.1476 36.3782 66.4329 34.6877C64.7181 32.9972 62.3923 32.0475 59.9673 32.0475Z" fill="currentColor"/>
</g>
<defs>
<clipPath id="clip0_1239_2435">
<rect width="429" height="122" fill="currentColor"/>
</clipPath>
</defs>
</svg>
