<svg width="100%" viewBox="0 0 60 60" fill="none" xmlns="http://www.w3.org/2000/svg">
<path d="M45.1943 4.70508C57.6329 11.6965 60.5291 27.371 51.8737 43.2313C44.2682 57.1715 27.6599 63.1254 15.2841 56.0294C2.90641 48.9297 0.490906 29.1265 5.8105 17.7317C13.5338 1.18229 31.4509 -3.02184 45.1943 4.70508Z" fill="#007FA3"/>
<path d="M44.9059 16.731C47.341 19.2956 48.0984 23.1862 47.6765 26.378C47.1918 30.0169 44.9549 33.3849 41.2365 35.6166C38.2873 37.3896 34.4119 38.0942 30.5993 38.129C30.5679 38.7252 30.4482 40.7789 30.3873 41.104C30.299 41.5821 30.1283 41.8415 29.9203 42.1086C29.5102 42.637 28.7999 42.9758 28.0935 43.1751C27.5343 43.33 26.979 43.3997 26.5846 43.3997C26.5198 43.3997 26.455 43.3939 26.3903 43.388C25.9763 43.3416 25.5151 43.148 25.2306 42.8364C24.9461 42.5209 24.7852 42.126 24.7479 41.677L24.7165 41.2705C24.6361 40.9221 24.1946 23.2384 24.2789 23.5539C24.3437 21.4345 27.8109 21.0667 29.6927 21.4403C31.5784 21.8138 31.1016 24.0746 31.0506 26.8522C31.0506 26.8522 30.9603 30.5047 30.7857 34.3643C33.1874 34.2733 35.0947 33.5978 36.8784 32.7248C40.483 30.9596 42.3903 28.2555 42.3903 24.274C42.3903 20.2925 38.4619 15.8328 31.2115 15.8328C23.9611 15.8328 20.849 17.6368 17.3385 20.5015C16.5478 21.148 15.9375 21.7984 15.3626 22.2261C14.7857 22.6539 13.2532 22.7197 12.845 21.7171C12.3486 20.5092 13.2728 19.1621 13.8163 18.5098C14.6699 17.4858 16.7715 15.4244 19.1026 14.2263C21.7732 12.852 25.0383 11.3713 29.5848 11.2571C33.6976 11.1564 40.1926 11.4835 44.8705 16.6961M29.1806 46.0088C28.8019 45.7185 28.378 45.5191 27.9483 45.4359C27.8031 45.4069 27.652 45.3914 27.5048 45.3914C26.6964 45.3914 25.9017 45.8308 25.3837 46.5682C24.952 47.1799 24.7734 47.9135 24.8872 48.6219C24.9618 49.0768 25.1325 49.4697 25.3876 49.762C25.6721 50.091 26.1077 50.3446 26.6493 50.4975C26.9613 50.5827 27.2811 50.6291 27.601 50.6291H27.603C28.3015 50.6291 28.9294 50.4201 29.418 50.033C29.9851 49.5742 30.2932 48.9258 30.2873 48.1999C30.2795 47.358 29.8674 46.5353 29.1806 46.0088Z" fill="white"/>
</svg>
