<svg height="100%" viewBox="0 0 220 220" fill="none" xmlns="http://www.w3.org/2000/svg">
<g clip-path="url(#clip0_1395_574)">
<circle cx="110" cy="110" r="110" fill="#007FA3"/>
<path d="M165.713 17.252C211.321 42.8872 221.94 100.36 190.204 158.515C162.317 209.629 101.42 231.46 56.0418 205.441C10.6569 179.409 1.80007 106.797 21.3052 65.0163C49.624 4.33513 115.32 -11.08 165.713 17.252Z" fill="#007FA3"/>
<path d="M164.655 61.347C173.584 70.7505 176.361 85.016 174.814 96.7193C173.036 110.062 164.835 122.411 151.2 130.594C140.387 137.095 126.177 139.679 112.197 139.806C112.082 141.992 111.643 149.523 111.42 150.715C111.096 152.468 110.47 153.419 109.708 154.398C108.204 156.336 105.6 157.578 103.009 158.309C100.959 158.877 98.9229 159.132 97.4768 159.132C97.2392 159.132 97.0016 159.111 96.7643 159.089C95.2463 158.919 93.5553 158.209 92.5121 157.067C91.4689 155.91 90.879 154.462 90.7422 152.816L90.627 151.325C90.3322 150.048 88.7134 85.2074 89.0225 86.3643C89.2601 78.5931 101.973 77.2445 108.873 78.6144C115.787 79.9839 114.039 88.2735 113.852 98.458C113.852 98.458 113.521 111.851 112.881 126.002C121.687 125.669 128.68 123.192 135.221 119.991C148.438 113.519 155.431 103.603 155.431 89.0046C155.431 74.4058 141.027 58.0536 114.442 58.0536C87.8573 58.0536 76.4462 64.6682 63.5744 75.1721C60.6752 77.5426 58.4374 79.9274 56.3294 81.4957C54.2141 83.0643 48.595 83.3055 47.0982 79.6293C45.2781 75.2004 48.6668 70.261 50.6597 67.8692C53.7895 64.1146 61.4954 56.5561 70.0428 52.1631C79.835 47.124 91.807 41.6947 108.477 41.276C123.558 40.9068 147.373 42.1061 164.525 61.219M106.995 168.699C105.607 167.634 104.053 166.903 102.477 166.598C101.945 166.492 101.391 166.435 100.851 166.435C97.8867 166.435 94.9728 168.046 93.0734 170.75C91.4906 172.993 90.8357 175.683 91.253 178.28C91.5265 179.948 92.1524 181.389 93.0878 182.461C94.1309 183.667 95.7281 184.597 97.714 185.157C98.858 185.47 100.031 185.64 101.204 185.64H101.211C103.772 185.64 106.074 184.874 107.866 183.454C109.945 181.772 111.075 179.395 111.053 176.733C111.025 173.646 109.514 170.629 106.995 168.699Z" fill="white"/>
</g>
<defs>
<clipPath id="clip0_1395_574">
<rect width="220" height="220" fill="white"/>
</clipPath>
</defs>
</svg>
