<svg height="100%" viewBox="0 0 894 100" fill="none" xmlns="http://www.w3.org/2000/svg">
<g clip-path="url(#clip0_1296_604)">
<path fill-rule="evenodd" clip-rule="evenodd" d="M209.176 34.3453C209.176 15.6159 193.947 0.0172424 165.618 0.0172424H143L101 48.3506V100.017H143.673V70.4204L146.5 70.4204C165.618 70.4204 176.141 68.6994 187.601 64.1922C201.743 58.6305 209.176 47.4307 209.176 34.3453ZM160.967 26.5026H141V41.4022H160.967C163.392 41.4022 165.718 40.6173 167.433 39.2202C169.148 37.8231 170.111 35.9282 170.111 33.9524C170.111 31.9766 169.148 30.0817 167.433 28.6846C165.718 27.2875 163.392 26.5026 160.967 26.5026Z" fill="currentColor"/>
<path fill-rule="evenodd" clip-rule="evenodd" d="M277.794 0.0172424H213.176V100.017H255.849V70.4204L258.676 70.4204L282.176 100.017L330.558 100.017L299.778 64.1922C313.919 58.6305 321.353 47.4307 321.353 34.3453C321.353 15.6159 306.124 0.0172424 277.794 0.0172424ZM271.144 26.5026H251.176V41.4022H271.144C273.569 41.4022 275.894 40.6173 277.609 39.2202C279.324 37.8231 280.287 35.9282 280.287 33.9524C280.287 31.9766 279.324 30.0817 277.609 28.6846C275.894 27.2875 273.569 26.5026 271.144 26.5026Z" fill="currentColor"/>
<path fill-rule="evenodd" clip-rule="evenodd" d="M390.503 0.0172424C426.322 0.0172424 453.984 20.3004 453.984 50.0172C453.984 50.8582 453.962 51.6916 453.918 52.5172C453.705 56.5278 452.177 60.6155 449.85 64.6006H443.5L416.5 96.0825C408.621 98.6418 399.841 100.017 390.503 100.017C354.64 100.017 327 79.7341 327 50.0172C327 20.3004 354.662 0.0172424 390.503 0.0172424ZM390.677 32.5315C378.753 32.5315 370.711 40.5254 370.711 49.9809C370.711 59.4364 378.753 67.4303 390.677 67.4303C402.601 67.4303 410.643 59.4364 410.643 49.9809C410.643 40.5254 402.516 32.5315 390.677 32.5315Z" fill="currentColor"/>
<path d="M446 67.3726H454C454 67.3726 463.451 66.5187 463.451 57.6145V0.0172424H503.5V63.2007C503.5 88.3806 485.162 100.017 457.59 100.017H418L446 67.3726Z" fill="currentColor"/>
<path d="M589.5 0.0172424H507.5V100.017H589.5V67.4762H553.449V62.0824L571.788 62.0824V36.8902L553.449 36.8902V31.8069H589.5V0.0172424Z" fill="currentColor"/>
<path d="M654.923 0.0172424C618.999 0.0172424 591 20.2221 591 50.0349C591 79.7241 618.999 99.9996 654.966 100.017C686.734 100.017 702.456 84.6516 709.326 71.7587L672.996 57.1987C671.315 60.3854 670 61.8678 667.073 64.2518C663.578 66.2115 662 68.2725 655.246 68.2725C640.019 68.2195 632.607 61.1441 632.607 50.0349C632.607 37.7778 641.57 31.7796 653.868 31.7796C660 31.7796 661.757 32.6723 665.527 34.6547C670 37.1276 671.249 39.5071 672.996 42.8888L709.283 28.0992C702.305 14.7823 686.691 0.0172424 654.923 0.0172424Z" fill="currentColor"/>
<path d="M744.202 35.895H713V0.0172424L842.585 0.0172424L811.5 35.895H786.415V57.7746L750.782 100.017H744.202V35.895Z" fill="currentColor"/>
<path d="M812 60.6055C821.867 68.6262 832.362 73.3303 846 73.319C852.463 73.319 856.5 72.9167 856.5 69.0811C856.5 65.2456 854.194 64.8366 842.949 63.1482C824.207 60.2486 795.748 55.6054 795.748 31.3624C795.748 14.9741 811.776 0.0172424 842.949 0.0172424C861.519 0.0172424 878.215 4.51348 891.162 13.5243L871.5 36.4499C862.32 30.5953 854.408 25.816 842.949 25.4315C834.44 25.4315 832.5 27.1918 832.5 29.6694C832.5 33.3398 834.893 33.4351 847 35.1785C865.742 37.9313 893.898 43.9336 893.898 66.3413C893.898 87.6847 875.328 100.017 844.823 100.017C820.631 100.017 804.107 93.9244 792 84.6383L812 60.6055Z" fill="currentColor"/>
<path d="M51.5 100L0 100L87 2.38419e-06H138.5L70 78.75L51.5 100Z" fill="currentColor"/>
</g>
<defs>
<clipPath id="clip0_1296_604">
<rect width="894" height="100" fill="currentColor"/>
</clipPath>
</defs>
</svg>
