<svg height="100%" viewBox="0 0 879 101" fill="none" xmlns="http://www.w3.org/2000/svg">
<g clip-path="url(#clip0_1378_151)">
<path fill-rule="evenodd" clip-rule="evenodd" d="M374.503 0.0172119C410.322 0.0172119 437.984 20.3004 437.984 50.0172C437.984 50.8582 437.962 51.6916 437.918 52.5172C437.705 56.5278 436.177 60.6155 433.85 64.6005H427.5L400.5 96.0824C392.621 98.6417 383.841 100.017 374.503 100.017C338.64 100.017 311 79.734 311 50.0172C311 20.3004 338.662 0.0172119 374.503 0.0172119ZM374.677 36.5315C362.753 36.5315 358.711 40.5254 358.711 49.9809C358.711 59.4363 362.753 63.4303 374.677 63.4303C386.601 63.4303 390.643 59.4363 390.643 49.9809C390.643 40.5254 386.516 36.5315 374.677 36.5315Z" fill="currentColor"/>
<path d="M430 67.3726H438C438 67.3726 447.451 66.5187 447.451 57.6144V0.0172119H487.5V63.2007C487.5 88.3805 469.162 100.017 441.59 100.017H402L430 67.3726Z" fill="currentColor"/>
<path d="M582 0.0172119L492 0.0172521V100.017L582 100.017V67.4761L539.695 67.4761C538.59 67.4761 537.695 66.5807 537.695 65.4761V64.0824C537.695 62.9778 538.59 62.0824 539.695 62.0824L564.386 62.0824V36.8902L539.695 36.8902C538.59 36.8902 537.695 35.9947 537.695 34.8902V33.8069C537.695 32.7023 538.59 31.8069 539.695 31.8069L582 31.8068V0.0172119Z" fill="currentColor"/>
<path d="M696.313 28.0992C689.373 14.7823 673.842 0.0172119 642.245 0.0172119C617.788 0.0172119 597.024 9.48329 586.356 25.0172V74.9838C597.027 90.5013 617.8 100.005 642.288 100.017C673.885 100.017 689.522 84.6516 696.356 71.7586L661.899 57.8748C660.946 57.4909 659.868 57.9011 659.295 58.7534C655.645 64.1795 649.422 66.2725 642.566 66.2725C627.421 66.2195 624.028 61.144 624.028 50.0349C624.028 37.7777 628.964 33.7796 641.195 33.7796C648.902 33.7796 655.327 35.1447 659.303 41.2972C659.867 42.1692 660.958 42.5864 661.919 42.1928L696.313 28.0992Z" fill="currentColor"/>
<path d="M733.273 37.895C733.273 36.7904 732.377 35.895 731.273 35.895H701V0.0172119H826.139L793.987 35.895H778.935C777.83 35.895 776.935 36.7904 776.935 37.895V57.7746L740.078 100.017H733.273V37.895Z" fill="currentColor"/>
<path d="M797 60.6055C806.867 68.6262 817.362 73.3303 831 73.3189C837.463 73.3189 841.5 72.9167 841.5 69.0811C841.5 65.2455 839.194 64.8365 827.949 63.1481C809.207 60.2485 780.748 55.6054 780.748 31.3624C780.748 14.9741 796.776 0.0172119 827.949 0.0172119C846.519 0.0172119 863.215 4.51345 876.162 13.5243L856.5 36.4499C847.32 30.5953 839.408 25.8159 827.949 25.4315C819.44 25.4315 817.5 27.1918 817.5 29.6693C817.5 33.3397 819.893 33.4351 832 35.1785C850.742 37.9313 878.898 43.9335 878.898 66.3413C878.898 87.6847 860.328 100.017 829.823 100.017C805.631 100.017 789.107 93.9243 777 84.6382L797 60.6055Z" fill="currentColor"/>
<path d="M51.5 100L0 100L87 2.38419e-06H138.5L70 78.75L51.5 100Z" fill="currentColor"/>
<path fill-rule="evenodd" clip-rule="evenodd" d="M206 0H261.6C284.1 0 307 9.5 307 41C307 65.1887 295.936 71.5906 289.784 75.1508C289.577 75.2702 289.377 75.3864 289.182 75.5L307 100L261.6 100L255.08 91.5971C253.912 90.0916 251.5 90.9176 251.5 92.8231V100L206 100V0ZM263.431 47.4826C265.063 47.4029 266.6 46.691 267.714 45.4984C268.828 44.3058 269.431 42.7265 269.396 41.0966C269.397 39.5044 268.773 37.9753 267.658 36.836C266.544 35.6968 265.026 35.0378 263.431 35H253C251.895 35 251 35.8954 251 37V45.4826C251 46.5872 251.895 47.4826 253 47.4826H263.431Z" fill="currentColor"/>
<path fill-rule="evenodd" clip-rule="evenodd" d="M206 0H261.6C284.1 0 307 9.5 307 41C307 78.588 280.958 86.6109 253.501 86.9699C252.396 86.9843 251.5 87.8635 251.5 88.9681V100L206 100V0ZM263.431 47.4826C265.063 47.4029 266.6 46.691 267.714 45.4984C268.828 44.3058 269.431 42.7265 269.396 41.0966C269.397 39.5044 268.773 37.9753 267.658 36.836C266.544 35.6968 265.026 35.0378 263.431 35H253C251.895 35 251 35.8954 251 37V45.4826C251 46.5872 251.895 47.4826 253 47.4826H263.431Z" fill="currentColor"/>
<path fill-rule="evenodd" clip-rule="evenodd" d="M156.6 0C179.1 0 202 9.5 202 41C202 78.588 175.958 86.6109 148.501 86.9699C147.396 86.9843 146.5 87.8635 146.5 88.9681V100L101 100V46.5L141.5 0H156.6ZM158.431 47.4826C160.063 47.4029 161.6 46.691 162.714 45.4984C163.828 44.3058 164.431 42.7265 164.396 41.0966C164.397 39.5044 163.773 37.9753 162.658 36.836C161.544 35.6968 160.026 35.0378 158.431 35H148C146.895 35 146 35.8954 146 37V45.4826C146 46.5872 146.895 47.4826 148 47.4826H158.431Z" fill="currentColor"/>
</g>
<defs>
<clipPath id="clip0_1378_151">
<rect width="879" height="101" fill="currentColor"/>
</clipPath>
</defs>
</svg>
