<svg height="100%" viewBox="0 0 912 100" fill="none" xmlns="http://www.w3.org/2000/svg">
<g clip-path="url(#clip0_1378_151)">
<path fill-rule="evenodd" clip-rule="evenodd" d="M378.503 0.0172119C414.322 0.0172119 441.984 20.3004 441.984 50.0172C441.984 50.8582 441.962 51.6916 441.918 52.5172C441.705 56.5278 440.177 60.6154 437.85 64.6005H433.339C432.172 64.6005 431.063 65.1104 430.303 65.9965L404.5 96.0824C396.621 98.6417 387.841 100.017 378.503 100.017C342.64 100.017 315 79.734 315 50.0172C315 20.3004 342.662 0.0172119 378.503 0.0172119ZM378.677 36.5315C366.753 36.5315 362.711 40.5254 362.711 49.9809C362.711 59.4363 366.753 63.4303 378.677 63.4303C390.601 63.4303 394.643 59.4363 394.643 49.9809C394.643 40.5254 390.516 36.5315 378.677 36.5315Z" fill="currentColor"/>
<path d="M432.803 68.7684C433.563 67.8824 434.672 67.3726 435.839 67.3726H442C442 67.3726 451.451 66.5187 451.451 57.6144V0.0172119H491.5V63.2007C491.5 88.3805 473.162 100.017 445.59 100.017H406L432.803 68.7684Z" fill="currentColor"/>
<path d="M586 0.0172119L496 0.0172521V100.017L586 100.017V67.4761L543.695 67.4761C542.59 67.4761 541.695 66.5807 541.695 65.4761V64.0824C541.695 62.9778 542.59 62.0824 543.695 62.0824L568.386 62.0824V36.8902L543.695 36.8902C542.59 36.8902 541.695 35.9947 541.695 34.8902V33.8069C541.695 32.7023 542.59 31.8069 543.695 31.8069L586 31.8068V0.0172119Z" fill="currentColor"/>
<path d="M700.313 28.0992C693.373 14.7823 677.842 0.0172119 646.245 0.0172119C621.788 0.0172119 601.024 9.48329 590.356 25.0172V74.9838C601.027 90.5013 621.8 100.005 646.288 100.017C677.885 100.017 693.522 84.6516 700.356 71.7586L665.899 57.8748C664.946 57.4909 663.868 57.9011 663.295 58.7534C659.645 64.1795 653.422 66.2725 646.566 66.2725C631.421 66.2195 628.028 61.144 628.028 50.0349C628.028 37.7777 632.964 33.7796 645.195 33.7796C652.902 33.7796 659.327 35.1447 663.303 41.2972C663.867 42.1692 664.958 42.5864 665.919 42.1928L700.313 28.0992Z" fill="currentColor"/>
<path fill-rule="evenodd" clip-rule="evenodd" d="M912 0H834.181C833.619 0 833.056 0.00571284 832.493 0.0172258L705 0.0172119V35.895H735.273C736.377 35.895 737.273 36.7904 737.273 37.895V100.017H744.078L780.935 57.7746V37.895C780.935 36.7904 781.83 35.895 782.935 35.895L791.587 35.895C794.05 50.3109 803.748 54.518 810.681 57.489C814.058 58.9359 820.399 60.5837 827.252 62.1109C829.669 62.6494 829.251 67.1459 826.775 67.1459H791V100H858.181C891.341 100 897.681 87.3479 897.681 70.1762C897.681 53.0044 885.681 46.4949 874.181 43.9135C870.266 43.0348 865.846 41.9647 861.292 40.8621L859.524 40.4344C857.171 39.8653 857.617 35.8618 860.038 35.8618H881L912 0Z" fill="currentColor"/>
<path d="M51.5 100L0 100L87 2.38419e-06H138.5L70 78.75L51.5 100Z" fill="currentColor"/>
<path fill-rule="evenodd" clip-rule="evenodd" d="M312 41C312 9.5 287.059 0 262.554 0H202V100L251.554 100V92.4483C251.554 90.5845 253.879 89.7338 255.082 91.1574L262.554 100L312 100L294.381 77.7566C305.04 70.9843 312 59.6195 312 41ZM269.213 45.4984C267.999 46.691 266.326 47.4029 264.549 47.4826H253.01C251.905 47.4826 251.01 46.5872 251.01 45.4826V37C251.01 35.8954 251.905 35 253.01 35H264.549C266.286 35.0378 267.939 35.6968 269.152 36.836C270.367 37.9753 271.046 39.5044 271.045 41.0966C271.083 42.7265 270.426 44.3058 269.213 45.4984Z" fill="currentColor"/>
<path fill-rule="evenodd" clip-rule="evenodd" d="M150.554 100L101 100V46.5L142 0H161.554C175.433 0 189.452 3.04739 199 11.4131V73.4128C187.919 83.833 170.505 86.7747 152.555 86.9719C151.45 86.984 150.554 87.8635 150.554 88.9681V100ZM163.549 47.4826C165.326 47.4029 166.999 46.691 168.213 45.4984C169.426 44.3058 170.084 42.7265 170.045 41.0966C170.046 39.5044 169.367 37.9753 168.152 36.836C166.938 35.6968 165.286 35.0378 163.549 35H152.01C150.905 35 150.01 35.8954 150.01 37V45.4826C150.01 46.5872 150.905 47.4826 152.01 47.4826H163.549Z" fill="currentColor"/>
</g>
<defs>
<clipPath id="clip0_1378_151">
<rect width="912" height="101" fill="currentColor"/>
</clipPath>
</defs>
</svg>
