<svg height="100%" viewBox="0 0 812 121" fill="none" xmlns="http://www.w3.org/2000/svg">
<g clip-path="url(#clip0_1231_2133)">
<path d="M716 74.5C725.867 83.9633 736.362 89.5134 750 89.5C756.463 89.5 760.5 89.0254 760.5 84.5C760.5 79.9746 758.194 79.492 746.949 77.5C728.207 74.0789 699.748 68.6007 699.748 39.9976C699.748 20.6618 715.776 3.01492 746.949 3.01492C765.519 3.01492 782.215 8.31981 795.162 18.9512L775.5 46C766.32 39.0925 758.408 33.4536 746.949 33C738.44 33 736.5 35.0769 736.5 38C736.5 42.3305 738.893 42.443 751 44.5C769.742 47.7479 797.898 54.8296 797.898 81.2674C797.898 106.449 779.328 121 748.823 121C724.631 121 708.107 113.811 696 102.855L716 74.5Z" fill="currentColor"/>
<path d="M652.202 44.6156H621V2.99082H741.987L710.902 44.6156H694.415V70L658.782 119.009H652.202V44.6156Z" fill="currentColor"/>
<path d="M563.923 0C527.999 0 500 24.5004 500 60.6514C500 96.6525 527.999 121.239 563.966 121.26C595.734 121.26 611.456 102.628 618.326 86.9937L581.996 69.3382C580.315 73.2025 579 75 576.073 77.8908C572.578 80.2672 571 82.7664 564.246 82.7664C549.019 82.7021 541.607 74.1224 541.607 60.6514C541.607 45.7884 550.57 38.5151 562.868 38.5151C569 38.5151 570.757 39.5976 574.527 42.0013C579 45 580.249 47.8854 581.996 51.986L618.283 34.0522C611.305 17.9042 595.691 0 563.923 0Z" fill="currentColor"/>
<path d="M496 0H414V121H496V81.6253H459.949V75.0989L478.288 75.0989V44.6163L459.949 44.6162V38.4655H496V0Z" fill="currentColor"/>
<path d="M348.545 79.4418C353.147 81.4918 355.299 83.3487 360.817 83.5418C366.336 83.7349 369.951 80.4668 369.951 69.6926V0H410V76.452C410 106.92 391.662 121 364.09 121C352.532 121 340.191 118.519 331 111.381L348.545 79.4418Z" fill="currentColor"/>
<path fill-rule="evenodd" clip-rule="evenodd" d="M283.503 0C319.322 0 346.984 24.3316 346.984 59.9798C346.984 95.628 319.365 119.96 283.503 119.96C247.64 119.96 220 95.628 220 59.9798C220 24.3316 247.662 0 283.503 0ZM283.677 39.0042C271.753 39.0042 263.711 48.5937 263.711 59.9365C263.711 71.2792 271.753 80.8687 283.677 80.8687C295.601 80.8687 303.643 71.2792 303.643 59.9365C303.643 48.5937 295.516 39.0042 283.677 39.0042Z" fill="currentColor"/>
<path fill-rule="evenodd" clip-rule="evenodd" d="M175.618 0H111V121H153.673V85.1878L156.5 85.1879L180 121L228.381 121L197.601 77.6517C211.743 70.9221 219.176 57.3703 219.176 41.537C219.176 18.8744 203.947 0 175.618 0ZM170.967 32.0475H151V50.076H170.967C173.392 50.076 175.718 49.1263 177.433 47.4358C179.148 45.7453 180.111 43.4525 180.111 41.0618C180.111 38.671 179.148 36.3782 177.433 34.6877C175.718 32.9972 173.392 32.0475 170.967 32.0475Z" fill="currentColor"/>
<path fill-rule="evenodd" clip-rule="evenodd" d="M64.6176 0H0V121H42.6726V85.1878L45.5 85.1879C64.6176 85.1879 75.1414 83.1054 86.6014 77.6517C100.743 70.9221 108.176 57.3703 108.176 41.537C108.176 18.8744 92.9474 0 64.6176 0ZM59.9673 32.0475H40V50.076H59.9673C62.3923 50.076 64.7181 49.1263 66.4329 47.4358C68.1476 45.7453 69.111 43.4525 69.111 41.0618C69.111 38.671 68.1476 36.3782 66.4329 34.6877C64.7181 32.9972 62.3923 32.0475 59.9673 32.0475Z" fill="currentColor"/>
</g>
<defs>
<clipPath id="clip0_1231_2133">
<rect width="812" height="121" fill="currentColor"/>
</clipPath>
</defs>
</svg>
