<svg height="100%" viewBox="0 0 1681 165" fill="none" xmlns="http://www.w3.org/2000/svg">
<g id="projects">
<g id="nahiyan">
<g id="Frame 54">
<path id="path260" d="M85.5756 164.235C85.1964 164.718 84.6165 165 84.0025 165L4.1131 165C2.44456 165 1.50964 163.077 2.54004 161.765L128.949 0.764909C129.329 0.282004 129.909 0 130.523 0H210.412C212.08 0 213.015 1.92273 211.985 3.2351L85.5756 164.235Z" fill="currentColor"/>
</g>
<path id="p" fill-rule="evenodd" clip-rule="evenodd" d="M336.199 83.2629C336.719 82.5703 337 81.7278 337 80.8618V4C337 1.79086 335.231 0 333.022 0C325.983 0 306.487 0 252.493 0H221.276C220.048 0 218.889 0.563466 218.131 1.5285L149.855 88.4121C149.301 89.1169 149 89.9873 149 90.8836V161C149 163.209 150.791 165 153 165L222.288 165H241.087H301.492C303.701 165 305.492 163.209 305.492 161V125.513C305.492 124.647 305.773 123.805 306.292 123.112L336.199 83.2629ZM244.808 99.4434C244.051 100.429 242.884 101.007 241.641 101.007C238.324 101.007 231.42 101.007 225.74 101.007C223.531 101.007 221.74 99.216 221.74 97.0069V68.2618C221.74 66.0526 223.524 64.2618 225.733 64.2618C234.65 64.2618 251.192 64.2618 260.109 64.2618C262.318 64.2618 264.102 66.0526 264.102 68.2618V72.964C264.102 73.8452 263.811 74.7017 263.274 75.4005L244.808 99.4434Z" fill="currentColor"/>
<path id="r" fill-rule="evenodd" clip-rule="evenodd" d="M528.199 83.2629C528.719 82.5703 529 81.7278 529 80.8618V4C529 1.79086 527.231 0 525.022 0C517.983 0 498.487 0 444.493 0H345C342.791 0 341 1.79086 341 4V161C341 163.209 342.791 165 345 165L414.288 165H433.087L520.86 165C524.181 165 526.056 161.185 524.026 158.556L499.352 126.589C498.253 125.165 498.239 123.183 499.319 121.744L528.199 83.2629ZM436.808 99.4434C436.051 100.429 434.884 101.007 433.641 101.007C430.324 101.007 423.42 101.007 417.74 101.007C415.531 101.007 413.74 99.216 413.74 97.0069V68.2618C413.74 66.0526 415.524 64.2618 417.733 64.2618C426.65 64.2618 443.192 64.2618 452.109 64.2618C454.318 64.2618 456.102 66.0526 456.102 68.2618V72.964C456.102 73.8452 455.811 74.7017 455.274 75.4005L436.808 99.4434Z" fill="currentColor"/>
<path id="o" fill-rule="evenodd" clip-rule="evenodd" d="M721 4C721 1.79086 719.209 0 717 0H537C534.791 0 533 1.79086 533 4V161C533 163.209 534.791 165 537 165H717C719.209 165 721 163.209 721 161V4ZM648.298 68.4131C648.298 66.2039 646.507 64.4131 644.298 64.4131H609.702C607.493 64.4131 605.702 66.2039 605.702 68.4131V97.1923C605.702 99.4014 607.493 101.192 609.702 101.192H644.298C646.507 101.192 648.298 99.4014 648.298 97.1923V68.4131Z" fill="currentColor"/>
<path id="f" d="M727 6.55495e-05L891.953 0H911C912.105 0 913 0.895428 913 2V63.7196V163C913 164.105 912.105 165 911 165H832.768C832.155 165 831.576 164.719 831.197 164.238L791.64 114.065C790.606 112.753 791.54 110.827 793.211 110.827H849.798C850.902 110.827 851.798 109.931 851.798 108.827V82.3882V65.7196C851.798 64.615 850.902 63.7196 849.798 63.7196H727C725.895 63.7196 725 62.8241 725 61.7196V2.00007C725 0.895496 725.895 6.59884e-05 727 6.55495e-05Z" fill="currentColor"/>
<path id="e" d="M1101 0H921C918.791 0 917 1.79086 917 4V161C917 163.209 918.791 165 921 165H1101C1103.21 165 1105 163.209 1105 161V114.214C1105 112.007 1103.21 110.217 1101.01 110.214L1022.65 110.103C1020.44 110.1 1018.66 108.31 1018.66 106.103V105.197C1018.66 102.988 1020.45 101.197 1022.66 101.197L1063.28 101.197C1065.48 101.197 1067.28 99.4065 1067.28 97.1974V68.4247C1067.28 66.2155 1065.48 64.4247 1063.28 64.4247L1022.66 64.4247C1020.45 64.4247 1018.66 62.6338 1018.66 60.4247V59.4782C1018.66 57.269 1020.45 55.4782 1022.66 55.4782L1101 55.4782C1103.21 55.4782 1105 53.6873 1105 51.4782V4C1105 1.79086 1103.21 0 1101 0Z" fill="currentColor"/>
<path id="u" fill-rule="evenodd" clip-rule="evenodd" d="M1292.44 165C1294.96 165 1297 163.428 1297 161.489V101.192V63.8078V3.51064C1297 1.57177 1294.96 -2.31208e-08 1292.44 0L1113.56 1.64316e-06C1111.04 1.66628e-06 1109 1.57177 1109 3.51064L1109 161.489C1109 163.428 1111.04 165 1113.56 165H1292.44ZM1297 101.192V63.8078H1186.26C1183.74 63.8078 1181.7 65.3796 1181.7 67.3185V97.6815C1181.7 99.6204 1183.74 101.192 1186.26 101.192H1297Z" fill="currentColor"/>
<path id="t" d="M1333.63 65.9074C1333.63 64.8028 1332.74 63.9074 1331.63 63.9074H1303C1301.9 63.9074 1301 63.0119 1301 61.9074L1301 2C1301 0.89543 1301.9 0 1303 0H1487C1488.1 0 1489 0.895431 1489 2V61.9074C1489 63.0119 1488.1 63.9074 1487 63.9074H1457.01C1455.91 63.9074 1455.01 64.8028 1455.01 65.9074V163C1455.01 164.105 1454.12 165 1453.01 165H1335.63C1334.53 165 1333.63 164.105 1333.63 163V65.9074Z" fill="currentColor"/>
<path id="s" fill-rule="evenodd" clip-rule="evenodd" d="M1541.46 0H1672.92C1676.23 0 1678.11 3.79307 1676.1 6.4258L1651.58 38.5666C1650.5 39.9892 1650.49 41.9594 1651.56 43.3912L1680.2 81.6023C1680.72 82.2945 1681 83.1362 1681 84.0012V161C1681 163.209 1679.21 165 1677 165H1639.61H1501.3C1497.95 165 1496.08 161.129 1498.17 158.508L1531.14 117.093C1532.3 115.641 1532.31 113.585 1531.16 112.127L1493.86 64.7574C1493.3 64.0521 1493 63.1805 1493 62.2828V4C1493 1.79086 1494.79 0 1497 0H1541.46Z" fill="currentColor"/>
</g>
</g>
</svg>
