<svg xmlns="http://www.w3.org/2000/svg" viewBox="0 0 382.2 56.99" height="100%"><g id="proj" fill="currentColor" opacity="1" transform-origin="97.92500305175781px 28.26999855041504px" style="transform: none; transform-origin: 97.925px 28.27px;"><path d="M0 1h29.15C41.93 1 48.8 9.52 48.8 19.75S41.93 38.1 29.15 38.1H16.54v17.52H0Zm27 13.76H16.54v9.58H27a4.79 4.79 0 1 0 0-9.58ZM74.33 38.1h-6v17.52H51.81V1H81c12.78 0 19.65 8.52 19.65 18.75 0 9.42-5.48 14.41-9.82 16.54l13.84 19.33H85.8Zm4.09-23.34H68.35v9.58h10.07c2.79 0 5.41-1.8 5.41-4.83s-2.62-4.75-5.41-4.75ZM166.2 39.57a12.74 12.74 0 0 0 7.05 2.43c3.6 0 6.05-2.3 6.05-6.15V1h16.55v35.13c0 14-8.44 20.47-21.13 20.47-5.32 0-11-1.14-15.23-4.42ZM133.66.06c16.86 0 29.88 11.46 29.88 28.25s-13 28.25-29.88 28.25-29.89-11.46-29.89-28.25S116.79.06 133.66.06Zm0 17c-6.55 0-10.8 5-10.8 11.26s4.25 11.26 10.8 11.26 10.79-5 10.79-11.26S140.2 17 133.66 17Z" transform="translate(0 -.06)"></path></g><g id="ects" fill="currentColor" opacity="1" transform-origin="291.1949996948242px 28.75500053167343px" style="transform: none; transform-origin: 291.195px 28.755px;"><path d="M200.2 1.45h41.44v13.76h-24.89v6.38h24.32v13.76h-24.32v7h24.89v13.72H200.2ZM244.67 28.8c0-16.87 12.94-28.25 29.65-28.25 14.74 0 21.94 8.35 25.22 15.89l-15.92 7.38a10.31 10.31 0 0 0-9.8-6.28c-5.71 0-10.79 4.33-10.79 11.26 0 6.28 4.37 11.21 11.43 11.25a10.46 10.46 0 0 0 9.16-6.26l15.92 7.29c-3.2 7.29-10.48 16-25.22 16-16.71-.03-29.65-11.49-29.65-28.28ZM343.21 35.7a24.59 24.59 0 0 0 17 6.8c3 0 5.85-1 5.85-3.09s-2.21-3.08-7.43-4c-8.7-1.58-22-3.64-22-16.85 0-8.93 7.44-17.08 21.91-17.08 8.62 0 16.37 2.45 22.38 7.36l-8.54 11.31a26.27 26.27 0 0 0-14.71-5.22c-3.95 0-4.82 1.42-4.82 2.77 0 2 2.13 2.76 7.75 3.71 8.7 1.5 21.59 4 21.59 16.21 0 11.63-8.62 18.35-22.78 18.35-11.23 0-18.9-3.32-24.52-8.38Z" transform="translate(0 -.06)"></path><path d="M316.4 15.86h-14.65V1.45h56.8l-10.23 14.41H333v21.45l-13.51 18.76h-3.09Z" transform="translate(0 -.06)"></path></g></svg>