<svg height="100%" viewBox="0 0 927 101" fill="none" xmlns="http://www.w3.org/2000/svg">
<path fill-rule="evenodd" clip-rule="evenodd" d="M144 0H200.406V35.8525H167.043C164.622 35.8525 164.176 39.8562 166.53 40.4252C171.702 41.6757 176.763 42.9107 181.181 43.9022C192.681 46.4829 204.681 52.9907 204.681 70.158C204.681 87.3253 198.341 99.9742 165.181 99.9742H98V67.1285H133.768C136.244 67.1285 136.662 62.6317 134.245 62.0933C127.394 60.5669 121.057 58.9202 117.681 57.4741C113.025 55.4793 107.121 52.927 103 47.0998L144 0Z" fill="currentColor"/>
<path d="M399 0.0172729L309 0.0173132V100.017L399 100.017V67.4762L356.695 67.4762C355.59 67.4762 354.695 66.5808 354.695 65.4762V64.0825C354.695 62.9779 355.59 62.0825 356.695 62.0825L381.386 62.0825V36.8902L356.695 36.8902C355.59 36.8902 354.695 35.9948 354.695 34.8902V33.8069C354.695 32.7024 355.59 31.8069 356.695 31.8069L399 31.8069V0.0172729Z" fill="currentColor"/>
<path d="M512.957 28.082C506.017 14.7652 490.486 6.10352e-05 458.889 6.10352e-05C434.432 6.10352e-05 413.668 9.46614 403 25.0001V74.9667C413.671 90.4842 434.444 99.988 458.932 100C490.529 100 506.167 84.6345 513 71.7415L478.543 57.8576C477.59 57.4738 476.512 57.884 475.939 58.7363C472.289 64.1623 466.066 66.2553 459.21 66.2553C444.065 66.2024 440.672 61.1269 440.672 50.0177C440.672 37.7606 445.608 33.7624 457.839 33.7624C465.546 33.7624 471.971 35.1275 475.947 41.2801C476.511 42.152 477.602 42.5693 478.563 42.1756L512.957 28.082Z" fill="currentColor"/>
<path fill-rule="evenodd" clip-rule="evenodd" d="M748.273 35.8778C749.377 35.8778 750.273 36.7732 750.273 37.8778V100H757.078L793.935 57.7575V37.8778C793.935 36.7732 794.83 35.8778 795.935 35.8778H811.382C821.498 47.2959 830.146 57.0167 830.146 57.0167V99.9857H858L877.146 79.5001V57.0167L926.146 6.10352e-05H866L855.078 11.4803C854.296 12.3022 852.988 12.3099 852.196 11.4971L841 6.10352e-05H812.987H780H718V35.8778H748.273Z" fill="currentColor"/>
<path d="M564.356 6.10352e-05H518V100L530.5 100L564.356 62.0001V6.10352e-05Z" fill="currentColor"/>
<path d="M597.5 99.9856L537 99.9856L615.488 9.9067C615.488 9.9067 622.998 -3.8147e-05 637.423 -3.8147e-05H650.978H663V99.9856L609.5 99.9856V92.1009C609.5 90.2803 607.265 89.4065 606.03 90.7443L597.5 99.9856Z" fill="currentColor"/>
<path d="M734 62.3554H724.096H717.666C715.457 62.3554 713.666 60.5646 713.666 58.3554V6.10352e-05H667V63.1835V96.0001C667 98.2092 668.791 100 671 100H734V62.3554Z" fill="currentColor"/>
<path fill-rule="evenodd" clip-rule="evenodd" d="M257.554 100L208 100V46.5V0H252.109H268.554C281.723 0 295.018 2.74354 304.5 10.1706V74.7461C293.385 84.0867 276.714 86.7834 259.555 86.9719C258.45 86.984 257.554 87.8635 257.554 88.9681V100ZM270.549 47.4826C272.326 47.4029 273.999 46.691 275.213 45.4984C276.426 44.3058 277.084 42.7265 277.045 41.0966C277.046 39.5044 276.367 37.9753 275.152 36.836C273.938 35.6968 272.286 35.0378 270.549 35H259.01C257.905 35 257.01 35.8954 257.01 37V45.4826C257.01 46.5872 257.905 47.4826 259.01 47.4826H270.549Z" fill="currentColor"/>
<path d="M51.5 100L0 100L87 2.38419e-06H138.5L70 78.75L51.5 100Z" fill="currentColor"/>
</svg>
